<?xml version="1.0" standalone="no" ?>
<!DOCTYPE svg PUBLIC "-//W3C//DTD SVG 1.1//EN" "http://www.w3.org/Graphics/SVG/1.1/DTD/svg11.dtd">
<svg width="892px" height="89px" xmlns="http://www.w3.org/2000/svg" version="1.1" viewBox="0 0 892 89" >
	<style type="text/css" > <![CDATA[
		@import url("https://www.ncbi.nlm.nih.gov/projects/sviewer/css/svg_fonts.css");
	]]>
	</style>
	<desc >Generated by NCBI Genome Workbench http://www.ncbi.nlm.nih.gov/tools/gbench/</desc>
	<defs >
		<clipPath id="clipping-rect1" >
			<rect x="0" y="14" width="892" height="20" />
		</clipPath>
		<linearGradient id="gradient1" gradientTransform="rotate(90)" >
			<stop offset="0%" stop-color="#6c6c6c" />
			<stop offset="50%" stop-color="#b5b5b5" />
			<stop offset="100%" stop-color="#6c6c6c" />
		</linearGradient>
		<linearGradient id="gradient2" gradientTransform="rotate(90)" >
			<stop offset="0%" stop-color="#10c010" />
			<stop offset="50%" stop-color="#87df87" />
			<stop offset="100%" stop-color="#10c010" />
		</linearGradient>
		<linearGradient id="gradient3" gradientTransform="rotate(90)" >
			<stop offset="0%" stop-color="#166e32" />
			<stop offset="50%" stop-color="#8ab698" />
			<stop offset="100%" stop-color="#166e32" />
		</linearGradient>
		<clipPath id="clipping-rect2" >
			<rect x="0" y="34" width="892" height="55" />
		</clipPath>
		<linearGradient id="gradient4" gradientTransform="rotate(90)" >
			<stop offset="0%" stop-color="#e6e6e6" stop-opacity="0.71" />
			<stop offset="100%" stop-color="#ffffff" stop-opacity="0.00" />
		</linearGradient>
	</defs>
	<g >
		<polygon fill="#ffffff" shape-rendering="crispEdges" points="892.00,33.00 892.00,13.00 0.00,13.00 0.00,33.00 " />
		<line x1="0.04" y1="31.00" x2="892.00" y2="31.00" stroke="#7f7f7f" stroke-width="1.00" clip-path="url('#clipping-rect1')" />
		<line x1="884.24" y1="31.00" x2="884.24" y2="29.00" stroke="#7f7f7f" stroke-width="1.00" clip-path="url('#clipping-rect1')" />
		<line x1="875.58" y1="31.00" x2="875.58" y2="28.00" stroke="#7f7f7f" stroke-width="1.00" clip-path="url('#clipping-rect1')" />
		<line x1="866.91" y1="31.00" x2="866.91" y2="29.00" stroke="#7f7f7f" stroke-width="1.00" clip-path="url('#clipping-rect1')" />
		<line x1="858.25" y1="31.00" x2="858.25" y2="29.00" stroke="#7f7f7f" stroke-width="1.00" clip-path="url('#clipping-rect1')" />
		<line x1="849.58" y1="31.00" x2="849.58" y2="29.00" stroke="#7f7f7f" stroke-width="1.00" clip-path="url('#clipping-rect1')" />
		<line x1="840.92" y1="31.00" x2="840.92" y2="29.00" stroke="#7f7f7f" stroke-width="1.00" clip-path="url('#clipping-rect1')" />
		<line x1="832.25" y1="31.00" x2="832.25" y2="29.00" stroke="#7f7f7f" stroke-width="1.00" clip-path="url('#clipping-rect1')" />
		<line x1="823.59" y1="31.00" x2="823.59" y2="29.00" stroke="#7f7f7f" stroke-width="1.00" clip-path="url('#clipping-rect1')" />
		<line x1="814.92" y1="31.00" x2="814.92" y2="29.00" stroke="#7f7f7f" stroke-width="1.00" clip-path="url('#clipping-rect1')" />
		<line x1="806.26" y1="31.00" x2="806.26" y2="29.00" stroke="#7f7f7f" stroke-width="1.00" clip-path="url('#clipping-rect1')" />
		<line x1="797.59" y1="31.00" x2="797.59" y2="29.00" stroke="#7f7f7f" stroke-width="1.00" clip-path="url('#clipping-rect1')" />
		<line x1="788.93" y1="31.00" x2="788.93" y2="28.00" stroke="#7f7f7f" stroke-width="1.00" clip-path="url('#clipping-rect1')" />
		<line x1="780.26" y1="31.00" x2="780.26" y2="29.00" stroke="#7f7f7f" stroke-width="1.00" clip-path="url('#clipping-rect1')" />
		<line x1="771.60" y1="31.00" x2="771.60" y2="29.00" stroke="#7f7f7f" stroke-width="1.00" clip-path="url('#clipping-rect1')" />
		<line x1="762.93" y1="31.00" x2="762.93" y2="29.00" stroke="#7f7f7f" stroke-width="1.00" clip-path="url('#clipping-rect1')" />
		<line x1="754.27" y1="31.00" x2="754.27" y2="29.00" stroke="#7f7f7f" stroke-width="1.00" clip-path="url('#clipping-rect1')" />
		<line x1="745.60" y1="31.00" x2="745.60" y2="29.00" stroke="#7f7f7f" stroke-width="1.00" clip-path="url('#clipping-rect1')" />
		<line x1="736.94" y1="31.00" x2="736.94" y2="29.00" stroke="#7f7f7f" stroke-width="1.00" clip-path="url('#clipping-rect1')" />
		<line x1="728.27" y1="31.00" x2="728.27" y2="29.00" stroke="#7f7f7f" stroke-width="1.00" clip-path="url('#clipping-rect1')" />
		<line x1="719.61" y1="31.00" x2="719.61" y2="29.00" stroke="#7f7f7f" stroke-width="1.00" clip-path="url('#clipping-rect1')" />
		<line x1="710.94" y1="31.00" x2="710.94" y2="29.00" stroke="#7f7f7f" stroke-width="1.00" clip-path="url('#clipping-rect1')" />
		<line x1="702.27" y1="31.00" x2="702.27" y2="28.00" stroke="#7f7f7f" stroke-width="1.00" clip-path="url('#clipping-rect1')" />
		<line x1="693.61" y1="31.00" x2="693.61" y2="29.00" stroke="#7f7f7f" stroke-width="1.00" clip-path="url('#clipping-rect1')" />
		<line x1="684.94" y1="31.00" x2="684.94" y2="29.00" stroke="#7f7f7f" stroke-width="1.00" clip-path="url('#clipping-rect1')" />
		<line x1="676.28" y1="31.00" x2="676.28" y2="29.00" stroke="#7f7f7f" stroke-width="1.00" clip-path="url('#clipping-rect1')" />
		<line x1="667.61" y1="31.00" x2="667.61" y2="29.00" stroke="#7f7f7f" stroke-width="1.00" clip-path="url('#clipping-rect1')" />
		<line x1="658.95" y1="31.00" x2="658.95" y2="29.00" stroke="#7f7f7f" stroke-width="1.00" clip-path="url('#clipping-rect1')" />
		<line x1="650.28" y1="31.00" x2="650.28" y2="29.00" stroke="#7f7f7f" stroke-width="1.00" clip-path="url('#clipping-rect1')" />
		<line x1="641.62" y1="31.00" x2="641.62" y2="29.00" stroke="#7f7f7f" stroke-width="1.00" clip-path="url('#clipping-rect1')" />
		<line x1="632.95" y1="31.00" x2="632.95" y2="29.00" stroke="#7f7f7f" stroke-width="1.00" clip-path="url('#clipping-rect1')" />
		<line x1="624.29" y1="31.00" x2="624.29" y2="29.00" stroke="#7f7f7f" stroke-width="1.00" clip-path="url('#clipping-rect1')" />
		<line x1="615.62" y1="31.00" x2="615.62" y2="28.00" stroke="#7f7f7f" stroke-width="1.00" clip-path="url('#clipping-rect1')" />
		<line x1="606.96" y1="31.00" x2="606.96" y2="29.00" stroke="#7f7f7f" stroke-width="1.00" clip-path="url('#clipping-rect1')" />
		<line x1="598.29" y1="31.00" x2="598.29" y2="29.00" stroke="#7f7f7f" stroke-width="1.00" clip-path="url('#clipping-rect1')" />
		<line x1="589.63" y1="31.00" x2="589.63" y2="29.00" stroke="#7f7f7f" stroke-width="1.00" clip-path="url('#clipping-rect1')" />
		<line x1="580.96" y1="31.00" x2="580.96" y2="29.00" stroke="#7f7f7f" stroke-width="1.00" clip-path="url('#clipping-rect1')" />
		<line x1="572.30" y1="31.00" x2="572.30" y2="29.00" stroke="#7f7f7f" stroke-width="1.00" clip-path="url('#clipping-rect1')" />
		<line x1="563.63" y1="31.00" x2="563.63" y2="29.00" stroke="#7f7f7f" stroke-width="1.00" clip-path="url('#clipping-rect1')" />
		<line x1="554.97" y1="31.00" x2="554.97" y2="29.00" stroke="#7f7f7f" stroke-width="1.00" clip-path="url('#clipping-rect1')" />
		<line x1="546.30" y1="31.00" x2="546.30" y2="29.00" stroke="#7f7f7f" stroke-width="1.00" clip-path="url('#clipping-rect1')" />
		<line x1="537.63" y1="31.00" x2="537.63" y2="29.00" stroke="#7f7f7f" stroke-width="1.00" clip-path="url('#clipping-rect1')" />
		<line x1="528.97" y1="31.00" x2="528.97" y2="28.00" stroke="#7f7f7f" stroke-width="1.00" clip-path="url('#clipping-rect1')" />
		<line x1="520.30" y1="31.00" x2="520.30" y2="29.00" stroke="#7f7f7f" stroke-width="1.00" clip-path="url('#clipping-rect1')" />
		<line x1="511.64" y1="31.00" x2="511.64" y2="29.00" stroke="#7f7f7f" stroke-width="1.00" clip-path="url('#clipping-rect1')" />
		<line x1="502.97" y1="31.00" x2="502.97" y2="29.00" stroke="#7f7f7f" stroke-width="1.00" clip-path="url('#clipping-rect1')" />
		<line x1="494.31" y1="31.00" x2="494.31" y2="29.00" stroke="#7f7f7f" stroke-width="1.00" clip-path="url('#clipping-rect1')" />
		<line x1="485.64" y1="31.00" x2="485.64" y2="29.00" stroke="#7f7f7f" stroke-width="1.00" clip-path="url('#clipping-rect1')" />
		<line x1="476.98" y1="31.00" x2="476.98" y2="29.00" stroke="#7f7f7f" stroke-width="1.00" clip-path="url('#clipping-rect1')" />
		<line x1="468.31" y1="31.00" x2="468.31" y2="29.00" stroke="#7f7f7f" stroke-width="1.00" clip-path="url('#clipping-rect1')" />
		<line x1="459.65" y1="31.00" x2="459.65" y2="29.00" stroke="#7f7f7f" stroke-width="1.00" clip-path="url('#clipping-rect1')" />
		<line x1="450.98" y1="31.00" x2="450.98" y2="29.00" stroke="#7f7f7f" stroke-width="1.00" clip-path="url('#clipping-rect1')" />
		<line x1="442.32" y1="31.00" x2="442.32" y2="28.00" stroke="#7f7f7f" stroke-width="1.00" clip-path="url('#clipping-rect1')" />
		<line x1="433.65" y1="31.00" x2="433.65" y2="29.00" stroke="#7f7f7f" stroke-width="1.00" clip-path="url('#clipping-rect1')" />
		<line x1="424.99" y1="31.00" x2="424.99" y2="29.00" stroke="#7f7f7f" stroke-width="1.00" clip-path="url('#clipping-rect1')" />
		<line x1="416.32" y1="31.00" x2="416.32" y2="29.00" stroke="#7f7f7f" stroke-width="1.00" clip-path="url('#clipping-rect1')" />
		<line x1="407.66" y1="31.00" x2="407.66" y2="29.00" stroke="#7f7f7f" stroke-width="1.00" clip-path="url('#clipping-rect1')" />
		<line x1="398.99" y1="31.00" x2="398.99" y2="29.00" stroke="#7f7f7f" stroke-width="1.00" clip-path="url('#clipping-rect1')" />
		<line x1="390.33" y1="31.00" x2="390.33" y2="29.00" stroke="#7f7f7f" stroke-width="1.00" clip-path="url('#clipping-rect1')" />
		<line x1="381.66" y1="31.00" x2="381.66" y2="29.00" stroke="#7f7f7f" stroke-width="1.00" clip-path="url('#clipping-rect1')" />
		<line x1="373.00" y1="31.00" x2="373.00" y2="29.00" stroke="#7f7f7f" stroke-width="1.00" clip-path="url('#clipping-rect1')" />
		<line x1="364.33" y1="31.00" x2="364.33" y2="29.00" stroke="#7f7f7f" stroke-width="1.00" clip-path="url('#clipping-rect1')" />
		<line x1="355.66" y1="31.00" x2="355.66" y2="28.00" stroke="#7f7f7f" stroke-width="1.00" clip-path="url('#clipping-rect1')" />
		<line x1="347.00" y1="31.00" x2="347.00" y2="29.00" stroke="#7f7f7f" stroke-width="1.00" clip-path="url('#clipping-rect1')" />
		<line x1="338.33" y1="31.00" x2="338.33" y2="29.00" stroke="#7f7f7f" stroke-width="1.00" clip-path="url('#clipping-rect1')" />
		<line x1="329.67" y1="31.00" x2="329.67" y2="29.00" stroke="#7f7f7f" stroke-width="1.00" clip-path="url('#clipping-rect1')" />
		<line x1="321.00" y1="31.00" x2="321.00" y2="29.00" stroke="#7f7f7f" stroke-width="1.00" clip-path="url('#clipping-rect1')" />
		<line x1="312.34" y1="31.00" x2="312.34" y2="29.00" stroke="#7f7f7f" stroke-width="1.00" clip-path="url('#clipping-rect1')" />
		<line x1="303.67" y1="31.00" x2="303.67" y2="29.00" stroke="#7f7f7f" stroke-width="1.00" clip-path="url('#clipping-rect1')" />
		<line x1="295.01" y1="31.00" x2="295.01" y2="29.00" stroke="#7f7f7f" stroke-width="1.00" clip-path="url('#clipping-rect1')" />
		<line x1="286.34" y1="31.00" x2="286.34" y2="29.00" stroke="#7f7f7f" stroke-width="1.00" clip-path="url('#clipping-rect1')" />
		<line x1="277.68" y1="31.00" x2="277.68" y2="29.00" stroke="#7f7f7f" stroke-width="1.00" clip-path="url('#clipping-rect1')" />
		<line x1="269.01" y1="31.00" x2="269.01" y2="28.00" stroke="#7f7f7f" stroke-width="1.00" clip-path="url('#clipping-rect1')" />
		<line x1="260.35" y1="31.00" x2="260.35" y2="29.00" stroke="#7f7f7f" stroke-width="1.00" clip-path="url('#clipping-rect1')" />
		<line x1="251.68" y1="31.00" x2="251.68" y2="29.00" stroke="#7f7f7f" stroke-width="1.00" clip-path="url('#clipping-rect1')" />
		<line x1="243.02" y1="31.00" x2="243.02" y2="29.00" stroke="#7f7f7f" stroke-width="1.00" clip-path="url('#clipping-rect1')" />
		<line x1="234.35" y1="31.00" x2="234.35" y2="29.00" stroke="#7f7f7f" stroke-width="1.00" clip-path="url('#clipping-rect1')" />
		<line x1="225.69" y1="31.00" x2="225.69" y2="29.00" stroke="#7f7f7f" stroke-width="1.00" clip-path="url('#clipping-rect1')" />
		<line x1="217.02" y1="31.00" x2="217.02" y2="29.00" stroke="#7f7f7f" stroke-width="1.00" clip-path="url('#clipping-rect1')" />
		<line x1="208.36" y1="31.00" x2="208.36" y2="29.00" stroke="#7f7f7f" stroke-width="1.00" clip-path="url('#clipping-rect1')" />
		<line x1="199.69" y1="31.00" x2="199.69" y2="29.00" stroke="#7f7f7f" stroke-width="1.00" clip-path="url('#clipping-rect1')" />
		<line x1="191.03" y1="31.00" x2="191.03" y2="29.00" stroke="#7f7f7f" stroke-width="1.00" clip-path="url('#clipping-rect1')" />
		<line x1="182.36" y1="31.00" x2="182.36" y2="28.00" stroke="#7f7f7f" stroke-width="1.00" clip-path="url('#clipping-rect1')" />
		<line x1="173.69" y1="31.00" x2="173.69" y2="29.00" stroke="#7f7f7f" stroke-width="1.00" clip-path="url('#clipping-rect1')" />
		<line x1="165.03" y1="31.00" x2="165.03" y2="29.00" stroke="#7f7f7f" stroke-width="1.00" clip-path="url('#clipping-rect1')" />
		<line x1="156.36" y1="31.00" x2="156.36" y2="29.00" stroke="#7f7f7f" stroke-width="1.00" clip-path="url('#clipping-rect1')" />
		<line x1="147.70" y1="31.00" x2="147.70" y2="29.00" stroke="#7f7f7f" stroke-width="1.00" clip-path="url('#clipping-rect1')" />
		<line x1="139.03" y1="31.00" x2="139.03" y2="29.00" stroke="#7f7f7f" stroke-width="1.00" clip-path="url('#clipping-rect1')" />
		<line x1="130.37" y1="31.00" x2="130.37" y2="29.00" stroke="#7f7f7f" stroke-width="1.00" clip-path="url('#clipping-rect1')" />
		<line x1="121.70" y1="31.00" x2="121.70" y2="29.00" stroke="#7f7f7f" stroke-width="1.00" clip-path="url('#clipping-rect1')" />
		<line x1="113.04" y1="31.00" x2="113.04" y2="29.00" stroke="#7f7f7f" stroke-width="1.00" clip-path="url('#clipping-rect1')" />
		<line x1="104.37" y1="31.00" x2="104.37" y2="29.00" stroke="#7f7f7f" stroke-width="1.00" clip-path="url('#clipping-rect1')" />
		<line x1="95.71" y1="31.00" x2="95.71" y2="28.00" stroke="#7f7f7f" stroke-width="1.00" clip-path="url('#clipping-rect1')" />
		<line x1="87.04" y1="31.00" x2="87.04" y2="29.00" stroke="#7f7f7f" stroke-width="1.00" clip-path="url('#clipping-rect1')" />
		<line x1="78.38" y1="31.00" x2="78.38" y2="29.00" stroke="#7f7f7f" stroke-width="1.00" clip-path="url('#clipping-rect1')" />
		<line x1="69.71" y1="31.00" x2="69.71" y2="29.00" stroke="#7f7f7f" stroke-width="1.00" clip-path="url('#clipping-rect1')" />
		<line x1="61.05" y1="31.00" x2="61.05" y2="29.00" stroke="#7f7f7f" stroke-width="1.00" clip-path="url('#clipping-rect1')" />
		<line x1="52.38" y1="31.00" x2="52.38" y2="29.00" stroke="#7f7f7f" stroke-width="1.00" clip-path="url('#clipping-rect1')" />
		<line x1="43.72" y1="31.00" x2="43.72" y2="29.00" stroke="#7f7f7f" stroke-width="1.00" clip-path="url('#clipping-rect1')" />
		<line x1="35.05" y1="31.00" x2="35.05" y2="29.00" stroke="#7f7f7f" stroke-width="1.00" clip-path="url('#clipping-rect1')" />
		<line x1="26.39" y1="31.00" x2="26.39" y2="29.00" stroke="#7f7f7f" stroke-width="1.00" clip-path="url('#clipping-rect1')" />
		<line x1="17.72" y1="31.00" x2="17.72" y2="29.00" stroke="#7f7f7f" stroke-width="1.00" clip-path="url('#clipping-rect1')" />
		<line x1="9.06" y1="31.00" x2="9.06" y2="28.00" stroke="#7f7f7f" stroke-width="1.00" clip-path="url('#clipping-rect1')" />
		<line x1="0.39" y1="31.00" x2="0.39" y2="29.00" stroke="#7f7f7f" stroke-width="1.00" clip-path="url('#clipping-rect1')" />
		<text x="0.04" y="26.00" font-family="Helvetica" font-size="12" fill="#333333" clip-path="url('#clipping-rect1')" >67,104</text>
		<line x1="0.04" y1="33.00" x2="0.04" y2="16.00" stroke="#7f7f7f" stroke-width="1.00" clip-path="url('#clipping-rect1')" />
		<line x1="875.58" y1="33.00" x2="875.58" y2="16.00" stroke="#7f7f7f" stroke-width="1.00" clip-path="url('#clipping-rect1')" />
		<text x="790.93" y="26.00" font-family="Helvetica" font-size="12" fill="#333333" clip-path="url('#clipping-rect1')" >58 K</text>
		<line x1="788.93" y1="33.00" x2="788.93" y2="16.00" stroke="#7f7f7f" stroke-width="1.00" clip-path="url('#clipping-rect1')" />
		<text x="704.27" y="26.00" font-family="Helvetica" font-size="12" fill="#333333" clip-path="url('#clipping-rect1')" >59 K</text>
		<line x1="702.27" y1="33.00" x2="702.27" y2="16.00" stroke="#7f7f7f" stroke-width="1.00" clip-path="url('#clipping-rect1')" />
		<text x="617.62" y="26.00" font-family="Helvetica" font-size="12" fill="#333333" clip-path="url('#clipping-rect1')" >60 K</text>
		<line x1="615.62" y1="33.00" x2="615.62" y2="16.00" stroke="#7f7f7f" stroke-width="1.00" clip-path="url('#clipping-rect1')" />
		<text x="530.97" y="26.00" font-family="Helvetica" font-size="12" fill="#333333" clip-path="url('#clipping-rect1')" >61 K</text>
		<line x1="528.97" y1="33.00" x2="528.97" y2="16.00" stroke="#7f7f7f" stroke-width="1.00" clip-path="url('#clipping-rect1')" />
		<text x="444.32" y="26.00" font-family="Helvetica" font-size="12" fill="#333333" clip-path="url('#clipping-rect1')" >62 K</text>
		<line x1="442.32" y1="33.00" x2="442.32" y2="16.00" stroke="#7f7f7f" stroke-width="1.00" clip-path="url('#clipping-rect1')" />
		<text x="357.66" y="26.00" font-family="Helvetica" font-size="12" fill="#333333" clip-path="url('#clipping-rect1')" >63 K</text>
		<line x1="355.66" y1="33.00" x2="355.66" y2="16.00" stroke="#7f7f7f" stroke-width="1.00" clip-path="url('#clipping-rect1')" />
		<text x="271.01" y="26.00" font-family="Helvetica" font-size="12" fill="#333333" clip-path="url('#clipping-rect1')" >64 K</text>
		<line x1="269.01" y1="33.00" x2="269.01" y2="16.00" stroke="#7f7f7f" stroke-width="1.00" clip-path="url('#clipping-rect1')" />
		<text x="184.36" y="26.00" font-family="Helvetica" font-size="12" fill="#333333" clip-path="url('#clipping-rect1')" >65 K</text>
		<line x1="182.36" y1="33.00" x2="182.36" y2="16.00" stroke="#7f7f7f" stroke-width="1.00" clip-path="url('#clipping-rect1')" />
		<text x="97.71" y="26.00" font-family="Helvetica" font-size="12" fill="#333333" clip-path="url('#clipping-rect1')" >66 K</text>
		<line x1="95.71" y1="33.00" x2="95.71" y2="16.00" stroke="#7f7f7f" stroke-width="1.00" clip-path="url('#clipping-rect1')" />
		<line x1="875.98" y1="88.00" x2="875.98" y2="33.00" stroke="#ebebeb" stroke-width="1.00" />
		<line x1="788.88" y1="88.00" x2="788.88" y2="33.00" stroke="#ebebeb" stroke-width="1.00" />
		<line x1="702.79" y1="88.00" x2="702.79" y2="33.00" stroke="#ebebeb" stroke-width="1.00" />
		<line x1="615.69" y1="88.00" x2="615.69" y2="33.00" stroke="#ebebeb" stroke-width="1.00" />
		<line x1="528.59" y1="88.00" x2="528.59" y2="33.00" stroke="#ebebeb" stroke-width="1.00" />
		<line x1="442.50" y1="88.00" x2="442.50" y2="33.00" stroke="#ebebeb" stroke-width="1.00" />
		<line x1="355.40" y1="88.00" x2="355.40" y2="33.00" stroke="#ebebeb" stroke-width="1.00" />
		<line x1="269.30" y1="88.00" x2="269.30" y2="33.00" stroke="#ebebeb" stroke-width="1.00" />
		<line x1="182.20" y1="88.00" x2="182.20" y2="33.00" stroke="#ebebeb" stroke-width="1.00" />
		<line x1="95.11" y1="88.00" x2="95.11" y2="33.00" stroke="#ebebeb" stroke-width="1.00" />
		<line x1="9.01" y1="88.00" x2="9.01" y2="33.00" stroke="#ebebeb" stroke-width="1.00" />
		<polygon fill="url('#gradient1')" shape-rendering="crispEdges" points="0.00,40.00 0.00,35.00 892.00,35.00 892.00,40.00 892.00,45.00 0.00,45.00 " />
		<line x1="892.00" y1="45.00" x2="892.00" y2="35.00" stroke="#6c6c6c" stroke-width="1.00" stroke-linejoin="round" />
		<line x1="892.00" y1="35.00" x2="0.00" y2="35.00" stroke="#6c6c6c" stroke-width="1.00" stroke-linejoin="round" />
		<line x1="0.00" y1="35.00" x2="0.00" y2="45.00" stroke="#6c6c6c" stroke-width="1.00" stroke-linejoin="round" />
		<line x1="892.00" y1="45.00" x2="0.00" y2="45.00" stroke="#6c6c6c" stroke-width="1.00" stroke-linejoin="round" />
		<polygon fill="url('#gradient2')" shape-rendering="crispEdges" points="675.89,39.50 675.89,46.00 892.00,46.00 892.00,39.50 892.00,33.00 675.89,33.00 " />
		<polygon fill="#101010" shape-rendering="crispEdges" points="675.00,33.00 675.00,46.00 676.00,46.00 676.00,33.00 " />
		<polygon fill="url('#gradient2')" shape-rendering="crispEdges" points="416.88,39.50 416.88,46.00 675.02,46.00 675.02,39.50 675.02,33.00 416.88,33.00 " />
		<polygon fill="#101010" shape-rendering="crispEdges" points="414.98,33.00 414.98,46.00 416.97,46.00 416.97,33.00 " />
		<polygon fill="url('#gradient2')" shape-rendering="crispEdges" points="0.00,39.50 0.00,46.00 414.98,46.00 414.98,39.50 414.98,33.00 0.00,33.00 " />
		<line x1="677.00" y1="33.00" x2="677.00" y2="46.00" stroke="#101010" stroke-width="1.00" />
		<line x1="676.00" y1="33.00" x2="676.00" y2="46.00" stroke="#101010" stroke-width="1.00" />
		<line x1="418.00" y1="33.00" x2="418.00" y2="46.00" stroke="#101010" stroke-width="1.00" />
		<polygon fill="#101010" shape-rendering="crispEdges" points="416.00,33.00 416.00,46.00 417.00,46.00 417.00,33.00 " />
		<line x1="415.00" y1="33.00" x2="415.00" y2="46.00" stroke="#101010" stroke-opacity="0.25" stroke-width="1.00" />
		<polygon fill="url('#gradient3')" shape-rendering="crispEdges" points="52.25,76.40 52.25,82.40 563.77,82.40 563.77,76.40 563.77,70.40 52.25,70.40 " />
		<polygon fill="url('#gradient3')" shape-rendering="crispEdges" points="563.77,76.40 563.77,84.80 572.17,76.40 563.77,68.00 " />
		<polygon fill="#8ab698" shape-rendering="crispEdges" points="52.25,76.40 52.25,70.40 43.85,70.40 " />
		<polygon fill="#8ab698" shape-rendering="crispEdges" points="52.25,76.40 52.25,82.40 43.85,82.40 " />
		<line x1="43.85" y1="70.40" x2="52.25" y2="70.40" stroke="#166e32" stroke-width="1.50" />
		<line x1="43.85" y1="70.40" x2="52.25" y2="76.40" stroke="#166e32" stroke-width="1.50" />
		<line x1="43.85" y1="82.40" x2="52.25" y2="82.40" stroke="#166e32" stroke-width="1.50" />
		<line x1="43.85" y1="82.40" x2="52.25" y2="76.40" stroke="#166e32" stroke-width="1.50" />
		<text x="287.43" y="80.90" font-family="Helvetica" font-size="12" fill="#ffffff" >WDR93</text>
		<polygon fill="#ffffff" shape-rendering="crispEdges" points="512.81,76.40 503.21,71.60 505.61,76.40 503.21,81.20 " />
		<polygon fill="#e0e0e0" shape-rendering="crispEdges" points="412.81,76.40 403.21,71.60 405.61,76.40 403.21,81.20 " />
		<polygon fill="#ffffff" shape-rendering="crispEdges" points="212.81,76.40 203.21,71.60 205.61,76.40 203.21,81.20 " />
		<polygon fill="#e0e0e0" shape-rendering="crispEdges" points="112.81,76.40 103.21,71.60 105.61,76.40 103.21,81.20 " />
		<polygon fill="#ffffff" shape-rendering="crispEdges" points="-0.09,83.00 -0.09,69.00 41.07,69.00 41.07,83.00 " />
		<text x="-0.09" y="80.90" font-family="Helvetica" font-size="12" fill="#124d94" >WDR93</text>
		<polygon fill="url('#gradient4')" shape-rendering="crispEdges" points="0.00,62.00 891.91,62.00 891.91,47.00 0.00,47.00 " clip-path="url('#clipping-rect2')" />
		<text x="0.00" y="58.00" font-family="Helvetica" font-size="14" fill="#333333" >Genes, NCBI Acanthisitta chloris Annotation Release 100, 2014-09-05</text>
		<polygon fill="#e5e5e5" shape-rendering="crispEdges" points="892.00,13.00 892.00,-1.00 0.00,-1.00 0.00,13.00 " />
		<text x="0.00" y="10.00" font-family="Helvetica Bold" font-size="12" text-anchor="start" fill="#000000" >NW_008691900.1:56810..67104 Acanthisitta chloris isolate BGI_N310 unplaced genomic scaffold, ASM69581v1 scaffold7139, whole genome shotgun seque...</text>
	</g>
</svg>
