<?xml version="1.0" standalone="no" ?>
<!DOCTYPE svg PUBLIC "-//W3C//DTD SVG 1.1//EN" "http://www.w3.org/Graphics/SVG/1.1/DTD/svg11.dtd">
<svg width="892px" height="89px" xmlns="http://www.w3.org/2000/svg" version="1.1" viewBox="0 0 892 89" >
	<style type="text/css" > <![CDATA[
		@import url("https://www.ncbi.nlm.nih.gov/projects/sviewer/css/svg_fonts.css");
	]]>
	</style>
	<desc >Generated by NCBI Genome Workbench http://www.ncbi.nlm.nih.gov/tools/gbench/</desc>
	<defs >
		<clipPath id="clipping-rect1" >
			<rect x="0" y="14" width="892" height="20" />
		</clipPath>
		<linearGradient id="gradient1" gradientTransform="rotate(90)" >
			<stop offset="0%" stop-color="#6c6c6c" />
			<stop offset="50%" stop-color="#b5b5b5" />
			<stop offset="100%" stop-color="#6c6c6c" />
		</linearGradient>
		<linearGradient id="gradient2" gradientTransform="rotate(90)" >
			<stop offset="0%" stop-color="#10c010" />
			<stop offset="50%" stop-color="#87df87" />
			<stop offset="100%" stop-color="#10c010" />
		</linearGradient>
		<linearGradient id="gradient3" gradientTransform="rotate(90)" >
			<stop offset="0%" stop-color="#166e32" />
			<stop offset="50%" stop-color="#8ab698" />
			<stop offset="100%" stop-color="#166e32" />
		</linearGradient>
		<clipPath id="clipping-rect2" >
			<rect x="0" y="34" width="892" height="55" />
		</clipPath>
		<linearGradient id="gradient4" gradientTransform="rotate(90)" >
			<stop offset="0%" stop-color="#e6e6e6" stop-opacity="0.71" />
			<stop offset="100%" stop-color="#ffffff" stop-opacity="0.00" />
		</linearGradient>
	</defs>
	<g >
		<polygon fill="#ffffff" shape-rendering="crispEdges" points="892.00,33.00 892.00,13.00 0.00,13.00 0.00,33.00 " />
		<line x1="0.02" y1="30.89" x2="892.00" y2="30.89" stroke="#7f7f7f" stroke-width="1.00" clip-path="url('#clipping-rect1')" />
		<line x1="8.36" y1="30.89" x2="8.36" y2="28.79" stroke="#7f7f7f" stroke-width="1.00" clip-path="url('#clipping-rect1')" />
		<line x1="16.73" y1="30.89" x2="16.73" y2="28.79" stroke="#7f7f7f" stroke-width="1.00" clip-path="url('#clipping-rect1')" />
		<line x1="25.11" y1="30.89" x2="25.11" y2="28.79" stroke="#7f7f7f" stroke-width="1.00" clip-path="url('#clipping-rect1')" />
		<line x1="33.49" y1="30.89" x2="33.49" y2="28.79" stroke="#7f7f7f" stroke-width="1.00" clip-path="url('#clipping-rect1')" />
		<line x1="41.86" y1="30.89" x2="41.86" y2="27.74" stroke="#7f7f7f" stroke-width="1.00" clip-path="url('#clipping-rect1')" />
		<line x1="50.24" y1="30.89" x2="50.24" y2="28.79" stroke="#7f7f7f" stroke-width="1.00" clip-path="url('#clipping-rect1')" />
		<line x1="58.62" y1="30.89" x2="58.62" y2="28.79" stroke="#7f7f7f" stroke-width="1.00" clip-path="url('#clipping-rect1')" />
		<line x1="66.99" y1="30.89" x2="66.99" y2="28.79" stroke="#7f7f7f" stroke-width="1.00" clip-path="url('#clipping-rect1')" />
		<line x1="75.37" y1="30.89" x2="75.37" y2="28.79" stroke="#7f7f7f" stroke-width="1.00" clip-path="url('#clipping-rect1')" />
		<line x1="83.75" y1="30.89" x2="83.75" y2="27.74" stroke="#7f7f7f" stroke-width="1.00" clip-path="url('#clipping-rect1')" />
		<line x1="92.12" y1="30.89" x2="92.12" y2="28.79" stroke="#7f7f7f" stroke-width="1.00" clip-path="url('#clipping-rect1')" />
		<line x1="100.50" y1="30.89" x2="100.50" y2="28.79" stroke="#7f7f7f" stroke-width="1.00" clip-path="url('#clipping-rect1')" />
		<line x1="108.88" y1="30.89" x2="108.88" y2="28.79" stroke="#7f7f7f" stroke-width="1.00" clip-path="url('#clipping-rect1')" />
		<line x1="117.25" y1="30.89" x2="117.25" y2="28.79" stroke="#7f7f7f" stroke-width="1.00" clip-path="url('#clipping-rect1')" />
		<line x1="125.63" y1="30.89" x2="125.63" y2="27.74" stroke="#7f7f7f" stroke-width="1.00" clip-path="url('#clipping-rect1')" />
		<line x1="134.01" y1="30.89" x2="134.01" y2="28.79" stroke="#7f7f7f" stroke-width="1.00" clip-path="url('#clipping-rect1')" />
		<line x1="142.38" y1="30.89" x2="142.38" y2="28.79" stroke="#7f7f7f" stroke-width="1.00" clip-path="url('#clipping-rect1')" />
		<line x1="150.76" y1="30.89" x2="150.76" y2="28.79" stroke="#7f7f7f" stroke-width="1.00" clip-path="url('#clipping-rect1')" />
		<line x1="159.14" y1="30.89" x2="159.14" y2="28.79" stroke="#7f7f7f" stroke-width="1.00" clip-path="url('#clipping-rect1')" />
		<line x1="167.51" y1="30.89" x2="167.51" y2="27.74" stroke="#7f7f7f" stroke-width="1.00" clip-path="url('#clipping-rect1')" />
		<line x1="175.89" y1="30.89" x2="175.89" y2="28.79" stroke="#7f7f7f" stroke-width="1.00" clip-path="url('#clipping-rect1')" />
		<line x1="184.27" y1="30.89" x2="184.27" y2="28.79" stroke="#7f7f7f" stroke-width="1.00" clip-path="url('#clipping-rect1')" />
		<line x1="192.64" y1="30.89" x2="192.64" y2="28.79" stroke="#7f7f7f" stroke-width="1.00" clip-path="url('#clipping-rect1')" />
		<line x1="201.02" y1="30.89" x2="201.02" y2="28.79" stroke="#7f7f7f" stroke-width="1.00" clip-path="url('#clipping-rect1')" />
		<line x1="209.40" y1="30.89" x2="209.40" y2="27.74" stroke="#7f7f7f" stroke-width="1.00" clip-path="url('#clipping-rect1')" />
		<line x1="217.77" y1="30.89" x2="217.77" y2="28.79" stroke="#7f7f7f" stroke-width="1.00" clip-path="url('#clipping-rect1')" />
		<line x1="226.15" y1="30.89" x2="226.15" y2="28.79" stroke="#7f7f7f" stroke-width="1.00" clip-path="url('#clipping-rect1')" />
		<line x1="234.53" y1="30.89" x2="234.53" y2="28.79" stroke="#7f7f7f" stroke-width="1.00" clip-path="url('#clipping-rect1')" />
		<line x1="242.91" y1="30.89" x2="242.91" y2="28.79" stroke="#7f7f7f" stroke-width="1.00" clip-path="url('#clipping-rect1')" />
		<line x1="251.28" y1="30.89" x2="251.28" y2="27.74" stroke="#7f7f7f" stroke-width="1.00" clip-path="url('#clipping-rect1')" />
		<line x1="259.66" y1="30.89" x2="259.66" y2="28.79" stroke="#7f7f7f" stroke-width="1.00" clip-path="url('#clipping-rect1')" />
		<line x1="268.04" y1="30.89" x2="268.04" y2="28.79" stroke="#7f7f7f" stroke-width="1.00" clip-path="url('#clipping-rect1')" />
		<line x1="276.41" y1="30.89" x2="276.41" y2="28.79" stroke="#7f7f7f" stroke-width="1.00" clip-path="url('#clipping-rect1')" />
		<line x1="284.79" y1="30.89" x2="284.79" y2="28.79" stroke="#7f7f7f" stroke-width="1.00" clip-path="url('#clipping-rect1')" />
		<line x1="293.17" y1="30.89" x2="293.17" y2="27.74" stroke="#7f7f7f" stroke-width="1.00" clip-path="url('#clipping-rect1')" />
		<line x1="301.54" y1="30.89" x2="301.54" y2="28.79" stroke="#7f7f7f" stroke-width="1.00" clip-path="url('#clipping-rect1')" />
		<line x1="309.92" y1="30.89" x2="309.92" y2="28.79" stroke="#7f7f7f" stroke-width="1.00" clip-path="url('#clipping-rect1')" />
		<line x1="318.30" y1="30.89" x2="318.30" y2="28.79" stroke="#7f7f7f" stroke-width="1.00" clip-path="url('#clipping-rect1')" />
		<line x1="326.67" y1="30.89" x2="326.67" y2="28.79" stroke="#7f7f7f" stroke-width="1.00" clip-path="url('#clipping-rect1')" />
		<line x1="335.05" y1="30.89" x2="335.05" y2="27.74" stroke="#7f7f7f" stroke-width="1.00" clip-path="url('#clipping-rect1')" />
		<line x1="343.43" y1="30.89" x2="343.43" y2="28.79" stroke="#7f7f7f" stroke-width="1.00" clip-path="url('#clipping-rect1')" />
		<line x1="351.80" y1="30.89" x2="351.80" y2="28.79" stroke="#7f7f7f" stroke-width="1.00" clip-path="url('#clipping-rect1')" />
		<line x1="360.18" y1="30.89" x2="360.18" y2="28.79" stroke="#7f7f7f" stroke-width="1.00" clip-path="url('#clipping-rect1')" />
		<line x1="368.56" y1="30.89" x2="368.56" y2="28.79" stroke="#7f7f7f" stroke-width="1.00" clip-path="url('#clipping-rect1')" />
		<line x1="376.93" y1="30.89" x2="376.93" y2="27.74" stroke="#7f7f7f" stroke-width="1.00" clip-path="url('#clipping-rect1')" />
		<line x1="385.31" y1="30.89" x2="385.31" y2="28.79" stroke="#7f7f7f" stroke-width="1.00" clip-path="url('#clipping-rect1')" />
		<line x1="393.69" y1="30.89" x2="393.69" y2="28.79" stroke="#7f7f7f" stroke-width="1.00" clip-path="url('#clipping-rect1')" />
		<line x1="402.06" y1="30.89" x2="402.06" y2="28.79" stroke="#7f7f7f" stroke-width="1.00" clip-path="url('#clipping-rect1')" />
		<line x1="410.44" y1="30.89" x2="410.44" y2="28.79" stroke="#7f7f7f" stroke-width="1.00" clip-path="url('#clipping-rect1')" />
		<line x1="418.82" y1="30.89" x2="418.82" y2="27.74" stroke="#7f7f7f" stroke-width="1.00" clip-path="url('#clipping-rect1')" />
		<line x1="427.19" y1="30.89" x2="427.19" y2="28.79" stroke="#7f7f7f" stroke-width="1.00" clip-path="url('#clipping-rect1')" />
		<line x1="435.57" y1="30.89" x2="435.57" y2="28.79" stroke="#7f7f7f" stroke-width="1.00" clip-path="url('#clipping-rect1')" />
		<line x1="443.95" y1="30.89" x2="443.95" y2="28.79" stroke="#7f7f7f" stroke-width="1.00" clip-path="url('#clipping-rect1')" />
		<line x1="452.32" y1="30.89" x2="452.32" y2="28.79" stroke="#7f7f7f" stroke-width="1.00" clip-path="url('#clipping-rect1')" />
		<line x1="460.70" y1="30.89" x2="460.70" y2="27.74" stroke="#7f7f7f" stroke-width="1.00" clip-path="url('#clipping-rect1')" />
		<line x1="469.08" y1="30.89" x2="469.08" y2="28.79" stroke="#7f7f7f" stroke-width="1.00" clip-path="url('#clipping-rect1')" />
		<line x1="477.45" y1="30.89" x2="477.45" y2="28.79" stroke="#7f7f7f" stroke-width="1.00" clip-path="url('#clipping-rect1')" />
		<line x1="485.83" y1="30.89" x2="485.83" y2="28.79" stroke="#7f7f7f" stroke-width="1.00" clip-path="url('#clipping-rect1')" />
		<line x1="494.21" y1="30.89" x2="494.21" y2="28.79" stroke="#7f7f7f" stroke-width="1.00" clip-path="url('#clipping-rect1')" />
		<line x1="502.59" y1="30.89" x2="502.59" y2="27.74" stroke="#7f7f7f" stroke-width="1.00" clip-path="url('#clipping-rect1')" />
		<line x1="510.96" y1="30.89" x2="510.96" y2="28.79" stroke="#7f7f7f" stroke-width="1.00" clip-path="url('#clipping-rect1')" />
		<line x1="519.34" y1="30.89" x2="519.34" y2="28.79" stroke="#7f7f7f" stroke-width="1.00" clip-path="url('#clipping-rect1')" />
		<line x1="527.72" y1="30.89" x2="527.72" y2="28.79" stroke="#7f7f7f" stroke-width="1.00" clip-path="url('#clipping-rect1')" />
		<line x1="536.09" y1="30.89" x2="536.09" y2="28.79" stroke="#7f7f7f" stroke-width="1.00" clip-path="url('#clipping-rect1')" />
		<line x1="544.47" y1="30.89" x2="544.47" y2="27.74" stroke="#7f7f7f" stroke-width="1.00" clip-path="url('#clipping-rect1')" />
		<line x1="552.85" y1="30.89" x2="552.85" y2="28.79" stroke="#7f7f7f" stroke-width="1.00" clip-path="url('#clipping-rect1')" />
		<line x1="561.22" y1="30.89" x2="561.22" y2="28.79" stroke="#7f7f7f" stroke-width="1.00" clip-path="url('#clipping-rect1')" />
		<line x1="569.60" y1="30.89" x2="569.60" y2="28.79" stroke="#7f7f7f" stroke-width="1.00" clip-path="url('#clipping-rect1')" />
		<line x1="577.98" y1="30.89" x2="577.98" y2="28.79" stroke="#7f7f7f" stroke-width="1.00" clip-path="url('#clipping-rect1')" />
		<line x1="586.35" y1="30.89" x2="586.35" y2="27.74" stroke="#7f7f7f" stroke-width="1.00" clip-path="url('#clipping-rect1')" />
		<line x1="594.73" y1="30.89" x2="594.73" y2="28.79" stroke="#7f7f7f" stroke-width="1.00" clip-path="url('#clipping-rect1')" />
		<line x1="603.11" y1="30.89" x2="603.11" y2="28.79" stroke="#7f7f7f" stroke-width="1.00" clip-path="url('#clipping-rect1')" />
		<line x1="611.48" y1="30.89" x2="611.48" y2="28.79" stroke="#7f7f7f" stroke-width="1.00" clip-path="url('#clipping-rect1')" />
		<line x1="619.86" y1="30.89" x2="619.86" y2="28.79" stroke="#7f7f7f" stroke-width="1.00" clip-path="url('#clipping-rect1')" />
		<line x1="628.24" y1="30.89" x2="628.24" y2="27.74" stroke="#7f7f7f" stroke-width="1.00" clip-path="url('#clipping-rect1')" />
		<line x1="636.61" y1="30.89" x2="636.61" y2="28.79" stroke="#7f7f7f" stroke-width="1.00" clip-path="url('#clipping-rect1')" />
		<line x1="644.99" y1="30.89" x2="644.99" y2="28.79" stroke="#7f7f7f" stroke-width="1.00" clip-path="url('#clipping-rect1')" />
		<line x1="653.37" y1="30.89" x2="653.37" y2="28.79" stroke="#7f7f7f" stroke-width="1.00" clip-path="url('#clipping-rect1')" />
		<line x1="661.74" y1="30.89" x2="661.74" y2="28.79" stroke="#7f7f7f" stroke-width="1.00" clip-path="url('#clipping-rect1')" />
		<line x1="670.12" y1="30.89" x2="670.12" y2="27.74" stroke="#7f7f7f" stroke-width="1.00" clip-path="url('#clipping-rect1')" />
		<line x1="678.50" y1="30.89" x2="678.50" y2="28.79" stroke="#7f7f7f" stroke-width="1.00" clip-path="url('#clipping-rect1')" />
		<line x1="686.87" y1="30.89" x2="686.87" y2="28.79" stroke="#7f7f7f" stroke-width="1.00" clip-path="url('#clipping-rect1')" />
		<line x1="695.25" y1="30.89" x2="695.25" y2="28.79" stroke="#7f7f7f" stroke-width="1.00" clip-path="url('#clipping-rect1')" />
		<line x1="703.63" y1="30.89" x2="703.63" y2="28.79" stroke="#7f7f7f" stroke-width="1.00" clip-path="url('#clipping-rect1')" />
		<line x1="712.00" y1="30.89" x2="712.00" y2="27.74" stroke="#7f7f7f" stroke-width="1.00" clip-path="url('#clipping-rect1')" />
		<line x1="720.38" y1="30.89" x2="720.38" y2="28.79" stroke="#7f7f7f" stroke-width="1.00" clip-path="url('#clipping-rect1')" />
		<line x1="728.76" y1="30.89" x2="728.76" y2="28.79" stroke="#7f7f7f" stroke-width="1.00" clip-path="url('#clipping-rect1')" />
		<line x1="737.13" y1="30.89" x2="737.13" y2="28.79" stroke="#7f7f7f" stroke-width="1.00" clip-path="url('#clipping-rect1')" />
		<line x1="745.51" y1="30.89" x2="745.51" y2="28.79" stroke="#7f7f7f" stroke-width="1.00" clip-path="url('#clipping-rect1')" />
		<line x1="753.89" y1="30.89" x2="753.89" y2="27.74" stroke="#7f7f7f" stroke-width="1.00" clip-path="url('#clipping-rect1')" />
		<line x1="762.26" y1="30.89" x2="762.26" y2="28.79" stroke="#7f7f7f" stroke-width="1.00" clip-path="url('#clipping-rect1')" />
		<line x1="770.64" y1="30.89" x2="770.64" y2="28.79" stroke="#7f7f7f" stroke-width="1.00" clip-path="url('#clipping-rect1')" />
		<line x1="779.02" y1="30.89" x2="779.02" y2="28.79" stroke="#7f7f7f" stroke-width="1.00" clip-path="url('#clipping-rect1')" />
		<line x1="787.40" y1="30.89" x2="787.40" y2="28.79" stroke="#7f7f7f" stroke-width="1.00" clip-path="url('#clipping-rect1')" />
		<line x1="795.77" y1="30.89" x2="795.77" y2="27.74" stroke="#7f7f7f" stroke-width="1.00" clip-path="url('#clipping-rect1')" />
		<line x1="804.15" y1="30.89" x2="804.15" y2="28.79" stroke="#7f7f7f" stroke-width="1.00" clip-path="url('#clipping-rect1')" />
		<line x1="812.53" y1="30.89" x2="812.53" y2="28.79" stroke="#7f7f7f" stroke-width="1.00" clip-path="url('#clipping-rect1')" />
		<line x1="820.90" y1="30.89" x2="820.90" y2="28.79" stroke="#7f7f7f" stroke-width="1.00" clip-path="url('#clipping-rect1')" />
		<line x1="829.28" y1="30.89" x2="829.28" y2="28.79" stroke="#7f7f7f" stroke-width="1.00" clip-path="url('#clipping-rect1')" />
		<line x1="837.66" y1="30.89" x2="837.66" y2="27.74" stroke="#7f7f7f" stroke-width="1.00" clip-path="url('#clipping-rect1')" />
		<line x1="846.03" y1="30.89" x2="846.03" y2="28.79" stroke="#7f7f7f" stroke-width="1.00" clip-path="url('#clipping-rect1')" />
		<line x1="854.41" y1="30.89" x2="854.41" y2="28.79" stroke="#7f7f7f" stroke-width="1.00" clip-path="url('#clipping-rect1')" />
		<line x1="862.79" y1="30.89" x2="862.79" y2="28.79" stroke="#7f7f7f" stroke-width="1.00" clip-path="url('#clipping-rect1')" />
		<line x1="871.16" y1="30.89" x2="871.16" y2="28.79" stroke="#7f7f7f" stroke-width="1.00" clip-path="url('#clipping-rect1')" />
		<line x1="879.54" y1="30.89" x2="879.54" y2="27.74" stroke="#7f7f7f" stroke-width="1.00" clip-path="url('#clipping-rect1')" />
		<line x1="887.92" y1="30.89" x2="887.92" y2="28.79" stroke="#7f7f7f" stroke-width="1.00" clip-path="url('#clipping-rect1')" />
		<text x="0.02" y="25.63" font-family="Helvetica" font-size="12" fill="#333333" clip-path="url('#clipping-rect1')" >1</text>
		<line x1="0.02" y1="33.00" x2="0.02" y2="15.11" stroke="#7f7f7f" stroke-width="1.00" clip-path="url('#clipping-rect1')" />
		<text x="839.66" y="25.63" font-family="Helvetica" font-size="12" fill="#333333" clip-path="url('#clipping-rect1')" >20 K</text>
		<line x1="837.66" y1="33.00" x2="837.66" y2="15.11" stroke="#7f7f7f" stroke-width="1.00" clip-path="url('#clipping-rect1')" />
		<text x="755.89" y="25.63" font-family="Helvetica" font-size="12" fill="#333333" clip-path="url('#clipping-rect1')" >18 K</text>
		<line x1="753.89" y1="33.00" x2="753.89" y2="15.11" stroke="#7f7f7f" stroke-width="1.00" clip-path="url('#clipping-rect1')" />
		<text x="672.12" y="25.63" font-family="Helvetica" font-size="12" fill="#333333" clip-path="url('#clipping-rect1')" >16 K</text>
		<line x1="670.12" y1="33.00" x2="670.12" y2="15.11" stroke="#7f7f7f" stroke-width="1.00" clip-path="url('#clipping-rect1')" />
		<text x="588.35" y="25.63" font-family="Helvetica" font-size="12" fill="#333333" clip-path="url('#clipping-rect1')" >14 K</text>
		<line x1="586.35" y1="33.00" x2="586.35" y2="15.11" stroke="#7f7f7f" stroke-width="1.00" clip-path="url('#clipping-rect1')" />
		<text x="504.59" y="25.63" font-family="Helvetica" font-size="12" fill="#333333" clip-path="url('#clipping-rect1')" >12 K</text>
		<line x1="502.59" y1="33.00" x2="502.59" y2="15.11" stroke="#7f7f7f" stroke-width="1.00" clip-path="url('#clipping-rect1')" />
		<text x="420.82" y="25.63" font-family="Helvetica" font-size="12" fill="#333333" clip-path="url('#clipping-rect1')" >10 K</text>
		<line x1="418.82" y1="33.00" x2="418.82" y2="15.11" stroke="#7f7f7f" stroke-width="1.00" clip-path="url('#clipping-rect1')" />
		<text x="337.05" y="25.63" font-family="Helvetica" font-size="12" fill="#333333" clip-path="url('#clipping-rect1')" >8 K</text>
		<line x1="335.05" y1="33.00" x2="335.05" y2="15.11" stroke="#7f7f7f" stroke-width="1.00" clip-path="url('#clipping-rect1')" />
		<text x="253.28" y="25.63" font-family="Helvetica" font-size="12" fill="#333333" clip-path="url('#clipping-rect1')" >6 K</text>
		<line x1="251.28" y1="33.00" x2="251.28" y2="15.11" stroke="#7f7f7f" stroke-width="1.00" clip-path="url('#clipping-rect1')" />
		<text x="169.51" y="25.63" font-family="Helvetica" font-size="12" fill="#333333" clip-path="url('#clipping-rect1')" >4 K</text>
		<line x1="167.51" y1="33.00" x2="167.51" y2="15.11" stroke="#7f7f7f" stroke-width="1.00" clip-path="url('#clipping-rect1')" />
		<text x="85.75" y="25.63" font-family="Helvetica" font-size="12" fill="#333333" clip-path="url('#clipping-rect1')" >2 K</text>
		<line x1="83.75" y1="33.00" x2="83.75" y2="15.11" stroke="#7f7f7f" stroke-width="1.00" clip-path="url('#clipping-rect1')" />
		<line x1="0.00" y1="88.00" x2="0.00" y2="33.00" stroke="#ebebeb" stroke-width="1.00" />
		<line x1="83.09" y1="88.00" x2="83.09" y2="33.00" stroke="#ebebeb" stroke-width="1.00" />
		<line x1="167.19" y1="88.00" x2="167.19" y2="33.00" stroke="#ebebeb" stroke-width="1.00" />
		<line x1="251.28" y1="88.00" x2="251.28" y2="33.00" stroke="#ebebeb" stroke-width="1.00" />
		<line x1="335.38" y1="88.00" x2="335.38" y2="33.00" stroke="#ebebeb" stroke-width="1.00" />
		<line x1="418.47" y1="88.00" x2="418.47" y2="33.00" stroke="#ebebeb" stroke-width="1.00" />
		<line x1="502.56" y1="88.00" x2="502.56" y2="33.00" stroke="#ebebeb" stroke-width="1.00" />
		<line x1="586.66" y1="88.00" x2="586.66" y2="33.00" stroke="#ebebeb" stroke-width="1.00" />
		<line x1="670.75" y1="88.00" x2="670.75" y2="33.00" stroke="#ebebeb" stroke-width="1.00" />
		<line x1="753.85" y1="88.00" x2="753.85" y2="33.00" stroke="#ebebeb" stroke-width="1.00" />
		<line x1="837.94" y1="88.00" x2="837.94" y2="33.00" stroke="#ebebeb" stroke-width="1.00" />
		<polygon fill="url('#gradient1')" shape-rendering="crispEdges" points="892.00,40.00 892.00,35.00 0.00,35.00 0.00,40.00 0.00,45.00 892.00,45.00 " />
		<line x1="0.00" y1="45.00" x2="0.00" y2="35.00" stroke="#6c6c6c" stroke-width="1.00" stroke-linejoin="round" />
		<line x1="0.00" y1="35.00" x2="892.00" y2="35.00" stroke="#6c6c6c" stroke-width="1.00" stroke-linejoin="round" />
		<line x1="892.00" y1="35.00" x2="892.00" y2="45.00" stroke="#6c6c6c" stroke-width="1.00" stroke-linejoin="round" />
		<line x1="0.00" y1="45.00" x2="892.00" y2="45.00" stroke="#6c6c6c" stroke-width="1.00" stroke-linejoin="round" />
		<polygon fill="url('#gradient2')" shape-rendering="crispEdges" points="892.00,39.50 892.00,46.00 0.00,46.00 0.00,39.50 0.00,33.00 892.00,33.00 " />
		<line x1="163.00" y1="33.00" x2="163.00" y2="46.00" stroke="#101010" stroke-opacity="0.25" stroke-width="1.00" />
		<line x1="164.00" y1="33.00" x2="164.00" y2="46.00" stroke="#101010" stroke-width="1.00" />
		<line x1="165.00" y1="33.00" x2="165.00" y2="46.00" stroke="#101010" stroke-opacity="0.25" stroke-width="1.00" />
		<line x1="692.00" y1="33.00" x2="692.00" y2="46.00" stroke="#101010" stroke-width="1.00" />
		<polygon fill="url('#gradient3')" shape-rendering="crispEdges" points="474.31,76.40 474.31,82.40 28.13,82.40 28.13,76.40 28.13,70.40 474.31,70.40 " />
		<polygon fill="url('#gradient3')" shape-rendering="crispEdges" points="474.31,76.40 474.31,84.80 482.71,76.40 474.31,68.00 " />
		<polygon fill="#8ab698" shape-rendering="crispEdges" points="28.13,76.40 28.13,70.40 19.73,70.40 " />
		<polygon fill="#8ab698" shape-rendering="crispEdges" points="28.13,76.40 28.13,82.40 19.73,82.40 " />
		<line x1="19.73" y1="70.40" x2="28.13" y2="70.40" stroke="#166e32" stroke-width="1.50" />
		<line x1="19.73" y1="70.40" x2="28.13" y2="76.40" stroke="#166e32" stroke-width="1.50" />
		<line x1="19.73" y1="82.40" x2="28.13" y2="82.40" stroke="#166e32" stroke-width="1.50" />
		<line x1="19.73" y1="82.40" x2="28.13" y2="76.40" stroke="#166e32" stroke-width="1.50" />
		<text x="230.64" y="80.90" font-family="Helvetica" font-size="12" fill="#ffffff" >WDR93</text>
		<polygon fill="#ffffff" shape-rendering="crispEdges" points="56.02,76.40 46.42,71.60 48.82,76.40 46.42,81.20 " />
		<polygon fill="#e0e0e0" shape-rendering="crispEdges" points="156.02,76.40 146.42,71.60 148.82,76.40 146.42,81.20 " />
		<polygon fill="#ffffff" shape-rendering="crispEdges" points="356.02,76.40 346.42,71.60 348.82,76.40 346.42,81.20 " />
		<polygon fill="#e0e0e0" shape-rendering="crispEdges" points="456.02,76.40 446.42,71.60 448.82,76.40 446.42,81.20 " />
		<polygon fill="url('#gradient4')" shape-rendering="crispEdges" points="0.00,62.00 892.04,62.00 892.04,47.00 0.00,47.00 " clip-path="url('#clipping-rect2')" />
		<text x="0.00" y="58.00" font-family="Helvetica" font-size="14" fill="#333333" >Genes, NCBI Antrostomus carolinensis Annotation Release 101, 2019-05-02</text>
		<polygon fill="#e5e5e5" shape-rendering="crispEdges" points="892.00,13.00 892.00,-1.00 0.00,-1.00 0.00,13.00 " />
		<text x="0.00" y="10.00" font-family="Helvetica Bold" font-size="12" text-anchor="start" fill="#000000" >NW_010299986.1:0..21297 Antrostomus carolinensis isolate BGI_N321 unplaced genomic scaffold, ASM70074v1 scaffold55712, whole genome shotgun se...</text>
	</g>
</svg>
