<?xml version="1.0" standalone="no" ?>
<!DOCTYPE svg PUBLIC "-//W3C//DTD SVG 1.1//EN" "http://www.w3.org/Graphics/SVG/1.1/DTD/svg11.dtd">
<svg width="892px" height="89px" xmlns="http://www.w3.org/2000/svg" version="1.1" viewBox="0 0 892 89" >
	<style type="text/css" > <![CDATA[
		@import url("https://www.ncbi.nlm.nih.gov/projects/sviewer/css/svg_fonts.css");
	]]>
	</style>
	<desc >Generated by NCBI Genome Workbench http://www.ncbi.nlm.nih.gov/tools/gbench/</desc>
	<defs >
		<clipPath id="clipping-rect1" >
			<rect x="0" y="14" width="892" height="20" />
		</clipPath>
		<linearGradient id="gradient1" gradientTransform="rotate(90)" >
			<stop offset="0%" stop-color="#6c6c6c" />
			<stop offset="50%" stop-color="#b5b5b5" />
			<stop offset="100%" stop-color="#6c6c6c" />
		</linearGradient>
		<linearGradient id="gradient2" gradientTransform="rotate(90)" >
			<stop offset="0%" stop-color="#10c010" />
			<stop offset="50%" stop-color="#87df87" />
			<stop offset="100%" stop-color="#10c010" />
		</linearGradient>
		<linearGradient id="gradient3" gradientTransform="rotate(90)" >
			<stop offset="0%" stop-color="#166e32" />
			<stop offset="50%" stop-color="#8ab698" />
			<stop offset="100%" stop-color="#166e32" />
		</linearGradient>
		<clipPath id="clipping-rect2" >
			<rect x="0" y="34" width="892" height="55" />
		</clipPath>
		<linearGradient id="gradient4" gradientTransform="rotate(90)" >
			<stop offset="0%" stop-color="#e6e6e6" stop-opacity="0.71" />
			<stop offset="100%" stop-color="#ffffff" stop-opacity="0.00" />
		</linearGradient>
	</defs>
	<g >
		<polygon fill="#ffffff" shape-rendering="crispEdges" points="892.00,33.00 892.00,13.00 0.00,13.00 0.00,33.00 " />
		<line x1="0.00" y1="31.00" x2="892.00" y2="31.00" stroke="#7f7f7f" stroke-width="1.00" clip-path="url('#clipping-rect1')" />
		<line x1="890.88" y1="31.00" x2="890.88" y2="28.00" stroke="#7f7f7f" stroke-width="1.00" clip-path="url('#clipping-rect1')" />
		<line x1="884.74" y1="31.00" x2="884.74" y2="29.00" stroke="#7f7f7f" stroke-width="1.00" clip-path="url('#clipping-rect1')" />
		<line x1="878.61" y1="31.00" x2="878.61" y2="29.00" stroke="#7f7f7f" stroke-width="1.00" clip-path="url('#clipping-rect1')" />
		<line x1="872.47" y1="31.00" x2="872.47" y2="29.00" stroke="#7f7f7f" stroke-width="1.00" clip-path="url('#clipping-rect1')" />
		<line x1="866.33" y1="31.00" x2="866.33" y2="29.00" stroke="#7f7f7f" stroke-width="1.00" clip-path="url('#clipping-rect1')" />
		<line x1="860.20" y1="31.00" x2="860.20" y2="28.00" stroke="#7f7f7f" stroke-width="1.00" clip-path="url('#clipping-rect1')" />
		<line x1="854.06" y1="31.00" x2="854.06" y2="29.00" stroke="#7f7f7f" stroke-width="1.00" clip-path="url('#clipping-rect1')" />
		<line x1="847.92" y1="31.00" x2="847.92" y2="29.00" stroke="#7f7f7f" stroke-width="1.00" clip-path="url('#clipping-rect1')" />
		<line x1="841.79" y1="31.00" x2="841.79" y2="29.00" stroke="#7f7f7f" stroke-width="1.00" clip-path="url('#clipping-rect1')" />
		<line x1="835.65" y1="31.00" x2="835.65" y2="29.00" stroke="#7f7f7f" stroke-width="1.00" clip-path="url('#clipping-rect1')" />
		<line x1="829.52" y1="31.00" x2="829.52" y2="28.00" stroke="#7f7f7f" stroke-width="1.00" clip-path="url('#clipping-rect1')" />
		<line x1="823.38" y1="31.00" x2="823.38" y2="29.00" stroke="#7f7f7f" stroke-width="1.00" clip-path="url('#clipping-rect1')" />
		<line x1="817.24" y1="31.00" x2="817.24" y2="29.00" stroke="#7f7f7f" stroke-width="1.00" clip-path="url('#clipping-rect1')" />
		<line x1="811.11" y1="31.00" x2="811.11" y2="29.00" stroke="#7f7f7f" stroke-width="1.00" clip-path="url('#clipping-rect1')" />
		<line x1="804.97" y1="31.00" x2="804.97" y2="29.00" stroke="#7f7f7f" stroke-width="1.00" clip-path="url('#clipping-rect1')" />
		<line x1="798.83" y1="31.00" x2="798.83" y2="28.00" stroke="#7f7f7f" stroke-width="1.00" clip-path="url('#clipping-rect1')" />
		<line x1="792.70" y1="31.00" x2="792.70" y2="29.00" stroke="#7f7f7f" stroke-width="1.00" clip-path="url('#clipping-rect1')" />
		<line x1="786.56" y1="31.00" x2="786.56" y2="29.00" stroke="#7f7f7f" stroke-width="1.00" clip-path="url('#clipping-rect1')" />
		<line x1="780.42" y1="31.00" x2="780.42" y2="29.00" stroke="#7f7f7f" stroke-width="1.00" clip-path="url('#clipping-rect1')" />
		<line x1="774.29" y1="31.00" x2="774.29" y2="29.00" stroke="#7f7f7f" stroke-width="1.00" clip-path="url('#clipping-rect1')" />
		<line x1="768.15" y1="31.00" x2="768.15" y2="28.00" stroke="#7f7f7f" stroke-width="1.00" clip-path="url('#clipping-rect1')" />
		<line x1="762.01" y1="31.00" x2="762.01" y2="29.00" stroke="#7f7f7f" stroke-width="1.00" clip-path="url('#clipping-rect1')" />
		<line x1="755.88" y1="31.00" x2="755.88" y2="29.00" stroke="#7f7f7f" stroke-width="1.00" clip-path="url('#clipping-rect1')" />
		<line x1="749.74" y1="31.00" x2="749.74" y2="29.00" stroke="#7f7f7f" stroke-width="1.00" clip-path="url('#clipping-rect1')" />
		<line x1="743.60" y1="31.00" x2="743.60" y2="29.00" stroke="#7f7f7f" stroke-width="1.00" clip-path="url('#clipping-rect1')" />
		<line x1="737.47" y1="31.00" x2="737.47" y2="28.00" stroke="#7f7f7f" stroke-width="1.00" clip-path="url('#clipping-rect1')" />
		<line x1="731.33" y1="31.00" x2="731.33" y2="29.00" stroke="#7f7f7f" stroke-width="1.00" clip-path="url('#clipping-rect1')" />
		<line x1="725.19" y1="31.00" x2="725.19" y2="29.00" stroke="#7f7f7f" stroke-width="1.00" clip-path="url('#clipping-rect1')" />
		<line x1="719.06" y1="31.00" x2="719.06" y2="29.00" stroke="#7f7f7f" stroke-width="1.00" clip-path="url('#clipping-rect1')" />
		<line x1="712.92" y1="31.00" x2="712.92" y2="29.00" stroke="#7f7f7f" stroke-width="1.00" clip-path="url('#clipping-rect1')" />
		<line x1="706.79" y1="31.00" x2="706.79" y2="28.00" stroke="#7f7f7f" stroke-width="1.00" clip-path="url('#clipping-rect1')" />
		<line x1="700.65" y1="31.00" x2="700.65" y2="29.00" stroke="#7f7f7f" stroke-width="1.00" clip-path="url('#clipping-rect1')" />
		<line x1="694.51" y1="31.00" x2="694.51" y2="29.00" stroke="#7f7f7f" stroke-width="1.00" clip-path="url('#clipping-rect1')" />
		<line x1="688.38" y1="31.00" x2="688.38" y2="29.00" stroke="#7f7f7f" stroke-width="1.00" clip-path="url('#clipping-rect1')" />
		<line x1="682.24" y1="31.00" x2="682.24" y2="29.00" stroke="#7f7f7f" stroke-width="1.00" clip-path="url('#clipping-rect1')" />
		<line x1="676.10" y1="31.00" x2="676.10" y2="28.00" stroke="#7f7f7f" stroke-width="1.00" clip-path="url('#clipping-rect1')" />
		<line x1="669.97" y1="31.00" x2="669.97" y2="29.00" stroke="#7f7f7f" stroke-width="1.00" clip-path="url('#clipping-rect1')" />
		<line x1="663.83" y1="31.00" x2="663.83" y2="29.00" stroke="#7f7f7f" stroke-width="1.00" clip-path="url('#clipping-rect1')" />
		<line x1="657.69" y1="31.00" x2="657.69" y2="29.00" stroke="#7f7f7f" stroke-width="1.00" clip-path="url('#clipping-rect1')" />
		<line x1="651.56" y1="31.00" x2="651.56" y2="29.00" stroke="#7f7f7f" stroke-width="1.00" clip-path="url('#clipping-rect1')" />
		<line x1="645.42" y1="31.00" x2="645.42" y2="28.00" stroke="#7f7f7f" stroke-width="1.00" clip-path="url('#clipping-rect1')" />
		<line x1="639.28" y1="31.00" x2="639.28" y2="29.00" stroke="#7f7f7f" stroke-width="1.00" clip-path="url('#clipping-rect1')" />
		<line x1="633.15" y1="31.00" x2="633.15" y2="29.00" stroke="#7f7f7f" stroke-width="1.00" clip-path="url('#clipping-rect1')" />
		<line x1="627.01" y1="31.00" x2="627.01" y2="29.00" stroke="#7f7f7f" stroke-width="1.00" clip-path="url('#clipping-rect1')" />
		<line x1="620.87" y1="31.00" x2="620.87" y2="29.00" stroke="#7f7f7f" stroke-width="1.00" clip-path="url('#clipping-rect1')" />
		<line x1="614.74" y1="31.00" x2="614.74" y2="28.00" stroke="#7f7f7f" stroke-width="1.00" clip-path="url('#clipping-rect1')" />
		<line x1="608.60" y1="31.00" x2="608.60" y2="29.00" stroke="#7f7f7f" stroke-width="1.00" clip-path="url('#clipping-rect1')" />
		<line x1="602.47" y1="31.00" x2="602.47" y2="29.00" stroke="#7f7f7f" stroke-width="1.00" clip-path="url('#clipping-rect1')" />
		<line x1="596.33" y1="31.00" x2="596.33" y2="29.00" stroke="#7f7f7f" stroke-width="1.00" clip-path="url('#clipping-rect1')" />
		<line x1="590.19" y1="31.00" x2="590.19" y2="29.00" stroke="#7f7f7f" stroke-width="1.00" clip-path="url('#clipping-rect1')" />
		<line x1="584.06" y1="31.00" x2="584.06" y2="28.00" stroke="#7f7f7f" stroke-width="1.00" clip-path="url('#clipping-rect1')" />
		<line x1="577.92" y1="31.00" x2="577.92" y2="29.00" stroke="#7f7f7f" stroke-width="1.00" clip-path="url('#clipping-rect1')" />
		<line x1="571.78" y1="31.00" x2="571.78" y2="29.00" stroke="#7f7f7f" stroke-width="1.00" clip-path="url('#clipping-rect1')" />
		<line x1="565.65" y1="31.00" x2="565.65" y2="29.00" stroke="#7f7f7f" stroke-width="1.00" clip-path="url('#clipping-rect1')" />
		<line x1="559.51" y1="31.00" x2="559.51" y2="29.00" stroke="#7f7f7f" stroke-width="1.00" clip-path="url('#clipping-rect1')" />
		<line x1="553.37" y1="31.00" x2="553.37" y2="28.00" stroke="#7f7f7f" stroke-width="1.00" clip-path="url('#clipping-rect1')" />
		<line x1="547.24" y1="31.00" x2="547.24" y2="29.00" stroke="#7f7f7f" stroke-width="1.00" clip-path="url('#clipping-rect1')" />
		<line x1="541.10" y1="31.00" x2="541.10" y2="29.00" stroke="#7f7f7f" stroke-width="1.00" clip-path="url('#clipping-rect1')" />
		<line x1="534.96" y1="31.00" x2="534.96" y2="29.00" stroke="#7f7f7f" stroke-width="1.00" clip-path="url('#clipping-rect1')" />
		<line x1="528.83" y1="31.00" x2="528.83" y2="29.00" stroke="#7f7f7f" stroke-width="1.00" clip-path="url('#clipping-rect1')" />
		<line x1="522.69" y1="31.00" x2="522.69" y2="28.00" stroke="#7f7f7f" stroke-width="1.00" clip-path="url('#clipping-rect1')" />
		<line x1="516.55" y1="31.00" x2="516.55" y2="29.00" stroke="#7f7f7f" stroke-width="1.00" clip-path="url('#clipping-rect1')" />
		<line x1="510.42" y1="31.00" x2="510.42" y2="29.00" stroke="#7f7f7f" stroke-width="1.00" clip-path="url('#clipping-rect1')" />
		<line x1="504.28" y1="31.00" x2="504.28" y2="29.00" stroke="#7f7f7f" stroke-width="1.00" clip-path="url('#clipping-rect1')" />
		<line x1="498.14" y1="31.00" x2="498.14" y2="29.00" stroke="#7f7f7f" stroke-width="1.00" clip-path="url('#clipping-rect1')" />
		<line x1="492.01" y1="31.00" x2="492.01" y2="28.00" stroke="#7f7f7f" stroke-width="1.00" clip-path="url('#clipping-rect1')" />
		<line x1="485.87" y1="31.00" x2="485.87" y2="29.00" stroke="#7f7f7f" stroke-width="1.00" clip-path="url('#clipping-rect1')" />
		<line x1="479.74" y1="31.00" x2="479.74" y2="29.00" stroke="#7f7f7f" stroke-width="1.00" clip-path="url('#clipping-rect1')" />
		<line x1="473.60" y1="31.00" x2="473.60" y2="29.00" stroke="#7f7f7f" stroke-width="1.00" clip-path="url('#clipping-rect1')" />
		<line x1="467.46" y1="31.00" x2="467.46" y2="29.00" stroke="#7f7f7f" stroke-width="1.00" clip-path="url('#clipping-rect1')" />
		<line x1="461.33" y1="31.00" x2="461.33" y2="28.00" stroke="#7f7f7f" stroke-width="1.00" clip-path="url('#clipping-rect1')" />
		<line x1="455.19" y1="31.00" x2="455.19" y2="29.00" stroke="#7f7f7f" stroke-width="1.00" clip-path="url('#clipping-rect1')" />
		<line x1="449.05" y1="31.00" x2="449.05" y2="29.00" stroke="#7f7f7f" stroke-width="1.00" clip-path="url('#clipping-rect1')" />
		<line x1="442.92" y1="31.00" x2="442.92" y2="29.00" stroke="#7f7f7f" stroke-width="1.00" clip-path="url('#clipping-rect1')" />
		<line x1="436.78" y1="31.00" x2="436.78" y2="29.00" stroke="#7f7f7f" stroke-width="1.00" clip-path="url('#clipping-rect1')" />
		<line x1="430.64" y1="31.00" x2="430.64" y2="28.00" stroke="#7f7f7f" stroke-width="1.00" clip-path="url('#clipping-rect1')" />
		<line x1="424.51" y1="31.00" x2="424.51" y2="29.00" stroke="#7f7f7f" stroke-width="1.00" clip-path="url('#clipping-rect1')" />
		<line x1="418.37" y1="31.00" x2="418.37" y2="29.00" stroke="#7f7f7f" stroke-width="1.00" clip-path="url('#clipping-rect1')" />
		<line x1="412.23" y1="31.00" x2="412.23" y2="29.00" stroke="#7f7f7f" stroke-width="1.00" clip-path="url('#clipping-rect1')" />
		<line x1="406.10" y1="31.00" x2="406.10" y2="29.00" stroke="#7f7f7f" stroke-width="1.00" clip-path="url('#clipping-rect1')" />
		<line x1="399.96" y1="31.00" x2="399.96" y2="28.00" stroke="#7f7f7f" stroke-width="1.00" clip-path="url('#clipping-rect1')" />
		<line x1="393.82" y1="31.00" x2="393.82" y2="29.00" stroke="#7f7f7f" stroke-width="1.00" clip-path="url('#clipping-rect1')" />
		<line x1="387.69" y1="31.00" x2="387.69" y2="29.00" stroke="#7f7f7f" stroke-width="1.00" clip-path="url('#clipping-rect1')" />
		<line x1="381.55" y1="31.00" x2="381.55" y2="29.00" stroke="#7f7f7f" stroke-width="1.00" clip-path="url('#clipping-rect1')" />
		<line x1="375.42" y1="31.00" x2="375.42" y2="29.00" stroke="#7f7f7f" stroke-width="1.00" clip-path="url('#clipping-rect1')" />
		<line x1="369.28" y1="31.00" x2="369.28" y2="28.00" stroke="#7f7f7f" stroke-width="1.00" clip-path="url('#clipping-rect1')" />
		<line x1="363.14" y1="31.00" x2="363.14" y2="29.00" stroke="#7f7f7f" stroke-width="1.00" clip-path="url('#clipping-rect1')" />
		<line x1="357.01" y1="31.00" x2="357.01" y2="29.00" stroke="#7f7f7f" stroke-width="1.00" clip-path="url('#clipping-rect1')" />
		<line x1="350.87" y1="31.00" x2="350.87" y2="29.00" stroke="#7f7f7f" stroke-width="1.00" clip-path="url('#clipping-rect1')" />
		<line x1="344.73" y1="31.00" x2="344.73" y2="29.00" stroke="#7f7f7f" stroke-width="1.00" clip-path="url('#clipping-rect1')" />
		<line x1="338.60" y1="31.00" x2="338.60" y2="28.00" stroke="#7f7f7f" stroke-width="1.00" clip-path="url('#clipping-rect1')" />
		<line x1="332.46" y1="31.00" x2="332.46" y2="29.00" stroke="#7f7f7f" stroke-width="1.00" clip-path="url('#clipping-rect1')" />
		<line x1="326.32" y1="31.00" x2="326.32" y2="29.00" stroke="#7f7f7f" stroke-width="1.00" clip-path="url('#clipping-rect1')" />
		<line x1="320.19" y1="31.00" x2="320.19" y2="29.00" stroke="#7f7f7f" stroke-width="1.00" clip-path="url('#clipping-rect1')" />
		<line x1="314.05" y1="31.00" x2="314.05" y2="29.00" stroke="#7f7f7f" stroke-width="1.00" clip-path="url('#clipping-rect1')" />
		<line x1="307.91" y1="31.00" x2="307.91" y2="28.00" stroke="#7f7f7f" stroke-width="1.00" clip-path="url('#clipping-rect1')" />
		<line x1="301.78" y1="31.00" x2="301.78" y2="29.00" stroke="#7f7f7f" stroke-width="1.00" clip-path="url('#clipping-rect1')" />
		<line x1="295.64" y1="31.00" x2="295.64" y2="29.00" stroke="#7f7f7f" stroke-width="1.00" clip-path="url('#clipping-rect1')" />
		<line x1="289.50" y1="31.00" x2="289.50" y2="29.00" stroke="#7f7f7f" stroke-width="1.00" clip-path="url('#clipping-rect1')" />
		<line x1="283.37" y1="31.00" x2="283.37" y2="29.00" stroke="#7f7f7f" stroke-width="1.00" clip-path="url('#clipping-rect1')" />
		<line x1="277.23" y1="31.00" x2="277.23" y2="28.00" stroke="#7f7f7f" stroke-width="1.00" clip-path="url('#clipping-rect1')" />
		<line x1="271.09" y1="31.00" x2="271.09" y2="29.00" stroke="#7f7f7f" stroke-width="1.00" clip-path="url('#clipping-rect1')" />
		<line x1="264.96" y1="31.00" x2="264.96" y2="29.00" stroke="#7f7f7f" stroke-width="1.00" clip-path="url('#clipping-rect1')" />
		<line x1="258.82" y1="31.00" x2="258.82" y2="29.00" stroke="#7f7f7f" stroke-width="1.00" clip-path="url('#clipping-rect1')" />
		<line x1="252.69" y1="31.00" x2="252.69" y2="29.00" stroke="#7f7f7f" stroke-width="1.00" clip-path="url('#clipping-rect1')" />
		<line x1="246.55" y1="31.00" x2="246.55" y2="28.00" stroke="#7f7f7f" stroke-width="1.00" clip-path="url('#clipping-rect1')" />
		<line x1="240.41" y1="31.00" x2="240.41" y2="29.00" stroke="#7f7f7f" stroke-width="1.00" clip-path="url('#clipping-rect1')" />
		<line x1="234.28" y1="31.00" x2="234.28" y2="29.00" stroke="#7f7f7f" stroke-width="1.00" clip-path="url('#clipping-rect1')" />
		<line x1="228.14" y1="31.00" x2="228.14" y2="29.00" stroke="#7f7f7f" stroke-width="1.00" clip-path="url('#clipping-rect1')" />
		<line x1="222.00" y1="31.00" x2="222.00" y2="29.00" stroke="#7f7f7f" stroke-width="1.00" clip-path="url('#clipping-rect1')" />
		<line x1="215.87" y1="31.00" x2="215.87" y2="28.00" stroke="#7f7f7f" stroke-width="1.00" clip-path="url('#clipping-rect1')" />
		<line x1="209.73" y1="31.00" x2="209.73" y2="29.00" stroke="#7f7f7f" stroke-width="1.00" clip-path="url('#clipping-rect1')" />
		<line x1="203.59" y1="31.00" x2="203.59" y2="29.00" stroke="#7f7f7f" stroke-width="1.00" clip-path="url('#clipping-rect1')" />
		<line x1="197.46" y1="31.00" x2="197.46" y2="29.00" stroke="#7f7f7f" stroke-width="1.00" clip-path="url('#clipping-rect1')" />
		<line x1="191.32" y1="31.00" x2="191.32" y2="29.00" stroke="#7f7f7f" stroke-width="1.00" clip-path="url('#clipping-rect1')" />
		<line x1="185.18" y1="31.00" x2="185.18" y2="28.00" stroke="#7f7f7f" stroke-width="1.00" clip-path="url('#clipping-rect1')" />
		<line x1="179.05" y1="31.00" x2="179.05" y2="29.00" stroke="#7f7f7f" stroke-width="1.00" clip-path="url('#clipping-rect1')" />
		<line x1="172.91" y1="31.00" x2="172.91" y2="29.00" stroke="#7f7f7f" stroke-width="1.00" clip-path="url('#clipping-rect1')" />
		<line x1="166.77" y1="31.00" x2="166.77" y2="29.00" stroke="#7f7f7f" stroke-width="1.00" clip-path="url('#clipping-rect1')" />
		<line x1="160.64" y1="31.00" x2="160.64" y2="29.00" stroke="#7f7f7f" stroke-width="1.00" clip-path="url('#clipping-rect1')" />
		<line x1="154.50" y1="31.00" x2="154.50" y2="28.00" stroke="#7f7f7f" stroke-width="1.00" clip-path="url('#clipping-rect1')" />
		<line x1="148.36" y1="31.00" x2="148.36" y2="29.00" stroke="#7f7f7f" stroke-width="1.00" clip-path="url('#clipping-rect1')" />
		<line x1="142.23" y1="31.00" x2="142.23" y2="29.00" stroke="#7f7f7f" stroke-width="1.00" clip-path="url('#clipping-rect1')" />
		<line x1="136.09" y1="31.00" x2="136.09" y2="29.00" stroke="#7f7f7f" stroke-width="1.00" clip-path="url('#clipping-rect1')" />
		<line x1="129.96" y1="31.00" x2="129.96" y2="29.00" stroke="#7f7f7f" stroke-width="1.00" clip-path="url('#clipping-rect1')" />
		<line x1="123.82" y1="31.00" x2="123.82" y2="28.00" stroke="#7f7f7f" stroke-width="1.00" clip-path="url('#clipping-rect1')" />
		<line x1="117.68" y1="31.00" x2="117.68" y2="29.00" stroke="#7f7f7f" stroke-width="1.00" clip-path="url('#clipping-rect1')" />
		<line x1="111.55" y1="31.00" x2="111.55" y2="29.00" stroke="#7f7f7f" stroke-width="1.00" clip-path="url('#clipping-rect1')" />
		<line x1="105.41" y1="31.00" x2="105.41" y2="29.00" stroke="#7f7f7f" stroke-width="1.00" clip-path="url('#clipping-rect1')" />
		<line x1="99.27" y1="31.00" x2="99.27" y2="29.00" stroke="#7f7f7f" stroke-width="1.00" clip-path="url('#clipping-rect1')" />
		<line x1="93.14" y1="31.00" x2="93.14" y2="28.00" stroke="#7f7f7f" stroke-width="1.00" clip-path="url('#clipping-rect1')" />
		<line x1="87.00" y1="31.00" x2="87.00" y2="29.00" stroke="#7f7f7f" stroke-width="1.00" clip-path="url('#clipping-rect1')" />
		<line x1="80.86" y1="31.00" x2="80.86" y2="29.00" stroke="#7f7f7f" stroke-width="1.00" clip-path="url('#clipping-rect1')" />
		<line x1="74.73" y1="31.00" x2="74.73" y2="29.00" stroke="#7f7f7f" stroke-width="1.00" clip-path="url('#clipping-rect1')" />
		<line x1="68.59" y1="31.00" x2="68.59" y2="29.00" stroke="#7f7f7f" stroke-width="1.00" clip-path="url('#clipping-rect1')" />
		<line x1="62.45" y1="31.00" x2="62.45" y2="28.00" stroke="#7f7f7f" stroke-width="1.00" clip-path="url('#clipping-rect1')" />
		<line x1="56.32" y1="31.00" x2="56.32" y2="29.00" stroke="#7f7f7f" stroke-width="1.00" clip-path="url('#clipping-rect1')" />
		<line x1="50.18" y1="31.00" x2="50.18" y2="29.00" stroke="#7f7f7f" stroke-width="1.00" clip-path="url('#clipping-rect1')" />
		<line x1="44.04" y1="31.00" x2="44.04" y2="29.00" stroke="#7f7f7f" stroke-width="1.00" clip-path="url('#clipping-rect1')" />
		<line x1="37.91" y1="31.00" x2="37.91" y2="29.00" stroke="#7f7f7f" stroke-width="1.00" clip-path="url('#clipping-rect1')" />
		<line x1="31.77" y1="31.00" x2="31.77" y2="28.00" stroke="#7f7f7f" stroke-width="1.00" clip-path="url('#clipping-rect1')" />
		<line x1="25.64" y1="31.00" x2="25.64" y2="29.00" stroke="#7f7f7f" stroke-width="1.00" clip-path="url('#clipping-rect1')" />
		<line x1="19.50" y1="31.00" x2="19.50" y2="29.00" stroke="#7f7f7f" stroke-width="1.00" clip-path="url('#clipping-rect1')" />
		<line x1="13.36" y1="31.00" x2="13.36" y2="29.00" stroke="#7f7f7f" stroke-width="1.00" clip-path="url('#clipping-rect1')" />
		<line x1="7.23" y1="31.00" x2="7.23" y2="29.00" stroke="#7f7f7f" stroke-width="1.00" clip-path="url('#clipping-rect1')" />
		<line x1="1.09" y1="31.00" x2="1.09" y2="28.00" stroke="#7f7f7f" stroke-width="1.00" clip-path="url('#clipping-rect1')" />
		<text x="862.20" y="26.00" font-family="Helvetica" font-size="12" fill="#333333" clip-path="url('#clipping-rect1')" >46 K</text>
		<line x1="860.20" y1="33.00" x2="860.20" y2="16.00" stroke="#7f7f7f" stroke-width="1.00" clip-path="url('#clipping-rect1')" />
		<text x="800.83" y="26.00" font-family="Helvetica" font-size="12" fill="#333333" clip-path="url('#clipping-rect1')" >48 K</text>
		<line x1="798.83" y1="33.00" x2="798.83" y2="16.00" stroke="#7f7f7f" stroke-width="1.00" clip-path="url('#clipping-rect1')" />
		<text x="739.47" y="26.00" font-family="Helvetica" font-size="12" fill="#333333" clip-path="url('#clipping-rect1')" >50 K</text>
		<line x1="737.47" y1="33.00" x2="737.47" y2="16.00" stroke="#7f7f7f" stroke-width="1.00" clip-path="url('#clipping-rect1')" />
		<text x="678.10" y="26.00" font-family="Helvetica" font-size="12" fill="#333333" clip-path="url('#clipping-rect1')" >52 K</text>
		<line x1="676.10" y1="33.00" x2="676.10" y2="16.00" stroke="#7f7f7f" stroke-width="1.00" clip-path="url('#clipping-rect1')" />
		<text x="616.74" y="26.00" font-family="Helvetica" font-size="12" fill="#333333" clip-path="url('#clipping-rect1')" >54 K</text>
		<line x1="614.74" y1="33.00" x2="614.74" y2="16.00" stroke="#7f7f7f" stroke-width="1.00" clip-path="url('#clipping-rect1')" />
		<text x="555.37" y="26.00" font-family="Helvetica" font-size="12" fill="#333333" clip-path="url('#clipping-rect1')" >56 K</text>
		<line x1="553.37" y1="33.00" x2="553.37" y2="16.00" stroke="#7f7f7f" stroke-width="1.00" clip-path="url('#clipping-rect1')" />
		<text x="494.01" y="26.00" font-family="Helvetica" font-size="12" fill="#333333" clip-path="url('#clipping-rect1')" >58 K</text>
		<line x1="492.01" y1="33.00" x2="492.01" y2="16.00" stroke="#7f7f7f" stroke-width="1.00" clip-path="url('#clipping-rect1')" />
		<text x="432.64" y="26.00" font-family="Helvetica" font-size="12" fill="#333333" clip-path="url('#clipping-rect1')" >60 K</text>
		<line x1="430.64" y1="33.00" x2="430.64" y2="16.00" stroke="#7f7f7f" stroke-width="1.00" clip-path="url('#clipping-rect1')" />
		<text x="371.28" y="26.00" font-family="Helvetica" font-size="12" fill="#333333" clip-path="url('#clipping-rect1')" >62 K</text>
		<line x1="369.28" y1="33.00" x2="369.28" y2="16.00" stroke="#7f7f7f" stroke-width="1.00" clip-path="url('#clipping-rect1')" />
		<text x="309.91" y="26.00" font-family="Helvetica" font-size="12" fill="#333333" clip-path="url('#clipping-rect1')" >64 K</text>
		<line x1="307.91" y1="33.00" x2="307.91" y2="16.00" stroke="#7f7f7f" stroke-width="1.00" clip-path="url('#clipping-rect1')" />
		<text x="248.55" y="26.00" font-family="Helvetica" font-size="12" fill="#333333" clip-path="url('#clipping-rect1')" >66 K</text>
		<line x1="246.55" y1="33.00" x2="246.55" y2="16.00" stroke="#7f7f7f" stroke-width="1.00" clip-path="url('#clipping-rect1')" />
		<text x="187.18" y="26.00" font-family="Helvetica" font-size="12" fill="#333333" clip-path="url('#clipping-rect1')" >68 K</text>
		<line x1="185.18" y1="33.00" x2="185.18" y2="16.00" stroke="#7f7f7f" stroke-width="1.00" clip-path="url('#clipping-rect1')" />
		<text x="125.82" y="26.00" font-family="Helvetica" font-size="12" fill="#333333" clip-path="url('#clipping-rect1')" >70 K</text>
		<line x1="123.82" y1="33.00" x2="123.82" y2="16.00" stroke="#7f7f7f" stroke-width="1.00" clip-path="url('#clipping-rect1')" />
		<text x="64.45" y="26.00" font-family="Helvetica" font-size="12" fill="#333333" clip-path="url('#clipping-rect1')" >72 K</text>
		<line x1="62.45" y1="33.00" x2="62.45" y2="16.00" stroke="#7f7f7f" stroke-width="1.00" clip-path="url('#clipping-rect1')" />
		<text x="3.09" y="26.00" font-family="Helvetica" font-size="12" fill="#333333" clip-path="url('#clipping-rect1')" >74 K</text>
		<line x1="1.09" y1="33.00" x2="1.09" y2="16.00" stroke="#7f7f7f" stroke-width="1.00" clip-path="url('#clipping-rect1')" />
		<line x1="860.97" y1="88.00" x2="860.97" y2="33.00" stroke="#ebebeb" stroke-width="1.00" />
		<line x1="798.90" y1="88.00" x2="798.90" y2="33.00" stroke="#ebebeb" stroke-width="1.00" />
		<line x1="737.83" y1="88.00" x2="737.83" y2="33.00" stroke="#ebebeb" stroke-width="1.00" />
		<line x1="676.76" y1="88.00" x2="676.76" y2="33.00" stroke="#ebebeb" stroke-width="1.00" />
		<line x1="614.69" y1="88.00" x2="614.69" y2="33.00" stroke="#ebebeb" stroke-width="1.00" />
		<line x1="553.62" y1="88.00" x2="553.62" y2="33.00" stroke="#ebebeb" stroke-width="1.00" />
		<line x1="492.55" y1="88.00" x2="492.55" y2="33.00" stroke="#ebebeb" stroke-width="1.00" />
		<line x1="430.48" y1="88.00" x2="430.48" y2="33.00" stroke="#ebebeb" stroke-width="1.00" />
		<line x1="369.41" y1="88.00" x2="369.41" y2="33.00" stroke="#ebebeb" stroke-width="1.00" />
		<line x1="307.34" y1="88.00" x2="307.34" y2="33.00" stroke="#ebebeb" stroke-width="1.00" />
		<line x1="246.28" y1="88.00" x2="246.28" y2="33.00" stroke="#ebebeb" stroke-width="1.00" />
		<line x1="185.21" y1="88.00" x2="185.21" y2="33.00" stroke="#ebebeb" stroke-width="1.00" />
		<line x1="123.14" y1="88.00" x2="123.14" y2="33.00" stroke="#ebebeb" stroke-width="1.00" />
		<line x1="62.07" y1="88.00" x2="62.07" y2="33.00" stroke="#ebebeb" stroke-width="1.00" />
		<line x1="1.00" y1="88.00" x2="1.00" y2="33.00" stroke="#ebebeb" stroke-width="1.00" />
		<polygon fill="url('#gradient1')" shape-rendering="crispEdges" points="0.00,40.00 0.00,35.00 892.00,35.00 892.00,40.00 892.00,45.00 0.00,45.00 " />
		<line x1="892.00" y1="45.00" x2="892.00" y2="35.00" stroke="#6c6c6c" stroke-width="1.00" stroke-linejoin="round" />
		<line x1="892.00" y1="35.00" x2="0.00" y2="35.00" stroke="#6c6c6c" stroke-width="1.00" stroke-linejoin="round" />
		<line x1="0.00" y1="35.00" x2="0.00" y2="45.00" stroke="#6c6c6c" stroke-width="1.00" stroke-linejoin="round" />
		<line x1="892.00" y1="45.00" x2="0.00" y2="45.00" stroke="#6c6c6c" stroke-width="1.00" stroke-linejoin="round" />
		<polygon fill="url('#gradient2')" shape-rendering="crispEdges" points="765.96,39.50 765.96,46.00 892.00,46.00 892.00,39.50 892.00,33.00 765.96,33.00 " />
		<polygon fill="#101010" shape-rendering="crispEdges" points="765.00,33.00 765.00,46.00 766.00,46.00 766.00,33.00 " />
		<polygon fill="url('#gradient2')" shape-rendering="crispEdges" points="0.00,39.50 0.00,46.00 765.01,46.00 765.01,39.50 765.01,33.00 0.00,33.00 " />
		<line x1="767.00" y1="33.00" x2="767.00" y2="46.00" stroke="#101010" stroke-width="1.00" />
		<line x1="766.00" y1="33.00" x2="766.00" y2="46.00" stroke="#101010" stroke-width="1.00" />
		<line x1="765.00" y1="33.00" x2="765.00" y2="46.00" stroke="#101010" stroke-width="1.00" />
		<polygon fill="url('#gradient3')" shape-rendering="crispEdges" points="22.08,76.40 22.08,82.40 338.07,82.40 338.07,76.40 338.07,70.40 22.08,70.40 " />
		<polygon fill="url('#gradient3')" shape-rendering="crispEdges" points="338.07,76.40 338.07,84.80 346.47,76.40 338.07,68.00 " />
		<polygon fill="#8ab698" shape-rendering="crispEdges" points="22.08,76.40 22.08,70.40 13.68,70.40 " />
		<polygon fill="#8ab698" shape-rendering="crispEdges" points="22.08,76.40 22.08,82.40 13.68,82.40 " />
		<line x1="13.68" y1="70.40" x2="22.08" y2="70.40" stroke="#166e32" stroke-width="1.50" />
		<line x1="13.68" y1="70.40" x2="22.08" y2="76.40" stroke="#166e32" stroke-width="1.50" />
		<line x1="13.68" y1="82.40" x2="22.08" y2="82.40" stroke="#166e32" stroke-width="1.50" />
		<line x1="13.68" y1="82.40" x2="22.08" y2="76.40" stroke="#166e32" stroke-width="1.50" />
		<polygon fill="#ffffff" shape-rendering="crispEdges" points="334.88,76.40 325.28,71.60 327.68,76.40 325.28,81.20 " />
		<polygon fill="#e0e0e0" shape-rendering="crispEdges" points="234.88,76.40 225.28,71.60 227.68,76.40 225.28,81.20 " />
		<polygon fill="#c1c1c1" shape-rendering="crispEdges" points="134.88,76.40 125.28,71.60 127.68,76.40 125.28,81.20 " />
		<polygon fill="#ffffff" shape-rendering="crispEdges" points="34.88,76.40 25.28,71.60 27.68,76.40 25.28,81.20 " />
		<polygon fill="url('#gradient4')" shape-rendering="crispEdges" points="0.00,62.00 891.97,62.00 891.97,47.00 0.00,47.00 " clip-path="url('#clipping-rect2')" />
		<text x="0.00" y="58.00" font-family="Helvetica" font-size="14" fill="#333333" >Genes, NCBI Buceros rhinoceros silvestris Annotation Release 100, 2014-11-06</text>
		<polygon fill="#e5e5e5" shape-rendering="crispEdges" points="892.00,13.00 892.00,-1.00 0.00,-1.00 0.00,13.00 " />
		<text x="0.00" y="10.00" font-family="Helvetica Bold" font-size="12" text-anchor="start" fill="#000000" >NW_010424911.1:44963..74035 Buceros rhinoceros silvestris isolate BGI_N320 unplaced genomic scaffold, ASM71030v1 scaffold3248, whole genome shot...</text>
	</g>
</svg>
