<?xml version="1.0" standalone="no" ?>
<!DOCTYPE svg PUBLIC "-//W3C//DTD SVG 1.1//EN" "http://www.w3.org/Graphics/SVG/1.1/DTD/svg11.dtd">
<svg width="892px" height="89px" xmlns="http://www.w3.org/2000/svg" version="1.1" viewBox="0 0 892 89" >
	<style type="text/css" > <![CDATA[
		@import url("https://www.ncbi.nlm.nih.gov/projects/sviewer/css/svg_fonts.css");
	]]>
	</style>
	<desc >Generated by NCBI Genome Workbench http://www.ncbi.nlm.nih.gov/tools/gbench/</desc>
	<defs >
		<clipPath id="clipping-rect1" >
			<rect x="0" y="14" width="892" height="20" />
		</clipPath>
		<linearGradient id="gradient1" gradientTransform="rotate(90)" >
			<stop offset="0%" stop-color="#6c6c6c" />
			<stop offset="50%" stop-color="#b5b5b5" />
			<stop offset="100%" stop-color="#6c6c6c" />
		</linearGradient>
		<linearGradient id="gradient2" gradientTransform="rotate(90)" >
			<stop offset="0%" stop-color="#10c010" />
			<stop offset="50%" stop-color="#87df87" />
			<stop offset="100%" stop-color="#10c010" />
		</linearGradient>
		<linearGradient id="gradient3" gradientTransform="rotate(90)" >
			<stop offset="0%" stop-color="#166e32" />
			<stop offset="50%" stop-color="#8ab698" />
			<stop offset="100%" stop-color="#166e32" />
		</linearGradient>
		<clipPath id="clipping-rect2" >
			<rect x="0" y="34" width="892" height="55" />
		</clipPath>
		<linearGradient id="gradient4" gradientTransform="rotate(90)" >
			<stop offset="0%" stop-color="#e6e6e6" stop-opacity="0.71" />
			<stop offset="100%" stop-color="#ffffff" stop-opacity="0.00" />
		</linearGradient>
	</defs>
	<g >
		<polygon fill="#ffffff" shape-rendering="crispEdges" points="892.00,33.00 892.00,13.00 0.00,13.00 0.00,33.00 " />
		<line x1="0.03" y1="31.00" x2="892.00" y2="31.00" stroke="#7f7f7f" stroke-width="1.00" clip-path="url('#clipping-rect1')" />
		<line x1="887.40" y1="31.00" x2="887.40" y2="29.00" stroke="#7f7f7f" stroke-width="1.00" clip-path="url('#clipping-rect1')" />
		<line x1="882.38" y1="31.00" x2="882.38" y2="28.00" stroke="#7f7f7f" stroke-width="1.00" clip-path="url('#clipping-rect1')" />
		<line x1="877.36" y1="31.00" x2="877.36" y2="29.00" stroke="#7f7f7f" stroke-width="1.00" clip-path="url('#clipping-rect1')" />
		<line x1="872.34" y1="31.00" x2="872.34" y2="29.00" stroke="#7f7f7f" stroke-width="1.00" clip-path="url('#clipping-rect1')" />
		<line x1="867.31" y1="31.00" x2="867.31" y2="29.00" stroke="#7f7f7f" stroke-width="1.00" clip-path="url('#clipping-rect1')" />
		<line x1="862.29" y1="31.00" x2="862.29" y2="29.00" stroke="#7f7f7f" stroke-width="1.00" clip-path="url('#clipping-rect1')" />
		<line x1="857.27" y1="31.00" x2="857.27" y2="29.00" stroke="#7f7f7f" stroke-width="1.00" clip-path="url('#clipping-rect1')" />
		<line x1="852.25" y1="31.00" x2="852.25" y2="29.00" stroke="#7f7f7f" stroke-width="1.00" clip-path="url('#clipping-rect1')" />
		<line x1="847.22" y1="31.00" x2="847.22" y2="29.00" stroke="#7f7f7f" stroke-width="1.00" clip-path="url('#clipping-rect1')" />
		<line x1="842.20" y1="31.00" x2="842.20" y2="29.00" stroke="#7f7f7f" stroke-width="1.00" clip-path="url('#clipping-rect1')" />
		<line x1="837.18" y1="31.00" x2="837.18" y2="29.00" stroke="#7f7f7f" stroke-width="1.00" clip-path="url('#clipping-rect1')" />
		<line x1="832.16" y1="31.00" x2="832.16" y2="28.00" stroke="#7f7f7f" stroke-width="1.00" clip-path="url('#clipping-rect1')" />
		<line x1="827.13" y1="31.00" x2="827.13" y2="29.00" stroke="#7f7f7f" stroke-width="1.00" clip-path="url('#clipping-rect1')" />
		<line x1="822.11" y1="31.00" x2="822.11" y2="29.00" stroke="#7f7f7f" stroke-width="1.00" clip-path="url('#clipping-rect1')" />
		<line x1="817.09" y1="31.00" x2="817.09" y2="29.00" stroke="#7f7f7f" stroke-width="1.00" clip-path="url('#clipping-rect1')" />
		<line x1="812.07" y1="31.00" x2="812.07" y2="29.00" stroke="#7f7f7f" stroke-width="1.00" clip-path="url('#clipping-rect1')" />
		<line x1="807.04" y1="31.00" x2="807.04" y2="29.00" stroke="#7f7f7f" stroke-width="1.00" clip-path="url('#clipping-rect1')" />
		<line x1="802.02" y1="31.00" x2="802.02" y2="29.00" stroke="#7f7f7f" stroke-width="1.00" clip-path="url('#clipping-rect1')" />
		<line x1="797.00" y1="31.00" x2="797.00" y2="29.00" stroke="#7f7f7f" stroke-width="1.00" clip-path="url('#clipping-rect1')" />
		<line x1="791.98" y1="31.00" x2="791.98" y2="29.00" stroke="#7f7f7f" stroke-width="1.00" clip-path="url('#clipping-rect1')" />
		<line x1="786.95" y1="31.00" x2="786.95" y2="29.00" stroke="#7f7f7f" stroke-width="1.00" clip-path="url('#clipping-rect1')" />
		<line x1="781.93" y1="31.00" x2="781.93" y2="28.00" stroke="#7f7f7f" stroke-width="1.00" clip-path="url('#clipping-rect1')" />
		<line x1="776.91" y1="31.00" x2="776.91" y2="29.00" stroke="#7f7f7f" stroke-width="1.00" clip-path="url('#clipping-rect1')" />
		<line x1="771.89" y1="31.00" x2="771.89" y2="29.00" stroke="#7f7f7f" stroke-width="1.00" clip-path="url('#clipping-rect1')" />
		<line x1="766.86" y1="31.00" x2="766.86" y2="29.00" stroke="#7f7f7f" stroke-width="1.00" clip-path="url('#clipping-rect1')" />
		<line x1="761.84" y1="31.00" x2="761.84" y2="29.00" stroke="#7f7f7f" stroke-width="1.00" clip-path="url('#clipping-rect1')" />
		<line x1="756.82" y1="31.00" x2="756.82" y2="29.00" stroke="#7f7f7f" stroke-width="1.00" clip-path="url('#clipping-rect1')" />
		<line x1="751.80" y1="31.00" x2="751.80" y2="29.00" stroke="#7f7f7f" stroke-width="1.00" clip-path="url('#clipping-rect1')" />
		<line x1="746.77" y1="31.00" x2="746.77" y2="29.00" stroke="#7f7f7f" stroke-width="1.00" clip-path="url('#clipping-rect1')" />
		<line x1="741.75" y1="31.00" x2="741.75" y2="29.00" stroke="#7f7f7f" stroke-width="1.00" clip-path="url('#clipping-rect1')" />
		<line x1="736.73" y1="31.00" x2="736.73" y2="29.00" stroke="#7f7f7f" stroke-width="1.00" clip-path="url('#clipping-rect1')" />
		<line x1="731.71" y1="31.00" x2="731.71" y2="28.00" stroke="#7f7f7f" stroke-width="1.00" clip-path="url('#clipping-rect1')" />
		<line x1="726.68" y1="31.00" x2="726.68" y2="29.00" stroke="#7f7f7f" stroke-width="1.00" clip-path="url('#clipping-rect1')" />
		<line x1="721.66" y1="31.00" x2="721.66" y2="29.00" stroke="#7f7f7f" stroke-width="1.00" clip-path="url('#clipping-rect1')" />
		<line x1="716.64" y1="31.00" x2="716.64" y2="29.00" stroke="#7f7f7f" stroke-width="1.00" clip-path="url('#clipping-rect1')" />
		<line x1="711.62" y1="31.00" x2="711.62" y2="29.00" stroke="#7f7f7f" stroke-width="1.00" clip-path="url('#clipping-rect1')" />
		<line x1="706.59" y1="31.00" x2="706.59" y2="29.00" stroke="#7f7f7f" stroke-width="1.00" clip-path="url('#clipping-rect1')" />
		<line x1="701.57" y1="31.00" x2="701.57" y2="29.00" stroke="#7f7f7f" stroke-width="1.00" clip-path="url('#clipping-rect1')" />
		<line x1="696.55" y1="31.00" x2="696.55" y2="29.00" stroke="#7f7f7f" stroke-width="1.00" clip-path="url('#clipping-rect1')" />
		<line x1="691.53" y1="31.00" x2="691.53" y2="29.00" stroke="#7f7f7f" stroke-width="1.00" clip-path="url('#clipping-rect1')" />
		<line x1="686.50" y1="31.00" x2="686.50" y2="29.00" stroke="#7f7f7f" stroke-width="1.00" clip-path="url('#clipping-rect1')" />
		<line x1="681.48" y1="31.00" x2="681.48" y2="28.00" stroke="#7f7f7f" stroke-width="1.00" clip-path="url('#clipping-rect1')" />
		<line x1="676.46" y1="31.00" x2="676.46" y2="29.00" stroke="#7f7f7f" stroke-width="1.00" clip-path="url('#clipping-rect1')" />
		<line x1="671.44" y1="31.00" x2="671.44" y2="29.00" stroke="#7f7f7f" stroke-width="1.00" clip-path="url('#clipping-rect1')" />
		<line x1="666.41" y1="31.00" x2="666.41" y2="29.00" stroke="#7f7f7f" stroke-width="1.00" clip-path="url('#clipping-rect1')" />
		<line x1="661.39" y1="31.00" x2="661.39" y2="29.00" stroke="#7f7f7f" stroke-width="1.00" clip-path="url('#clipping-rect1')" />
		<line x1="656.37" y1="31.00" x2="656.37" y2="29.00" stroke="#7f7f7f" stroke-width="1.00" clip-path="url('#clipping-rect1')" />
		<line x1="651.35" y1="31.00" x2="651.35" y2="29.00" stroke="#7f7f7f" stroke-width="1.00" clip-path="url('#clipping-rect1')" />
		<line x1="646.32" y1="31.00" x2="646.32" y2="29.00" stroke="#7f7f7f" stroke-width="1.00" clip-path="url('#clipping-rect1')" />
		<line x1="641.30" y1="31.00" x2="641.30" y2="29.00" stroke="#7f7f7f" stroke-width="1.00" clip-path="url('#clipping-rect1')" />
		<line x1="636.28" y1="31.00" x2="636.28" y2="29.00" stroke="#7f7f7f" stroke-width="1.00" clip-path="url('#clipping-rect1')" />
		<line x1="631.26" y1="31.00" x2="631.26" y2="28.00" stroke="#7f7f7f" stroke-width="1.00" clip-path="url('#clipping-rect1')" />
		<line x1="626.23" y1="31.00" x2="626.23" y2="29.00" stroke="#7f7f7f" stroke-width="1.00" clip-path="url('#clipping-rect1')" />
		<line x1="621.21" y1="31.00" x2="621.21" y2="29.00" stroke="#7f7f7f" stroke-width="1.00" clip-path="url('#clipping-rect1')" />
		<line x1="616.19" y1="31.00" x2="616.19" y2="29.00" stroke="#7f7f7f" stroke-width="1.00" clip-path="url('#clipping-rect1')" />
		<line x1="611.17" y1="31.00" x2="611.17" y2="29.00" stroke="#7f7f7f" stroke-width="1.00" clip-path="url('#clipping-rect1')" />
		<line x1="606.14" y1="31.00" x2="606.14" y2="29.00" stroke="#7f7f7f" stroke-width="1.00" clip-path="url('#clipping-rect1')" />
		<line x1="601.12" y1="31.00" x2="601.12" y2="29.00" stroke="#7f7f7f" stroke-width="1.00" clip-path="url('#clipping-rect1')" />
		<line x1="596.10" y1="31.00" x2="596.10" y2="29.00" stroke="#7f7f7f" stroke-width="1.00" clip-path="url('#clipping-rect1')" />
		<line x1="591.08" y1="31.00" x2="591.08" y2="29.00" stroke="#7f7f7f" stroke-width="1.00" clip-path="url('#clipping-rect1')" />
		<line x1="586.05" y1="31.00" x2="586.05" y2="29.00" stroke="#7f7f7f" stroke-width="1.00" clip-path="url('#clipping-rect1')" />
		<line x1="581.03" y1="31.00" x2="581.03" y2="28.00" stroke="#7f7f7f" stroke-width="1.00" clip-path="url('#clipping-rect1')" />
		<line x1="576.01" y1="31.00" x2="576.01" y2="29.00" stroke="#7f7f7f" stroke-width="1.00" clip-path="url('#clipping-rect1')" />
		<line x1="570.99" y1="31.00" x2="570.99" y2="29.00" stroke="#7f7f7f" stroke-width="1.00" clip-path="url('#clipping-rect1')" />
		<line x1="565.96" y1="31.00" x2="565.96" y2="29.00" stroke="#7f7f7f" stroke-width="1.00" clip-path="url('#clipping-rect1')" />
		<line x1="560.94" y1="31.00" x2="560.94" y2="29.00" stroke="#7f7f7f" stroke-width="1.00" clip-path="url('#clipping-rect1')" />
		<line x1="555.92" y1="31.00" x2="555.92" y2="29.00" stroke="#7f7f7f" stroke-width="1.00" clip-path="url('#clipping-rect1')" />
		<line x1="550.90" y1="31.00" x2="550.90" y2="29.00" stroke="#7f7f7f" stroke-width="1.00" clip-path="url('#clipping-rect1')" />
		<line x1="545.87" y1="31.00" x2="545.87" y2="29.00" stroke="#7f7f7f" stroke-width="1.00" clip-path="url('#clipping-rect1')" />
		<line x1="540.85" y1="31.00" x2="540.85" y2="29.00" stroke="#7f7f7f" stroke-width="1.00" clip-path="url('#clipping-rect1')" />
		<line x1="535.83" y1="31.00" x2="535.83" y2="29.00" stroke="#7f7f7f" stroke-width="1.00" clip-path="url('#clipping-rect1')" />
		<line x1="530.81" y1="31.00" x2="530.81" y2="28.00" stroke="#7f7f7f" stroke-width="1.00" clip-path="url('#clipping-rect1')" />
		<line x1="525.78" y1="31.00" x2="525.78" y2="29.00" stroke="#7f7f7f" stroke-width="1.00" clip-path="url('#clipping-rect1')" />
		<line x1="520.76" y1="31.00" x2="520.76" y2="29.00" stroke="#7f7f7f" stroke-width="1.00" clip-path="url('#clipping-rect1')" />
		<line x1="515.74" y1="31.00" x2="515.74" y2="29.00" stroke="#7f7f7f" stroke-width="1.00" clip-path="url('#clipping-rect1')" />
		<line x1="510.72" y1="31.00" x2="510.72" y2="29.00" stroke="#7f7f7f" stroke-width="1.00" clip-path="url('#clipping-rect1')" />
		<line x1="505.69" y1="31.00" x2="505.69" y2="29.00" stroke="#7f7f7f" stroke-width="1.00" clip-path="url('#clipping-rect1')" />
		<line x1="500.67" y1="31.00" x2="500.67" y2="29.00" stroke="#7f7f7f" stroke-width="1.00" clip-path="url('#clipping-rect1')" />
		<line x1="495.65" y1="31.00" x2="495.65" y2="29.00" stroke="#7f7f7f" stroke-width="1.00" clip-path="url('#clipping-rect1')" />
		<line x1="490.63" y1="31.00" x2="490.63" y2="29.00" stroke="#7f7f7f" stroke-width="1.00" clip-path="url('#clipping-rect1')" />
		<line x1="485.60" y1="31.00" x2="485.60" y2="29.00" stroke="#7f7f7f" stroke-width="1.00" clip-path="url('#clipping-rect1')" />
		<line x1="480.58" y1="31.00" x2="480.58" y2="28.00" stroke="#7f7f7f" stroke-width="1.00" clip-path="url('#clipping-rect1')" />
		<line x1="475.56" y1="31.00" x2="475.56" y2="29.00" stroke="#7f7f7f" stroke-width="1.00" clip-path="url('#clipping-rect1')" />
		<line x1="470.54" y1="31.00" x2="470.54" y2="29.00" stroke="#7f7f7f" stroke-width="1.00" clip-path="url('#clipping-rect1')" />
		<line x1="465.51" y1="31.00" x2="465.51" y2="29.00" stroke="#7f7f7f" stroke-width="1.00" clip-path="url('#clipping-rect1')" />
		<line x1="460.49" y1="31.00" x2="460.49" y2="29.00" stroke="#7f7f7f" stroke-width="1.00" clip-path="url('#clipping-rect1')" />
		<line x1="455.47" y1="31.00" x2="455.47" y2="29.00" stroke="#7f7f7f" stroke-width="1.00" clip-path="url('#clipping-rect1')" />
		<line x1="450.44" y1="31.00" x2="450.44" y2="29.00" stroke="#7f7f7f" stroke-width="1.00" clip-path="url('#clipping-rect1')" />
		<line x1="445.42" y1="31.00" x2="445.42" y2="29.00" stroke="#7f7f7f" stroke-width="1.00" clip-path="url('#clipping-rect1')" />
		<line x1="440.40" y1="31.00" x2="440.40" y2="29.00" stroke="#7f7f7f" stroke-width="1.00" clip-path="url('#clipping-rect1')" />
		<line x1="435.38" y1="31.00" x2="435.38" y2="29.00" stroke="#7f7f7f" stroke-width="1.00" clip-path="url('#clipping-rect1')" />
		<line x1="430.35" y1="31.00" x2="430.35" y2="28.00" stroke="#7f7f7f" stroke-width="1.00" clip-path="url('#clipping-rect1')" />
		<line x1="425.33" y1="31.00" x2="425.33" y2="29.00" stroke="#7f7f7f" stroke-width="1.00" clip-path="url('#clipping-rect1')" />
		<line x1="420.31" y1="31.00" x2="420.31" y2="29.00" stroke="#7f7f7f" stroke-width="1.00" clip-path="url('#clipping-rect1')" />
		<line x1="415.29" y1="31.00" x2="415.29" y2="29.00" stroke="#7f7f7f" stroke-width="1.00" clip-path="url('#clipping-rect1')" />
		<line x1="410.26" y1="31.00" x2="410.26" y2="29.00" stroke="#7f7f7f" stroke-width="1.00" clip-path="url('#clipping-rect1')" />
		<line x1="405.24" y1="31.00" x2="405.24" y2="29.00" stroke="#7f7f7f" stroke-width="1.00" clip-path="url('#clipping-rect1')" />
		<line x1="400.22" y1="31.00" x2="400.22" y2="29.00" stroke="#7f7f7f" stroke-width="1.00" clip-path="url('#clipping-rect1')" />
		<line x1="395.20" y1="31.00" x2="395.20" y2="29.00" stroke="#7f7f7f" stroke-width="1.00" clip-path="url('#clipping-rect1')" />
		<line x1="390.17" y1="31.00" x2="390.17" y2="29.00" stroke="#7f7f7f" stroke-width="1.00" clip-path="url('#clipping-rect1')" />
		<line x1="385.15" y1="31.00" x2="385.15" y2="29.00" stroke="#7f7f7f" stroke-width="1.00" clip-path="url('#clipping-rect1')" />
		<line x1="380.13" y1="31.00" x2="380.13" y2="28.00" stroke="#7f7f7f" stroke-width="1.00" clip-path="url('#clipping-rect1')" />
		<line x1="375.11" y1="31.00" x2="375.11" y2="29.00" stroke="#7f7f7f" stroke-width="1.00" clip-path="url('#clipping-rect1')" />
		<line x1="370.08" y1="31.00" x2="370.08" y2="29.00" stroke="#7f7f7f" stroke-width="1.00" clip-path="url('#clipping-rect1')" />
		<line x1="365.06" y1="31.00" x2="365.06" y2="29.00" stroke="#7f7f7f" stroke-width="1.00" clip-path="url('#clipping-rect1')" />
		<line x1="360.04" y1="31.00" x2="360.04" y2="29.00" stroke="#7f7f7f" stroke-width="1.00" clip-path="url('#clipping-rect1')" />
		<line x1="355.02" y1="31.00" x2="355.02" y2="29.00" stroke="#7f7f7f" stroke-width="1.00" clip-path="url('#clipping-rect1')" />
		<line x1="349.99" y1="31.00" x2="349.99" y2="29.00" stroke="#7f7f7f" stroke-width="1.00" clip-path="url('#clipping-rect1')" />
		<line x1="344.97" y1="31.00" x2="344.97" y2="29.00" stroke="#7f7f7f" stroke-width="1.00" clip-path="url('#clipping-rect1')" />
		<line x1="339.95" y1="31.00" x2="339.95" y2="29.00" stroke="#7f7f7f" stroke-width="1.00" clip-path="url('#clipping-rect1')" />
		<line x1="334.93" y1="31.00" x2="334.93" y2="29.00" stroke="#7f7f7f" stroke-width="1.00" clip-path="url('#clipping-rect1')" />
		<line x1="329.90" y1="31.00" x2="329.90" y2="28.00" stroke="#7f7f7f" stroke-width="1.00" clip-path="url('#clipping-rect1')" />
		<line x1="324.88" y1="31.00" x2="324.88" y2="29.00" stroke="#7f7f7f" stroke-width="1.00" clip-path="url('#clipping-rect1')" />
		<line x1="319.86" y1="31.00" x2="319.86" y2="29.00" stroke="#7f7f7f" stroke-width="1.00" clip-path="url('#clipping-rect1')" />
		<line x1="314.84" y1="31.00" x2="314.84" y2="29.00" stroke="#7f7f7f" stroke-width="1.00" clip-path="url('#clipping-rect1')" />
		<line x1="309.81" y1="31.00" x2="309.81" y2="29.00" stroke="#7f7f7f" stroke-width="1.00" clip-path="url('#clipping-rect1')" />
		<line x1="304.79" y1="31.00" x2="304.79" y2="29.00" stroke="#7f7f7f" stroke-width="1.00" clip-path="url('#clipping-rect1')" />
		<line x1="299.77" y1="31.00" x2="299.77" y2="29.00" stroke="#7f7f7f" stroke-width="1.00" clip-path="url('#clipping-rect1')" />
		<line x1="294.75" y1="31.00" x2="294.75" y2="29.00" stroke="#7f7f7f" stroke-width="1.00" clip-path="url('#clipping-rect1')" />
		<line x1="289.72" y1="31.00" x2="289.72" y2="29.00" stroke="#7f7f7f" stroke-width="1.00" clip-path="url('#clipping-rect1')" />
		<line x1="284.70" y1="31.00" x2="284.70" y2="29.00" stroke="#7f7f7f" stroke-width="1.00" clip-path="url('#clipping-rect1')" />
		<line x1="279.68" y1="31.00" x2="279.68" y2="28.00" stroke="#7f7f7f" stroke-width="1.00" clip-path="url('#clipping-rect1')" />
		<line x1="274.66" y1="31.00" x2="274.66" y2="29.00" stroke="#7f7f7f" stroke-width="1.00" clip-path="url('#clipping-rect1')" />
		<line x1="269.63" y1="31.00" x2="269.63" y2="29.00" stroke="#7f7f7f" stroke-width="1.00" clip-path="url('#clipping-rect1')" />
		<line x1="264.61" y1="31.00" x2="264.61" y2="29.00" stroke="#7f7f7f" stroke-width="1.00" clip-path="url('#clipping-rect1')" />
		<line x1="259.59" y1="31.00" x2="259.59" y2="29.00" stroke="#7f7f7f" stroke-width="1.00" clip-path="url('#clipping-rect1')" />
		<line x1="254.57" y1="31.00" x2="254.57" y2="29.00" stroke="#7f7f7f" stroke-width="1.00" clip-path="url('#clipping-rect1')" />
		<line x1="249.54" y1="31.00" x2="249.54" y2="29.00" stroke="#7f7f7f" stroke-width="1.00" clip-path="url('#clipping-rect1')" />
		<line x1="244.52" y1="31.00" x2="244.52" y2="29.00" stroke="#7f7f7f" stroke-width="1.00" clip-path="url('#clipping-rect1')" />
		<line x1="239.50" y1="31.00" x2="239.50" y2="29.00" stroke="#7f7f7f" stroke-width="1.00" clip-path="url('#clipping-rect1')" />
		<line x1="234.48" y1="31.00" x2="234.48" y2="29.00" stroke="#7f7f7f" stroke-width="1.00" clip-path="url('#clipping-rect1')" />
		<line x1="229.45" y1="31.00" x2="229.45" y2="28.00" stroke="#7f7f7f" stroke-width="1.00" clip-path="url('#clipping-rect1')" />
		<line x1="224.43" y1="31.00" x2="224.43" y2="29.00" stroke="#7f7f7f" stroke-width="1.00" clip-path="url('#clipping-rect1')" />
		<line x1="219.41" y1="31.00" x2="219.41" y2="29.00" stroke="#7f7f7f" stroke-width="1.00" clip-path="url('#clipping-rect1')" />
		<line x1="214.39" y1="31.00" x2="214.39" y2="29.00" stroke="#7f7f7f" stroke-width="1.00" clip-path="url('#clipping-rect1')" />
		<line x1="209.36" y1="31.00" x2="209.36" y2="29.00" stroke="#7f7f7f" stroke-width="1.00" clip-path="url('#clipping-rect1')" />
		<line x1="204.34" y1="31.00" x2="204.34" y2="29.00" stroke="#7f7f7f" stroke-width="1.00" clip-path="url('#clipping-rect1')" />
		<line x1="199.32" y1="31.00" x2="199.32" y2="29.00" stroke="#7f7f7f" stroke-width="1.00" clip-path="url('#clipping-rect1')" />
		<line x1="194.30" y1="31.00" x2="194.30" y2="29.00" stroke="#7f7f7f" stroke-width="1.00" clip-path="url('#clipping-rect1')" />
		<line x1="189.27" y1="31.00" x2="189.27" y2="29.00" stroke="#7f7f7f" stroke-width="1.00" clip-path="url('#clipping-rect1')" />
		<line x1="184.25" y1="31.00" x2="184.25" y2="29.00" stroke="#7f7f7f" stroke-width="1.00" clip-path="url('#clipping-rect1')" />
		<line x1="179.23" y1="31.00" x2="179.23" y2="28.00" stroke="#7f7f7f" stroke-width="1.00" clip-path="url('#clipping-rect1')" />
		<line x1="174.21" y1="31.00" x2="174.21" y2="29.00" stroke="#7f7f7f" stroke-width="1.00" clip-path="url('#clipping-rect1')" />
		<line x1="169.18" y1="31.00" x2="169.18" y2="29.00" stroke="#7f7f7f" stroke-width="1.00" clip-path="url('#clipping-rect1')" />
		<line x1="164.16" y1="31.00" x2="164.16" y2="29.00" stroke="#7f7f7f" stroke-width="1.00" clip-path="url('#clipping-rect1')" />
		<line x1="159.14" y1="31.00" x2="159.14" y2="29.00" stroke="#7f7f7f" stroke-width="1.00" clip-path="url('#clipping-rect1')" />
		<line x1="154.12" y1="31.00" x2="154.12" y2="29.00" stroke="#7f7f7f" stroke-width="1.00" clip-path="url('#clipping-rect1')" />
		<line x1="149.09" y1="31.00" x2="149.09" y2="29.00" stroke="#7f7f7f" stroke-width="1.00" clip-path="url('#clipping-rect1')" />
		<line x1="144.07" y1="31.00" x2="144.07" y2="29.00" stroke="#7f7f7f" stroke-width="1.00" clip-path="url('#clipping-rect1')" />
		<line x1="139.05" y1="31.00" x2="139.05" y2="29.00" stroke="#7f7f7f" stroke-width="1.00" clip-path="url('#clipping-rect1')" />
		<line x1="134.03" y1="31.00" x2="134.03" y2="29.00" stroke="#7f7f7f" stroke-width="1.00" clip-path="url('#clipping-rect1')" />
		<line x1="129.00" y1="31.00" x2="129.00" y2="28.00" stroke="#7f7f7f" stroke-width="1.00" clip-path="url('#clipping-rect1')" />
		<line x1="123.98" y1="31.00" x2="123.98" y2="29.00" stroke="#7f7f7f" stroke-width="1.00" clip-path="url('#clipping-rect1')" />
		<line x1="118.96" y1="31.00" x2="118.96" y2="29.00" stroke="#7f7f7f" stroke-width="1.00" clip-path="url('#clipping-rect1')" />
		<line x1="113.94" y1="31.00" x2="113.94" y2="29.00" stroke="#7f7f7f" stroke-width="1.00" clip-path="url('#clipping-rect1')" />
		<line x1="108.91" y1="31.00" x2="108.91" y2="29.00" stroke="#7f7f7f" stroke-width="1.00" clip-path="url('#clipping-rect1')" />
		<line x1="103.89" y1="31.00" x2="103.89" y2="29.00" stroke="#7f7f7f" stroke-width="1.00" clip-path="url('#clipping-rect1')" />
		<line x1="98.87" y1="31.00" x2="98.87" y2="29.00" stroke="#7f7f7f" stroke-width="1.00" clip-path="url('#clipping-rect1')" />
		<line x1="93.85" y1="31.00" x2="93.85" y2="29.00" stroke="#7f7f7f" stroke-width="1.00" clip-path="url('#clipping-rect1')" />
		<line x1="88.82" y1="31.00" x2="88.82" y2="29.00" stroke="#7f7f7f" stroke-width="1.00" clip-path="url('#clipping-rect1')" />
		<line x1="83.80" y1="31.00" x2="83.80" y2="29.00" stroke="#7f7f7f" stroke-width="1.00" clip-path="url('#clipping-rect1')" />
		<line x1="78.78" y1="31.00" x2="78.78" y2="28.00" stroke="#7f7f7f" stroke-width="1.00" clip-path="url('#clipping-rect1')" />
		<line x1="73.76" y1="31.00" x2="73.76" y2="29.00" stroke="#7f7f7f" stroke-width="1.00" clip-path="url('#clipping-rect1')" />
		<line x1="68.73" y1="31.00" x2="68.73" y2="29.00" stroke="#7f7f7f" stroke-width="1.00" clip-path="url('#clipping-rect1')" />
		<line x1="63.71" y1="31.00" x2="63.71" y2="29.00" stroke="#7f7f7f" stroke-width="1.00" clip-path="url('#clipping-rect1')" />
		<line x1="58.69" y1="31.00" x2="58.69" y2="29.00" stroke="#7f7f7f" stroke-width="1.00" clip-path="url('#clipping-rect1')" />
		<line x1="53.67" y1="31.00" x2="53.67" y2="29.00" stroke="#7f7f7f" stroke-width="1.00" clip-path="url('#clipping-rect1')" />
		<line x1="48.64" y1="31.00" x2="48.64" y2="29.00" stroke="#7f7f7f" stroke-width="1.00" clip-path="url('#clipping-rect1')" />
		<line x1="43.62" y1="31.00" x2="43.62" y2="29.00" stroke="#7f7f7f" stroke-width="1.00" clip-path="url('#clipping-rect1')" />
		<line x1="38.60" y1="31.00" x2="38.60" y2="29.00" stroke="#7f7f7f" stroke-width="1.00" clip-path="url('#clipping-rect1')" />
		<line x1="33.58" y1="31.00" x2="33.58" y2="29.00" stroke="#7f7f7f" stroke-width="1.00" clip-path="url('#clipping-rect1')" />
		<line x1="28.55" y1="31.00" x2="28.55" y2="28.00" stroke="#7f7f7f" stroke-width="1.00" clip-path="url('#clipping-rect1')" />
		<line x1="23.53" y1="31.00" x2="23.53" y2="29.00" stroke="#7f7f7f" stroke-width="1.00" clip-path="url('#clipping-rect1')" />
		<line x1="18.51" y1="31.00" x2="18.51" y2="29.00" stroke="#7f7f7f" stroke-width="1.00" clip-path="url('#clipping-rect1')" />
		<line x1="13.49" y1="31.00" x2="13.49" y2="29.00" stroke="#7f7f7f" stroke-width="1.00" clip-path="url('#clipping-rect1')" />
		<line x1="8.46" y1="31.00" x2="8.46" y2="29.00" stroke="#7f7f7f" stroke-width="1.00" clip-path="url('#clipping-rect1')" />
		<line x1="3.44" y1="31.00" x2="3.44" y2="29.00" stroke="#7f7f7f" stroke-width="1.00" clip-path="url('#clipping-rect1')" />
		<text x="0.03" y="26.00" font-family="Helvetica" font-size="12" fill="#333333" clip-path="url('#clipping-rect1')" >38,568</text>
		<line x1="0.03" y1="33.00" x2="0.03" y2="16.00" stroke="#7f7f7f" stroke-width="1.00" clip-path="url('#clipping-rect1')" />
		<line x1="882.38" y1="33.00" x2="882.38" y2="16.00" stroke="#7f7f7f" stroke-width="1.00" clip-path="url('#clipping-rect1')" />
		<text x="834.16" y="26.00" font-family="Helvetica" font-size="12" fill="#333333" clip-path="url('#clipping-rect1')" >22 K</text>
		<line x1="832.16" y1="33.00" x2="832.16" y2="16.00" stroke="#7f7f7f" stroke-width="1.00" clip-path="url('#clipping-rect1')" />
		<text x="783.93" y="26.00" font-family="Helvetica" font-size="12" fill="#333333" clip-path="url('#clipping-rect1')" >23 K</text>
		<line x1="781.93" y1="33.00" x2="781.93" y2="16.00" stroke="#7f7f7f" stroke-width="1.00" clip-path="url('#clipping-rect1')" />
		<text x="733.71" y="26.00" font-family="Helvetica" font-size="12" fill="#333333" clip-path="url('#clipping-rect1')" >24 K</text>
		<line x1="731.71" y1="33.00" x2="731.71" y2="16.00" stroke="#7f7f7f" stroke-width="1.00" clip-path="url('#clipping-rect1')" />
		<text x="683.48" y="26.00" font-family="Helvetica" font-size="12" fill="#333333" clip-path="url('#clipping-rect1')" >25 K</text>
		<line x1="681.48" y1="33.00" x2="681.48" y2="16.00" stroke="#7f7f7f" stroke-width="1.00" clip-path="url('#clipping-rect1')" />
		<text x="633.26" y="26.00" font-family="Helvetica" font-size="12" fill="#333333" clip-path="url('#clipping-rect1')" >26 K</text>
		<line x1="631.26" y1="33.00" x2="631.26" y2="16.00" stroke="#7f7f7f" stroke-width="1.00" clip-path="url('#clipping-rect1')" />
		<text x="583.03" y="26.00" font-family="Helvetica" font-size="12" fill="#333333" clip-path="url('#clipping-rect1')" >27 K</text>
		<line x1="581.03" y1="33.00" x2="581.03" y2="16.00" stroke="#7f7f7f" stroke-width="1.00" clip-path="url('#clipping-rect1')" />
		<text x="532.81" y="26.00" font-family="Helvetica" font-size="12" fill="#333333" clip-path="url('#clipping-rect1')" >28 K</text>
		<line x1="530.81" y1="33.00" x2="530.81" y2="16.00" stroke="#7f7f7f" stroke-width="1.00" clip-path="url('#clipping-rect1')" />
		<text x="482.58" y="26.00" font-family="Helvetica" font-size="12" fill="#333333" clip-path="url('#clipping-rect1')" >29 K</text>
		<line x1="480.58" y1="33.00" x2="480.58" y2="16.00" stroke="#7f7f7f" stroke-width="1.00" clip-path="url('#clipping-rect1')" />
		<text x="432.35" y="26.00" font-family="Helvetica" font-size="12" fill="#333333" clip-path="url('#clipping-rect1')" >30 K</text>
		<line x1="430.35" y1="33.00" x2="430.35" y2="16.00" stroke="#7f7f7f" stroke-width="1.00" clip-path="url('#clipping-rect1')" />
		<text x="382.13" y="26.00" font-family="Helvetica" font-size="12" fill="#333333" clip-path="url('#clipping-rect1')" >31 K</text>
		<line x1="380.13" y1="33.00" x2="380.13" y2="16.00" stroke="#7f7f7f" stroke-width="1.00" clip-path="url('#clipping-rect1')" />
		<text x="331.90" y="26.00" font-family="Helvetica" font-size="12" fill="#333333" clip-path="url('#clipping-rect1')" >32 K</text>
		<line x1="329.90" y1="33.00" x2="329.90" y2="16.00" stroke="#7f7f7f" stroke-width="1.00" clip-path="url('#clipping-rect1')" />
		<text x="281.68" y="26.00" font-family="Helvetica" font-size="12" fill="#333333" clip-path="url('#clipping-rect1')" >33 K</text>
		<line x1="279.68" y1="33.00" x2="279.68" y2="16.00" stroke="#7f7f7f" stroke-width="1.00" clip-path="url('#clipping-rect1')" />
		<text x="231.45" y="26.00" font-family="Helvetica" font-size="12" fill="#333333" clip-path="url('#clipping-rect1')" >34 K</text>
		<line x1="229.45" y1="33.00" x2="229.45" y2="16.00" stroke="#7f7f7f" stroke-width="1.00" clip-path="url('#clipping-rect1')" />
		<text x="181.23" y="26.00" font-family="Helvetica" font-size="12" fill="#333333" clip-path="url('#clipping-rect1')" >35 K</text>
		<line x1="179.23" y1="33.00" x2="179.23" y2="16.00" stroke="#7f7f7f" stroke-width="1.00" clip-path="url('#clipping-rect1')" />
		<text x="131.00" y="26.00" font-family="Helvetica" font-size="12" fill="#333333" clip-path="url('#clipping-rect1')" >36 K</text>
		<line x1="129.00" y1="33.00" x2="129.00" y2="16.00" stroke="#7f7f7f" stroke-width="1.00" clip-path="url('#clipping-rect1')" />
		<text x="80.78" y="26.00" font-family="Helvetica" font-size="12" fill="#333333" clip-path="url('#clipping-rect1')" >37 K</text>
		<line x1="78.78" y1="33.00" x2="78.78" y2="16.00" stroke="#7f7f7f" stroke-width="1.00" clip-path="url('#clipping-rect1')" />
		<line x1="882.99" y1="88.00" x2="882.99" y2="33.00" stroke="#ebebeb" stroke-width="1.00" />
		<line x1="832.93" y1="88.00" x2="832.93" y2="33.00" stroke="#ebebeb" stroke-width="1.00" />
		<line x1="781.88" y1="88.00" x2="781.88" y2="33.00" stroke="#ebebeb" stroke-width="1.00" />
		<line x1="731.82" y1="88.00" x2="731.82" y2="33.00" stroke="#ebebeb" stroke-width="1.00" />
		<line x1="681.76" y1="88.00" x2="681.76" y2="33.00" stroke="#ebebeb" stroke-width="1.00" />
		<line x1="631.71" y1="88.00" x2="631.71" y2="33.00" stroke="#ebebeb" stroke-width="1.00" />
		<line x1="581.65" y1="88.00" x2="581.65" y2="33.00" stroke="#ebebeb" stroke-width="1.00" />
		<line x1="530.59" y1="88.00" x2="530.59" y2="33.00" stroke="#ebebeb" stroke-width="1.00" />
		<line x1="480.54" y1="88.00" x2="480.54" y2="33.00" stroke="#ebebeb" stroke-width="1.00" />
		<line x1="430.48" y1="88.00" x2="430.48" y2="33.00" stroke="#ebebeb" stroke-width="1.00" />
		<line x1="380.43" y1="88.00" x2="380.43" y2="33.00" stroke="#ebebeb" stroke-width="1.00" />
		<line x1="329.37" y1="88.00" x2="329.37" y2="33.00" stroke="#ebebeb" stroke-width="1.00" />
		<line x1="279.31" y1="88.00" x2="279.31" y2="33.00" stroke="#ebebeb" stroke-width="1.00" />
		<line x1="229.26" y1="88.00" x2="229.26" y2="33.00" stroke="#ebebeb" stroke-width="1.00" />
		<line x1="179.20" y1="88.00" x2="179.20" y2="33.00" stroke="#ebebeb" stroke-width="1.00" />
		<line x1="129.14" y1="88.00" x2="129.14" y2="33.00" stroke="#ebebeb" stroke-width="1.00" />
		<line x1="78.09" y1="88.00" x2="78.09" y2="33.00" stroke="#ebebeb" stroke-width="1.00" />
		<line x1="28.03" y1="88.00" x2="28.03" y2="33.00" stroke="#ebebeb" stroke-width="1.00" />
		<polygon fill="url('#gradient1')" shape-rendering="crispEdges" points="0.00,40.00 0.00,35.00 892.00,35.00 892.00,40.00 892.00,45.00 0.00,45.00 " />
		<line x1="892.00" y1="45.00" x2="892.00" y2="35.00" stroke="#6c6c6c" stroke-width="1.00" stroke-linejoin="round" />
		<line x1="892.00" y1="35.00" x2="0.00" y2="35.00" stroke="#6c6c6c" stroke-width="1.00" stroke-linejoin="round" />
		<line x1="0.00" y1="35.00" x2="0.00" y2="45.00" stroke="#6c6c6c" stroke-width="1.00" stroke-linejoin="round" />
		<line x1="892.00" y1="45.00" x2="0.00" y2="45.00" stroke="#6c6c6c" stroke-width="1.00" stroke-linejoin="round" />
		<polygon fill="url('#gradient2')" shape-rendering="crispEdges" points="0.00,39.50 0.00,46.00 892.00,46.00 892.00,39.50 892.00,33.00 0.00,33.00 " />
		<polygon fill="url('#gradient3')" shape-rendering="crispEdges" points="34.87,76.40 34.87,82.40 574.26,82.40 574.26,76.40 574.26,70.40 34.87,70.40 " />
		<polygon fill="url('#gradient3')" shape-rendering="crispEdges" points="574.26,76.40 574.26,84.80 582.66,76.40 574.26,68.00 " />
		<polygon fill="#8ab698" shape-rendering="crispEdges" points="34.87,76.40 34.87,70.40 26.47,70.40 " />
		<polygon fill="#8ab698" shape-rendering="crispEdges" points="34.87,76.40 34.87,82.40 26.47,82.40 " />
		<line x1="26.47" y1="70.40" x2="34.87" y2="70.40" stroke="#166e32" stroke-width="1.50" />
		<line x1="26.47" y1="70.40" x2="34.87" y2="76.40" stroke="#166e32" stroke-width="1.50" />
		<line x1="26.47" y1="82.40" x2="34.87" y2="82.40" stroke="#166e32" stroke-width="1.50" />
		<line x1="26.47" y1="82.40" x2="34.87" y2="76.40" stroke="#166e32" stroke-width="1.50" />
		<text x="283.99" y="80.90" font-family="Helvetica" font-size="12" fill="#ffffff" >WDR93</text>
		<polygon fill="#ffffff" shape-rendering="crispEdges" points="559.37,76.40 549.77,71.60 552.17,76.40 549.77,81.20 " />
		<polygon fill="#e0e0e0" shape-rendering="crispEdges" points="459.37,76.40 449.77,71.60 452.17,76.40 449.77,81.20 " />
		<polygon fill="#c1c1c1" shape-rendering="crispEdges" points="359.37,76.40 349.77,71.60 352.17,76.40 349.77,81.20 " />
		<polygon fill="#ffffff" shape-rendering="crispEdges" points="259.37,76.40 249.77,71.60 252.17,76.40 249.77,81.20 " />
		<polygon fill="#e0e0e0" shape-rendering="crispEdges" points="159.37,76.40 149.77,71.60 152.17,76.40 149.77,81.20 " />
		<polygon fill="#c1c1c1" shape-rendering="crispEdges" points="59.37,76.40 49.77,71.60 52.17,76.40 49.77,81.20 " />
		<polygon fill="url('#gradient4')" shape-rendering="crispEdges" points="0.00,62.00 891.95,62.00 891.95,47.00 0.00,47.00 " clip-path="url('#clipping-rect2')" />
		<text x="0.00" y="58.00" font-family="Helvetica" font-size="14" fill="#333333" >Genes, NCBI Cariama cristata Annotation Release 100, 2014-10-21</text>
		<polygon fill="#e5e5e5" shape-rendering="crispEdges" points="892.00,13.00 892.00,-1.00 0.00,-1.00 0.00,13.00 " />
		<text x="0.00" y="10.00" font-family="Helvetica Bold" font-size="12" text-anchor="start" fill="#000000" >NW_009604969.1:20808..38568 Cariama cristata isolate BGI_N322 unplaced genomic scaffold, ASM69053v1 scaffold32332, whole genome shotgun sequence</text>
	</g>
</svg>
