<?xml version="1.0" standalone="no" ?>
<!DOCTYPE svg PUBLIC "-//W3C//DTD SVG 1.1//EN" "http://www.w3.org/Graphics/SVG/1.1/DTD/svg11.dtd">
<svg width="892px" height="135px" xmlns="http://www.w3.org/2000/svg" version="1.1" viewBox="0 0 892 135" >
	<style type="text/css" > <![CDATA[
		@import url("https://www.ncbi.nlm.nih.gov/projects/sviewer/css/svg_fonts.css");
	]]>
	</style>
	<desc >Generated by NCBI Genome Workbench http://www.ncbi.nlm.nih.gov/tools/gbench/</desc>
	<defs >
		<clipPath id="clipping-rect1" >
			<rect x="0" y="14" width="892" height="20" />
		</clipPath>
		<linearGradient id="gradient1" gradientTransform="rotate(90)" >
			<stop offset="0%" stop-color="#6c6c6c" />
			<stop offset="50%" stop-color="#b5b5b5" />
			<stop offset="100%" stop-color="#6c6c6c" />
		</linearGradient>
		<linearGradient id="gradient2" gradientTransform="rotate(90)" >
			<stop offset="0%" stop-color="#10c010" />
			<stop offset="50%" stop-color="#87df87" />
			<stop offset="100%" stop-color="#10c010" />
		</linearGradient>
		<linearGradient id="gradient3" gradientTransform="rotate(90)" >
			<stop offset="0%" stop-color="#166e32" />
			<stop offset="50%" stop-color="#8ab698" />
			<stop offset="100%" stop-color="#166e32" />
		</linearGradient>
		<clipPath id="clipping-rect2" >
			<rect x="0" y="34" width="892" height="101" />
		</clipPath>
		<linearGradient id="gradient4" gradientTransform="rotate(90)" >
			<stop offset="0%" stop-color="#e6e6e6" stop-opacity="0.71" />
			<stop offset="100%" stop-color="#ffffff" stop-opacity="0.00" />
		</linearGradient>
	</defs>
	<g >
		<polygon fill="#ffffff" shape-rendering="crispEdges" points="892.00,33.00 892.00,13.00 0.00,13.00 0.00,33.00 " />
		<line x1="0.00" y1="30.89" x2="892.00" y2="30.89" stroke="#7f7f7f" stroke-width="1.00" clip-path="url('#clipping-rect1')" />
		<line x1="1.28" y1="30.89" x2="1.28" y2="28.79" stroke="#7f7f7f" stroke-width="1.00" clip-path="url('#clipping-rect1')" />
		<line x1="8.02" y1="30.89" x2="8.02" y2="27.74" stroke="#7f7f7f" stroke-width="1.00" clip-path="url('#clipping-rect1')" />
		<line x1="14.75" y1="30.89" x2="14.75" y2="28.79" stroke="#7f7f7f" stroke-width="1.00" clip-path="url('#clipping-rect1')" />
		<line x1="21.49" y1="30.89" x2="21.49" y2="28.79" stroke="#7f7f7f" stroke-width="1.00" clip-path="url('#clipping-rect1')" />
		<line x1="28.22" y1="30.89" x2="28.22" y2="28.79" stroke="#7f7f7f" stroke-width="1.00" clip-path="url('#clipping-rect1')" />
		<line x1="34.96" y1="30.89" x2="34.96" y2="28.79" stroke="#7f7f7f" stroke-width="1.00" clip-path="url('#clipping-rect1')" />
		<line x1="41.69" y1="30.89" x2="41.69" y2="27.74" stroke="#7f7f7f" stroke-width="1.00" clip-path="url('#clipping-rect1')" />
		<line x1="48.43" y1="30.89" x2="48.43" y2="28.79" stroke="#7f7f7f" stroke-width="1.00" clip-path="url('#clipping-rect1')" />
		<line x1="55.16" y1="30.89" x2="55.16" y2="28.79" stroke="#7f7f7f" stroke-width="1.00" clip-path="url('#clipping-rect1')" />
		<line x1="61.89" y1="30.89" x2="61.89" y2="28.79" stroke="#7f7f7f" stroke-width="1.00" clip-path="url('#clipping-rect1')" />
		<line x1="68.63" y1="30.89" x2="68.63" y2="28.79" stroke="#7f7f7f" stroke-width="1.00" clip-path="url('#clipping-rect1')" />
		<line x1="75.36" y1="30.89" x2="75.36" y2="27.74" stroke="#7f7f7f" stroke-width="1.00" clip-path="url('#clipping-rect1')" />
		<line x1="82.10" y1="30.89" x2="82.10" y2="28.79" stroke="#7f7f7f" stroke-width="1.00" clip-path="url('#clipping-rect1')" />
		<line x1="88.83" y1="30.89" x2="88.83" y2="28.79" stroke="#7f7f7f" stroke-width="1.00" clip-path="url('#clipping-rect1')" />
		<line x1="95.57" y1="30.89" x2="95.57" y2="28.79" stroke="#7f7f7f" stroke-width="1.00" clip-path="url('#clipping-rect1')" />
		<line x1="102.30" y1="30.89" x2="102.30" y2="28.79" stroke="#7f7f7f" stroke-width="1.00" clip-path="url('#clipping-rect1')" />
		<line x1="109.03" y1="30.89" x2="109.03" y2="27.74" stroke="#7f7f7f" stroke-width="1.00" clip-path="url('#clipping-rect1')" />
		<line x1="115.77" y1="30.89" x2="115.77" y2="28.79" stroke="#7f7f7f" stroke-width="1.00" clip-path="url('#clipping-rect1')" />
		<line x1="122.50" y1="30.89" x2="122.50" y2="28.79" stroke="#7f7f7f" stroke-width="1.00" clip-path="url('#clipping-rect1')" />
		<line x1="129.24" y1="30.89" x2="129.24" y2="28.79" stroke="#7f7f7f" stroke-width="1.00" clip-path="url('#clipping-rect1')" />
		<line x1="135.97" y1="30.89" x2="135.97" y2="28.79" stroke="#7f7f7f" stroke-width="1.00" clip-path="url('#clipping-rect1')" />
		<line x1="142.71" y1="30.89" x2="142.71" y2="27.74" stroke="#7f7f7f" stroke-width="1.00" clip-path="url('#clipping-rect1')" />
		<line x1="149.44" y1="30.89" x2="149.44" y2="28.79" stroke="#7f7f7f" stroke-width="1.00" clip-path="url('#clipping-rect1')" />
		<line x1="156.17" y1="30.89" x2="156.17" y2="28.79" stroke="#7f7f7f" stroke-width="1.00" clip-path="url('#clipping-rect1')" />
		<line x1="162.91" y1="30.89" x2="162.91" y2="28.79" stroke="#7f7f7f" stroke-width="1.00" clip-path="url('#clipping-rect1')" />
		<line x1="169.64" y1="30.89" x2="169.64" y2="28.79" stroke="#7f7f7f" stroke-width="1.00" clip-path="url('#clipping-rect1')" />
		<line x1="176.38" y1="30.89" x2="176.38" y2="27.74" stroke="#7f7f7f" stroke-width="1.00" clip-path="url('#clipping-rect1')" />
		<line x1="183.11" y1="30.89" x2="183.11" y2="28.79" stroke="#7f7f7f" stroke-width="1.00" clip-path="url('#clipping-rect1')" />
		<line x1="189.85" y1="30.89" x2="189.85" y2="28.79" stroke="#7f7f7f" stroke-width="1.00" clip-path="url('#clipping-rect1')" />
		<line x1="196.58" y1="30.89" x2="196.58" y2="28.79" stroke="#7f7f7f" stroke-width="1.00" clip-path="url('#clipping-rect1')" />
		<line x1="203.32" y1="30.89" x2="203.32" y2="28.79" stroke="#7f7f7f" stroke-width="1.00" clip-path="url('#clipping-rect1')" />
		<line x1="210.05" y1="30.89" x2="210.05" y2="27.74" stroke="#7f7f7f" stroke-width="1.00" clip-path="url('#clipping-rect1')" />
		<line x1="216.78" y1="30.89" x2="216.78" y2="28.79" stroke="#7f7f7f" stroke-width="1.00" clip-path="url('#clipping-rect1')" />
		<line x1="223.52" y1="30.89" x2="223.52" y2="28.79" stroke="#7f7f7f" stroke-width="1.00" clip-path="url('#clipping-rect1')" />
		<line x1="230.25" y1="30.89" x2="230.25" y2="28.79" stroke="#7f7f7f" stroke-width="1.00" clip-path="url('#clipping-rect1')" />
		<line x1="236.99" y1="30.89" x2="236.99" y2="28.79" stroke="#7f7f7f" stroke-width="1.00" clip-path="url('#clipping-rect1')" />
		<line x1="243.72" y1="30.89" x2="243.72" y2="27.74" stroke="#7f7f7f" stroke-width="1.00" clip-path="url('#clipping-rect1')" />
		<line x1="250.46" y1="30.89" x2="250.46" y2="28.79" stroke="#7f7f7f" stroke-width="1.00" clip-path="url('#clipping-rect1')" />
		<line x1="257.19" y1="30.89" x2="257.19" y2="28.79" stroke="#7f7f7f" stroke-width="1.00" clip-path="url('#clipping-rect1')" />
		<line x1="263.92" y1="30.89" x2="263.92" y2="28.79" stroke="#7f7f7f" stroke-width="1.00" clip-path="url('#clipping-rect1')" />
		<line x1="270.66" y1="30.89" x2="270.66" y2="28.79" stroke="#7f7f7f" stroke-width="1.00" clip-path="url('#clipping-rect1')" />
		<line x1="277.39" y1="30.89" x2="277.39" y2="27.74" stroke="#7f7f7f" stroke-width="1.00" clip-path="url('#clipping-rect1')" />
		<line x1="284.13" y1="30.89" x2="284.13" y2="28.79" stroke="#7f7f7f" stroke-width="1.00" clip-path="url('#clipping-rect1')" />
		<line x1="290.86" y1="30.89" x2="290.86" y2="28.79" stroke="#7f7f7f" stroke-width="1.00" clip-path="url('#clipping-rect1')" />
		<line x1="297.60" y1="30.89" x2="297.60" y2="28.79" stroke="#7f7f7f" stroke-width="1.00" clip-path="url('#clipping-rect1')" />
		<line x1="304.33" y1="30.89" x2="304.33" y2="28.79" stroke="#7f7f7f" stroke-width="1.00" clip-path="url('#clipping-rect1')" />
		<line x1="311.07" y1="30.89" x2="311.07" y2="27.74" stroke="#7f7f7f" stroke-width="1.00" clip-path="url('#clipping-rect1')" />
		<line x1="317.80" y1="30.89" x2="317.80" y2="28.79" stroke="#7f7f7f" stroke-width="1.00" clip-path="url('#clipping-rect1')" />
		<line x1="324.53" y1="30.89" x2="324.53" y2="28.79" stroke="#7f7f7f" stroke-width="1.00" clip-path="url('#clipping-rect1')" />
		<line x1="331.27" y1="30.89" x2="331.27" y2="28.79" stroke="#7f7f7f" stroke-width="1.00" clip-path="url('#clipping-rect1')" />
		<line x1="338.00" y1="30.89" x2="338.00" y2="28.79" stroke="#7f7f7f" stroke-width="1.00" clip-path="url('#clipping-rect1')" />
		<line x1="344.74" y1="30.89" x2="344.74" y2="27.74" stroke="#7f7f7f" stroke-width="1.00" clip-path="url('#clipping-rect1')" />
		<line x1="351.47" y1="30.89" x2="351.47" y2="28.79" stroke="#7f7f7f" stroke-width="1.00" clip-path="url('#clipping-rect1')" />
		<line x1="358.21" y1="30.89" x2="358.21" y2="28.79" stroke="#7f7f7f" stroke-width="1.00" clip-path="url('#clipping-rect1')" />
		<line x1="364.94" y1="30.89" x2="364.94" y2="28.79" stroke="#7f7f7f" stroke-width="1.00" clip-path="url('#clipping-rect1')" />
		<line x1="371.67" y1="30.89" x2="371.67" y2="28.79" stroke="#7f7f7f" stroke-width="1.00" clip-path="url('#clipping-rect1')" />
		<line x1="378.41" y1="30.89" x2="378.41" y2="27.74" stroke="#7f7f7f" stroke-width="1.00" clip-path="url('#clipping-rect1')" />
		<line x1="385.14" y1="30.89" x2="385.14" y2="28.79" stroke="#7f7f7f" stroke-width="1.00" clip-path="url('#clipping-rect1')" />
		<line x1="391.88" y1="30.89" x2="391.88" y2="28.79" stroke="#7f7f7f" stroke-width="1.00" clip-path="url('#clipping-rect1')" />
		<line x1="398.61" y1="30.89" x2="398.61" y2="28.79" stroke="#7f7f7f" stroke-width="1.00" clip-path="url('#clipping-rect1')" />
		<line x1="405.35" y1="30.89" x2="405.35" y2="28.79" stroke="#7f7f7f" stroke-width="1.00" clip-path="url('#clipping-rect1')" />
		<line x1="412.08" y1="30.89" x2="412.08" y2="27.74" stroke="#7f7f7f" stroke-width="1.00" clip-path="url('#clipping-rect1')" />
		<line x1="418.82" y1="30.89" x2="418.82" y2="28.79" stroke="#7f7f7f" stroke-width="1.00" clip-path="url('#clipping-rect1')" />
		<line x1="425.55" y1="30.89" x2="425.55" y2="28.79" stroke="#7f7f7f" stroke-width="1.00" clip-path="url('#clipping-rect1')" />
		<line x1="432.28" y1="30.89" x2="432.28" y2="28.79" stroke="#7f7f7f" stroke-width="1.00" clip-path="url('#clipping-rect1')" />
		<line x1="439.02" y1="30.89" x2="439.02" y2="28.79" stroke="#7f7f7f" stroke-width="1.00" clip-path="url('#clipping-rect1')" />
		<line x1="445.75" y1="30.89" x2="445.75" y2="27.74" stroke="#7f7f7f" stroke-width="1.00" clip-path="url('#clipping-rect1')" />
		<line x1="452.49" y1="30.89" x2="452.49" y2="28.79" stroke="#7f7f7f" stroke-width="1.00" clip-path="url('#clipping-rect1')" />
		<line x1="459.22" y1="30.89" x2="459.22" y2="28.79" stroke="#7f7f7f" stroke-width="1.00" clip-path="url('#clipping-rect1')" />
		<line x1="465.96" y1="30.89" x2="465.96" y2="28.79" stroke="#7f7f7f" stroke-width="1.00" clip-path="url('#clipping-rect1')" />
		<line x1="472.69" y1="30.89" x2="472.69" y2="28.79" stroke="#7f7f7f" stroke-width="1.00" clip-path="url('#clipping-rect1')" />
		<line x1="479.42" y1="30.89" x2="479.42" y2="27.74" stroke="#7f7f7f" stroke-width="1.00" clip-path="url('#clipping-rect1')" />
		<line x1="486.16" y1="30.89" x2="486.16" y2="28.79" stroke="#7f7f7f" stroke-width="1.00" clip-path="url('#clipping-rect1')" />
		<line x1="492.89" y1="30.89" x2="492.89" y2="28.79" stroke="#7f7f7f" stroke-width="1.00" clip-path="url('#clipping-rect1')" />
		<line x1="499.63" y1="30.89" x2="499.63" y2="28.79" stroke="#7f7f7f" stroke-width="1.00" clip-path="url('#clipping-rect1')" />
		<line x1="506.36" y1="30.89" x2="506.36" y2="28.79" stroke="#7f7f7f" stroke-width="1.00" clip-path="url('#clipping-rect1')" />
		<line x1="513.10" y1="30.89" x2="513.10" y2="27.74" stroke="#7f7f7f" stroke-width="1.00" clip-path="url('#clipping-rect1')" />
		<line x1="519.83" y1="30.89" x2="519.83" y2="28.79" stroke="#7f7f7f" stroke-width="1.00" clip-path="url('#clipping-rect1')" />
		<line x1="526.56" y1="30.89" x2="526.56" y2="28.79" stroke="#7f7f7f" stroke-width="1.00" clip-path="url('#clipping-rect1')" />
		<line x1="533.30" y1="30.89" x2="533.30" y2="28.79" stroke="#7f7f7f" stroke-width="1.00" clip-path="url('#clipping-rect1')" />
		<line x1="540.03" y1="30.89" x2="540.03" y2="28.79" stroke="#7f7f7f" stroke-width="1.00" clip-path="url('#clipping-rect1')" />
		<line x1="546.77" y1="30.89" x2="546.77" y2="27.74" stroke="#7f7f7f" stroke-width="1.00" clip-path="url('#clipping-rect1')" />
		<line x1="553.50" y1="30.89" x2="553.50" y2="28.79" stroke="#7f7f7f" stroke-width="1.00" clip-path="url('#clipping-rect1')" />
		<line x1="560.24" y1="30.89" x2="560.24" y2="28.79" stroke="#7f7f7f" stroke-width="1.00" clip-path="url('#clipping-rect1')" />
		<line x1="566.97" y1="30.89" x2="566.97" y2="28.79" stroke="#7f7f7f" stroke-width="1.00" clip-path="url('#clipping-rect1')" />
		<line x1="573.71" y1="30.89" x2="573.71" y2="28.79" stroke="#7f7f7f" stroke-width="1.00" clip-path="url('#clipping-rect1')" />
		<line x1="580.44" y1="30.89" x2="580.44" y2="27.74" stroke="#7f7f7f" stroke-width="1.00" clip-path="url('#clipping-rect1')" />
		<line x1="587.17" y1="30.89" x2="587.17" y2="28.79" stroke="#7f7f7f" stroke-width="1.00" clip-path="url('#clipping-rect1')" />
		<line x1="593.91" y1="30.89" x2="593.91" y2="28.79" stroke="#7f7f7f" stroke-width="1.00" clip-path="url('#clipping-rect1')" />
		<line x1="600.64" y1="30.89" x2="600.64" y2="28.79" stroke="#7f7f7f" stroke-width="1.00" clip-path="url('#clipping-rect1')" />
		<line x1="607.38" y1="30.89" x2="607.38" y2="28.79" stroke="#7f7f7f" stroke-width="1.00" clip-path="url('#clipping-rect1')" />
		<line x1="614.11" y1="30.89" x2="614.11" y2="27.74" stroke="#7f7f7f" stroke-width="1.00" clip-path="url('#clipping-rect1')" />
		<line x1="620.85" y1="30.89" x2="620.85" y2="28.79" stroke="#7f7f7f" stroke-width="1.00" clip-path="url('#clipping-rect1')" />
		<line x1="627.58" y1="30.89" x2="627.58" y2="28.79" stroke="#7f7f7f" stroke-width="1.00" clip-path="url('#clipping-rect1')" />
		<line x1="634.31" y1="30.89" x2="634.31" y2="28.79" stroke="#7f7f7f" stroke-width="1.00" clip-path="url('#clipping-rect1')" />
		<line x1="641.05" y1="30.89" x2="641.05" y2="28.79" stroke="#7f7f7f" stroke-width="1.00" clip-path="url('#clipping-rect1')" />
		<line x1="647.78" y1="30.89" x2="647.78" y2="27.74" stroke="#7f7f7f" stroke-width="1.00" clip-path="url('#clipping-rect1')" />
		<line x1="654.52" y1="30.89" x2="654.52" y2="28.79" stroke="#7f7f7f" stroke-width="1.00" clip-path="url('#clipping-rect1')" />
		<line x1="661.25" y1="30.89" x2="661.25" y2="28.79" stroke="#7f7f7f" stroke-width="1.00" clip-path="url('#clipping-rect1')" />
		<line x1="667.99" y1="30.89" x2="667.99" y2="28.79" stroke="#7f7f7f" stroke-width="1.00" clip-path="url('#clipping-rect1')" />
		<line x1="674.72" y1="30.89" x2="674.72" y2="28.79" stroke="#7f7f7f" stroke-width="1.00" clip-path="url('#clipping-rect1')" />
		<line x1="681.46" y1="30.89" x2="681.46" y2="27.74" stroke="#7f7f7f" stroke-width="1.00" clip-path="url('#clipping-rect1')" />
		<line x1="688.19" y1="30.89" x2="688.19" y2="28.79" stroke="#7f7f7f" stroke-width="1.00" clip-path="url('#clipping-rect1')" />
		<line x1="694.92" y1="30.89" x2="694.92" y2="28.79" stroke="#7f7f7f" stroke-width="1.00" clip-path="url('#clipping-rect1')" />
		<line x1="701.66" y1="30.89" x2="701.66" y2="28.79" stroke="#7f7f7f" stroke-width="1.00" clip-path="url('#clipping-rect1')" />
		<line x1="708.39" y1="30.89" x2="708.39" y2="28.79" stroke="#7f7f7f" stroke-width="1.00" clip-path="url('#clipping-rect1')" />
		<line x1="715.13" y1="30.89" x2="715.13" y2="27.74" stroke="#7f7f7f" stroke-width="1.00" clip-path="url('#clipping-rect1')" />
		<line x1="721.86" y1="30.89" x2="721.86" y2="28.79" stroke="#7f7f7f" stroke-width="1.00" clip-path="url('#clipping-rect1')" />
		<line x1="728.60" y1="30.89" x2="728.60" y2="28.79" stroke="#7f7f7f" stroke-width="1.00" clip-path="url('#clipping-rect1')" />
		<line x1="735.33" y1="30.89" x2="735.33" y2="28.79" stroke="#7f7f7f" stroke-width="1.00" clip-path="url('#clipping-rect1')" />
		<line x1="742.06" y1="30.89" x2="742.06" y2="28.79" stroke="#7f7f7f" stroke-width="1.00" clip-path="url('#clipping-rect1')" />
		<line x1="748.80" y1="30.89" x2="748.80" y2="27.74" stroke="#7f7f7f" stroke-width="1.00" clip-path="url('#clipping-rect1')" />
		<line x1="755.53" y1="30.89" x2="755.53" y2="28.79" stroke="#7f7f7f" stroke-width="1.00" clip-path="url('#clipping-rect1')" />
		<line x1="762.27" y1="30.89" x2="762.27" y2="28.79" stroke="#7f7f7f" stroke-width="1.00" clip-path="url('#clipping-rect1')" />
		<line x1="769.00" y1="30.89" x2="769.00" y2="28.79" stroke="#7f7f7f" stroke-width="1.00" clip-path="url('#clipping-rect1')" />
		<line x1="775.74" y1="30.89" x2="775.74" y2="28.79" stroke="#7f7f7f" stroke-width="1.00" clip-path="url('#clipping-rect1')" />
		<line x1="782.47" y1="30.89" x2="782.47" y2="27.74" stroke="#7f7f7f" stroke-width="1.00" clip-path="url('#clipping-rect1')" />
		<line x1="789.21" y1="30.89" x2="789.21" y2="28.79" stroke="#7f7f7f" stroke-width="1.00" clip-path="url('#clipping-rect1')" />
		<line x1="795.94" y1="30.89" x2="795.94" y2="28.79" stroke="#7f7f7f" stroke-width="1.00" clip-path="url('#clipping-rect1')" />
		<line x1="802.67" y1="30.89" x2="802.67" y2="28.79" stroke="#7f7f7f" stroke-width="1.00" clip-path="url('#clipping-rect1')" />
		<line x1="809.41" y1="30.89" x2="809.41" y2="28.79" stroke="#7f7f7f" stroke-width="1.00" clip-path="url('#clipping-rect1')" />
		<line x1="816.14" y1="30.89" x2="816.14" y2="27.74" stroke="#7f7f7f" stroke-width="1.00" clip-path="url('#clipping-rect1')" />
		<line x1="822.88" y1="30.89" x2="822.88" y2="28.79" stroke="#7f7f7f" stroke-width="1.00" clip-path="url('#clipping-rect1')" />
		<line x1="829.61" y1="30.89" x2="829.61" y2="28.79" stroke="#7f7f7f" stroke-width="1.00" clip-path="url('#clipping-rect1')" />
		<line x1="836.35" y1="30.89" x2="836.35" y2="28.79" stroke="#7f7f7f" stroke-width="1.00" clip-path="url('#clipping-rect1')" />
		<line x1="843.08" y1="30.89" x2="843.08" y2="28.79" stroke="#7f7f7f" stroke-width="1.00" clip-path="url('#clipping-rect1')" />
		<line x1="849.81" y1="30.89" x2="849.81" y2="27.74" stroke="#7f7f7f" stroke-width="1.00" clip-path="url('#clipping-rect1')" />
		<line x1="856.55" y1="30.89" x2="856.55" y2="28.79" stroke="#7f7f7f" stroke-width="1.00" clip-path="url('#clipping-rect1')" />
		<line x1="863.28" y1="30.89" x2="863.28" y2="28.79" stroke="#7f7f7f" stroke-width="1.00" clip-path="url('#clipping-rect1')" />
		<line x1="870.02" y1="30.89" x2="870.02" y2="28.79" stroke="#7f7f7f" stroke-width="1.00" clip-path="url('#clipping-rect1')" />
		<line x1="876.75" y1="30.89" x2="876.75" y2="28.79" stroke="#7f7f7f" stroke-width="1.00" clip-path="url('#clipping-rect1')" />
		<line x1="883.49" y1="30.89" x2="883.49" y2="27.74" stroke="#7f7f7f" stroke-width="1.00" clip-path="url('#clipping-rect1')" />
		<line x1="890.22" y1="30.89" x2="890.22" y2="28.79" stroke="#7f7f7f" stroke-width="1.00" clip-path="url('#clipping-rect1')" />
		<text x="851.81" y="25.63" font-family="Helvetica" font-size="12" fill="#333333" clip-path="url('#clipping-rect1')" >720 K</text>
		<line x1="849.81" y1="33.00" x2="849.81" y2="15.11" stroke="#7f7f7f" stroke-width="1.00" clip-path="url('#clipping-rect1')" />
		<text x="784.47" y="25.63" font-family="Helvetica" font-size="12" fill="#333333" clip-path="url('#clipping-rect1')" >700 K</text>
		<line x1="782.47" y1="33.00" x2="782.47" y2="15.11" stroke="#7f7f7f" stroke-width="1.00" clip-path="url('#clipping-rect1')" />
		<text x="717.13" y="25.63" font-family="Helvetica" font-size="12" fill="#333333" clip-path="url('#clipping-rect1')" >680 K</text>
		<line x1="715.13" y1="33.00" x2="715.13" y2="15.11" stroke="#7f7f7f" stroke-width="1.00" clip-path="url('#clipping-rect1')" />
		<text x="649.78" y="25.63" font-family="Helvetica" font-size="12" fill="#333333" clip-path="url('#clipping-rect1')" >660 K</text>
		<line x1="647.78" y1="33.00" x2="647.78" y2="15.11" stroke="#7f7f7f" stroke-width="1.00" clip-path="url('#clipping-rect1')" />
		<text x="582.44" y="25.63" font-family="Helvetica" font-size="12" fill="#333333" clip-path="url('#clipping-rect1')" >640 K</text>
		<line x1="580.44" y1="33.00" x2="580.44" y2="15.11" stroke="#7f7f7f" stroke-width="1.00" clip-path="url('#clipping-rect1')" />
		<text x="515.10" y="25.63" font-family="Helvetica" font-size="12" fill="#333333" clip-path="url('#clipping-rect1')" >620 K</text>
		<line x1="513.10" y1="33.00" x2="513.10" y2="15.11" stroke="#7f7f7f" stroke-width="1.00" clip-path="url('#clipping-rect1')" />
		<text x="447.75" y="25.63" font-family="Helvetica" font-size="12" fill="#333333" clip-path="url('#clipping-rect1')" >600 K</text>
		<line x1="445.75" y1="33.00" x2="445.75" y2="15.11" stroke="#7f7f7f" stroke-width="1.00" clip-path="url('#clipping-rect1')" />
		<text x="380.41" y="25.63" font-family="Helvetica" font-size="12" fill="#333333" clip-path="url('#clipping-rect1')" >580 K</text>
		<line x1="378.41" y1="33.00" x2="378.41" y2="15.11" stroke="#7f7f7f" stroke-width="1.00" clip-path="url('#clipping-rect1')" />
		<text x="313.07" y="25.63" font-family="Helvetica" font-size="12" fill="#333333" clip-path="url('#clipping-rect1')" >560 K</text>
		<line x1="311.07" y1="33.00" x2="311.07" y2="15.11" stroke="#7f7f7f" stroke-width="1.00" clip-path="url('#clipping-rect1')" />
		<text x="245.72" y="25.63" font-family="Helvetica" font-size="12" fill="#333333" clip-path="url('#clipping-rect1')" >540 K</text>
		<line x1="243.72" y1="33.00" x2="243.72" y2="15.11" stroke="#7f7f7f" stroke-width="1.00" clip-path="url('#clipping-rect1')" />
		<text x="178.38" y="25.63" font-family="Helvetica" font-size="12" fill="#333333" clip-path="url('#clipping-rect1')" >520 K</text>
		<line x1="176.38" y1="33.00" x2="176.38" y2="15.11" stroke="#7f7f7f" stroke-width="1.00" clip-path="url('#clipping-rect1')" />
		<text x="111.03" y="25.63" font-family="Helvetica" font-size="12" fill="#333333" clip-path="url('#clipping-rect1')" >500 K</text>
		<line x1="109.03" y1="33.00" x2="109.03" y2="15.11" stroke="#7f7f7f" stroke-width="1.00" clip-path="url('#clipping-rect1')" />
		<text x="43.69" y="25.63" font-family="Helvetica" font-size="12" fill="#333333" clip-path="url('#clipping-rect1')" >480 K</text>
		<line x1="41.69" y1="33.00" x2="41.69" y2="15.11" stroke="#7f7f7f" stroke-width="1.00" clip-path="url('#clipping-rect1')" />
		<line x1="41.05" y1="134.00" x2="41.05" y2="33.00" stroke="#ebebeb" stroke-width="1.00" />
		<line x1="109.12" y1="134.00" x2="109.12" y2="33.00" stroke="#ebebeb" stroke-width="1.00" />
		<line x1="176.20" y1="134.00" x2="176.20" y2="33.00" stroke="#ebebeb" stroke-width="1.00" />
		<line x1="243.27" y1="134.00" x2="243.27" y2="33.00" stroke="#ebebeb" stroke-width="1.00" />
		<line x1="311.35" y1="134.00" x2="311.35" y2="33.00" stroke="#ebebeb" stroke-width="1.00" />
		<line x1="378.42" y1="134.00" x2="378.42" y2="33.00" stroke="#ebebeb" stroke-width="1.00" />
		<line x1="445.50" y1="134.00" x2="445.50" y2="33.00" stroke="#ebebeb" stroke-width="1.00" />
		<line x1="513.58" y1="134.00" x2="513.58" y2="33.00" stroke="#ebebeb" stroke-width="1.00" />
		<line x1="580.65" y1="134.00" x2="580.65" y2="33.00" stroke="#ebebeb" stroke-width="1.00" />
		<line x1="647.73" y1="134.00" x2="647.73" y2="33.00" stroke="#ebebeb" stroke-width="1.00" />
		<line x1="715.80" y1="134.00" x2="715.80" y2="33.00" stroke="#ebebeb" stroke-width="1.00" />
		<line x1="782.88" y1="134.00" x2="782.88" y2="33.00" stroke="#ebebeb" stroke-width="1.00" />
		<line x1="849.95" y1="134.00" x2="849.95" y2="33.00" stroke="#ebebeb" stroke-width="1.00" />
		<polygon fill="url('#gradient1')" shape-rendering="crispEdges" points="892.00,40.00 892.00,35.00 0.00,35.00 0.00,40.00 0.00,45.00 892.00,45.00 " />
		<line x1="0.00" y1="45.00" x2="0.00" y2="35.00" stroke="#6c6c6c" stroke-width="1.00" stroke-linejoin="round" />
		<line x1="0.00" y1="35.00" x2="892.00" y2="35.00" stroke="#6c6c6c" stroke-width="1.00" stroke-linejoin="round" />
		<line x1="892.00" y1="35.00" x2="892.00" y2="45.00" stroke="#6c6c6c" stroke-width="1.00" stroke-linejoin="round" />
		<line x1="0.00" y1="45.00" x2="892.00" y2="45.00" stroke="#6c6c6c" stroke-width="1.00" stroke-linejoin="round" />
		<polygon fill="url('#gradient2')" shape-rendering="crispEdges" points="35.00,39.50 35.00,46.00 0.00,46.00 0.00,39.50 0.00,33.00 35.00,33.00 " />
		<polygon fill="#101010" shape-rendering="crispEdges" points="37.00,33.00 37.00,46.00 35.00,46.00 35.00,33.00 " />
		<polygon fill="url('#gradient2')" shape-rendering="crispEdges" points="46.00,39.50 46.00,46.00 37.00,46.00 37.00,39.50 37.00,33.00 46.00,33.00 " />
		<polygon fill="#101010" shape-rendering="crispEdges" points="48.00,33.00 48.00,46.00 46.00,46.00 46.00,33.00 " />
		<polygon fill="url('#gradient2')" shape-rendering="crispEdges" points="78.00,39.50 78.00,46.00 48.00,46.00 48.00,39.50 48.00,33.00 78.00,33.00 " />
		<polygon fill="#101010" shape-rendering="crispEdges" points="79.00,33.00 79.00,46.00 78.00,46.00 78.00,33.00 " />
		<polygon fill="url('#gradient2')" shape-rendering="crispEdges" points="343.00,39.50 343.00,46.00 79.00,46.00 79.00,39.50 79.00,33.00 343.00,33.00 " />
		<polygon fill="#101010" shape-rendering="crispEdges" points="345.00,33.00 345.00,46.00 343.00,46.00 343.00,33.00 " />
		<polygon fill="url('#gradient2')" shape-rendering="crispEdges" points="799.00,39.50 799.00,46.00 345.00,46.00 345.00,39.50 345.00,33.00 799.00,33.00 " />
		<polygon fill="#101010" shape-rendering="crispEdges" points="803.00,33.00 803.00,46.00 799.00,46.00 799.00,33.00 " />
		<polygon fill="url('#gradient2')" shape-rendering="crispEdges" points="892.00,39.50 892.00,46.00 803.00,46.00 803.00,39.50 803.00,33.00 892.00,33.00 " />
		<line x1="34.00" y1="33.00" x2="34.00" y2="46.00" stroke="#101010" stroke-width="1.00" />
		<polygon fill="#101010" shape-rendering="crispEdges" points="36.00,33.00 36.00,46.00 35.00,46.00 35.00,33.00 " />
		<line x1="37.00" y1="33.00" x2="37.00" y2="46.00" stroke="#101010" stroke-opacity="0.25" stroke-width="1.00" />
		<line x1="44.00" y1="33.00" x2="44.00" y2="46.00" stroke="#101010" stroke-width="1.00" />
		<line x1="45.00" y1="33.00" x2="45.00" y2="46.00" stroke="#101010" stroke-opacity="0.25" stroke-width="1.00" />
		<polygon fill="#101010" shape-rendering="crispEdges" points="47.00,33.00 47.00,46.00 46.00,46.00 46.00,33.00 " />
		<line x1="48.00" y1="33.00" x2="48.00" y2="46.00" stroke="#101010" stroke-opacity="0.31" stroke-width="1.00" />
		<line x1="57.00" y1="33.00" x2="57.00" y2="46.00" stroke="#101010" stroke-opacity="0.25" stroke-width="1.00" />
		<line x1="77.00" y1="33.00" x2="77.00" y2="46.00" stroke="#101010" stroke-opacity="0.36" stroke-width="1.00" />
		<line x1="78.00" y1="33.00" x2="78.00" y2="46.00" stroke="#101010" stroke-width="1.00" />
		<line x1="79.00" y1="33.00" x2="79.00" y2="46.00" stroke="#101010" stroke-opacity="0.44" stroke-width="1.00" />
		<line x1="102.00" y1="33.00" x2="102.00" y2="46.00" stroke="#101010" stroke-width="1.00" />
		<line x1="103.00" y1="33.00" x2="103.00" y2="46.00" stroke="#101010" stroke-opacity="0.25" stroke-width="1.00" />
		<line x1="107.00" y1="33.00" x2="107.00" y2="46.00" stroke="#101010" stroke-opacity="0.25" stroke-width="1.00" />
		<line x1="170.00" y1="33.00" x2="170.00" y2="46.00" stroke="#101010" stroke-opacity="0.25" stroke-width="1.00" />
		<line x1="171.00" y1="33.00" x2="171.00" y2="46.00" stroke="#101010" stroke-width="1.00" />
		<line x1="172.00" y1="33.00" x2="172.00" y2="46.00" stroke="#101010" stroke-opacity="0.38" stroke-width="1.00" />
		<line x1="222.00" y1="33.00" x2="222.00" y2="46.00" stroke="#101010" stroke-opacity="0.25" stroke-width="1.00" />
		<line x1="244.00" y1="33.00" x2="244.00" y2="46.00" stroke="#101010" stroke-opacity="0.25" stroke-width="1.00" />
		<line x1="260.00" y1="33.00" x2="260.00" y2="46.00" stroke="#101010" stroke-opacity="0.25" stroke-width="1.00" />
		<line x1="342.00" y1="33.00" x2="342.00" y2="46.00" stroke="#101010" stroke-width="1.00" />
		<line x1="343.00" y1="33.00" x2="343.00" y2="46.00" stroke="#101010" stroke-width="1.00" />
		<line x1="344.00" y1="33.00" x2="344.00" y2="46.00" stroke="#101010" stroke-width="1.00" />
		<line x1="358.00" y1="33.00" x2="358.00" y2="46.00" stroke="#101010" stroke-width="1.00" />
		<line x1="416.00" y1="33.00" x2="416.00" y2="46.00" stroke="#101010" stroke-opacity="0.48" stroke-width="1.00" />
		<line x1="432.00" y1="33.00" x2="432.00" y2="46.00" stroke="#101010" stroke-width="1.00" />
		<line x1="439.00" y1="33.00" x2="439.00" y2="46.00" stroke="#101010" stroke-opacity="0.43" stroke-width="1.00" />
		<line x1="457.00" y1="33.00" x2="457.00" y2="46.00" stroke="#101010" stroke-opacity="0.25" stroke-width="1.00" />
		<line x1="798.00" y1="33.00" x2="798.00" y2="46.00" stroke="#101010" stroke-width="1.00" />
		<polygon fill="#101010" shape-rendering="crispEdges" points="801.00,33.00 801.00,46.00 799.00,46.00 799.00,33.00 " />
		<line x1="802.00" y1="33.00" x2="802.00" y2="46.00" stroke="#101010" stroke-opacity="0.41" stroke-width="1.00" />
		<line x1="870.00" y1="33.00" x2="870.00" y2="46.00" stroke="#101010" stroke-opacity="0.25" stroke-width="1.00" />
		<polygon fill="url('#gradient3')" shape-rendering="crispEdges" points="22.26,99.20 22.26,105.20 12.01,105.20 12.01,99.20 12.01,93.20 22.26,93.20 " />
		<polygon fill="url('#gradient3')" shape-rendering="crispEdges" points="12.01,99.20 12.01,107.60 3.61,99.20 12.01,90.80 " />
		<polygon fill="#8ab698" shape-rendering="crispEdges" points="22.26,99.20 22.26,93.20 30.66,93.20 " />
		<polygon fill="#8ab698" shape-rendering="crispEdges" points="22.26,99.20 22.26,105.20 30.66,105.20 " />
		<line x1="30.66" y1="93.20" x2="22.26" y2="93.20" stroke="#166e32" stroke-width="1.50" />
		<line x1="30.66" y1="93.20" x2="22.26" y2="99.20" stroke="#166e32" stroke-width="1.50" />
		<line x1="30.66" y1="105.20" x2="22.26" y2="105.20" stroke="#166e32" stroke-width="1.50" />
		<line x1="30.66" y1="105.20" x2="22.26" y2="99.20" stroke="#166e32" stroke-width="1.50" />
		<polygon fill="#ffffff" shape-rendering="crispEdges" points="59.60,106.00 59.60,92.00 35.66,92.00 35.66,106.00 " />
		<text x="35.66" y="103.70" font-family="Helvetica" font-size="12" fill="#124d94" >KIF7</text>
		<polygon fill="url('#gradient3')" shape-rendering="crispEdges" points="43.24,76.40 43.24,82.40 42.06,82.40 42.06,76.40 42.06,70.40 43.24,70.40 " />
		<polygon fill="#8ab698" shape-rendering="crispEdges" points="42.06,76.40 42.06,70.40 33.66,70.40 " />
		<polygon fill="#8ab698" shape-rendering="crispEdges" points="42.06,76.40 42.06,82.40 33.66,82.40 " />
		<line x1="33.66" y1="70.40" x2="42.06" y2="70.40" stroke="#166e32" stroke-width="1.50" />
		<line x1="33.66" y1="70.40" x2="42.06" y2="76.40" stroke="#166e32" stroke-width="1.50" />
		<line x1="33.66" y1="82.40" x2="42.06" y2="82.40" stroke="#166e32" stroke-width="1.50" />
		<line x1="33.66" y1="82.40" x2="42.06" y2="76.40" stroke="#166e32" stroke-width="1.50" />
		<polygon fill="#ffffff" shape-rendering="crispEdges" points="33.66,83.00 33.66,69.00 0.00,69.00 0.00,83.00 " />
		<text x="0.00" y="80.90" font-family="Helvetica" font-size="12" fill="#124d94" >LOC...</text>
		<polygon fill="url('#gradient3')" shape-rendering="crispEdges" points="62.15,122.00 62.15,128.00 60.95,128.00 60.95,122.00 60.95,116.00 62.15,116.00 " />
		<polygon fill="url('#gradient3')" shape-rendering="crispEdges" points="60.95,122.00 60.95,130.40 52.55,122.00 60.95,113.60 " />
		<polygon fill="#8ab698" shape-rendering="crispEdges" points="62.15,122.00 62.15,116.00 70.55,116.00 " />
		<polygon fill="#8ab698" shape-rendering="crispEdges" points="62.15,122.00 62.15,128.00 70.55,128.00 " />
		<line x1="70.55" y1="116.00" x2="62.15" y2="116.00" stroke="#166e32" stroke-width="1.50" />
		<line x1="70.55" y1="116.00" x2="62.15" y2="122.00" stroke="#166e32" stroke-width="1.50" />
		<line x1="70.55" y1="128.00" x2="62.15" y2="128.00" stroke="#166e32" stroke-width="1.50" />
		<line x1="70.55" y1="128.00" x2="62.15" y2="122.00" stroke="#166e32" stroke-width="1.50" />
		<polygon fill="#ffffff" shape-rendering="crispEdges" points="105.30,129.00 105.30,115.00 75.55,115.00 75.55,129.00 " />
		<text x="75.55" y="126.50" font-family="Helvetica" font-size="12" fill="#124d94" >PLIN1</text>
		<polygon fill="url('#gradient3')" shape-rendering="crispEdges" points="96.55,99.20 96.55,105.20 93.99,105.20 93.99,99.20 93.99,93.20 96.55,93.20 " />
		<polygon fill="#8ab698" shape-rendering="crispEdges" points="96.55,99.20 96.55,93.20 104.95,93.20 " />
		<polygon fill="#8ab698" shape-rendering="crispEdges" points="96.55,99.20 96.55,105.20 104.95,105.20 " />
		<line x1="104.95" y1="93.20" x2="96.55" y2="93.20" stroke="#166e32" stroke-width="1.50" />
		<line x1="104.95" y1="93.20" x2="96.55" y2="99.20" stroke="#166e32" stroke-width="1.50" />
		<line x1="104.95" y1="105.20" x2="96.55" y2="105.20" stroke="#166e32" stroke-width="1.50" />
		<line x1="104.95" y1="105.20" x2="96.55" y2="99.20" stroke="#166e32" stroke-width="1.50" />
		<polygon fill="#ffffff" shape-rendering="crispEdges" points="154.05,106.00 154.05,92.00 109.95,92.00 109.95,106.00 " />
		<text x="109.95" y="103.70" font-family="Helvetica" font-size="12" fill="#124d94" >PEX11A</text>
		<polygon fill="url('#gradient3')" shape-rendering="crispEdges" points="133.38,76.40 133.38,82.40 113.34,82.40 113.34,76.40 113.34,70.40 133.38,70.40 " />
		<polygon fill="url('#gradient3')" shape-rendering="crispEdges" points="133.38,76.40 133.38,84.80 141.78,76.40 133.38,68.00 " />
		<polygon fill="#8ab698" shape-rendering="crispEdges" points="113.34,76.40 113.34,70.40 104.94,70.40 " />
		<polygon fill="#8ab698" shape-rendering="crispEdges" points="113.34,76.40 113.34,82.40 104.94,82.40 " />
		<line x1="104.94" y1="70.40" x2="113.34" y2="70.40" stroke="#166e32" stroke-width="1.50" />
		<line x1="104.94" y1="70.40" x2="113.34" y2="76.40" stroke="#166e32" stroke-width="1.50" />
		<line x1="104.94" y1="82.40" x2="113.34" y2="82.40" stroke="#166e32" stroke-width="1.50" />
		<line x1="104.94" y1="82.40" x2="113.34" y2="76.40" stroke="#166e32" stroke-width="1.50" />
		<polygon fill="#ffffff" shape-rendering="crispEdges" points="128.16,76.40 118.56,71.60 120.96,76.40 118.56,81.20 " />
		<text x="58.79" y="80.90" font-family="Helvetica" font-size="12" fill="#124d94" >WDR93</text>
		<polygon fill="url('#gradient3')" shape-rendering="crispEdges" points="388.63,76.40 388.63,82.40 375.30,82.40 375.30,76.40 375.30,70.40 388.63,70.40 " />
		<polygon fill="url('#gradient3')" shape-rendering="crispEdges" points="388.63,76.40 388.63,84.80 397.03,76.40 388.63,68.00 " />
		<polygon fill="#8ab698" shape-rendering="crispEdges" points="375.30,76.40 375.30,70.40 366.90,70.40 " />
		<polygon fill="#8ab698" shape-rendering="crispEdges" points="375.30,76.40 375.30,82.40 366.90,82.40 " />
		<line x1="366.90" y1="70.40" x2="375.30" y2="70.40" stroke="#166e32" stroke-width="1.50" />
		<line x1="366.90" y1="70.40" x2="375.30" y2="76.40" stroke="#166e32" stroke-width="1.50" />
		<line x1="366.90" y1="82.40" x2="375.30" y2="82.40" stroke="#166e32" stroke-width="1.50" />
		<line x1="366.90" y1="82.40" x2="375.30" y2="76.40" stroke="#166e32" stroke-width="1.50" />
		<text x="309.28" y="80.90" font-family="Helvetica" font-size="12" fill="#124d94" >KIAA1024</text>
		<polygon fill="url('#gradient3')" shape-rendering="crispEdges" points="782.18,76.40 782.18,82.40 734.72,82.40 734.72,76.40 734.72,70.40 782.18,70.40 " />
		<polygon fill="url('#gradient3')" shape-rendering="crispEdges" points="734.72,76.40 734.72,84.80 726.32,76.40 734.72,68.00 " />
		<polygon fill="#8ab698" shape-rendering="crispEdges" points="782.18,76.40 782.18,70.40 790.58,70.40 " />
		<polygon fill="#8ab698" shape-rendering="crispEdges" points="782.18,76.40 782.18,82.40 790.58,82.40 " />
		<line x1="790.58" y1="70.40" x2="782.18" y2="70.40" stroke="#166e32" stroke-width="1.50" />
		<line x1="790.58" y1="70.40" x2="782.18" y2="76.40" stroke="#166e32" stroke-width="1.50" />
		<line x1="790.58" y1="82.40" x2="782.18" y2="82.40" stroke="#166e32" stroke-width="1.50" />
		<line x1="790.58" y1="82.40" x2="782.18" y2="76.40" stroke="#166e32" stroke-width="1.50" />
		<polygon fill="#ffffff" shape-rendering="crispEdges" points="753.65,76.40 763.25,71.60 760.85,76.40 763.25,81.20 " />
		<polygon fill="#ffffff" shape-rendering="crispEdges" points="878.80,83.00 878.80,69.00 795.58,69.00 795.58,83.00 " />
		<text x="795.58" y="80.90" font-family="Helvetica" font-size="12" fill="#124d94" >LOC104394452</text>
		<polygon fill="url('#gradient3')" shape-rendering="crispEdges" points="819.54,99.20 819.54,105.20 812.00,105.20 812.00,99.20 812.00,93.20 819.54,93.20 " />
		<polygon fill="#ffffff" shape-rendering="crispEdges" points="865.77,106.00 865.77,92.00 824.54,92.00 824.54,106.00 " />
		<text x="824.54" y="103.70" font-family="Helvetica" font-size="12" fill="#124d94" >BCL2A1</text>
		<polygon fill="url('#gradient4')" shape-rendering="crispEdges" points="0.00,62.00 892.00,62.00 892.00,47.00 0.00,47.00 " clip-path="url('#clipping-rect2')" />
		<text x="0.00" y="58.00" font-family="Helvetica" font-size="14" fill="#333333" >Genes, NCBI Chaetura pelagica Annotation Release 100, 2014-10-31</text>
		<polygon fill="#e5e5e5" shape-rendering="crispEdges" points="892.00,13.00 892.00,-1.00 0.00,-1.00 0.00,13.00 " />
		<text x="0.00" y="10.00" font-family="Helvetica Bold" font-size="12" text-anchor="start" fill="#000000" >NW_009954311.1:467618..732528 Chaetura pelagica isolate M959 unplaced genomic scaffold, ChaPel_1.0 scaffold428, whole genome shotgun sequence</text>
	</g>
</svg>
