<?xml version="1.0" standalone="no" ?>
<!DOCTYPE svg PUBLIC "-//W3C//DTD SVG 1.1//EN" "http://www.w3.org/Graphics/SVG/1.1/DTD/svg11.dtd">
<svg width="892px" height="135px" xmlns="http://www.w3.org/2000/svg" version="1.1" viewBox="0 0 892 135" >
	<style type="text/css" > <![CDATA[
		@import url("https://www.ncbi.nlm.nih.gov/projects/sviewer/css/svg_fonts.css");
	]]>
	</style>
	<desc >Generated by NCBI Genome Workbench http://www.ncbi.nlm.nih.gov/tools/gbench/</desc>
	<defs >
		<clipPath id="clipping-rect1" >
			<rect x="0" y="14" width="892" height="20" />
		</clipPath>
		<linearGradient id="gradient1" gradientTransform="rotate(90)" >
			<stop offset="0%" stop-color="#6c6c6c" />
			<stop offset="50%" stop-color="#b5b5b5" />
			<stop offset="100%" stop-color="#6c6c6c" />
		</linearGradient>
		<linearGradient id="gradient2" gradientTransform="rotate(90)" >
			<stop offset="0%" stop-color="#10c010" />
			<stop offset="50%" stop-color="#87df87" />
			<stop offset="100%" stop-color="#10c010" />
		</linearGradient>
		<linearGradient id="gradient3" gradientTransform="rotate(90)" >
			<stop offset="0%" stop-color="#166e32" />
			<stop offset="50%" stop-color="#8ab698" />
			<stop offset="100%" stop-color="#166e32" />
		</linearGradient>
		<clipPath id="clipping-rect2" >
			<rect x="0" y="34" width="892" height="101" />
		</clipPath>
		<linearGradient id="gradient4" gradientTransform="rotate(90)" >
			<stop offset="0%" stop-color="#e6e6e6" stop-opacity="0.71" />
			<stop offset="100%" stop-color="#ffffff" stop-opacity="0.00" />
		</linearGradient>
	</defs>
	<g >
		<polygon fill="#ffffff" shape-rendering="crispEdges" points="892.00,33.00 892.00,13.00 0.00,13.00 0.00,33.00 " />
		<line x1="0.00" y1="30.89" x2="892.00" y2="30.89" stroke="#7f7f7f" stroke-width="1.00" clip-path="url('#clipping-rect1')" />
		<line x1="3.99" y1="30.89" x2="3.99" y2="28.79" stroke="#7f7f7f" stroke-width="1.00" clip-path="url('#clipping-rect1')" />
		<line x1="10.08" y1="30.89" x2="10.08" y2="28.79" stroke="#7f7f7f" stroke-width="1.00" clip-path="url('#clipping-rect1')" />
		<line x1="16.17" y1="30.89" x2="16.17" y2="28.79" stroke="#7f7f7f" stroke-width="1.00" clip-path="url('#clipping-rect1')" />
		<line x1="22.25" y1="30.89" x2="22.25" y2="28.79" stroke="#7f7f7f" stroke-width="1.00" clip-path="url('#clipping-rect1')" />
		<line x1="28.34" y1="30.89" x2="28.34" y2="27.74" stroke="#7f7f7f" stroke-width="1.00" clip-path="url('#clipping-rect1')" />
		<line x1="34.43" y1="30.89" x2="34.43" y2="28.79" stroke="#7f7f7f" stroke-width="1.00" clip-path="url('#clipping-rect1')" />
		<line x1="40.51" y1="30.89" x2="40.51" y2="28.79" stroke="#7f7f7f" stroke-width="1.00" clip-path="url('#clipping-rect1')" />
		<line x1="46.60" y1="30.89" x2="46.60" y2="28.79" stroke="#7f7f7f" stroke-width="1.00" clip-path="url('#clipping-rect1')" />
		<line x1="52.68" y1="30.89" x2="52.68" y2="28.79" stroke="#7f7f7f" stroke-width="1.00" clip-path="url('#clipping-rect1')" />
		<line x1="58.77" y1="30.89" x2="58.77" y2="27.74" stroke="#7f7f7f" stroke-width="1.00" clip-path="url('#clipping-rect1')" />
		<line x1="64.86" y1="30.89" x2="64.86" y2="28.79" stroke="#7f7f7f" stroke-width="1.00" clip-path="url('#clipping-rect1')" />
		<line x1="70.94" y1="30.89" x2="70.94" y2="28.79" stroke="#7f7f7f" stroke-width="1.00" clip-path="url('#clipping-rect1')" />
		<line x1="77.03" y1="30.89" x2="77.03" y2="28.79" stroke="#7f7f7f" stroke-width="1.00" clip-path="url('#clipping-rect1')" />
		<line x1="83.11" y1="30.89" x2="83.11" y2="28.79" stroke="#7f7f7f" stroke-width="1.00" clip-path="url('#clipping-rect1')" />
		<line x1="89.20" y1="30.89" x2="89.20" y2="27.74" stroke="#7f7f7f" stroke-width="1.00" clip-path="url('#clipping-rect1')" />
		<line x1="95.29" y1="30.89" x2="95.29" y2="28.79" stroke="#7f7f7f" stroke-width="1.00" clip-path="url('#clipping-rect1')" />
		<line x1="101.37" y1="30.89" x2="101.37" y2="28.79" stroke="#7f7f7f" stroke-width="1.00" clip-path="url('#clipping-rect1')" />
		<line x1="107.46" y1="30.89" x2="107.46" y2="28.79" stroke="#7f7f7f" stroke-width="1.00" clip-path="url('#clipping-rect1')" />
		<line x1="113.55" y1="30.89" x2="113.55" y2="28.79" stroke="#7f7f7f" stroke-width="1.00" clip-path="url('#clipping-rect1')" />
		<line x1="119.63" y1="30.89" x2="119.63" y2="27.74" stroke="#7f7f7f" stroke-width="1.00" clip-path="url('#clipping-rect1')" />
		<line x1="125.72" y1="30.89" x2="125.72" y2="28.79" stroke="#7f7f7f" stroke-width="1.00" clip-path="url('#clipping-rect1')" />
		<line x1="131.80" y1="30.89" x2="131.80" y2="28.79" stroke="#7f7f7f" stroke-width="1.00" clip-path="url('#clipping-rect1')" />
		<line x1="137.89" y1="30.89" x2="137.89" y2="28.79" stroke="#7f7f7f" stroke-width="1.00" clip-path="url('#clipping-rect1')" />
		<line x1="143.98" y1="30.89" x2="143.98" y2="28.79" stroke="#7f7f7f" stroke-width="1.00" clip-path="url('#clipping-rect1')" />
		<line x1="150.06" y1="30.89" x2="150.06" y2="27.74" stroke="#7f7f7f" stroke-width="1.00" clip-path="url('#clipping-rect1')" />
		<line x1="156.15" y1="30.89" x2="156.15" y2="28.79" stroke="#7f7f7f" stroke-width="1.00" clip-path="url('#clipping-rect1')" />
		<line x1="162.24" y1="30.89" x2="162.24" y2="28.79" stroke="#7f7f7f" stroke-width="1.00" clip-path="url('#clipping-rect1')" />
		<line x1="168.32" y1="30.89" x2="168.32" y2="28.79" stroke="#7f7f7f" stroke-width="1.00" clip-path="url('#clipping-rect1')" />
		<line x1="174.41" y1="30.89" x2="174.41" y2="28.79" stroke="#7f7f7f" stroke-width="1.00" clip-path="url('#clipping-rect1')" />
		<line x1="180.49" y1="30.89" x2="180.49" y2="27.74" stroke="#7f7f7f" stroke-width="1.00" clip-path="url('#clipping-rect1')" />
		<line x1="186.58" y1="30.89" x2="186.58" y2="28.79" stroke="#7f7f7f" stroke-width="1.00" clip-path="url('#clipping-rect1')" />
		<line x1="192.67" y1="30.89" x2="192.67" y2="28.79" stroke="#7f7f7f" stroke-width="1.00" clip-path="url('#clipping-rect1')" />
		<line x1="198.75" y1="30.89" x2="198.75" y2="28.79" stroke="#7f7f7f" stroke-width="1.00" clip-path="url('#clipping-rect1')" />
		<line x1="204.84" y1="30.89" x2="204.84" y2="28.79" stroke="#7f7f7f" stroke-width="1.00" clip-path="url('#clipping-rect1')" />
		<line x1="210.92" y1="30.89" x2="210.92" y2="27.74" stroke="#7f7f7f" stroke-width="1.00" clip-path="url('#clipping-rect1')" />
		<line x1="217.01" y1="30.89" x2="217.01" y2="28.79" stroke="#7f7f7f" stroke-width="1.00" clip-path="url('#clipping-rect1')" />
		<line x1="223.10" y1="30.89" x2="223.10" y2="28.79" stroke="#7f7f7f" stroke-width="1.00" clip-path="url('#clipping-rect1')" />
		<line x1="229.18" y1="30.89" x2="229.18" y2="28.79" stroke="#7f7f7f" stroke-width="1.00" clip-path="url('#clipping-rect1')" />
		<line x1="235.27" y1="30.89" x2="235.27" y2="28.79" stroke="#7f7f7f" stroke-width="1.00" clip-path="url('#clipping-rect1')" />
		<line x1="241.36" y1="30.89" x2="241.36" y2="27.74" stroke="#7f7f7f" stroke-width="1.00" clip-path="url('#clipping-rect1')" />
		<line x1="247.44" y1="30.89" x2="247.44" y2="28.79" stroke="#7f7f7f" stroke-width="1.00" clip-path="url('#clipping-rect1')" />
		<line x1="253.53" y1="30.89" x2="253.53" y2="28.79" stroke="#7f7f7f" stroke-width="1.00" clip-path="url('#clipping-rect1')" />
		<line x1="259.61" y1="30.89" x2="259.61" y2="28.79" stroke="#7f7f7f" stroke-width="1.00" clip-path="url('#clipping-rect1')" />
		<line x1="265.70" y1="30.89" x2="265.70" y2="28.79" stroke="#7f7f7f" stroke-width="1.00" clip-path="url('#clipping-rect1')" />
		<line x1="271.79" y1="30.89" x2="271.79" y2="27.74" stroke="#7f7f7f" stroke-width="1.00" clip-path="url('#clipping-rect1')" />
		<line x1="277.87" y1="30.89" x2="277.87" y2="28.79" stroke="#7f7f7f" stroke-width="1.00" clip-path="url('#clipping-rect1')" />
		<line x1="283.96" y1="30.89" x2="283.96" y2="28.79" stroke="#7f7f7f" stroke-width="1.00" clip-path="url('#clipping-rect1')" />
		<line x1="290.05" y1="30.89" x2="290.05" y2="28.79" stroke="#7f7f7f" stroke-width="1.00" clip-path="url('#clipping-rect1')" />
		<line x1="296.13" y1="30.89" x2="296.13" y2="28.79" stroke="#7f7f7f" stroke-width="1.00" clip-path="url('#clipping-rect1')" />
		<line x1="302.22" y1="30.89" x2="302.22" y2="27.74" stroke="#7f7f7f" stroke-width="1.00" clip-path="url('#clipping-rect1')" />
		<line x1="308.30" y1="30.89" x2="308.30" y2="28.79" stroke="#7f7f7f" stroke-width="1.00" clip-path="url('#clipping-rect1')" />
		<line x1="314.39" y1="30.89" x2="314.39" y2="28.79" stroke="#7f7f7f" stroke-width="1.00" clip-path="url('#clipping-rect1')" />
		<line x1="320.48" y1="30.89" x2="320.48" y2="28.79" stroke="#7f7f7f" stroke-width="1.00" clip-path="url('#clipping-rect1')" />
		<line x1="326.56" y1="30.89" x2="326.56" y2="28.79" stroke="#7f7f7f" stroke-width="1.00" clip-path="url('#clipping-rect1')" />
		<line x1="332.65" y1="30.89" x2="332.65" y2="27.74" stroke="#7f7f7f" stroke-width="1.00" clip-path="url('#clipping-rect1')" />
		<line x1="338.74" y1="30.89" x2="338.74" y2="28.79" stroke="#7f7f7f" stroke-width="1.00" clip-path="url('#clipping-rect1')" />
		<line x1="344.82" y1="30.89" x2="344.82" y2="28.79" stroke="#7f7f7f" stroke-width="1.00" clip-path="url('#clipping-rect1')" />
		<line x1="350.91" y1="30.89" x2="350.91" y2="28.79" stroke="#7f7f7f" stroke-width="1.00" clip-path="url('#clipping-rect1')" />
		<line x1="356.99" y1="30.89" x2="356.99" y2="28.79" stroke="#7f7f7f" stroke-width="1.00" clip-path="url('#clipping-rect1')" />
		<line x1="363.08" y1="30.89" x2="363.08" y2="27.74" stroke="#7f7f7f" stroke-width="1.00" clip-path="url('#clipping-rect1')" />
		<line x1="369.17" y1="30.89" x2="369.17" y2="28.79" stroke="#7f7f7f" stroke-width="1.00" clip-path="url('#clipping-rect1')" />
		<line x1="375.25" y1="30.89" x2="375.25" y2="28.79" stroke="#7f7f7f" stroke-width="1.00" clip-path="url('#clipping-rect1')" />
		<line x1="381.34" y1="30.89" x2="381.34" y2="28.79" stroke="#7f7f7f" stroke-width="1.00" clip-path="url('#clipping-rect1')" />
		<line x1="387.42" y1="30.89" x2="387.42" y2="28.79" stroke="#7f7f7f" stroke-width="1.00" clip-path="url('#clipping-rect1')" />
		<line x1="393.51" y1="30.89" x2="393.51" y2="27.74" stroke="#7f7f7f" stroke-width="1.00" clip-path="url('#clipping-rect1')" />
		<line x1="399.60" y1="30.89" x2="399.60" y2="28.79" stroke="#7f7f7f" stroke-width="1.00" clip-path="url('#clipping-rect1')" />
		<line x1="405.68" y1="30.89" x2="405.68" y2="28.79" stroke="#7f7f7f" stroke-width="1.00" clip-path="url('#clipping-rect1')" />
		<line x1="411.77" y1="30.89" x2="411.77" y2="28.79" stroke="#7f7f7f" stroke-width="1.00" clip-path="url('#clipping-rect1')" />
		<line x1="417.86" y1="30.89" x2="417.86" y2="28.79" stroke="#7f7f7f" stroke-width="1.00" clip-path="url('#clipping-rect1')" />
		<line x1="423.94" y1="30.89" x2="423.94" y2="27.74" stroke="#7f7f7f" stroke-width="1.00" clip-path="url('#clipping-rect1')" />
		<line x1="430.03" y1="30.89" x2="430.03" y2="28.79" stroke="#7f7f7f" stroke-width="1.00" clip-path="url('#clipping-rect1')" />
		<line x1="436.11" y1="30.89" x2="436.11" y2="28.79" stroke="#7f7f7f" stroke-width="1.00" clip-path="url('#clipping-rect1')" />
		<line x1="442.20" y1="30.89" x2="442.20" y2="28.79" stroke="#7f7f7f" stroke-width="1.00" clip-path="url('#clipping-rect1')" />
		<line x1="448.29" y1="30.89" x2="448.29" y2="28.79" stroke="#7f7f7f" stroke-width="1.00" clip-path="url('#clipping-rect1')" />
		<line x1="454.37" y1="30.89" x2="454.37" y2="27.74" stroke="#7f7f7f" stroke-width="1.00" clip-path="url('#clipping-rect1')" />
		<line x1="460.46" y1="30.89" x2="460.46" y2="28.79" stroke="#7f7f7f" stroke-width="1.00" clip-path="url('#clipping-rect1')" />
		<line x1="466.55" y1="30.89" x2="466.55" y2="28.79" stroke="#7f7f7f" stroke-width="1.00" clip-path="url('#clipping-rect1')" />
		<line x1="472.63" y1="30.89" x2="472.63" y2="28.79" stroke="#7f7f7f" stroke-width="1.00" clip-path="url('#clipping-rect1')" />
		<line x1="478.72" y1="30.89" x2="478.72" y2="28.79" stroke="#7f7f7f" stroke-width="1.00" clip-path="url('#clipping-rect1')" />
		<line x1="484.80" y1="30.89" x2="484.80" y2="27.74" stroke="#7f7f7f" stroke-width="1.00" clip-path="url('#clipping-rect1')" />
		<line x1="490.89" y1="30.89" x2="490.89" y2="28.79" stroke="#7f7f7f" stroke-width="1.00" clip-path="url('#clipping-rect1')" />
		<line x1="496.98" y1="30.89" x2="496.98" y2="28.79" stroke="#7f7f7f" stroke-width="1.00" clip-path="url('#clipping-rect1')" />
		<line x1="503.06" y1="30.89" x2="503.06" y2="28.79" stroke="#7f7f7f" stroke-width="1.00" clip-path="url('#clipping-rect1')" />
		<line x1="509.15" y1="30.89" x2="509.15" y2="28.79" stroke="#7f7f7f" stroke-width="1.00" clip-path="url('#clipping-rect1')" />
		<line x1="515.24" y1="30.89" x2="515.24" y2="27.74" stroke="#7f7f7f" stroke-width="1.00" clip-path="url('#clipping-rect1')" />
		<line x1="521.32" y1="30.89" x2="521.32" y2="28.79" stroke="#7f7f7f" stroke-width="1.00" clip-path="url('#clipping-rect1')" />
		<line x1="527.41" y1="30.89" x2="527.41" y2="28.79" stroke="#7f7f7f" stroke-width="1.00" clip-path="url('#clipping-rect1')" />
		<line x1="533.49" y1="30.89" x2="533.49" y2="28.79" stroke="#7f7f7f" stroke-width="1.00" clip-path="url('#clipping-rect1')" />
		<line x1="539.58" y1="30.89" x2="539.58" y2="28.79" stroke="#7f7f7f" stroke-width="1.00" clip-path="url('#clipping-rect1')" />
		<line x1="545.67" y1="30.89" x2="545.67" y2="27.74" stroke="#7f7f7f" stroke-width="1.00" clip-path="url('#clipping-rect1')" />
		<line x1="551.75" y1="30.89" x2="551.75" y2="28.79" stroke="#7f7f7f" stroke-width="1.00" clip-path="url('#clipping-rect1')" />
		<line x1="557.84" y1="30.89" x2="557.84" y2="28.79" stroke="#7f7f7f" stroke-width="1.00" clip-path="url('#clipping-rect1')" />
		<line x1="563.92" y1="30.89" x2="563.92" y2="28.79" stroke="#7f7f7f" stroke-width="1.00" clip-path="url('#clipping-rect1')" />
		<line x1="570.01" y1="30.89" x2="570.01" y2="28.79" stroke="#7f7f7f" stroke-width="1.00" clip-path="url('#clipping-rect1')" />
		<line x1="576.10" y1="30.89" x2="576.10" y2="27.74" stroke="#7f7f7f" stroke-width="1.00" clip-path="url('#clipping-rect1')" />
		<line x1="582.18" y1="30.89" x2="582.18" y2="28.79" stroke="#7f7f7f" stroke-width="1.00" clip-path="url('#clipping-rect1')" />
		<line x1="588.27" y1="30.89" x2="588.27" y2="28.79" stroke="#7f7f7f" stroke-width="1.00" clip-path="url('#clipping-rect1')" />
		<line x1="594.36" y1="30.89" x2="594.36" y2="28.79" stroke="#7f7f7f" stroke-width="1.00" clip-path="url('#clipping-rect1')" />
		<line x1="600.44" y1="30.89" x2="600.44" y2="28.79" stroke="#7f7f7f" stroke-width="1.00" clip-path="url('#clipping-rect1')" />
		<line x1="606.53" y1="30.89" x2="606.53" y2="27.74" stroke="#7f7f7f" stroke-width="1.00" clip-path="url('#clipping-rect1')" />
		<line x1="612.61" y1="30.89" x2="612.61" y2="28.79" stroke="#7f7f7f" stroke-width="1.00" clip-path="url('#clipping-rect1')" />
		<line x1="618.70" y1="30.89" x2="618.70" y2="28.79" stroke="#7f7f7f" stroke-width="1.00" clip-path="url('#clipping-rect1')" />
		<line x1="624.79" y1="30.89" x2="624.79" y2="28.79" stroke="#7f7f7f" stroke-width="1.00" clip-path="url('#clipping-rect1')" />
		<line x1="630.87" y1="30.89" x2="630.87" y2="28.79" stroke="#7f7f7f" stroke-width="1.00" clip-path="url('#clipping-rect1')" />
		<line x1="636.96" y1="30.89" x2="636.96" y2="27.74" stroke="#7f7f7f" stroke-width="1.00" clip-path="url('#clipping-rect1')" />
		<line x1="643.05" y1="30.89" x2="643.05" y2="28.79" stroke="#7f7f7f" stroke-width="1.00" clip-path="url('#clipping-rect1')" />
		<line x1="649.13" y1="30.89" x2="649.13" y2="28.79" stroke="#7f7f7f" stroke-width="1.00" clip-path="url('#clipping-rect1')" />
		<line x1="655.22" y1="30.89" x2="655.22" y2="28.79" stroke="#7f7f7f" stroke-width="1.00" clip-path="url('#clipping-rect1')" />
		<line x1="661.30" y1="30.89" x2="661.30" y2="28.79" stroke="#7f7f7f" stroke-width="1.00" clip-path="url('#clipping-rect1')" />
		<line x1="667.39" y1="30.89" x2="667.39" y2="27.74" stroke="#7f7f7f" stroke-width="1.00" clip-path="url('#clipping-rect1')" />
		<line x1="673.48" y1="30.89" x2="673.48" y2="28.79" stroke="#7f7f7f" stroke-width="1.00" clip-path="url('#clipping-rect1')" />
		<line x1="679.56" y1="30.89" x2="679.56" y2="28.79" stroke="#7f7f7f" stroke-width="1.00" clip-path="url('#clipping-rect1')" />
		<line x1="685.65" y1="30.89" x2="685.65" y2="28.79" stroke="#7f7f7f" stroke-width="1.00" clip-path="url('#clipping-rect1')" />
		<line x1="691.73" y1="30.89" x2="691.73" y2="28.79" stroke="#7f7f7f" stroke-width="1.00" clip-path="url('#clipping-rect1')" />
		<line x1="697.82" y1="30.89" x2="697.82" y2="27.74" stroke="#7f7f7f" stroke-width="1.00" clip-path="url('#clipping-rect1')" />
		<line x1="703.91" y1="30.89" x2="703.91" y2="28.79" stroke="#7f7f7f" stroke-width="1.00" clip-path="url('#clipping-rect1')" />
		<line x1="709.99" y1="30.89" x2="709.99" y2="28.79" stroke="#7f7f7f" stroke-width="1.00" clip-path="url('#clipping-rect1')" />
		<line x1="716.08" y1="30.89" x2="716.08" y2="28.79" stroke="#7f7f7f" stroke-width="1.00" clip-path="url('#clipping-rect1')" />
		<line x1="722.17" y1="30.89" x2="722.17" y2="28.79" stroke="#7f7f7f" stroke-width="1.00" clip-path="url('#clipping-rect1')" />
		<line x1="728.25" y1="30.89" x2="728.25" y2="27.74" stroke="#7f7f7f" stroke-width="1.00" clip-path="url('#clipping-rect1')" />
		<line x1="734.34" y1="30.89" x2="734.34" y2="28.79" stroke="#7f7f7f" stroke-width="1.00" clip-path="url('#clipping-rect1')" />
		<line x1="740.42" y1="30.89" x2="740.42" y2="28.79" stroke="#7f7f7f" stroke-width="1.00" clip-path="url('#clipping-rect1')" />
		<line x1="746.51" y1="30.89" x2="746.51" y2="28.79" stroke="#7f7f7f" stroke-width="1.00" clip-path="url('#clipping-rect1')" />
		<line x1="752.60" y1="30.89" x2="752.60" y2="28.79" stroke="#7f7f7f" stroke-width="1.00" clip-path="url('#clipping-rect1')" />
		<line x1="758.68" y1="30.89" x2="758.68" y2="27.74" stroke="#7f7f7f" stroke-width="1.00" clip-path="url('#clipping-rect1')" />
		<line x1="764.77" y1="30.89" x2="764.77" y2="28.79" stroke="#7f7f7f" stroke-width="1.00" clip-path="url('#clipping-rect1')" />
		<line x1="770.86" y1="30.89" x2="770.86" y2="28.79" stroke="#7f7f7f" stroke-width="1.00" clip-path="url('#clipping-rect1')" />
		<line x1="776.94" y1="30.89" x2="776.94" y2="28.79" stroke="#7f7f7f" stroke-width="1.00" clip-path="url('#clipping-rect1')" />
		<line x1="783.03" y1="30.89" x2="783.03" y2="28.79" stroke="#7f7f7f" stroke-width="1.00" clip-path="url('#clipping-rect1')" />
		<line x1="789.11" y1="30.89" x2="789.11" y2="27.74" stroke="#7f7f7f" stroke-width="1.00" clip-path="url('#clipping-rect1')" />
		<line x1="795.20" y1="30.89" x2="795.20" y2="28.79" stroke="#7f7f7f" stroke-width="1.00" clip-path="url('#clipping-rect1')" />
		<line x1="801.29" y1="30.89" x2="801.29" y2="28.79" stroke="#7f7f7f" stroke-width="1.00" clip-path="url('#clipping-rect1')" />
		<line x1="807.37" y1="30.89" x2="807.37" y2="28.79" stroke="#7f7f7f" stroke-width="1.00" clip-path="url('#clipping-rect1')" />
		<line x1="813.46" y1="30.89" x2="813.46" y2="28.79" stroke="#7f7f7f" stroke-width="1.00" clip-path="url('#clipping-rect1')" />
		<line x1="819.55" y1="30.89" x2="819.55" y2="27.74" stroke="#7f7f7f" stroke-width="1.00" clip-path="url('#clipping-rect1')" />
		<line x1="825.63" y1="30.89" x2="825.63" y2="28.79" stroke="#7f7f7f" stroke-width="1.00" clip-path="url('#clipping-rect1')" />
		<line x1="831.72" y1="30.89" x2="831.72" y2="28.79" stroke="#7f7f7f" stroke-width="1.00" clip-path="url('#clipping-rect1')" />
		<line x1="837.80" y1="30.89" x2="837.80" y2="28.79" stroke="#7f7f7f" stroke-width="1.00" clip-path="url('#clipping-rect1')" />
		<line x1="843.89" y1="30.89" x2="843.89" y2="28.79" stroke="#7f7f7f" stroke-width="1.00" clip-path="url('#clipping-rect1')" />
		<line x1="849.98" y1="30.89" x2="849.98" y2="27.74" stroke="#7f7f7f" stroke-width="1.00" clip-path="url('#clipping-rect1')" />
		<line x1="856.06" y1="30.89" x2="856.06" y2="28.79" stroke="#7f7f7f" stroke-width="1.00" clip-path="url('#clipping-rect1')" />
		<line x1="862.15" y1="30.89" x2="862.15" y2="28.79" stroke="#7f7f7f" stroke-width="1.00" clip-path="url('#clipping-rect1')" />
		<line x1="868.23" y1="30.89" x2="868.23" y2="28.79" stroke="#7f7f7f" stroke-width="1.00" clip-path="url('#clipping-rect1')" />
		<line x1="874.32" y1="30.89" x2="874.32" y2="28.79" stroke="#7f7f7f" stroke-width="1.00" clip-path="url('#clipping-rect1')" />
		<line x1="880.41" y1="30.89" x2="880.41" y2="27.74" stroke="#7f7f7f" stroke-width="1.00" clip-path="url('#clipping-rect1')" />
		<line x1="886.49" y1="30.89" x2="886.49" y2="28.79" stroke="#7f7f7f" stroke-width="1.00" clip-path="url('#clipping-rect1')" />
		<line x1="880.41" y1="33.00" x2="880.41" y2="15.11" stroke="#7f7f7f" stroke-width="1.00" clip-path="url('#clipping-rect1')" />
		<text x="730.25" y="25.63" font-family="Helvetica" font-size="12" fill="#333333" clip-path="url('#clipping-rect1')" >350 K</text>
		<line x1="728.25" y1="33.00" x2="728.25" y2="15.11" stroke="#7f7f7f" stroke-width="1.00" clip-path="url('#clipping-rect1')" />
		<text x="578.10" y="25.63" font-family="Helvetica" font-size="12" fill="#333333" clip-path="url('#clipping-rect1')" >300 K</text>
		<line x1="576.10" y1="33.00" x2="576.10" y2="15.11" stroke="#7f7f7f" stroke-width="1.00" clip-path="url('#clipping-rect1')" />
		<text x="425.94" y="25.63" font-family="Helvetica" font-size="12" fill="#333333" clip-path="url('#clipping-rect1')" >250 K</text>
		<line x1="423.94" y1="33.00" x2="423.94" y2="15.11" stroke="#7f7f7f" stroke-width="1.00" clip-path="url('#clipping-rect1')" />
		<text x="273.79" y="25.63" font-family="Helvetica" font-size="12" fill="#333333" clip-path="url('#clipping-rect1')" >200 K</text>
		<line x1="271.79" y1="33.00" x2="271.79" y2="15.11" stroke="#7f7f7f" stroke-width="1.00" clip-path="url('#clipping-rect1')" />
		<text x="121.63" y="25.63" font-family="Helvetica" font-size="12" fill="#333333" clip-path="url('#clipping-rect1')" >150 K</text>
		<line x1="119.63" y1="33.00" x2="119.63" y2="15.11" stroke="#7f7f7f" stroke-width="1.00" clip-path="url('#clipping-rect1')" />
		<line x1="119.13" y1="134.00" x2="119.13" y2="33.00" stroke="#ebebeb" stroke-width="1.00" />
		<line x1="271.30" y1="134.00" x2="271.30" y2="33.00" stroke="#ebebeb" stroke-width="1.00" />
		<line x1="423.47" y1="134.00" x2="423.47" y2="33.00" stroke="#ebebeb" stroke-width="1.00" />
		<line x1="576.65" y1="134.00" x2="576.65" y2="33.00" stroke="#ebebeb" stroke-width="1.00" />
		<line x1="728.82" y1="134.00" x2="728.82" y2="33.00" stroke="#ebebeb" stroke-width="1.00" />
		<line x1="880.99" y1="134.00" x2="880.99" y2="33.00" stroke="#ebebeb" stroke-width="1.00" />
		<polygon fill="url('#gradient1')" shape-rendering="crispEdges" points="892.00,40.00 892.00,35.00 0.00,35.00 0.00,40.00 0.00,45.00 892.00,45.00 " />
		<line x1="0.00" y1="45.00" x2="0.00" y2="35.00" stroke="#6c6c6c" stroke-width="1.00" stroke-linejoin="round" />
		<line x1="0.00" y1="35.00" x2="892.00" y2="35.00" stroke="#6c6c6c" stroke-width="1.00" stroke-linejoin="round" />
		<line x1="892.00" y1="35.00" x2="892.00" y2="45.00" stroke="#6c6c6c" stroke-width="1.00" stroke-linejoin="round" />
		<line x1="0.00" y1="45.00" x2="892.00" y2="45.00" stroke="#6c6c6c" stroke-width="1.00" stroke-linejoin="round" />
		<polygon fill="url('#gradient2')" shape-rendering="crispEdges" points="345.00,39.50 345.00,46.00 0.00,46.00 0.00,39.50 0.00,33.00 345.00,33.00 " />
		<polygon fill="#101010" shape-rendering="crispEdges" points="346.00,33.00 346.00,46.00 345.00,46.00 345.00,33.00 " />
		<polygon fill="url('#gradient2')" shape-rendering="crispEdges" points="892.00,39.50 892.00,46.00 346.00,46.00 346.00,39.50 346.00,33.00 892.00,33.00 " />
		<line x1="7.00" y1="33.00" x2="7.00" y2="46.00" stroke="#101010" stroke-opacity="0.25" stroke-width="1.00" />
		<line x1="37.00" y1="33.00" x2="37.00" y2="46.00" stroke="#101010" stroke-width="1.00" />
		<line x1="38.00" y1="33.00" x2="38.00" y2="46.00" stroke="#101010" stroke-width="1.00" />
		<line x1="92.00" y1="33.00" x2="92.00" y2="46.00" stroke="#101010" stroke-opacity="0.25" stroke-width="1.00" />
		<line x1="98.00" y1="33.00" x2="98.00" y2="46.00" stroke="#101010" stroke-opacity="0.25" stroke-width="1.00" />
		<line x1="99.00" y1="33.00" x2="99.00" y2="46.00" stroke="#101010" stroke-width="1.00" />
		<line x1="100.00" y1="33.00" x2="100.00" y2="46.00" stroke="#101010" stroke-opacity="0.25" stroke-width="1.00" />
		<line x1="112.00" y1="33.00" x2="112.00" y2="46.00" stroke="#101010" stroke-opacity="0.25" stroke-width="1.00" />
		<line x1="171.00" y1="33.00" x2="171.00" y2="46.00" stroke="#101010" stroke-opacity="0.25" stroke-width="1.00" />
		<line x1="286.00" y1="33.00" x2="286.00" y2="46.00" stroke="#101010" stroke-opacity="0.26" stroke-width="1.00" />
		<line x1="337.00" y1="33.00" x2="337.00" y2="46.00" stroke="#101010" stroke-opacity="0.44" stroke-width="1.00" />
		<line x1="344.00" y1="33.00" x2="344.00" y2="46.00" stroke="#101010" stroke-width="1.00" />
		<line x1="345.00" y1="33.00" x2="345.00" y2="46.00" stroke="#101010" stroke-width="1.00" />
		<line x1="511.00" y1="33.00" x2="511.00" y2="46.00" stroke="#101010" stroke-opacity="0.25" stroke-width="1.00" />
		<line x1="661.00" y1="33.00" x2="661.00" y2="46.00" stroke="#101010" stroke-opacity="0.25" stroke-width="1.00" />
		<line x1="802.00" y1="33.00" x2="802.00" y2="46.00" stroke="#101010" stroke-width="1.00" />
		<line x1="803.00" y1="33.00" x2="803.00" y2="46.00" stroke="#101010" stroke-width="1.00" />
		<line x1="884.00" y1="33.00" x2="884.00" y2="46.00" stroke="#101010" stroke-opacity="0.25" stroke-width="1.00" />
		<polygon fill="url('#gradient3')" shape-rendering="crispEdges" points="27.77,99.20 27.77,105.20 14.55,105.20 14.55,99.20 14.55,93.20 27.77,93.20 " />
		<polygon fill="url('#gradient3')" shape-rendering="crispEdges" points="14.55,99.20 14.55,107.60 6.15,99.20 14.55,90.80 " />
		<polygon fill="#8ab698" shape-rendering="crispEdges" points="27.77,99.20 27.77,93.20 36.17,93.20 " />
		<polygon fill="#8ab698" shape-rendering="crispEdges" points="27.77,99.20 27.77,105.20 36.17,105.20 " />
		<line x1="36.17" y1="93.20" x2="27.77" y2="93.20" stroke="#166e32" stroke-width="1.50" />
		<line x1="36.17" y1="93.20" x2="27.77" y2="99.20" stroke="#166e32" stroke-width="1.50" />
		<line x1="36.17" y1="105.20" x2="27.77" y2="105.20" stroke="#166e32" stroke-width="1.50" />
		<line x1="36.17" y1="105.20" x2="27.77" y2="99.20" stroke="#166e32" stroke-width="1.50" />
		<polygon fill="#ffffff" shape-rendering="crispEdges" points="65.11,106.00 65.11,92.00 41.17,92.00 41.17,106.00 " />
		<text x="41.17" y="103.70" font-family="Helvetica" font-size="12" fill="#124d94" >KIF7</text>
		<polygon fill="url('#gradient3')" shape-rendering="crispEdges" points="48.37,76.40 48.37,82.40 41.75,82.40 41.75,76.40 41.75,70.40 48.37,70.40 " />
		<polygon fill="#ffffff" shape-rendering="crispEdges" points="41.75,83.00 41.75,69.00 0.00,69.00 0.00,83.00 " />
		<text x="0.00" y="80.90" font-family="Helvetica" font-size="12" fill="#124d94" >LOC1...</text>
		<polygon fill="url('#gradient3')" shape-rendering="crispEdges" points="69.93,122.00 69.93,128.00 62.43,128.00 62.43,122.00 62.43,116.00 69.93,116.00 " />
		<polygon fill="url('#gradient3')" shape-rendering="crispEdges" points="62.43,122.00 62.43,130.40 54.03,122.00 62.43,113.60 " />
		<polygon fill="#ffffff" shape-rendering="crispEdges" points="104.68,129.00 104.68,115.00 74.93,115.00 74.93,129.00 " />
		<text x="74.93" y="126.50" font-family="Helvetica" font-size="12" fill="#124d94" >PLIN1</text>
		<polygon fill="url('#gradient3')" shape-rendering="crispEdges" points="126.48,76.40 126.48,82.40 110.12,82.40 110.12,76.40 110.12,70.40 126.48,70.40 " />
		<polygon fill="url('#gradient3')" shape-rendering="crispEdges" points="126.48,76.40 126.48,84.80 134.88,76.40 126.48,68.00 " />
		<polygon fill="#8ab698" shape-rendering="crispEdges" points="110.12,76.40 110.12,70.40 101.72,70.40 " />
		<polygon fill="#8ab698" shape-rendering="crispEdges" points="110.12,76.40 110.12,82.40 101.72,82.40 " />
		<line x1="101.72" y1="70.40" x2="110.12" y2="70.40" stroke="#166e32" stroke-width="1.50" />
		<line x1="101.72" y1="70.40" x2="110.12" y2="76.40" stroke="#166e32" stroke-width="1.50" />
		<line x1="101.72" y1="82.40" x2="110.12" y2="82.40" stroke="#166e32" stroke-width="1.50" />
		<line x1="101.72" y1="82.40" x2="110.12" y2="76.40" stroke="#166e32" stroke-width="1.50" />
		<polygon fill="#ffffff" shape-rendering="crispEdges" points="123.10,76.40 113.50,71.60 115.90,76.40 113.50,81.20 " />
		<text x="55.56" y="80.90" font-family="Helvetica" font-size="12" fill="#124d94" >WDR93</text>
		<polygon fill="url('#gradient3')" shape-rendering="crispEdges" points="385.80,76.40 385.80,82.40 374.77,82.40 374.77,76.40 374.77,70.40 385.80,70.40 " />
		<polygon fill="url('#gradient3')" shape-rendering="crispEdges" points="385.80,76.40 385.80,84.80 394.20,76.40 385.80,68.00 " />
		<polygon fill="#8ab698" shape-rendering="crispEdges" points="374.77,76.40 374.77,70.40 366.37,70.40 " />
		<polygon fill="#8ab698" shape-rendering="crispEdges" points="374.77,76.40 374.77,82.40 366.37,82.40 " />
		<line x1="366.37" y1="70.40" x2="374.77" y2="70.40" stroke="#166e32" stroke-width="1.50" />
		<line x1="366.37" y1="70.40" x2="374.77" y2="76.40" stroke="#166e32" stroke-width="1.50" />
		<line x1="366.37" y1="82.40" x2="374.77" y2="82.40" stroke="#166e32" stroke-width="1.50" />
		<line x1="366.37" y1="82.40" x2="374.77" y2="76.40" stroke="#166e32" stroke-width="1.50" />
		<text x="308.75" y="80.90" font-family="Helvetica" font-size="12" fill="#124d94" >KIAA1024</text>
		<polygon fill="url('#gradient3')" shape-rendering="crispEdges" points="785.34,76.40 785.34,82.40 741.78,82.40 741.78,76.40 741.78,70.40 785.34,70.40 " />
		<polygon fill="url('#gradient3')" shape-rendering="crispEdges" points="741.78,76.40 741.78,84.80 733.38,76.40 741.78,68.00 " />
		<polygon fill="#8ab698" shape-rendering="crispEdges" points="785.34,76.40 785.34,70.40 793.74,70.40 " />
		<polygon fill="#8ab698" shape-rendering="crispEdges" points="785.34,76.40 785.34,82.40 793.74,82.40 " />
		<line x1="793.74" y1="70.40" x2="785.34" y2="70.40" stroke="#166e32" stroke-width="1.50" />
		<line x1="793.74" y1="70.40" x2="785.34" y2="76.40" stroke="#166e32" stroke-width="1.50" />
		<line x1="793.74" y1="82.40" x2="785.34" y2="82.40" stroke="#166e32" stroke-width="1.50" />
		<line x1="793.74" y1="82.40" x2="785.34" y2="76.40" stroke="#166e32" stroke-width="1.50" />
		<polygon fill="#ffffff" shape-rendering="crispEdges" points="758.76,76.40 768.36,71.60 765.96,76.40 768.36,81.20 " />
		<polygon fill="#ffffff" shape-rendering="crispEdges" points="881.93,83.00 881.93,69.00 798.74,69.00 798.74,83.00 " />
		<text x="798.74" y="80.90" font-family="Helvetica" font-size="12" fill="#124d94" >LOC104287399</text>
		<polygon fill="url('#gradient3')" shape-rendering="crispEdges" points="819.57,99.20 819.57,105.20 812.29,105.20 812.29,99.20 812.29,93.20 819.57,93.20 " />
		<polygon fill="#ffffff" shape-rendering="crispEdges" points="865.80,106.00 865.80,92.00 824.57,92.00 824.57,106.00 " />
		<text x="824.57" y="103.70" font-family="Helvetica" font-size="12" fill="#124d94" >BCL2A1</text>
		<polygon fill="url('#gradient4')" shape-rendering="crispEdges" points="0.00,62.00 892.00,62.00 892.00,47.00 0.00,47.00 " clip-path="url('#clipping-rect2')" />
		<text x="0.00" y="58.00" font-family="Helvetica" font-size="14" fill="#333333" >Genes, NCBI Charadrius vociferus Annotation Release 100, 2014-10-24</text>
		<polygon fill="#e5e5e5" shape-rendering="crispEdges" points="892.00,13.00 892.00,-1.00 0.00,-1.00 0.00,13.00 " />
		<text x="0.00" y="10.00" font-family="Helvetica Bold" font-size="12" text-anchor="start" fill="#000000" >NW_009648559.1:110687..403809 Charadrius vociferus isolate BGI_N301 unplaced genomic scaffold, ASM70802v2 scaffold365, whole genome shotgun se...</text>
	</g>
</svg>
