<?xml version="1.0" standalone="no" ?>
<!DOCTYPE svg PUBLIC "-//W3C//DTD SVG 1.1//EN" "http://www.w3.org/Graphics/SVG/1.1/DTD/svg11.dtd">
<svg width="892px" height="112px" xmlns="http://www.w3.org/2000/svg" version="1.1" viewBox="0 0 892 112" >
	<style type="text/css" > <![CDATA[
		@import url("https://www.ncbi.nlm.nih.gov/projects/sviewer/css/svg_fonts.css");
	]]>
	</style>
	<desc >Generated by NCBI Genome Workbench http://www.ncbi.nlm.nih.gov/tools/gbench/</desc>
	<defs >
		<clipPath id="clipping-rect1" >
			<rect x="0" y="14" width="892" height="20" />
		</clipPath>
		<linearGradient id="gradient1" gradientTransform="rotate(90)" >
			<stop offset="0%" stop-color="#6c6c6c" />
			<stop offset="50%" stop-color="#b5b5b5" />
			<stop offset="100%" stop-color="#6c6c6c" />
		</linearGradient>
		<linearGradient id="gradient2" gradientTransform="rotate(90)" >
			<stop offset="0%" stop-color="#10c010" />
			<stop offset="50%" stop-color="#87df87" />
			<stop offset="100%" stop-color="#10c010" />
		</linearGradient>
		<linearGradient id="gradient3" gradientTransform="rotate(90)" >
			<stop offset="0%" stop-color="#166e32" />
			<stop offset="50%" stop-color="#8ab698" />
			<stop offset="100%" stop-color="#166e32" />
		</linearGradient>
		<clipPath id="clipping-rect2" >
			<rect x="0" y="34" width="892" height="78" />
		</clipPath>
		<linearGradient id="gradient4" gradientTransform="rotate(90)" >
			<stop offset="0%" stop-color="#e6e6e6" stop-opacity="0.71" />
			<stop offset="100%" stop-color="#ffffff" stop-opacity="0.00" />
		</linearGradient>
	</defs>
	<g >
		<polygon fill="#ffffff" shape-rendering="crispEdges" points="892.00,33.00 892.00,13.00 0.00,13.00 0.00,33.00 " />
		<line x1="0.00" y1="31.00" x2="891.99" y2="31.00" stroke="#7f7f7f" stroke-width="1.00" clip-path="url('#clipping-rect1')" />
		<line x1="891.99" y1="31.00" x2="891.99" y2="28.00" stroke="#7f7f7f" stroke-width="1.00" clip-path="url('#clipping-rect1')" />
		<line x1="880.64" y1="31.00" x2="880.64" y2="29.00" stroke="#7f7f7f" stroke-width="1.00" clip-path="url('#clipping-rect1')" />
		<line x1="869.28" y1="31.00" x2="869.28" y2="29.00" stroke="#7f7f7f" stroke-width="1.00" clip-path="url('#clipping-rect1')" />
		<line x1="857.91" y1="31.00" x2="857.91" y2="29.00" stroke="#7f7f7f" stroke-width="1.00" clip-path="url('#clipping-rect1')" />
		<line x1="846.55" y1="31.00" x2="846.55" y2="29.00" stroke="#7f7f7f" stroke-width="1.00" clip-path="url('#clipping-rect1')" />
		<line x1="835.18" y1="31.00" x2="835.18" y2="29.00" stroke="#7f7f7f" stroke-width="1.00" clip-path="url('#clipping-rect1')" />
		<line x1="823.82" y1="31.00" x2="823.82" y2="29.00" stroke="#7f7f7f" stroke-width="1.00" clip-path="url('#clipping-rect1')" />
		<line x1="812.45" y1="31.00" x2="812.45" y2="29.00" stroke="#7f7f7f" stroke-width="1.00" clip-path="url('#clipping-rect1')" />
		<line x1="801.09" y1="31.00" x2="801.09" y2="29.00" stroke="#7f7f7f" stroke-width="1.00" clip-path="url('#clipping-rect1')" />
		<line x1="789.72" y1="31.00" x2="789.72" y2="29.00" stroke="#7f7f7f" stroke-width="1.00" clip-path="url('#clipping-rect1')" />
		<line x1="778.36" y1="31.00" x2="778.36" y2="28.00" stroke="#7f7f7f" stroke-width="1.00" clip-path="url('#clipping-rect1')" />
		<line x1="766.99" y1="31.00" x2="766.99" y2="29.00" stroke="#7f7f7f" stroke-width="1.00" clip-path="url('#clipping-rect1')" />
		<line x1="755.63" y1="31.00" x2="755.63" y2="29.00" stroke="#7f7f7f" stroke-width="1.00" clip-path="url('#clipping-rect1')" />
		<line x1="744.26" y1="31.00" x2="744.26" y2="29.00" stroke="#7f7f7f" stroke-width="1.00" clip-path="url('#clipping-rect1')" />
		<line x1="732.90" y1="31.00" x2="732.90" y2="29.00" stroke="#7f7f7f" stroke-width="1.00" clip-path="url('#clipping-rect1')" />
		<line x1="721.53" y1="31.00" x2="721.53" y2="29.00" stroke="#7f7f7f" stroke-width="1.00" clip-path="url('#clipping-rect1')" />
		<line x1="710.17" y1="31.00" x2="710.17" y2="29.00" stroke="#7f7f7f" stroke-width="1.00" clip-path="url('#clipping-rect1')" />
		<line x1="698.80" y1="31.00" x2="698.80" y2="29.00" stroke="#7f7f7f" stroke-width="1.00" clip-path="url('#clipping-rect1')" />
		<line x1="687.44" y1="31.00" x2="687.44" y2="29.00" stroke="#7f7f7f" stroke-width="1.00" clip-path="url('#clipping-rect1')" />
		<line x1="676.07" y1="31.00" x2="676.07" y2="29.00" stroke="#7f7f7f" stroke-width="1.00" clip-path="url('#clipping-rect1')" />
		<line x1="664.71" y1="31.00" x2="664.71" y2="28.00" stroke="#7f7f7f" stroke-width="1.00" clip-path="url('#clipping-rect1')" />
		<line x1="653.34" y1="31.00" x2="653.34" y2="29.00" stroke="#7f7f7f" stroke-width="1.00" clip-path="url('#clipping-rect1')" />
		<line x1="641.98" y1="31.00" x2="641.98" y2="29.00" stroke="#7f7f7f" stroke-width="1.00" clip-path="url('#clipping-rect1')" />
		<line x1="630.62" y1="31.00" x2="630.62" y2="29.00" stroke="#7f7f7f" stroke-width="1.00" clip-path="url('#clipping-rect1')" />
		<line x1="619.25" y1="31.00" x2="619.25" y2="29.00" stroke="#7f7f7f" stroke-width="1.00" clip-path="url('#clipping-rect1')" />
		<line x1="607.89" y1="31.00" x2="607.89" y2="29.00" stroke="#7f7f7f" stroke-width="1.00" clip-path="url('#clipping-rect1')" />
		<line x1="596.52" y1="31.00" x2="596.52" y2="29.00" stroke="#7f7f7f" stroke-width="1.00" clip-path="url('#clipping-rect1')" />
		<line x1="585.16" y1="31.00" x2="585.16" y2="29.00" stroke="#7f7f7f" stroke-width="1.00" clip-path="url('#clipping-rect1')" />
		<line x1="573.79" y1="31.00" x2="573.79" y2="29.00" stroke="#7f7f7f" stroke-width="1.00" clip-path="url('#clipping-rect1')" />
		<line x1="562.43" y1="31.00" x2="562.43" y2="29.00" stroke="#7f7f7f" stroke-width="1.00" clip-path="url('#clipping-rect1')" />
		<line x1="551.06" y1="31.00" x2="551.06" y2="28.00" stroke="#7f7f7f" stroke-width="1.00" clip-path="url('#clipping-rect1')" />
		<line x1="539.70" y1="31.00" x2="539.70" y2="29.00" stroke="#7f7f7f" stroke-width="1.00" clip-path="url('#clipping-rect1')" />
		<line x1="528.33" y1="31.00" x2="528.33" y2="29.00" stroke="#7f7f7f" stroke-width="1.00" clip-path="url('#clipping-rect1')" />
		<line x1="516.97" y1="31.00" x2="516.97" y2="29.00" stroke="#7f7f7f" stroke-width="1.00" clip-path="url('#clipping-rect1')" />
		<line x1="505.60" y1="31.00" x2="505.60" y2="29.00" stroke="#7f7f7f" stroke-width="1.00" clip-path="url('#clipping-rect1')" />
		<line x1="494.24" y1="31.00" x2="494.24" y2="29.00" stroke="#7f7f7f" stroke-width="1.00" clip-path="url('#clipping-rect1')" />
		<line x1="482.87" y1="31.00" x2="482.87" y2="29.00" stroke="#7f7f7f" stroke-width="1.00" clip-path="url('#clipping-rect1')" />
		<line x1="471.51" y1="31.00" x2="471.51" y2="29.00" stroke="#7f7f7f" stroke-width="1.00" clip-path="url('#clipping-rect1')" />
		<line x1="460.14" y1="31.00" x2="460.14" y2="29.00" stroke="#7f7f7f" stroke-width="1.00" clip-path="url('#clipping-rect1')" />
		<line x1="448.78" y1="31.00" x2="448.78" y2="29.00" stroke="#7f7f7f" stroke-width="1.00" clip-path="url('#clipping-rect1')" />
		<line x1="437.41" y1="31.00" x2="437.41" y2="28.00" stroke="#7f7f7f" stroke-width="1.00" clip-path="url('#clipping-rect1')" />
		<line x1="426.05" y1="31.00" x2="426.05" y2="29.00" stroke="#7f7f7f" stroke-width="1.00" clip-path="url('#clipping-rect1')" />
		<line x1="414.68" y1="31.00" x2="414.68" y2="29.00" stroke="#7f7f7f" stroke-width="1.00" clip-path="url('#clipping-rect1')" />
		<line x1="403.32" y1="31.00" x2="403.32" y2="29.00" stroke="#7f7f7f" stroke-width="1.00" clip-path="url('#clipping-rect1')" />
		<line x1="391.95" y1="31.00" x2="391.95" y2="29.00" stroke="#7f7f7f" stroke-width="1.00" clip-path="url('#clipping-rect1')" />
		<line x1="380.59" y1="31.00" x2="380.59" y2="29.00" stroke="#7f7f7f" stroke-width="1.00" clip-path="url('#clipping-rect1')" />
		<line x1="369.23" y1="31.00" x2="369.23" y2="29.00" stroke="#7f7f7f" stroke-width="1.00" clip-path="url('#clipping-rect1')" />
		<line x1="357.86" y1="31.00" x2="357.86" y2="29.00" stroke="#7f7f7f" stroke-width="1.00" clip-path="url('#clipping-rect1')" />
		<line x1="346.50" y1="31.00" x2="346.50" y2="29.00" stroke="#7f7f7f" stroke-width="1.00" clip-path="url('#clipping-rect1')" />
		<line x1="335.13" y1="31.00" x2="335.13" y2="29.00" stroke="#7f7f7f" stroke-width="1.00" clip-path="url('#clipping-rect1')" />
		<line x1="323.77" y1="31.00" x2="323.77" y2="28.00" stroke="#7f7f7f" stroke-width="1.00" clip-path="url('#clipping-rect1')" />
		<line x1="312.40" y1="31.00" x2="312.40" y2="29.00" stroke="#7f7f7f" stroke-width="1.00" clip-path="url('#clipping-rect1')" />
		<line x1="301.04" y1="31.00" x2="301.04" y2="29.00" stroke="#7f7f7f" stroke-width="1.00" clip-path="url('#clipping-rect1')" />
		<line x1="289.67" y1="31.00" x2="289.67" y2="29.00" stroke="#7f7f7f" stroke-width="1.00" clip-path="url('#clipping-rect1')" />
		<line x1="278.31" y1="31.00" x2="278.31" y2="29.00" stroke="#7f7f7f" stroke-width="1.00" clip-path="url('#clipping-rect1')" />
		<line x1="266.94" y1="31.00" x2="266.94" y2="29.00" stroke="#7f7f7f" stroke-width="1.00" clip-path="url('#clipping-rect1')" />
		<line x1="255.58" y1="31.00" x2="255.58" y2="29.00" stroke="#7f7f7f" stroke-width="1.00" clip-path="url('#clipping-rect1')" />
		<line x1="244.21" y1="31.00" x2="244.21" y2="29.00" stroke="#7f7f7f" stroke-width="1.00" clip-path="url('#clipping-rect1')" />
		<line x1="232.85" y1="31.00" x2="232.85" y2="29.00" stroke="#7f7f7f" stroke-width="1.00" clip-path="url('#clipping-rect1')" />
		<line x1="221.48" y1="31.00" x2="221.48" y2="29.00" stroke="#7f7f7f" stroke-width="1.00" clip-path="url('#clipping-rect1')" />
		<line x1="210.12" y1="31.00" x2="210.12" y2="28.00" stroke="#7f7f7f" stroke-width="1.00" clip-path="url('#clipping-rect1')" />
		<line x1="198.75" y1="31.00" x2="198.75" y2="29.00" stroke="#7f7f7f" stroke-width="1.00" clip-path="url('#clipping-rect1')" />
		<line x1="187.39" y1="31.00" x2="187.39" y2="29.00" stroke="#7f7f7f" stroke-width="1.00" clip-path="url('#clipping-rect1')" />
		<line x1="176.02" y1="31.00" x2="176.02" y2="29.00" stroke="#7f7f7f" stroke-width="1.00" clip-path="url('#clipping-rect1')" />
		<line x1="164.66" y1="31.00" x2="164.66" y2="29.00" stroke="#7f7f7f" stroke-width="1.00" clip-path="url('#clipping-rect1')" />
		<line x1="153.29" y1="31.00" x2="153.29" y2="29.00" stroke="#7f7f7f" stroke-width="1.00" clip-path="url('#clipping-rect1')" />
		<line x1="141.93" y1="31.00" x2="141.93" y2="29.00" stroke="#7f7f7f" stroke-width="1.00" clip-path="url('#clipping-rect1')" />
		<line x1="130.56" y1="31.00" x2="130.56" y2="29.00" stroke="#7f7f7f" stroke-width="1.00" clip-path="url('#clipping-rect1')" />
		<line x1="119.20" y1="31.00" x2="119.20" y2="29.00" stroke="#7f7f7f" stroke-width="1.00" clip-path="url('#clipping-rect1')" />
		<line x1="107.83" y1="31.00" x2="107.83" y2="29.00" stroke="#7f7f7f" stroke-width="1.00" clip-path="url('#clipping-rect1')" />
		<line x1="96.47" y1="31.00" x2="96.47" y2="28.00" stroke="#7f7f7f" stroke-width="1.00" clip-path="url('#clipping-rect1')" />
		<line x1="85.11" y1="31.00" x2="85.11" y2="29.00" stroke="#7f7f7f" stroke-width="1.00" clip-path="url('#clipping-rect1')" />
		<line x1="73.74" y1="31.00" x2="73.74" y2="29.00" stroke="#7f7f7f" stroke-width="1.00" clip-path="url('#clipping-rect1')" />
		<line x1="62.38" y1="31.00" x2="62.38" y2="29.00" stroke="#7f7f7f" stroke-width="1.00" clip-path="url('#clipping-rect1')" />
		<line x1="51.01" y1="31.00" x2="51.01" y2="29.00" stroke="#7f7f7f" stroke-width="1.00" clip-path="url('#clipping-rect1')" />
		<line x1="39.65" y1="31.00" x2="39.65" y2="29.00" stroke="#7f7f7f" stroke-width="1.00" clip-path="url('#clipping-rect1')" />
		<line x1="28.28" y1="31.00" x2="28.28" y2="29.00" stroke="#7f7f7f" stroke-width="1.00" clip-path="url('#clipping-rect1')" />
		<line x1="16.92" y1="31.00" x2="16.92" y2="29.00" stroke="#7f7f7f" stroke-width="1.00" clip-path="url('#clipping-rect1')" />
		<line x1="5.55" y1="31.00" x2="5.55" y2="29.00" stroke="#7f7f7f" stroke-width="1.00" clip-path="url('#clipping-rect1')" />
		<text x="889.04" y="26.00" font-family="Helvetica" font-size="12" fill="#333333" clip-path="url('#clipping-rect1')" >1</text>
		<line x1="891.99" y1="33.00" x2="891.99" y2="16.00" stroke="#7f7f7f" stroke-width="1.00" clip-path="url('#clipping-rect1')" />
		<text x="780.36" y="26.00" font-family="Helvetica" font-size="12" fill="#333333" clip-path="url('#clipping-rect1')" >10 K</text>
		<line x1="778.36" y1="33.00" x2="778.36" y2="16.00" stroke="#7f7f7f" stroke-width="1.00" clip-path="url('#clipping-rect1')" />
		<text x="666.71" y="26.00" font-family="Helvetica" font-size="12" fill="#333333" clip-path="url('#clipping-rect1')" >20 K</text>
		<line x1="664.71" y1="33.00" x2="664.71" y2="16.00" stroke="#7f7f7f" stroke-width="1.00" clip-path="url('#clipping-rect1')" />
		<text x="553.06" y="26.00" font-family="Helvetica" font-size="12" fill="#333333" clip-path="url('#clipping-rect1')" >30 K</text>
		<line x1="551.06" y1="33.00" x2="551.06" y2="16.00" stroke="#7f7f7f" stroke-width="1.00" clip-path="url('#clipping-rect1')" />
		<text x="439.41" y="26.00" font-family="Helvetica" font-size="12" fill="#333333" clip-path="url('#clipping-rect1')" >40 K</text>
		<line x1="437.41" y1="33.00" x2="437.41" y2="16.00" stroke="#7f7f7f" stroke-width="1.00" clip-path="url('#clipping-rect1')" />
		<text x="325.77" y="26.00" font-family="Helvetica" font-size="12" fill="#333333" clip-path="url('#clipping-rect1')" >50 K</text>
		<line x1="323.77" y1="33.00" x2="323.77" y2="16.00" stroke="#7f7f7f" stroke-width="1.00" clip-path="url('#clipping-rect1')" />
		<text x="212.12" y="26.00" font-family="Helvetica" font-size="12" fill="#333333" clip-path="url('#clipping-rect1')" >60 K</text>
		<line x1="210.12" y1="33.00" x2="210.12" y2="16.00" stroke="#7f7f7f" stroke-width="1.00" clip-path="url('#clipping-rect1')" />
		<text x="98.47" y="26.00" font-family="Helvetica" font-size="12" fill="#333333" clip-path="url('#clipping-rect1')" >70 K</text>
		<line x1="96.47" y1="33.00" x2="96.47" y2="16.00" stroke="#7f7f7f" stroke-width="1.00" clip-path="url('#clipping-rect1')" />
		<line x1="892.00" y1="111.00" x2="892.00" y2="33.00" stroke="#ebebeb" stroke-width="1.00" />
		<line x1="778.87" y1="111.00" x2="778.87" y2="33.00" stroke="#ebebeb" stroke-width="1.00" />
		<line x1="664.75" y1="111.00" x2="664.75" y2="33.00" stroke="#ebebeb" stroke-width="1.00" />
		<line x1="551.62" y1="111.00" x2="551.62" y2="33.00" stroke="#ebebeb" stroke-width="1.00" />
		<line x1="437.49" y1="111.00" x2="437.49" y2="33.00" stroke="#ebebeb" stroke-width="1.00" />
		<line x1="323.36" y1="111.00" x2="323.36" y2="33.00" stroke="#ebebeb" stroke-width="1.00" />
		<line x1="210.24" y1="111.00" x2="210.24" y2="33.00" stroke="#ebebeb" stroke-width="1.00" />
		<line x1="96.11" y1="111.00" x2="96.11" y2="33.00" stroke="#ebebeb" stroke-width="1.00" />
		<polygon fill="url('#gradient1')" shape-rendering="crispEdges" points="0.00,40.00 0.00,35.00 892.00,35.00 892.00,40.00 892.00,45.00 0.00,45.00 " />
		<line x1="892.00" y1="45.00" x2="892.00" y2="35.00" stroke="#6c6c6c" stroke-width="1.00" stroke-linejoin="round" />
		<line x1="892.00" y1="35.00" x2="0.00" y2="35.00" stroke="#6c6c6c" stroke-width="1.00" stroke-linejoin="round" />
		<line x1="0.00" y1="35.00" x2="0.00" y2="45.00" stroke="#6c6c6c" stroke-width="1.00" stroke-linejoin="round" />
		<line x1="892.00" y1="45.00" x2="0.00" y2="45.00" stroke="#6c6c6c" stroke-width="1.00" stroke-linejoin="round" />
		<polygon fill="url('#gradient2')" shape-rendering="crispEdges" points="575.99,39.50 575.99,46.00 892.00,46.00 892.00,39.50 892.00,33.00 575.99,33.00 " />
		<polygon fill="#101010" shape-rendering="crispEdges" points="571.00,33.00 571.00,46.00 576.00,46.00 576.00,33.00 " />
		<polygon fill="url('#gradient2')" shape-rendering="crispEdges" points="230.99,39.50 230.99,46.00 571.00,46.00 571.00,39.50 571.00,33.00 230.99,33.00 " />
		<polygon fill="#101010" shape-rendering="crispEdges" points="227.00,33.00 227.00,46.00 231.00,46.00 231.00,33.00 " />
		<polygon fill="url('#gradient2')" shape-rendering="crispEdges" points="0.00,39.50 0.00,46.00 227.00,46.00 227.00,39.50 227.00,33.00 0.00,33.00 " />
		<line x1="577.00" y1="33.00" x2="577.00" y2="46.00" stroke="#101010" stroke-width="1.00" />
		<polygon fill="#101010" shape-rendering="crispEdges" points="573.00,33.00 573.00,46.00 576.00,46.00 576.00,33.00 " />
		<line x1="572.00" y1="33.00" x2="572.00" y2="46.00" stroke="#101010" stroke-width="1.00" />
		<line x1="522.00" y1="33.00" x2="522.00" y2="46.00" stroke="#101010" stroke-opacity="0.39" stroke-width="1.00" />
		<line x1="243.00" y1="33.00" x2="243.00" y2="46.00" stroke="#101010" stroke-opacity="0.26" stroke-width="1.00" />
		<line x1="233.00" y1="33.00" x2="233.00" y2="46.00" stroke="#101010" stroke-opacity="0.34" stroke-width="1.00" />
		<polygon fill="#101010" shape-rendering="crispEdges" points="228.00,33.00 228.00,46.00 232.00,46.00 232.00,33.00 " />
		<line x1="227.00" y1="33.00" x2="227.00" y2="46.00" stroke="#101010" stroke-opacity="0.25" stroke-width="1.00" />
		<polygon fill="url('#gradient3')" shape-rendering="crispEdges" points="822.06,76.40 822.06,82.40 883.51,82.40 883.51,76.40 883.51,70.40 822.06,70.40 " />
		<polygon fill="#4c1919" fill-opacity="0.70" shape-rendering="crispEdges" points="890.91,76.40 886.91,70.40 885.91,70.40 889.91,76.40 885.91,82.40 886.91,82.40 " />
		<polygon fill="#4c1919" fill-opacity="0.30" shape-rendering="crispEdges" points="891.91,76.40 887.91,70.40 884.91,70.40 888.91,76.40 884.91,82.40 887.91,82.40 " />
		<polygon fill="#4c1919" fill-opacity="0.70" shape-rendering="crispEdges" points="886.91,76.40 882.91,70.40 881.91,70.40 885.91,76.40 881.91,82.40 882.91,82.40 " />
		<polygon fill="#4c1919" fill-opacity="0.30" shape-rendering="crispEdges" points="887.91,76.40 883.91,70.40 880.91,70.40 884.91,76.40 880.91,82.40 883.91,82.40 " />
		<polygon fill="url('#gradient3')" shape-rendering="crispEdges" points="883.51,76.40 883.51,84.80 891.91,76.40 883.51,68.00 " />
		<polygon fill="#8ab698" shape-rendering="crispEdges" points="822.06,76.40 822.06,70.40 813.66,70.40 " />
		<polygon fill="#8ab698" shape-rendering="crispEdges" points="822.06,76.40 822.06,82.40 813.66,82.40 " />
		<line x1="813.66" y1="70.40" x2="822.06" y2="70.40" stroke="#166e32" stroke-width="1.50" />
		<line x1="813.66" y1="70.40" x2="822.06" y2="76.40" stroke="#166e32" stroke-width="1.50" />
		<line x1="813.66" y1="82.40" x2="822.06" y2="82.40" stroke="#166e32" stroke-width="1.50" />
		<line x1="813.66" y1="82.40" x2="822.06" y2="76.40" stroke="#166e32" stroke-width="1.50" />
		<polygon fill="#4c1919" fill-opacity="0.70" shape-rendering="crispEdges" points="890.91,76.40 886.91,70.40 885.91,70.40 889.91,76.40 885.91,82.40 886.91,82.40 " />
		<polygon fill="#4c1919" fill-opacity="0.30" shape-rendering="crispEdges" points="891.91,76.40 887.91,70.40 884.91,70.40 888.91,76.40 884.91,82.40 887.91,82.40 " />
		<polygon fill="#4c1919" fill-opacity="0.70" shape-rendering="crispEdges" points="886.91,76.40 882.91,70.40 881.91,70.40 885.91,76.40 881.91,82.40 882.91,82.40 " />
		<polygon fill="#4c1919" fill-opacity="0.30" shape-rendering="crispEdges" points="887.91,76.40 883.91,70.40 880.91,70.40 884.91,76.40 880.91,82.40 883.91,82.40 " />
		<polygon fill="#ffffff" shape-rendering="crispEdges" points="857.59,76.40 847.99,71.60 850.39,76.40 847.99,81.20 " />
		<polygon fill="#ffffff" shape-rendering="crispEdges" points="767.51,83.00 767.51,69.00 808.66,69.00 808.66,83.00 " />
		<text x="767.51" y="80.90" font-family="Helvetica" font-size="12" fill="#124d94" >WDR93</text>
		<polygon fill="url('#gradient3')" shape-rendering="crispEdges" points="777.74,99.20 777.74,105.20 793.06,105.20 793.06,99.20 793.06,93.20 777.74,93.20 " />
		<polygon fill="url('#gradient3')" shape-rendering="crispEdges" points="777.74,99.20 777.74,107.60 769.34,99.20 777.74,90.80 " />
		<polygon fill="#8ab698" shape-rendering="crispEdges" points="793.06,99.20 793.06,93.20 801.46,93.20 " />
		<polygon fill="#8ab698" shape-rendering="crispEdges" points="793.06,99.20 793.06,105.20 801.46,105.20 " />
		<line x1="801.46" y1="93.20" x2="793.06" y2="93.20" stroke="#166e32" stroke-width="1.50" />
		<line x1="801.46" y1="93.20" x2="793.06" y2="99.20" stroke="#166e32" stroke-width="1.50" />
		<line x1="801.46" y1="105.20" x2="793.06" y2="105.20" stroke="#166e32" stroke-width="1.50" />
		<line x1="801.46" y1="105.20" x2="793.06" y2="99.20" stroke="#166e32" stroke-width="1.50" />
		<polygon fill="#ffffff" shape-rendering="crispEdges" points="780.60,99.20 790.20,94.40 787.80,99.20 790.20,104.00 " />
		<text x="806.46" y="103.70" font-family="Helvetica" font-size="12" fill="#124d94" >PEX11A</text>
		<polygon fill="url('#gradient3')" shape-rendering="crispEdges" points="653.95,76.40 653.95,82.40 686.56,82.40 686.56,76.40 686.56,70.40 653.95,70.40 " />
		<polygon fill="url('#gradient3')" shape-rendering="crispEdges" points="653.95,76.40 653.95,84.80 645.55,76.40 653.95,68.00 " />
		<polygon fill="#8ab698" shape-rendering="crispEdges" points="686.56,76.40 686.56,70.40 694.96,70.40 " />
		<polygon fill="#8ab698" shape-rendering="crispEdges" points="686.56,76.40 686.56,82.40 694.96,82.40 " />
		<line x1="694.96" y1="70.40" x2="686.56" y2="70.40" stroke="#166e32" stroke-width="1.50" />
		<line x1="694.96" y1="70.40" x2="686.56" y2="76.40" stroke="#166e32" stroke-width="1.50" />
		<line x1="694.96" y1="82.40" x2="686.56" y2="82.40" stroke="#166e32" stroke-width="1.50" />
		<line x1="694.96" y1="82.40" x2="686.56" y2="76.40" stroke="#166e32" stroke-width="1.50" />
		<polygon fill="#ffffff" shape-rendering="crispEdges" points="665.46,76.40 675.06,71.60 672.66,76.40 675.06,81.20 " />
		<text x="699.96" y="80.90" font-family="Helvetica" font-size="12" fill="#124d94" >PLIN1</text>
		<polygon fill="url('#gradient3')" shape-rendering="crispEdges" points="607.69,99.20 607.69,105.20 615.08,105.20 615.08,99.20 615.08,93.20 607.69,93.20 " />
		<polygon fill="url('#gradient3')" shape-rendering="crispEdges" points="615.08,99.20 615.08,107.60 623.48,99.20 615.08,90.80 " />
		<polygon fill="#8ab698" shape-rendering="crispEdges" points="607.69,99.20 607.69,93.20 599.29,93.20 " />
		<polygon fill="#8ab698" shape-rendering="crispEdges" points="607.69,99.20 607.69,105.20 599.29,105.20 " />
		<line x1="599.29" y1="93.20" x2="607.69" y2="93.20" stroke="#166e32" stroke-width="1.50" />
		<line x1="599.29" y1="93.20" x2="607.69" y2="99.20" stroke="#166e32" stroke-width="1.50" />
		<line x1="599.29" y1="105.20" x2="607.69" y2="105.20" stroke="#166e32" stroke-width="1.50" />
		<line x1="599.29" y1="105.20" x2="607.69" y2="99.20" stroke="#166e32" stroke-width="1.50" />
		<polygon fill="#ffffff" shape-rendering="crispEdges" points="513.04,106.00 513.04,92.00 594.29,92.00 594.29,106.00 " />
		<text x="513.04" y="103.70" font-family="Helvetica" font-size="12" fill="#124d94" >LOC104059691</text>
		<polygon fill="url('#gradient3')" shape-rendering="crispEdges" points="465.49,76.40 465.49,82.40 581.27,82.40 581.27,76.40 581.27,70.40 465.49,70.40 " />
		<polygon fill="url('#gradient3')" shape-rendering="crispEdges" points="465.49,76.40 465.49,84.80 457.09,76.40 465.49,68.00 " />
		<polygon fill="#8ab698" shape-rendering="crispEdges" points="581.27,76.40 581.27,70.40 589.67,70.40 " />
		<polygon fill="#8ab698" shape-rendering="crispEdges" points="581.27,76.40 581.27,82.40 589.67,82.40 " />
		<line x1="589.67" y1="70.40" x2="581.27" y2="70.40" stroke="#166e32" stroke-width="1.50" />
		<line x1="589.67" y1="70.40" x2="581.27" y2="76.40" stroke="#166e32" stroke-width="1.50" />
		<line x1="589.67" y1="82.40" x2="581.27" y2="82.40" stroke="#166e32" stroke-width="1.50" />
		<line x1="589.67" y1="82.40" x2="581.27" y2="76.40" stroke="#166e32" stroke-width="1.50" />
		<polygon fill="#ffffff" shape-rendering="crispEdges" points="568.58,76.40 578.18,71.60 575.78,76.40 578.18,81.20 " />
		<polygon fill="#e0e0e0" shape-rendering="crispEdges" points="468.58,76.40 478.18,71.60 475.78,76.40 478.18,81.20 " />
		<text x="594.67" y="80.90" font-family="Helvetica" font-size="12" fill="#124d94" >KIF7</text>
		<polygon fill="url('#gradient3')" shape-rendering="crispEdges" points="233.73,76.40 233.73,82.40 420.69,82.40 420.69,76.40 420.69,70.40 233.73,70.40 " />
		<polygon fill="url('#gradient3')" shape-rendering="crispEdges" points="420.69,76.40 420.69,84.80 429.09,76.40 420.69,68.00 " />
		<polygon fill="#8ab698" shape-rendering="crispEdges" points="233.73,76.40 233.73,70.40 225.33,70.40 " />
		<polygon fill="#8ab698" shape-rendering="crispEdges" points="233.73,76.40 233.73,82.40 225.33,82.40 " />
		<line x1="225.33" y1="70.40" x2="233.73" y2="70.40" stroke="#166e32" stroke-width="1.50" />
		<line x1="225.33" y1="70.40" x2="233.73" y2="76.40" stroke="#166e32" stroke-width="1.50" />
		<line x1="225.33" y1="82.40" x2="233.73" y2="82.40" stroke="#166e32" stroke-width="1.50" />
		<line x1="225.33" y1="82.40" x2="233.73" y2="76.40" stroke="#166e32" stroke-width="1.50" />
		<polygon fill="#ffffff" shape-rendering="crispEdges" points="382.01,76.40 372.41,71.60 374.81,76.40 372.41,81.20 " />
		<polygon fill="#e0e0e0" shape-rendering="crispEdges" points="282.01,76.40 272.41,71.60 274.81,76.40 272.41,81.20 " />
		<polygon fill="#ffffff" shape-rendering="crispEdges" points="184.44,83.00 184.44,69.00 220.33,69.00 220.33,83.00 " />
		<text x="184.44" y="80.90" font-family="Helvetica" font-size="12" fill="#124d94" >TICRR</text>
		<polygon fill="url('#gradient3')" shape-rendering="crispEdges" points="58.29,99.20 58.29,105.20 137.72,105.20 137.72,99.20 137.72,93.20 58.29,93.20 " />
		<polygon fill="url('#gradient3')" shape-rendering="crispEdges" points="58.29,99.20 58.29,107.60 49.89,99.20 58.29,90.80 " />
		<polygon fill="#8ab698" shape-rendering="crispEdges" points="137.72,99.20 137.72,93.20 146.12,93.20 " />
		<polygon fill="#8ab698" shape-rendering="crispEdges" points="137.72,99.20 137.72,105.20 146.12,105.20 " />
		<line x1="146.12" y1="93.20" x2="137.72" y2="93.20" stroke="#166e32" stroke-width="1.50" />
		<line x1="146.12" y1="93.20" x2="137.72" y2="99.20" stroke="#166e32" stroke-width="1.50" />
		<line x1="146.12" y1="105.20" x2="137.72" y2="105.20" stroke="#166e32" stroke-width="1.50" />
		<line x1="146.12" y1="105.20" x2="137.72" y2="99.20" stroke="#166e32" stroke-width="1.50" />
		<polygon fill="#ffffff" shape-rendering="crispEdges" points="93.20,99.20 102.80,94.40 100.40,99.20 102.80,104.00 " />
		<text x="151.12" y="103.70" font-family="Helvetica" font-size="12" fill="#124d94" >RHCG</text>
		<polygon fill="url('#gradient4')" shape-rendering="crispEdges" points="0.00,62.00 891.99,62.00 891.99,47.00 0.00,47.00 " clip-path="url('#clipping-rect2')" />
		<text x="0.00" y="58.00" font-family="Helvetica" font-size="14" fill="#333333" >Genes, NCBI Cuculus canorus Annotation Release 100, 2014-10-14</text>
		<polygon fill="#e5e5e5" shape-rendering="crispEdges" points="892.00,13.00 892.00,-1.00 0.00,-1.00 0.00,13.00 " />
		<text x="0.00" y="10.00" font-family="Helvetica Bold" font-size="12" text-anchor="start" fill="#000000" >NW_009245054.1:0..78488 Cuculus canorus isolate BGI_N303 unplaced genomic scaffold, ASM70932v1 scaffold475, whole genome shotgun sequence</text>
	</g>
</svg>
