<?xml version="1.0" standalone="no" ?>
<!DOCTYPE svg PUBLIC "-//W3C//DTD SVG 1.1//EN" "http://www.w3.org/Graphics/SVG/1.1/DTD/svg11.dtd">
<svg width="892px" height="158px" xmlns="http://www.w3.org/2000/svg" version="1.1" viewBox="0 0 892 158" >
	<style type="text/css" > <![CDATA[
		@import url("https://www.ncbi.nlm.nih.gov/projects/sviewer/css/svg_fonts.css");
	]]>
	</style>
	<desc >Generated by NCBI Genome Workbench http://www.ncbi.nlm.nih.gov/tools/gbench/</desc>
	<defs >
		<clipPath id="clipping-rect1" >
			<rect x="0" y="14" width="892" height="20" />
		</clipPath>
		<linearGradient id="gradient1" gradientTransform="rotate(90)" >
			<stop offset="0%" stop-color="#6c6c6c" />
			<stop offset="50%" stop-color="#b5b5b5" />
			<stop offset="100%" stop-color="#6c6c6c" />
		</linearGradient>
		<linearGradient id="gradient2" gradientTransform="rotate(90)" >
			<stop offset="0%" stop-color="#10c010" />
			<stop offset="50%" stop-color="#87df87" />
			<stop offset="100%" stop-color="#10c010" />
		</linearGradient>
		<linearGradient id="gradient3" gradientTransform="rotate(90)" >
			<stop offset="0%" stop-color="#166e32" />
			<stop offset="50%" stop-color="#8ab698" />
			<stop offset="100%" stop-color="#166e32" />
		</linearGradient>
		<clipPath id="clipping-rect2" >
			<rect x="0" y="34" width="892" height="124" />
		</clipPath>
		<linearGradient id="gradient4" gradientTransform="rotate(90)" >
			<stop offset="0%" stop-color="#e6e6e6" stop-opacity="0.71" />
			<stop offset="100%" stop-color="#ffffff" stop-opacity="0.00" />
		</linearGradient>
	</defs>
	<g >
		<polygon fill="#ffffff" shape-rendering="crispEdges" points="892.00,33.00 892.00,13.00 0.00,13.00 0.00,33.00 " />
		<line x1="0.00" y1="31.00" x2="892.00" y2="31.00" stroke="#7f7f7f" stroke-width="1.00" clip-path="url('#clipping-rect1')" />
		<line x1="889.76" y1="31.00" x2="889.76" y2="29.00" stroke="#7f7f7f" stroke-width="1.00" clip-path="url('#clipping-rect1')" />
		<line x1="884.15" y1="31.00" x2="884.15" y2="29.00" stroke="#7f7f7f" stroke-width="1.00" clip-path="url('#clipping-rect1')" />
		<line x1="878.55" y1="31.00" x2="878.55" y2="29.00" stroke="#7f7f7f" stroke-width="1.00" clip-path="url('#clipping-rect1')" />
		<line x1="872.95" y1="31.00" x2="872.95" y2="29.00" stroke="#7f7f7f" stroke-width="1.00" clip-path="url('#clipping-rect1')" />
		<line x1="867.34" y1="31.00" x2="867.34" y2="28.00" stroke="#7f7f7f" stroke-width="1.00" clip-path="url('#clipping-rect1')" />
		<line x1="861.74" y1="31.00" x2="861.74" y2="29.00" stroke="#7f7f7f" stroke-width="1.00" clip-path="url('#clipping-rect1')" />
		<line x1="856.14" y1="31.00" x2="856.14" y2="29.00" stroke="#7f7f7f" stroke-width="1.00" clip-path="url('#clipping-rect1')" />
		<line x1="850.54" y1="31.00" x2="850.54" y2="29.00" stroke="#7f7f7f" stroke-width="1.00" clip-path="url('#clipping-rect1')" />
		<line x1="844.93" y1="31.00" x2="844.93" y2="29.00" stroke="#7f7f7f" stroke-width="1.00" clip-path="url('#clipping-rect1')" />
		<line x1="839.33" y1="31.00" x2="839.33" y2="28.00" stroke="#7f7f7f" stroke-width="1.00" clip-path="url('#clipping-rect1')" />
		<line x1="833.73" y1="31.00" x2="833.73" y2="29.00" stroke="#7f7f7f" stroke-width="1.00" clip-path="url('#clipping-rect1')" />
		<line x1="828.12" y1="31.00" x2="828.12" y2="29.00" stroke="#7f7f7f" stroke-width="1.00" clip-path="url('#clipping-rect1')" />
		<line x1="822.52" y1="31.00" x2="822.52" y2="29.00" stroke="#7f7f7f" stroke-width="1.00" clip-path="url('#clipping-rect1')" />
		<line x1="816.92" y1="31.00" x2="816.92" y2="29.00" stroke="#7f7f7f" stroke-width="1.00" clip-path="url('#clipping-rect1')" />
		<line x1="811.31" y1="31.00" x2="811.31" y2="28.00" stroke="#7f7f7f" stroke-width="1.00" clip-path="url('#clipping-rect1')" />
		<line x1="805.71" y1="31.00" x2="805.71" y2="29.00" stroke="#7f7f7f" stroke-width="1.00" clip-path="url('#clipping-rect1')" />
		<line x1="800.11" y1="31.00" x2="800.11" y2="29.00" stroke="#7f7f7f" stroke-width="1.00" clip-path="url('#clipping-rect1')" />
		<line x1="794.50" y1="31.00" x2="794.50" y2="29.00" stroke="#7f7f7f" stroke-width="1.00" clip-path="url('#clipping-rect1')" />
		<line x1="788.90" y1="31.00" x2="788.90" y2="29.00" stroke="#7f7f7f" stroke-width="1.00" clip-path="url('#clipping-rect1')" />
		<line x1="783.30" y1="31.00" x2="783.30" y2="28.00" stroke="#7f7f7f" stroke-width="1.00" clip-path="url('#clipping-rect1')" />
		<line x1="777.69" y1="31.00" x2="777.69" y2="29.00" stroke="#7f7f7f" stroke-width="1.00" clip-path="url('#clipping-rect1')" />
		<line x1="772.09" y1="31.00" x2="772.09" y2="29.00" stroke="#7f7f7f" stroke-width="1.00" clip-path="url('#clipping-rect1')" />
		<line x1="766.49" y1="31.00" x2="766.49" y2="29.00" stroke="#7f7f7f" stroke-width="1.00" clip-path="url('#clipping-rect1')" />
		<line x1="760.88" y1="31.00" x2="760.88" y2="29.00" stroke="#7f7f7f" stroke-width="1.00" clip-path="url('#clipping-rect1')" />
		<line x1="755.28" y1="31.00" x2="755.28" y2="28.00" stroke="#7f7f7f" stroke-width="1.00" clip-path="url('#clipping-rect1')" />
		<line x1="749.68" y1="31.00" x2="749.68" y2="29.00" stroke="#7f7f7f" stroke-width="1.00" clip-path="url('#clipping-rect1')" />
		<line x1="744.08" y1="31.00" x2="744.08" y2="29.00" stroke="#7f7f7f" stroke-width="1.00" clip-path="url('#clipping-rect1')" />
		<line x1="738.47" y1="31.00" x2="738.47" y2="29.00" stroke="#7f7f7f" stroke-width="1.00" clip-path="url('#clipping-rect1')" />
		<line x1="732.87" y1="31.00" x2="732.87" y2="29.00" stroke="#7f7f7f" stroke-width="1.00" clip-path="url('#clipping-rect1')" />
		<line x1="727.27" y1="31.00" x2="727.27" y2="28.00" stroke="#7f7f7f" stroke-width="1.00" clip-path="url('#clipping-rect1')" />
		<line x1="721.66" y1="31.00" x2="721.66" y2="29.00" stroke="#7f7f7f" stroke-width="1.00" clip-path="url('#clipping-rect1')" />
		<line x1="716.06" y1="31.00" x2="716.06" y2="29.00" stroke="#7f7f7f" stroke-width="1.00" clip-path="url('#clipping-rect1')" />
		<line x1="710.46" y1="31.00" x2="710.46" y2="29.00" stroke="#7f7f7f" stroke-width="1.00" clip-path="url('#clipping-rect1')" />
		<line x1="704.85" y1="31.00" x2="704.85" y2="29.00" stroke="#7f7f7f" stroke-width="1.00" clip-path="url('#clipping-rect1')" />
		<line x1="699.25" y1="31.00" x2="699.25" y2="28.00" stroke="#7f7f7f" stroke-width="1.00" clip-path="url('#clipping-rect1')" />
		<line x1="693.65" y1="31.00" x2="693.65" y2="29.00" stroke="#7f7f7f" stroke-width="1.00" clip-path="url('#clipping-rect1')" />
		<line x1="688.04" y1="31.00" x2="688.04" y2="29.00" stroke="#7f7f7f" stroke-width="1.00" clip-path="url('#clipping-rect1')" />
		<line x1="682.44" y1="31.00" x2="682.44" y2="29.00" stroke="#7f7f7f" stroke-width="1.00" clip-path="url('#clipping-rect1')" />
		<line x1="676.84" y1="31.00" x2="676.84" y2="29.00" stroke="#7f7f7f" stroke-width="1.00" clip-path="url('#clipping-rect1')" />
		<line x1="671.23" y1="31.00" x2="671.23" y2="28.00" stroke="#7f7f7f" stroke-width="1.00" clip-path="url('#clipping-rect1')" />
		<line x1="665.63" y1="31.00" x2="665.63" y2="29.00" stroke="#7f7f7f" stroke-width="1.00" clip-path="url('#clipping-rect1')" />
		<line x1="660.03" y1="31.00" x2="660.03" y2="29.00" stroke="#7f7f7f" stroke-width="1.00" clip-path="url('#clipping-rect1')" />
		<line x1="654.42" y1="31.00" x2="654.42" y2="29.00" stroke="#7f7f7f" stroke-width="1.00" clip-path="url('#clipping-rect1')" />
		<line x1="648.82" y1="31.00" x2="648.82" y2="29.00" stroke="#7f7f7f" stroke-width="1.00" clip-path="url('#clipping-rect1')" />
		<line x1="643.22" y1="31.00" x2="643.22" y2="28.00" stroke="#7f7f7f" stroke-width="1.00" clip-path="url('#clipping-rect1')" />
		<line x1="637.62" y1="31.00" x2="637.62" y2="29.00" stroke="#7f7f7f" stroke-width="1.00" clip-path="url('#clipping-rect1')" />
		<line x1="632.01" y1="31.00" x2="632.01" y2="29.00" stroke="#7f7f7f" stroke-width="1.00" clip-path="url('#clipping-rect1')" />
		<line x1="626.41" y1="31.00" x2="626.41" y2="29.00" stroke="#7f7f7f" stroke-width="1.00" clip-path="url('#clipping-rect1')" />
		<line x1="620.81" y1="31.00" x2="620.81" y2="29.00" stroke="#7f7f7f" stroke-width="1.00" clip-path="url('#clipping-rect1')" />
		<line x1="615.20" y1="31.00" x2="615.20" y2="28.00" stroke="#7f7f7f" stroke-width="1.00" clip-path="url('#clipping-rect1')" />
		<line x1="609.60" y1="31.00" x2="609.60" y2="29.00" stroke="#7f7f7f" stroke-width="1.00" clip-path="url('#clipping-rect1')" />
		<line x1="604.00" y1="31.00" x2="604.00" y2="29.00" stroke="#7f7f7f" stroke-width="1.00" clip-path="url('#clipping-rect1')" />
		<line x1="598.39" y1="31.00" x2="598.39" y2="29.00" stroke="#7f7f7f" stroke-width="1.00" clip-path="url('#clipping-rect1')" />
		<line x1="592.79" y1="31.00" x2="592.79" y2="29.00" stroke="#7f7f7f" stroke-width="1.00" clip-path="url('#clipping-rect1')" />
		<line x1="587.19" y1="31.00" x2="587.19" y2="28.00" stroke="#7f7f7f" stroke-width="1.00" clip-path="url('#clipping-rect1')" />
		<line x1="581.58" y1="31.00" x2="581.58" y2="29.00" stroke="#7f7f7f" stroke-width="1.00" clip-path="url('#clipping-rect1')" />
		<line x1="575.98" y1="31.00" x2="575.98" y2="29.00" stroke="#7f7f7f" stroke-width="1.00" clip-path="url('#clipping-rect1')" />
		<line x1="570.38" y1="31.00" x2="570.38" y2="29.00" stroke="#7f7f7f" stroke-width="1.00" clip-path="url('#clipping-rect1')" />
		<line x1="564.77" y1="31.00" x2="564.77" y2="29.00" stroke="#7f7f7f" stroke-width="1.00" clip-path="url('#clipping-rect1')" />
		<line x1="559.17" y1="31.00" x2="559.17" y2="28.00" stroke="#7f7f7f" stroke-width="1.00" clip-path="url('#clipping-rect1')" />
		<line x1="553.57" y1="31.00" x2="553.57" y2="29.00" stroke="#7f7f7f" stroke-width="1.00" clip-path="url('#clipping-rect1')" />
		<line x1="547.96" y1="31.00" x2="547.96" y2="29.00" stroke="#7f7f7f" stroke-width="1.00" clip-path="url('#clipping-rect1')" />
		<line x1="542.36" y1="31.00" x2="542.36" y2="29.00" stroke="#7f7f7f" stroke-width="1.00" clip-path="url('#clipping-rect1')" />
		<line x1="536.76" y1="31.00" x2="536.76" y2="29.00" stroke="#7f7f7f" stroke-width="1.00" clip-path="url('#clipping-rect1')" />
		<line x1="531.16" y1="31.00" x2="531.16" y2="28.00" stroke="#7f7f7f" stroke-width="1.00" clip-path="url('#clipping-rect1')" />
		<line x1="525.55" y1="31.00" x2="525.55" y2="29.00" stroke="#7f7f7f" stroke-width="1.00" clip-path="url('#clipping-rect1')" />
		<line x1="519.95" y1="31.00" x2="519.95" y2="29.00" stroke="#7f7f7f" stroke-width="1.00" clip-path="url('#clipping-rect1')" />
		<line x1="514.35" y1="31.00" x2="514.35" y2="29.00" stroke="#7f7f7f" stroke-width="1.00" clip-path="url('#clipping-rect1')" />
		<line x1="508.74" y1="31.00" x2="508.74" y2="29.00" stroke="#7f7f7f" stroke-width="1.00" clip-path="url('#clipping-rect1')" />
		<line x1="503.14" y1="31.00" x2="503.14" y2="28.00" stroke="#7f7f7f" stroke-width="1.00" clip-path="url('#clipping-rect1')" />
		<line x1="497.54" y1="31.00" x2="497.54" y2="29.00" stroke="#7f7f7f" stroke-width="1.00" clip-path="url('#clipping-rect1')" />
		<line x1="491.93" y1="31.00" x2="491.93" y2="29.00" stroke="#7f7f7f" stroke-width="1.00" clip-path="url('#clipping-rect1')" />
		<line x1="486.33" y1="31.00" x2="486.33" y2="29.00" stroke="#7f7f7f" stroke-width="1.00" clip-path="url('#clipping-rect1')" />
		<line x1="480.73" y1="31.00" x2="480.73" y2="29.00" stroke="#7f7f7f" stroke-width="1.00" clip-path="url('#clipping-rect1')" />
		<line x1="475.12" y1="31.00" x2="475.12" y2="28.00" stroke="#7f7f7f" stroke-width="1.00" clip-path="url('#clipping-rect1')" />
		<line x1="469.52" y1="31.00" x2="469.52" y2="29.00" stroke="#7f7f7f" stroke-width="1.00" clip-path="url('#clipping-rect1')" />
		<line x1="463.92" y1="31.00" x2="463.92" y2="29.00" stroke="#7f7f7f" stroke-width="1.00" clip-path="url('#clipping-rect1')" />
		<line x1="458.31" y1="31.00" x2="458.31" y2="29.00" stroke="#7f7f7f" stroke-width="1.00" clip-path="url('#clipping-rect1')" />
		<line x1="452.71" y1="31.00" x2="452.71" y2="29.00" stroke="#7f7f7f" stroke-width="1.00" clip-path="url('#clipping-rect1')" />
		<line x1="447.11" y1="31.00" x2="447.11" y2="28.00" stroke="#7f7f7f" stroke-width="1.00" clip-path="url('#clipping-rect1')" />
		<line x1="441.50" y1="31.00" x2="441.50" y2="29.00" stroke="#7f7f7f" stroke-width="1.00" clip-path="url('#clipping-rect1')" />
		<line x1="435.90" y1="31.00" x2="435.90" y2="29.00" stroke="#7f7f7f" stroke-width="1.00" clip-path="url('#clipping-rect1')" />
		<line x1="430.30" y1="31.00" x2="430.30" y2="29.00" stroke="#7f7f7f" stroke-width="1.00" clip-path="url('#clipping-rect1')" />
		<line x1="424.70" y1="31.00" x2="424.70" y2="29.00" stroke="#7f7f7f" stroke-width="1.00" clip-path="url('#clipping-rect1')" />
		<line x1="419.09" y1="31.00" x2="419.09" y2="28.00" stroke="#7f7f7f" stroke-width="1.00" clip-path="url('#clipping-rect1')" />
		<line x1="413.49" y1="31.00" x2="413.49" y2="29.00" stroke="#7f7f7f" stroke-width="1.00" clip-path="url('#clipping-rect1')" />
		<line x1="407.89" y1="31.00" x2="407.89" y2="29.00" stroke="#7f7f7f" stroke-width="1.00" clip-path="url('#clipping-rect1')" />
		<line x1="402.28" y1="31.00" x2="402.28" y2="29.00" stroke="#7f7f7f" stroke-width="1.00" clip-path="url('#clipping-rect1')" />
		<line x1="396.68" y1="31.00" x2="396.68" y2="29.00" stroke="#7f7f7f" stroke-width="1.00" clip-path="url('#clipping-rect1')" />
		<line x1="391.08" y1="31.00" x2="391.08" y2="28.00" stroke="#7f7f7f" stroke-width="1.00" clip-path="url('#clipping-rect1')" />
		<line x1="385.47" y1="31.00" x2="385.47" y2="29.00" stroke="#7f7f7f" stroke-width="1.00" clip-path="url('#clipping-rect1')" />
		<line x1="379.87" y1="31.00" x2="379.87" y2="29.00" stroke="#7f7f7f" stroke-width="1.00" clip-path="url('#clipping-rect1')" />
		<line x1="374.27" y1="31.00" x2="374.27" y2="29.00" stroke="#7f7f7f" stroke-width="1.00" clip-path="url('#clipping-rect1')" />
		<line x1="368.66" y1="31.00" x2="368.66" y2="29.00" stroke="#7f7f7f" stroke-width="1.00" clip-path="url('#clipping-rect1')" />
		<line x1="363.06" y1="31.00" x2="363.06" y2="28.00" stroke="#7f7f7f" stroke-width="1.00" clip-path="url('#clipping-rect1')" />
		<line x1="357.46" y1="31.00" x2="357.46" y2="29.00" stroke="#7f7f7f" stroke-width="1.00" clip-path="url('#clipping-rect1')" />
		<line x1="351.85" y1="31.00" x2="351.85" y2="29.00" stroke="#7f7f7f" stroke-width="1.00" clip-path="url('#clipping-rect1')" />
		<line x1="346.25" y1="31.00" x2="346.25" y2="29.00" stroke="#7f7f7f" stroke-width="1.00" clip-path="url('#clipping-rect1')" />
		<line x1="340.65" y1="31.00" x2="340.65" y2="29.00" stroke="#7f7f7f" stroke-width="1.00" clip-path="url('#clipping-rect1')" />
		<line x1="335.04" y1="31.00" x2="335.04" y2="28.00" stroke="#7f7f7f" stroke-width="1.00" clip-path="url('#clipping-rect1')" />
		<line x1="329.44" y1="31.00" x2="329.44" y2="29.00" stroke="#7f7f7f" stroke-width="1.00" clip-path="url('#clipping-rect1')" />
		<line x1="323.84" y1="31.00" x2="323.84" y2="29.00" stroke="#7f7f7f" stroke-width="1.00" clip-path="url('#clipping-rect1')" />
		<line x1="318.24" y1="31.00" x2="318.24" y2="29.00" stroke="#7f7f7f" stroke-width="1.00" clip-path="url('#clipping-rect1')" />
		<line x1="312.63" y1="31.00" x2="312.63" y2="29.00" stroke="#7f7f7f" stroke-width="1.00" clip-path="url('#clipping-rect1')" />
		<line x1="307.03" y1="31.00" x2="307.03" y2="28.00" stroke="#7f7f7f" stroke-width="1.00" clip-path="url('#clipping-rect1')" />
		<line x1="301.43" y1="31.00" x2="301.43" y2="29.00" stroke="#7f7f7f" stroke-width="1.00" clip-path="url('#clipping-rect1')" />
		<line x1="295.82" y1="31.00" x2="295.82" y2="29.00" stroke="#7f7f7f" stroke-width="1.00" clip-path="url('#clipping-rect1')" />
		<line x1="290.22" y1="31.00" x2="290.22" y2="29.00" stroke="#7f7f7f" stroke-width="1.00" clip-path="url('#clipping-rect1')" />
		<line x1="284.62" y1="31.00" x2="284.62" y2="29.00" stroke="#7f7f7f" stroke-width="1.00" clip-path="url('#clipping-rect1')" />
		<line x1="279.01" y1="31.00" x2="279.01" y2="28.00" stroke="#7f7f7f" stroke-width="1.00" clip-path="url('#clipping-rect1')" />
		<line x1="273.41" y1="31.00" x2="273.41" y2="29.00" stroke="#7f7f7f" stroke-width="1.00" clip-path="url('#clipping-rect1')" />
		<line x1="267.81" y1="31.00" x2="267.81" y2="29.00" stroke="#7f7f7f" stroke-width="1.00" clip-path="url('#clipping-rect1')" />
		<line x1="262.20" y1="31.00" x2="262.20" y2="29.00" stroke="#7f7f7f" stroke-width="1.00" clip-path="url('#clipping-rect1')" />
		<line x1="256.60" y1="31.00" x2="256.60" y2="29.00" stroke="#7f7f7f" stroke-width="1.00" clip-path="url('#clipping-rect1')" />
		<line x1="251.00" y1="31.00" x2="251.00" y2="28.00" stroke="#7f7f7f" stroke-width="1.00" clip-path="url('#clipping-rect1')" />
		<line x1="245.39" y1="31.00" x2="245.39" y2="29.00" stroke="#7f7f7f" stroke-width="1.00" clip-path="url('#clipping-rect1')" />
		<line x1="239.79" y1="31.00" x2="239.79" y2="29.00" stroke="#7f7f7f" stroke-width="1.00" clip-path="url('#clipping-rect1')" />
		<line x1="234.19" y1="31.00" x2="234.19" y2="29.00" stroke="#7f7f7f" stroke-width="1.00" clip-path="url('#clipping-rect1')" />
		<line x1="228.58" y1="31.00" x2="228.58" y2="29.00" stroke="#7f7f7f" stroke-width="1.00" clip-path="url('#clipping-rect1')" />
		<line x1="222.98" y1="31.00" x2="222.98" y2="28.00" stroke="#7f7f7f" stroke-width="1.00" clip-path="url('#clipping-rect1')" />
		<line x1="217.38" y1="31.00" x2="217.38" y2="29.00" stroke="#7f7f7f" stroke-width="1.00" clip-path="url('#clipping-rect1')" />
		<line x1="211.78" y1="31.00" x2="211.78" y2="29.00" stroke="#7f7f7f" stroke-width="1.00" clip-path="url('#clipping-rect1')" />
		<line x1="206.17" y1="31.00" x2="206.17" y2="29.00" stroke="#7f7f7f" stroke-width="1.00" clip-path="url('#clipping-rect1')" />
		<line x1="200.57" y1="31.00" x2="200.57" y2="29.00" stroke="#7f7f7f" stroke-width="1.00" clip-path="url('#clipping-rect1')" />
		<line x1="194.97" y1="31.00" x2="194.97" y2="28.00" stroke="#7f7f7f" stroke-width="1.00" clip-path="url('#clipping-rect1')" />
		<line x1="189.36" y1="31.00" x2="189.36" y2="29.00" stroke="#7f7f7f" stroke-width="1.00" clip-path="url('#clipping-rect1')" />
		<line x1="183.76" y1="31.00" x2="183.76" y2="29.00" stroke="#7f7f7f" stroke-width="1.00" clip-path="url('#clipping-rect1')" />
		<line x1="178.16" y1="31.00" x2="178.16" y2="29.00" stroke="#7f7f7f" stroke-width="1.00" clip-path="url('#clipping-rect1')" />
		<line x1="172.55" y1="31.00" x2="172.55" y2="29.00" stroke="#7f7f7f" stroke-width="1.00" clip-path="url('#clipping-rect1')" />
		<line x1="166.95" y1="31.00" x2="166.95" y2="28.00" stroke="#7f7f7f" stroke-width="1.00" clip-path="url('#clipping-rect1')" />
		<line x1="161.35" y1="31.00" x2="161.35" y2="29.00" stroke="#7f7f7f" stroke-width="1.00" clip-path="url('#clipping-rect1')" />
		<line x1="155.74" y1="31.00" x2="155.74" y2="29.00" stroke="#7f7f7f" stroke-width="1.00" clip-path="url('#clipping-rect1')" />
		<line x1="150.14" y1="31.00" x2="150.14" y2="29.00" stroke="#7f7f7f" stroke-width="1.00" clip-path="url('#clipping-rect1')" />
		<line x1="144.54" y1="31.00" x2="144.54" y2="29.00" stroke="#7f7f7f" stroke-width="1.00" clip-path="url('#clipping-rect1')" />
		<line x1="138.93" y1="31.00" x2="138.93" y2="28.00" stroke="#7f7f7f" stroke-width="1.00" clip-path="url('#clipping-rect1')" />
		<line x1="133.33" y1="31.00" x2="133.33" y2="29.00" stroke="#7f7f7f" stroke-width="1.00" clip-path="url('#clipping-rect1')" />
		<line x1="127.73" y1="31.00" x2="127.73" y2="29.00" stroke="#7f7f7f" stroke-width="1.00" clip-path="url('#clipping-rect1')" />
		<line x1="122.12" y1="31.00" x2="122.12" y2="29.00" stroke="#7f7f7f" stroke-width="1.00" clip-path="url('#clipping-rect1')" />
		<line x1="116.52" y1="31.00" x2="116.52" y2="29.00" stroke="#7f7f7f" stroke-width="1.00" clip-path="url('#clipping-rect1')" />
		<line x1="110.92" y1="31.00" x2="110.92" y2="28.00" stroke="#7f7f7f" stroke-width="1.00" clip-path="url('#clipping-rect1')" />
		<line x1="105.32" y1="31.00" x2="105.32" y2="29.00" stroke="#7f7f7f" stroke-width="1.00" clip-path="url('#clipping-rect1')" />
		<line x1="99.71" y1="31.00" x2="99.71" y2="29.00" stroke="#7f7f7f" stroke-width="1.00" clip-path="url('#clipping-rect1')" />
		<line x1="94.11" y1="31.00" x2="94.11" y2="29.00" stroke="#7f7f7f" stroke-width="1.00" clip-path="url('#clipping-rect1')" />
		<line x1="88.51" y1="31.00" x2="88.51" y2="29.00" stroke="#7f7f7f" stroke-width="1.00" clip-path="url('#clipping-rect1')" />
		<line x1="82.90" y1="31.00" x2="82.90" y2="28.00" stroke="#7f7f7f" stroke-width="1.00" clip-path="url('#clipping-rect1')" />
		<line x1="77.30" y1="31.00" x2="77.30" y2="29.00" stroke="#7f7f7f" stroke-width="1.00" clip-path="url('#clipping-rect1')" />
		<line x1="71.70" y1="31.00" x2="71.70" y2="29.00" stroke="#7f7f7f" stroke-width="1.00" clip-path="url('#clipping-rect1')" />
		<line x1="66.09" y1="31.00" x2="66.09" y2="29.00" stroke="#7f7f7f" stroke-width="1.00" clip-path="url('#clipping-rect1')" />
		<line x1="60.49" y1="31.00" x2="60.49" y2="29.00" stroke="#7f7f7f" stroke-width="1.00" clip-path="url('#clipping-rect1')" />
		<line x1="54.89" y1="31.00" x2="54.89" y2="28.00" stroke="#7f7f7f" stroke-width="1.00" clip-path="url('#clipping-rect1')" />
		<line x1="49.28" y1="31.00" x2="49.28" y2="29.00" stroke="#7f7f7f" stroke-width="1.00" clip-path="url('#clipping-rect1')" />
		<line x1="43.68" y1="31.00" x2="43.68" y2="29.00" stroke="#7f7f7f" stroke-width="1.00" clip-path="url('#clipping-rect1')" />
		<line x1="38.08" y1="31.00" x2="38.08" y2="29.00" stroke="#7f7f7f" stroke-width="1.00" clip-path="url('#clipping-rect1')" />
		<line x1="32.47" y1="31.00" x2="32.47" y2="29.00" stroke="#7f7f7f" stroke-width="1.00" clip-path="url('#clipping-rect1')" />
		<line x1="26.87" y1="31.00" x2="26.87" y2="28.00" stroke="#7f7f7f" stroke-width="1.00" clip-path="url('#clipping-rect1')" />
		<line x1="21.27" y1="31.00" x2="21.27" y2="29.00" stroke="#7f7f7f" stroke-width="1.00" clip-path="url('#clipping-rect1')" />
		<line x1="15.67" y1="31.00" x2="15.67" y2="29.00" stroke="#7f7f7f" stroke-width="1.00" clip-path="url('#clipping-rect1')" />
		<line x1="10.06" y1="31.00" x2="10.06" y2="29.00" stroke="#7f7f7f" stroke-width="1.00" clip-path="url('#clipping-rect1')" />
		<line x1="4.46" y1="31.00" x2="4.46" y2="29.00" stroke="#7f7f7f" stroke-width="1.00" clip-path="url('#clipping-rect1')" />
		<text x="757.28" y="26.00" font-family="Helvetica" font-size="12" fill="#333333" clip-path="url('#clipping-rect1')" >4 M</text>
		<line x1="755.28" y1="33.00" x2="755.28" y2="16.00" stroke="#7f7f7f" stroke-width="1.00" clip-path="url('#clipping-rect1')" />
		<text x="617.20" y="26.00" font-family="Helvetica" font-size="12" fill="#333333" clip-path="url('#clipping-rect1')" >4,050 K</text>
		<line x1="615.20" y1="33.00" x2="615.20" y2="16.00" stroke="#7f7f7f" stroke-width="1.00" clip-path="url('#clipping-rect1')" />
		<text x="477.12" y="26.00" font-family="Helvetica" font-size="12" fill="#333333" clip-path="url('#clipping-rect1')" >4,100 K</text>
		<line x1="475.12" y1="33.00" x2="475.12" y2="16.00" stroke="#7f7f7f" stroke-width="1.00" clip-path="url('#clipping-rect1')" />
		<text x="337.04" y="26.00" font-family="Helvetica" font-size="12" fill="#333333" clip-path="url('#clipping-rect1')" >4,150 K</text>
		<line x1="335.04" y1="33.00" x2="335.04" y2="16.00" stroke="#7f7f7f" stroke-width="1.00" clip-path="url('#clipping-rect1')" />
		<text x="196.97" y="26.00" font-family="Helvetica" font-size="12" fill="#333333" clip-path="url('#clipping-rect1')" >4,200 K</text>
		<line x1="194.97" y1="33.00" x2="194.97" y2="16.00" stroke="#7f7f7f" stroke-width="1.00" clip-path="url('#clipping-rect1')" />
		<text x="56.89" y="26.00" font-family="Helvetica" font-size="12" fill="#333333" clip-path="url('#clipping-rect1')" >4,250 K</text>
		<line x1="54.89" y1="33.00" x2="54.89" y2="16.00" stroke="#7f7f7f" stroke-width="1.00" clip-path="url('#clipping-rect1')" />
		<line x1="755.85" y1="157.00" x2="755.85" y2="33.00" stroke="#ebebeb" stroke-width="1.00" />
		<line x1="615.69" y1="157.00" x2="615.69" y2="33.00" stroke="#ebebeb" stroke-width="1.00" />
		<line x1="475.53" y1="157.00" x2="475.53" y2="33.00" stroke="#ebebeb" stroke-width="1.00" />
		<line x1="335.38" y1="157.00" x2="335.38" y2="33.00" stroke="#ebebeb" stroke-width="1.00" />
		<line x1="194.22" y1="157.00" x2="194.22" y2="33.00" stroke="#ebebeb" stroke-width="1.00" />
		<line x1="54.06" y1="157.00" x2="54.06" y2="33.00" stroke="#ebebeb" stroke-width="1.00" />
		<polygon fill="url('#gradient1')" shape-rendering="crispEdges" points="0.00,40.00 0.00,35.00 892.00,35.00 892.00,40.00 892.00,45.00 0.00,45.00 " />
		<line x1="892.00" y1="45.00" x2="892.00" y2="35.00" stroke="#6c6c6c" stroke-width="1.00" stroke-linejoin="round" />
		<line x1="892.00" y1="35.00" x2="0.00" y2="35.00" stroke="#6c6c6c" stroke-width="1.00" stroke-linejoin="round" />
		<line x1="0.00" y1="35.00" x2="0.00" y2="45.00" stroke="#6c6c6c" stroke-width="1.00" stroke-linejoin="round" />
		<line x1="892.00" y1="45.00" x2="0.00" y2="45.00" stroke="#6c6c6c" stroke-width="1.00" stroke-linejoin="round" />
		<polygon fill="url('#gradient2')" shape-rendering="crispEdges" points="91.00,39.50 91.00,46.00 892.00,46.00 892.00,39.50 892.00,33.00 91.00,33.00 " />
		<polygon fill="#101010" shape-rendering="crispEdges" points="90.00,33.00 90.00,46.00 91.00,46.00 91.00,33.00 " />
		<polygon fill="url('#gradient2')" shape-rendering="crispEdges" points="0.00,39.50 0.00,46.00 90.00,46.00 90.00,39.50 90.00,33.00 0.00,33.00 " />
		<line x1="855.00" y1="33.00" x2="855.00" y2="46.00" stroke="#101010" stroke-opacity="0.25" stroke-width="1.00" />
		<line x1="827.00" y1="33.00" x2="827.00" y2="46.00" stroke="#101010" stroke-width="1.00" />
		<line x1="819.00" y1="33.00" x2="819.00" y2="46.00" stroke="#101010" stroke-width="1.00" />
		<line x1="818.00" y1="33.00" x2="818.00" y2="46.00" stroke="#101010" stroke-width="1.00" />
		<line x1="817.00" y1="33.00" x2="817.00" y2="46.00" stroke="#101010" stroke-width="1.00" />
		<line x1="801.00" y1="33.00" x2="801.00" y2="46.00" stroke="#101010" stroke-width="1.00" />
		<line x1="768.00" y1="33.00" x2="768.00" y2="46.00" stroke="#101010" stroke-opacity="0.25" stroke-width="1.00" />
		<line x1="745.00" y1="33.00" x2="745.00" y2="46.00" stroke="#101010" stroke-opacity="0.34" stroke-width="1.00" />
		<line x1="728.00" y1="33.00" x2="728.00" y2="46.00" stroke="#101010" stroke-opacity="0.43" stroke-width="1.00" />
		<line x1="661.00" y1="33.00" x2="661.00" y2="46.00" stroke="#101010" stroke-opacity="0.25" stroke-width="1.00" />
		<line x1="658.00" y1="33.00" x2="658.00" y2="46.00" stroke="#101010" stroke-opacity="0.29" stroke-width="1.00" />
		<line x1="654.00" y1="33.00" x2="654.00" y2="46.00" stroke="#101010" stroke-width="1.00" />
		<line x1="650.00" y1="33.00" x2="650.00" y2="46.00" stroke="#101010" stroke-opacity="0.25" stroke-width="1.00" />
		<line x1="622.00" y1="33.00" x2="622.00" y2="46.00" stroke="#101010" stroke-opacity="0.25" stroke-width="1.00" />
		<line x1="557.00" y1="33.00" x2="557.00" y2="46.00" stroke="#101010" stroke-opacity="0.25" stroke-width="1.00" />
		<line x1="528.00" y1="33.00" x2="528.00" y2="46.00" stroke="#101010" stroke-opacity="0.25" stroke-width="1.00" />
		<line x1="458.00" y1="33.00" x2="458.00" y2="46.00" stroke="#101010" stroke-opacity="0.43" stroke-width="1.00" />
		<line x1="457.00" y1="33.00" x2="457.00" y2="46.00" stroke="#101010" stroke-width="1.00" />
		<line x1="392.00" y1="33.00" x2="392.00" y2="46.00" stroke="#101010" stroke-opacity="0.25" stroke-width="1.00" />
		<line x1="351.00" y1="33.00" x2="351.00" y2="46.00" stroke="#101010" stroke-opacity="0.25" stroke-width="1.00" />
		<line x1="339.00" y1="33.00" x2="339.00" y2="46.00" stroke="#101010" stroke-opacity="0.33" stroke-width="1.00" />
		<line x1="331.00" y1="33.00" x2="331.00" y2="46.00" stroke="#101010" stroke-opacity="0.25" stroke-width="1.00" />
		<line x1="324.00" y1="33.00" x2="324.00" y2="46.00" stroke="#101010" stroke-opacity="0.25" stroke-width="1.00" />
		<line x1="288.00" y1="33.00" x2="288.00" y2="46.00" stroke="#101010" stroke-opacity="0.25" stroke-width="1.00" />
		<line x1="283.00" y1="33.00" x2="283.00" y2="46.00" stroke="#101010" stroke-width="1.00" />
		<line x1="275.00" y1="33.00" x2="275.00" y2="46.00" stroke="#101010" stroke-opacity="0.33" stroke-width="1.00" />
		<line x1="273.00" y1="33.00" x2="273.00" y2="46.00" stroke="#101010" stroke-width="1.00" />
		<line x1="265.00" y1="33.00" x2="265.00" y2="46.00" stroke="#101010" stroke-opacity="0.32" stroke-width="1.00" />
		<line x1="261.00" y1="33.00" x2="261.00" y2="46.00" stroke="#101010" stroke-opacity="0.25" stroke-width="1.00" />
		<line x1="251.00" y1="33.00" x2="251.00" y2="46.00" stroke="#101010" stroke-opacity="0.25" stroke-width="1.00" />
		<line x1="211.00" y1="33.00" x2="211.00" y2="46.00" stroke="#101010" stroke-width="1.00" />
		<line x1="210.00" y1="33.00" x2="210.00" y2="46.00" stroke="#101010" stroke-opacity="0.34" stroke-width="1.00" />
		<line x1="202.00" y1="33.00" x2="202.00" y2="46.00" stroke="#101010" stroke-opacity="0.25" stroke-width="1.00" />
		<line x1="165.00" y1="33.00" x2="165.00" y2="46.00" stroke="#101010" stroke-width="1.00" />
		<line x1="147.00" y1="33.00" x2="147.00" y2="46.00" stroke="#101010" stroke-width="1.00" />
		<line x1="146.00" y1="33.00" x2="146.00" y2="46.00" stroke="#101010" stroke-width="1.00" />
		<line x1="145.00" y1="33.00" x2="145.00" y2="46.00" stroke="#101010" stroke-opacity="0.25" stroke-width="1.00" />
		<line x1="92.00" y1="33.00" x2="92.00" y2="46.00" stroke="#101010" stroke-width="1.00" />
		<line x1="91.00" y1="33.00" x2="91.00" y2="46.00" stroke="#101010" stroke-opacity="0.28" stroke-width="1.00" />
		<line x1="34.00" y1="33.00" x2="34.00" y2="46.00" stroke="#101010" stroke-width="1.00" />
		<line x1="33.00" y1="33.00" x2="33.00" y2="46.00" stroke="#101010" stroke-width="1.00" />
		<polygon fill="url('#gradient3')" shape-rendering="crispEdges" points="831.91,99.20 831.91,105.20 837.38,105.20 837.38,99.20 837.38,93.20 831.91,93.20 " />
		<text x="842.38" y="103.70" font-family="Helvetica" font-size="12" fill="#124d94" >BCL2A1</text>
		<polygon fill="url('#gradient3')" shape-rendering="crispEdges" points="746.78,76.40 746.78,82.40 795.66,82.40 795.66,76.40 795.66,70.40 746.78,70.40 " />
		<polygon fill="url('#gradient3')" shape-rendering="crispEdges" points="746.78,76.40 746.78,84.80 738.38,76.40 746.78,68.00 " />
		<polygon fill="#8ab698" shape-rendering="crispEdges" points="795.66,76.40 795.66,70.40 804.06,70.40 " />
		<polygon fill="#8ab698" shape-rendering="crispEdges" points="795.66,76.40 795.66,82.40 804.06,82.40 " />
		<line x1="804.06" y1="70.40" x2="795.66" y2="70.40" stroke="#166e32" stroke-width="1.50" />
		<line x1="804.06" y1="70.40" x2="795.66" y2="76.40" stroke="#166e32" stroke-width="1.50" />
		<line x1="804.06" y1="82.40" x2="795.66" y2="82.40" stroke="#166e32" stroke-width="1.50" />
		<line x1="804.06" y1="82.40" x2="795.66" y2="76.40" stroke="#166e32" stroke-width="1.50" />
		<polygon fill="#ffffff" shape-rendering="crispEdges" points="766.42,76.40 776.02,71.60 773.62,76.40 776.02,81.20 " />
		<text x="809.06" y="80.90" font-family="Helvetica" font-size="12" fill="#124d94" >MTHFS</text>
		<polygon fill="url('#gradient3')" shape-rendering="crispEdges" points="365.49,76.40 365.49,82.40 375.33,82.40 375.33,76.40 375.33,70.40 365.49,70.40 " />
		<polygon fill="url('#gradient3')" shape-rendering="crispEdges" points="375.33,76.40 375.33,84.80 383.73,76.40 375.33,68.00 " />
		<polygon fill="#8ab698" shape-rendering="crispEdges" points="365.49,76.40 365.49,70.40 357.09,70.40 " />
		<polygon fill="#8ab698" shape-rendering="crispEdges" points="365.49,76.40 365.49,82.40 357.09,82.40 " />
		<line x1="357.09" y1="70.40" x2="365.49" y2="70.40" stroke="#166e32" stroke-width="1.50" />
		<line x1="357.09" y1="70.40" x2="365.49" y2="76.40" stroke="#166e32" stroke-width="1.50" />
		<line x1="357.09" y1="82.40" x2="365.49" y2="82.40" stroke="#166e32" stroke-width="1.50" />
		<line x1="357.09" y1="82.40" x2="365.49" y2="76.40" stroke="#166e32" stroke-width="1.50" />
		<polygon fill="#ffffff" shape-rendering="crispEdges" points="299.47,83.00 299.47,69.00 352.09,69.00 352.09,83.00 " />
		<text x="299.47" y="80.90" font-family="Helvetica" font-size="12" fill="#124d94" >KIAA1024</text>
		<polygon fill="url('#gradient3')" shape-rendering="crispEdges" points="100.96,99.20 100.96,105.20 116.46,105.20 116.46,99.20 116.46,93.20 100.96,93.20 " />
		<polygon fill="url('#gradient3')" shape-rendering="crispEdges" points="116.46,99.20 116.46,107.60 124.86,99.20 116.46,90.80 " />
		<polygon fill="#8ab698" shape-rendering="crispEdges" points="100.96,99.20 100.96,93.20 92.56,93.20 " />
		<polygon fill="#8ab698" shape-rendering="crispEdges" points="100.96,99.20 100.96,105.20 92.56,105.20 " />
		<line x1="92.56" y1="93.20" x2="100.96" y2="93.20" stroke="#166e32" stroke-width="1.50" />
		<line x1="92.56" y1="93.20" x2="100.96" y2="99.20" stroke="#166e32" stroke-width="1.50" />
		<line x1="92.56" y1="105.20" x2="100.96" y2="105.20" stroke="#166e32" stroke-width="1.50" />
		<line x1="92.56" y1="105.20" x2="100.96" y2="99.20" stroke="#166e32" stroke-width="1.50" />
		<polygon fill="#ffffff" shape-rendering="crispEdges" points="113.51,99.20 103.91,94.40 106.31,99.20 103.91,104.00 " />
		<polygon fill="#ffffff" shape-rendering="crispEdges" points="46.40,106.00 46.40,92.00 87.56,92.00 87.56,106.00 " />
		<text x="46.40" y="103.70" font-family="Helvetica" font-size="12" fill="#124d94" >WDR93</text>
		<polygon fill="url('#gradient3')" shape-rendering="crispEdges" points="82.54,76.40 82.54,82.40 83.91,82.40 83.91,76.40 83.91,70.40 82.54,70.40 " />
		<polygon fill="#8ab698" shape-rendering="crispEdges" points="83.91,76.40 83.91,70.40 92.31,70.40 " />
		<polygon fill="#8ab698" shape-rendering="crispEdges" points="83.91,76.40 83.91,82.40 92.31,82.40 " />
		<line x1="92.31" y1="70.40" x2="83.91" y2="70.40" stroke="#166e32" stroke-width="1.50" />
		<line x1="92.31" y1="70.40" x2="83.91" y2="76.40" stroke="#166e32" stroke-width="1.50" />
		<line x1="92.31" y1="82.40" x2="83.91" y2="82.40" stroke="#166e32" stroke-width="1.50" />
		<line x1="92.31" y1="82.40" x2="83.91" y2="76.40" stroke="#166e32" stroke-width="1.50" />
		<text x="97.31" y="80.90" font-family="Helvetica" font-size="12" fill="#124d94" >PEX11A</text>
		<polygon fill="url('#gradient3')" shape-rendering="crispEdges" points="54.36,122.00 54.36,128.00 61.69,128.00 61.69,122.00 61.69,116.00 54.36,116.00 " />
		<polygon fill="url('#gradient3')" shape-rendering="crispEdges" points="54.36,122.00 54.36,130.40 45.96,122.00 54.36,113.60 " />
		<text x="66.69" y="126.50" font-family="Helvetica" font-size="12" fill="#124d94" >PLIN1</text>
		<polygon fill="url('#gradient3')" shape-rendering="crispEdges" points="35.17,144.80 35.17,150.80 41.15,150.80 41.15,144.80 41.15,138.80 35.17,138.80 " />
		<polygon fill="#ffffff" shape-rendering="crispEdges" points="-0.00,151.00 -0.00,137.00 35.17,137.00 35.17,151.00 " />
		<text x="2.52" y="149.30" font-family="Helvetica" font-size="12" fill="#124d94" >LOC...</text>
		<polygon fill="url('#gradient3')" shape-rendering="crispEdges" points="9.34,76.40 9.34,82.40 26.78,82.40 26.78,76.40 26.78,70.40 9.34,70.40 " />
		<polygon fill="url('#gradient3')" shape-rendering="crispEdges" points="9.34,76.40 9.34,84.80 0.94,76.40 9.34,68.00 " />
		<polygon fill="#8ab698" shape-rendering="crispEdges" points="26.78,76.40 26.78,70.40 35.18,70.40 " />
		<polygon fill="#8ab698" shape-rendering="crispEdges" points="26.78,76.40 26.78,82.40 35.18,82.40 " />
		<line x1="35.18" y1="70.40" x2="26.78" y2="70.40" stroke="#166e32" stroke-width="1.50" />
		<line x1="35.18" y1="70.40" x2="26.78" y2="76.40" stroke="#166e32" stroke-width="1.50" />
		<line x1="35.18" y1="82.40" x2="26.78" y2="82.40" stroke="#166e32" stroke-width="1.50" />
		<line x1="35.18" y1="82.40" x2="26.78" y2="76.40" stroke="#166e32" stroke-width="1.50" />
		<polygon fill="#ffffff" shape-rendering="crispEdges" points="13.26,76.40 22.86,71.60 20.46,76.40 22.86,81.20 " />
		<text x="40.18" y="80.90" font-family="Helvetica" font-size="12" fill="#124d94" >KIF7</text>
		<polygon fill="url('#gradient4')" shape-rendering="crispEdges" points="0.00,62.00 892.00,62.00 892.00,47.00 0.00,47.00 " clip-path="url('#clipping-rect2')" />
		<text x="0.00" y="58.00" font-family="Helvetica" font-size="14" fill="#333333" >Genes, NCBI Picoides pubescens Annotation Release 100, 2014-10-24</text>
		<polygon fill="#e5e5e5" shape-rendering="crispEdges" points="892.00,13.00 892.00,-1.00 0.00,-1.00 0.00,13.00 " />
		<text x="0.00" y="10.00" font-family="Helvetica Bold" font-size="12" text-anchor="start" fill="#000000" >NW_009664774.1:3951199..4269591 Picoides pubescens isolate BGI_N307 unplaced genomic scaffold, ASM69900v1 scaffold16, whole genome shotgun se...</text>
	</g>
</svg>
