<?xml version="1.0" standalone="no" ?>
<!DOCTYPE svg PUBLIC "-//W3C//DTD SVG 1.1//EN" "http://www.w3.org/Graphics/SVG/1.1/DTD/svg11.dtd">
<svg width="892px" height="89px" xmlns="http://www.w3.org/2000/svg" version="1.1" viewBox="0 0 892 89" >
	<style type="text/css" > <![CDATA[
		@import url("https://www.ncbi.nlm.nih.gov/projects/sviewer/css/svg_fonts.css");
	]]>
	</style>
	<desc >Generated by NCBI Genome Workbench http://www.ncbi.nlm.nih.gov/tools/gbench/</desc>
	<defs >
		<clipPath id="clipping-rect1" >
			<rect x="0" y="14" width="892" height="20" />
		</clipPath>
		<linearGradient id="gradient1" gradientTransform="rotate(90)" >
			<stop offset="0%" stop-color="#6c6c6c" />
			<stop offset="50%" stop-color="#b5b5b5" />
			<stop offset="100%" stop-color="#6c6c6c" />
		</linearGradient>
		<linearGradient id="gradient2" gradientTransform="rotate(90)" >
			<stop offset="0%" stop-color="#10c010" />
			<stop offset="50%" stop-color="#87df87" />
			<stop offset="100%" stop-color="#10c010" />
		</linearGradient>
		<linearGradient id="gradient3" gradientTransform="rotate(90)" >
			<stop offset="0%" stop-color="#166e32" />
			<stop offset="50%" stop-color="#8ab698" />
			<stop offset="100%" stop-color="#166e32" />
		</linearGradient>
		<clipPath id="clipping-rect2" >
			<rect x="0" y="34" width="892" height="55" />
		</clipPath>
		<linearGradient id="gradient4" gradientTransform="rotate(90)" >
			<stop offset="0%" stop-color="#e6e6e6" stop-opacity="0.71" />
			<stop offset="100%" stop-color="#ffffff" stop-opacity="0.00" />
		</linearGradient>
	</defs>
	<g >
		<polygon fill="#ffffff" shape-rendering="crispEdges" points="892.00,33.00 892.00,13.00 0.00,13.00 0.00,33.00 " />
		<line x1="0.01" y1="31.00" x2="892.00" y2="31.00" stroke="#7f7f7f" stroke-width="1.00" clip-path="url('#clipping-rect1')" />
		<line x1="883.25" y1="31.00" x2="883.25" y2="28.00" stroke="#7f7f7f" stroke-width="1.00" clip-path="url('#clipping-rect1')" />
		<line x1="871.99" y1="31.00" x2="871.99" y2="29.00" stroke="#7f7f7f" stroke-width="1.00" clip-path="url('#clipping-rect1')" />
		<line x1="860.73" y1="31.00" x2="860.73" y2="28.00" stroke="#7f7f7f" stroke-width="1.00" clip-path="url('#clipping-rect1')" />
		<line x1="849.47" y1="31.00" x2="849.47" y2="29.00" stroke="#7f7f7f" stroke-width="1.00" clip-path="url('#clipping-rect1')" />
		<line x1="838.21" y1="31.00" x2="838.21" y2="28.00" stroke="#7f7f7f" stroke-width="1.00" clip-path="url('#clipping-rect1')" />
		<line x1="826.95" y1="31.00" x2="826.95" y2="29.00" stroke="#7f7f7f" stroke-width="1.00" clip-path="url('#clipping-rect1')" />
		<line x1="815.69" y1="31.00" x2="815.69" y2="28.00" stroke="#7f7f7f" stroke-width="1.00" clip-path="url('#clipping-rect1')" />
		<line x1="804.43" y1="31.00" x2="804.43" y2="29.00" stroke="#7f7f7f" stroke-width="1.00" clip-path="url('#clipping-rect1')" />
		<line x1="793.18" y1="31.00" x2="793.18" y2="28.00" stroke="#7f7f7f" stroke-width="1.00" clip-path="url('#clipping-rect1')" />
		<line x1="781.92" y1="31.00" x2="781.92" y2="29.00" stroke="#7f7f7f" stroke-width="1.00" clip-path="url('#clipping-rect1')" />
		<line x1="770.66" y1="31.00" x2="770.66" y2="28.00" stroke="#7f7f7f" stroke-width="1.00" clip-path="url('#clipping-rect1')" />
		<line x1="759.40" y1="31.00" x2="759.40" y2="29.00" stroke="#7f7f7f" stroke-width="1.00" clip-path="url('#clipping-rect1')" />
		<line x1="748.14" y1="31.00" x2="748.14" y2="28.00" stroke="#7f7f7f" stroke-width="1.00" clip-path="url('#clipping-rect1')" />
		<line x1="736.88" y1="31.00" x2="736.88" y2="29.00" stroke="#7f7f7f" stroke-width="1.00" clip-path="url('#clipping-rect1')" />
		<line x1="725.62" y1="31.00" x2="725.62" y2="28.00" stroke="#7f7f7f" stroke-width="1.00" clip-path="url('#clipping-rect1')" />
		<line x1="714.36" y1="31.00" x2="714.36" y2="29.00" stroke="#7f7f7f" stroke-width="1.00" clip-path="url('#clipping-rect1')" />
		<line x1="703.10" y1="31.00" x2="703.10" y2="28.00" stroke="#7f7f7f" stroke-width="1.00" clip-path="url('#clipping-rect1')" />
		<line x1="691.84" y1="31.00" x2="691.84" y2="29.00" stroke="#7f7f7f" stroke-width="1.00" clip-path="url('#clipping-rect1')" />
		<line x1="680.58" y1="31.00" x2="680.58" y2="28.00" stroke="#7f7f7f" stroke-width="1.00" clip-path="url('#clipping-rect1')" />
		<line x1="669.32" y1="31.00" x2="669.32" y2="29.00" stroke="#7f7f7f" stroke-width="1.00" clip-path="url('#clipping-rect1')" />
		<line x1="658.06" y1="31.00" x2="658.06" y2="28.00" stroke="#7f7f7f" stroke-width="1.00" clip-path="url('#clipping-rect1')" />
		<line x1="646.80" y1="31.00" x2="646.80" y2="29.00" stroke="#7f7f7f" stroke-width="1.00" clip-path="url('#clipping-rect1')" />
		<line x1="635.54" y1="31.00" x2="635.54" y2="28.00" stroke="#7f7f7f" stroke-width="1.00" clip-path="url('#clipping-rect1')" />
		<line x1="624.28" y1="31.00" x2="624.28" y2="29.00" stroke="#7f7f7f" stroke-width="1.00" clip-path="url('#clipping-rect1')" />
		<line x1="613.02" y1="31.00" x2="613.02" y2="28.00" stroke="#7f7f7f" stroke-width="1.00" clip-path="url('#clipping-rect1')" />
		<line x1="601.76" y1="31.00" x2="601.76" y2="29.00" stroke="#7f7f7f" stroke-width="1.00" clip-path="url('#clipping-rect1')" />
		<line x1="590.50" y1="31.00" x2="590.50" y2="28.00" stroke="#7f7f7f" stroke-width="1.00" clip-path="url('#clipping-rect1')" />
		<line x1="579.24" y1="31.00" x2="579.24" y2="29.00" stroke="#7f7f7f" stroke-width="1.00" clip-path="url('#clipping-rect1')" />
		<line x1="567.99" y1="31.00" x2="567.99" y2="28.00" stroke="#7f7f7f" stroke-width="1.00" clip-path="url('#clipping-rect1')" />
		<line x1="556.73" y1="31.00" x2="556.73" y2="29.00" stroke="#7f7f7f" stroke-width="1.00" clip-path="url('#clipping-rect1')" />
		<line x1="545.47" y1="31.00" x2="545.47" y2="28.00" stroke="#7f7f7f" stroke-width="1.00" clip-path="url('#clipping-rect1')" />
		<line x1="534.21" y1="31.00" x2="534.21" y2="29.00" stroke="#7f7f7f" stroke-width="1.00" clip-path="url('#clipping-rect1')" />
		<line x1="522.95" y1="31.00" x2="522.95" y2="28.00" stroke="#7f7f7f" stroke-width="1.00" clip-path="url('#clipping-rect1')" />
		<line x1="511.69" y1="31.00" x2="511.69" y2="29.00" stroke="#7f7f7f" stroke-width="1.00" clip-path="url('#clipping-rect1')" />
		<line x1="500.43" y1="31.00" x2="500.43" y2="28.00" stroke="#7f7f7f" stroke-width="1.00" clip-path="url('#clipping-rect1')" />
		<line x1="489.17" y1="31.00" x2="489.17" y2="29.00" stroke="#7f7f7f" stroke-width="1.00" clip-path="url('#clipping-rect1')" />
		<line x1="477.91" y1="31.00" x2="477.91" y2="28.00" stroke="#7f7f7f" stroke-width="1.00" clip-path="url('#clipping-rect1')" />
		<line x1="466.65" y1="31.00" x2="466.65" y2="29.00" stroke="#7f7f7f" stroke-width="1.00" clip-path="url('#clipping-rect1')" />
		<line x1="455.39" y1="31.00" x2="455.39" y2="28.00" stroke="#7f7f7f" stroke-width="1.00" clip-path="url('#clipping-rect1')" />
		<line x1="444.13" y1="31.00" x2="444.13" y2="29.00" stroke="#7f7f7f" stroke-width="1.00" clip-path="url('#clipping-rect1')" />
		<line x1="432.87" y1="31.00" x2="432.87" y2="28.00" stroke="#7f7f7f" stroke-width="1.00" clip-path="url('#clipping-rect1')" />
		<line x1="421.61" y1="31.00" x2="421.61" y2="29.00" stroke="#7f7f7f" stroke-width="1.00" clip-path="url('#clipping-rect1')" />
		<line x1="410.35" y1="31.00" x2="410.35" y2="28.00" stroke="#7f7f7f" stroke-width="1.00" clip-path="url('#clipping-rect1')" />
		<line x1="399.09" y1="31.00" x2="399.09" y2="29.00" stroke="#7f7f7f" stroke-width="1.00" clip-path="url('#clipping-rect1')" />
		<line x1="387.83" y1="31.00" x2="387.83" y2="28.00" stroke="#7f7f7f" stroke-width="1.00" clip-path="url('#clipping-rect1')" />
		<line x1="376.57" y1="31.00" x2="376.57" y2="29.00" stroke="#7f7f7f" stroke-width="1.00" clip-path="url('#clipping-rect1')" />
		<line x1="365.31" y1="31.00" x2="365.31" y2="28.00" stroke="#7f7f7f" stroke-width="1.00" clip-path="url('#clipping-rect1')" />
		<line x1="354.05" y1="31.00" x2="354.05" y2="29.00" stroke="#7f7f7f" stroke-width="1.00" clip-path="url('#clipping-rect1')" />
		<line x1="342.80" y1="31.00" x2="342.80" y2="28.00" stroke="#7f7f7f" stroke-width="1.00" clip-path="url('#clipping-rect1')" />
		<line x1="331.54" y1="31.00" x2="331.54" y2="29.00" stroke="#7f7f7f" stroke-width="1.00" clip-path="url('#clipping-rect1')" />
		<line x1="320.28" y1="31.00" x2="320.28" y2="28.00" stroke="#7f7f7f" stroke-width="1.00" clip-path="url('#clipping-rect1')" />
		<line x1="309.02" y1="31.00" x2="309.02" y2="29.00" stroke="#7f7f7f" stroke-width="1.00" clip-path="url('#clipping-rect1')" />
		<line x1="297.76" y1="31.00" x2="297.76" y2="28.00" stroke="#7f7f7f" stroke-width="1.00" clip-path="url('#clipping-rect1')" />
		<line x1="286.50" y1="31.00" x2="286.50" y2="29.00" stroke="#7f7f7f" stroke-width="1.00" clip-path="url('#clipping-rect1')" />
		<line x1="275.24" y1="31.00" x2="275.24" y2="28.00" stroke="#7f7f7f" stroke-width="1.00" clip-path="url('#clipping-rect1')" />
		<line x1="263.98" y1="31.00" x2="263.98" y2="29.00" stroke="#7f7f7f" stroke-width="1.00" clip-path="url('#clipping-rect1')" />
		<line x1="252.72" y1="31.00" x2="252.72" y2="28.00" stroke="#7f7f7f" stroke-width="1.00" clip-path="url('#clipping-rect1')" />
		<line x1="241.46" y1="31.00" x2="241.46" y2="29.00" stroke="#7f7f7f" stroke-width="1.00" clip-path="url('#clipping-rect1')" />
		<line x1="230.20" y1="31.00" x2="230.20" y2="28.00" stroke="#7f7f7f" stroke-width="1.00" clip-path="url('#clipping-rect1')" />
		<line x1="218.94" y1="31.00" x2="218.94" y2="29.00" stroke="#7f7f7f" stroke-width="1.00" clip-path="url('#clipping-rect1')" />
		<line x1="207.68" y1="31.00" x2="207.68" y2="28.00" stroke="#7f7f7f" stroke-width="1.00" clip-path="url('#clipping-rect1')" />
		<line x1="196.42" y1="31.00" x2="196.42" y2="29.00" stroke="#7f7f7f" stroke-width="1.00" clip-path="url('#clipping-rect1')" />
		<line x1="185.16" y1="31.00" x2="185.16" y2="28.00" stroke="#7f7f7f" stroke-width="1.00" clip-path="url('#clipping-rect1')" />
		<line x1="173.90" y1="31.00" x2="173.90" y2="29.00" stroke="#7f7f7f" stroke-width="1.00" clip-path="url('#clipping-rect1')" />
		<line x1="162.64" y1="31.00" x2="162.64" y2="28.00" stroke="#7f7f7f" stroke-width="1.00" clip-path="url('#clipping-rect1')" />
		<line x1="151.38" y1="31.00" x2="151.38" y2="29.00" stroke="#7f7f7f" stroke-width="1.00" clip-path="url('#clipping-rect1')" />
		<line x1="140.12" y1="31.00" x2="140.12" y2="28.00" stroke="#7f7f7f" stroke-width="1.00" clip-path="url('#clipping-rect1')" />
		<line x1="128.86" y1="31.00" x2="128.86" y2="29.00" stroke="#7f7f7f" stroke-width="1.00" clip-path="url('#clipping-rect1')" />
		<line x1="117.61" y1="31.00" x2="117.61" y2="28.00" stroke="#7f7f7f" stroke-width="1.00" clip-path="url('#clipping-rect1')" />
		<line x1="106.35" y1="31.00" x2="106.35" y2="29.00" stroke="#7f7f7f" stroke-width="1.00" clip-path="url('#clipping-rect1')" />
		<line x1="95.09" y1="31.00" x2="95.09" y2="28.00" stroke="#7f7f7f" stroke-width="1.00" clip-path="url('#clipping-rect1')" />
		<line x1="83.83" y1="31.00" x2="83.83" y2="29.00" stroke="#7f7f7f" stroke-width="1.00" clip-path="url('#clipping-rect1')" />
		<line x1="72.57" y1="31.00" x2="72.57" y2="28.00" stroke="#7f7f7f" stroke-width="1.00" clip-path="url('#clipping-rect1')" />
		<line x1="61.31" y1="31.00" x2="61.31" y2="29.00" stroke="#7f7f7f" stroke-width="1.00" clip-path="url('#clipping-rect1')" />
		<line x1="50.05" y1="31.00" x2="50.05" y2="28.00" stroke="#7f7f7f" stroke-width="1.00" clip-path="url('#clipping-rect1')" />
		<line x1="38.79" y1="31.00" x2="38.79" y2="29.00" stroke="#7f7f7f" stroke-width="1.00" clip-path="url('#clipping-rect1')" />
		<line x1="27.53" y1="31.00" x2="27.53" y2="28.00" stroke="#7f7f7f" stroke-width="1.00" clip-path="url('#clipping-rect1')" />
		<line x1="16.27" y1="31.00" x2="16.27" y2="29.00" stroke="#7f7f7f" stroke-width="1.00" clip-path="url('#clipping-rect1')" />
		<line x1="5.01" y1="31.00" x2="5.01" y2="28.00" stroke="#7f7f7f" stroke-width="1.00" clip-path="url('#clipping-rect1')" />
		<text x="0.01" y="26.00" font-family="Helvetica" font-size="12" fill="#333333" clip-path="url('#clipping-rect1')" >79,222</text>
		<line x1="0.01" y1="33.00" x2="0.01" y2="16.00" stroke="#7f7f7f" stroke-width="1.00" clip-path="url('#clipping-rect1')" />
		<line x1="883.25" y1="33.00" x2="883.25" y2="16.00" stroke="#7f7f7f" stroke-width="1.00" clip-path="url('#clipping-rect1')" />
		<text x="840.21" y="26.00" font-family="Helvetica" font-size="12" fill="#333333" clip-path="url('#clipping-rect1')" >42 K</text>
		<line x1="838.21" y1="33.00" x2="838.21" y2="16.00" stroke="#7f7f7f" stroke-width="1.00" clip-path="url('#clipping-rect1')" />
		<text x="795.18" y="26.00" font-family="Helvetica" font-size="12" fill="#333333" clip-path="url('#clipping-rect1')" >44 K</text>
		<line x1="793.18" y1="33.00" x2="793.18" y2="16.00" stroke="#7f7f7f" stroke-width="1.00" clip-path="url('#clipping-rect1')" />
		<text x="750.14" y="26.00" font-family="Helvetica" font-size="12" fill="#333333" clip-path="url('#clipping-rect1')" >46 K</text>
		<line x1="748.14" y1="33.00" x2="748.14" y2="16.00" stroke="#7f7f7f" stroke-width="1.00" clip-path="url('#clipping-rect1')" />
		<text x="705.10" y="26.00" font-family="Helvetica" font-size="12" fill="#333333" clip-path="url('#clipping-rect1')" >48 K</text>
		<line x1="703.10" y1="33.00" x2="703.10" y2="16.00" stroke="#7f7f7f" stroke-width="1.00" clip-path="url('#clipping-rect1')" />
		<text x="660.06" y="26.00" font-family="Helvetica" font-size="12" fill="#333333" clip-path="url('#clipping-rect1')" >50 K</text>
		<line x1="658.06" y1="33.00" x2="658.06" y2="16.00" stroke="#7f7f7f" stroke-width="1.00" clip-path="url('#clipping-rect1')" />
		<text x="615.02" y="26.00" font-family="Helvetica" font-size="12" fill="#333333" clip-path="url('#clipping-rect1')" >52 K</text>
		<line x1="613.02" y1="33.00" x2="613.02" y2="16.00" stroke="#7f7f7f" stroke-width="1.00" clip-path="url('#clipping-rect1')" />
		<text x="569.99" y="26.00" font-family="Helvetica" font-size="12" fill="#333333" clip-path="url('#clipping-rect1')" >54 K</text>
		<line x1="567.99" y1="33.00" x2="567.99" y2="16.00" stroke="#7f7f7f" stroke-width="1.00" clip-path="url('#clipping-rect1')" />
		<text x="524.95" y="26.00" font-family="Helvetica" font-size="12" fill="#333333" clip-path="url('#clipping-rect1')" >56 K</text>
		<line x1="522.95" y1="33.00" x2="522.95" y2="16.00" stroke="#7f7f7f" stroke-width="1.00" clip-path="url('#clipping-rect1')" />
		<text x="479.91" y="26.00" font-family="Helvetica" font-size="12" fill="#333333" clip-path="url('#clipping-rect1')" >58 K</text>
		<line x1="477.91" y1="33.00" x2="477.91" y2="16.00" stroke="#7f7f7f" stroke-width="1.00" clip-path="url('#clipping-rect1')" />
		<text x="434.87" y="26.00" font-family="Helvetica" font-size="12" fill="#333333" clip-path="url('#clipping-rect1')" >60 K</text>
		<line x1="432.87" y1="33.00" x2="432.87" y2="16.00" stroke="#7f7f7f" stroke-width="1.00" clip-path="url('#clipping-rect1')" />
		<text x="389.83" y="26.00" font-family="Helvetica" font-size="12" fill="#333333" clip-path="url('#clipping-rect1')" >62 K</text>
		<line x1="387.83" y1="33.00" x2="387.83" y2="16.00" stroke="#7f7f7f" stroke-width="1.00" clip-path="url('#clipping-rect1')" />
		<text x="344.80" y="26.00" font-family="Helvetica" font-size="12" fill="#333333" clip-path="url('#clipping-rect1')" >64 K</text>
		<line x1="342.80" y1="33.00" x2="342.80" y2="16.00" stroke="#7f7f7f" stroke-width="1.00" clip-path="url('#clipping-rect1')" />
		<text x="299.76" y="26.00" font-family="Helvetica" font-size="12" fill="#333333" clip-path="url('#clipping-rect1')" >66 K</text>
		<line x1="297.76" y1="33.00" x2="297.76" y2="16.00" stroke="#7f7f7f" stroke-width="1.00" clip-path="url('#clipping-rect1')" />
		<text x="254.72" y="26.00" font-family="Helvetica" font-size="12" fill="#333333" clip-path="url('#clipping-rect1')" >68 K</text>
		<line x1="252.72" y1="33.00" x2="252.72" y2="16.00" stroke="#7f7f7f" stroke-width="1.00" clip-path="url('#clipping-rect1')" />
		<text x="209.68" y="26.00" font-family="Helvetica" font-size="12" fill="#333333" clip-path="url('#clipping-rect1')" >70 K</text>
		<line x1="207.68" y1="33.00" x2="207.68" y2="16.00" stroke="#7f7f7f" stroke-width="1.00" clip-path="url('#clipping-rect1')" />
		<text x="164.64" y="26.00" font-family="Helvetica" font-size="12" fill="#333333" clip-path="url('#clipping-rect1')" >72 K</text>
		<line x1="162.64" y1="33.00" x2="162.64" y2="16.00" stroke="#7f7f7f" stroke-width="1.00" clip-path="url('#clipping-rect1')" />
		<text x="119.61" y="26.00" font-family="Helvetica" font-size="12" fill="#333333" clip-path="url('#clipping-rect1')" >74 K</text>
		<line x1="117.61" y1="33.00" x2="117.61" y2="16.00" stroke="#7f7f7f" stroke-width="1.00" clip-path="url('#clipping-rect1')" />
		<text x="74.57" y="26.00" font-family="Helvetica" font-size="12" fill="#333333" clip-path="url('#clipping-rect1')" >76 K</text>
		<line x1="72.57" y1="33.00" x2="72.57" y2="16.00" stroke="#7f7f7f" stroke-width="1.00" clip-path="url('#clipping-rect1')" />
		<line x1="883.99" y1="88.00" x2="883.99" y2="33.00" stroke="#ebebeb" stroke-width="1.00" />
		<line x1="838.94" y1="88.00" x2="838.94" y2="33.00" stroke="#ebebeb" stroke-width="1.00" />
		<line x1="793.89" y1="88.00" x2="793.89" y2="33.00" stroke="#ebebeb" stroke-width="1.00" />
		<line x1="748.84" y1="88.00" x2="748.84" y2="33.00" stroke="#ebebeb" stroke-width="1.00" />
		<line x1="703.79" y1="88.00" x2="703.79" y2="33.00" stroke="#ebebeb" stroke-width="1.00" />
		<line x1="658.74" y1="88.00" x2="658.74" y2="33.00" stroke="#ebebeb" stroke-width="1.00" />
		<line x1="613.69" y1="88.00" x2="613.69" y2="33.00" stroke="#ebebeb" stroke-width="1.00" />
		<line x1="567.64" y1="88.00" x2="567.64" y2="33.00" stroke="#ebebeb" stroke-width="1.00" />
		<line x1="522.59" y1="88.00" x2="522.59" y2="33.00" stroke="#ebebeb" stroke-width="1.00" />
		<line x1="477.54" y1="88.00" x2="477.54" y2="33.00" stroke="#ebebeb" stroke-width="1.00" />
		<line x1="432.48" y1="88.00" x2="432.48" y2="33.00" stroke="#ebebeb" stroke-width="1.00" />
		<line x1="387.43" y1="88.00" x2="387.43" y2="33.00" stroke="#ebebeb" stroke-width="1.00" />
		<line x1="342.38" y1="88.00" x2="342.38" y2="33.00" stroke="#ebebeb" stroke-width="1.00" />
		<line x1="297.33" y1="88.00" x2="297.33" y2="33.00" stroke="#ebebeb" stroke-width="1.00" />
		<line x1="252.28" y1="88.00" x2="252.28" y2="33.00" stroke="#ebebeb" stroke-width="1.00" />
		<line x1="207.23" y1="88.00" x2="207.23" y2="33.00" stroke="#ebebeb" stroke-width="1.00" />
		<line x1="162.18" y1="88.00" x2="162.18" y2="33.00" stroke="#ebebeb" stroke-width="1.00" />
		<line x1="117.13" y1="88.00" x2="117.13" y2="33.00" stroke="#ebebeb" stroke-width="1.00" />
		<line x1="72.08" y1="88.00" x2="72.08" y2="33.00" stroke="#ebebeb" stroke-width="1.00" />
		<line x1="27.03" y1="88.00" x2="27.03" y2="33.00" stroke="#ebebeb" stroke-width="1.00" />
		<polygon fill="url('#gradient1')" shape-rendering="crispEdges" points="0.00,40.00 0.00,35.00 892.00,35.00 892.00,40.00 892.00,45.00 0.00,45.00 " />
		<line x1="892.00" y1="45.00" x2="892.00" y2="35.00" stroke="#6c6c6c" stroke-width="1.00" stroke-linejoin="round" />
		<line x1="892.00" y1="35.00" x2="0.00" y2="35.00" stroke="#6c6c6c" stroke-width="1.00" stroke-linejoin="round" />
		<line x1="0.00" y1="35.00" x2="0.00" y2="45.00" stroke="#6c6c6c" stroke-width="1.00" stroke-linejoin="round" />
		<line x1="892.00" y1="45.00" x2="0.00" y2="45.00" stroke="#6c6c6c" stroke-width="1.00" stroke-linejoin="round" />
		<polygon fill="url('#gradient2')" shape-rendering="crispEdges" points="196.97,39.50 196.97,46.00 892.00,46.00 892.00,39.50 892.00,33.00 196.97,33.00 " />
		<polygon fill="#101010" shape-rendering="crispEdges" points="194.99,33.00 194.99,46.00 197.00,46.00 197.00,33.00 " />
		<polygon fill="url('#gradient2')" shape-rendering="crispEdges" points="0.00,39.50 0.00,46.00 194.99,46.00 194.99,39.50 194.99,33.00 0.00,33.00 " />
		<line x1="199.00" y1="33.00" x2="199.00" y2="46.00" stroke="#101010" stroke-opacity="0.29" stroke-width="1.00" />
		<polygon fill="#101010" shape-rendering="crispEdges" points="196.00,33.00 196.00,46.00 198.00,46.00 198.00,33.00 " />
		<line x1="92.00" y1="33.00" x2="92.00" y2="46.00" stroke="#101010" stroke-width="1.00" />
		<polygon fill="url('#gradient3')" shape-rendering="crispEdges" points="20.09,76.40 20.09,82.40 247.57,82.40 247.57,76.40 247.57,70.40 20.09,70.40 " />
		<polygon fill="#4c1919" fill-opacity="0.70" shape-rendering="crispEdges" points="254.97,76.40 250.97,70.40 249.97,70.40 253.97,76.40 249.97,82.40 250.97,82.40 " />
		<polygon fill="#4c1919" fill-opacity="0.30" shape-rendering="crispEdges" points="255.97,76.40 251.97,70.40 248.97,70.40 252.97,76.40 248.97,82.40 251.97,82.40 " />
		<polygon fill="#4c1919" fill-opacity="0.70" shape-rendering="crispEdges" points="250.97,76.40 246.97,70.40 245.97,70.40 249.97,76.40 245.97,82.40 246.97,82.40 " />
		<polygon fill="#4c1919" fill-opacity="0.30" shape-rendering="crispEdges" points="251.97,76.40 247.97,70.40 244.97,70.40 248.97,76.40 244.97,82.40 247.97,82.40 " />
		<polygon fill="url('#gradient3')" shape-rendering="crispEdges" points="247.57,76.40 247.57,84.80 255.97,76.40 247.57,68.00 " />
		<polygon fill="#8ab698" shape-rendering="crispEdges" points="20.09,76.40 20.09,70.40 11.69,70.40 " />
		<polygon fill="#8ab698" shape-rendering="crispEdges" points="20.09,76.40 20.09,82.40 11.69,82.40 " />
		<line x1="11.69" y1="70.40" x2="20.09" y2="70.40" stroke="#166e32" stroke-width="1.50" />
		<line x1="11.69" y1="70.40" x2="20.09" y2="76.40" stroke="#166e32" stroke-width="1.50" />
		<line x1="11.69" y1="82.40" x2="20.09" y2="82.40" stroke="#166e32" stroke-width="1.50" />
		<line x1="11.69" y1="82.40" x2="20.09" y2="76.40" stroke="#166e32" stroke-width="1.50" />
		<polygon fill="#4c1919" fill-opacity="0.70" shape-rendering="crispEdges" points="254.97,76.40 250.97,70.40 249.97,70.40 253.97,76.40 249.97,82.40 250.97,82.40 " />
		<polygon fill="#4c1919" fill-opacity="0.30" shape-rendering="crispEdges" points="255.97,76.40 251.97,70.40 248.97,70.40 252.97,76.40 248.97,82.40 251.97,82.40 " />
		<polygon fill="#4c1919" fill-opacity="0.70" shape-rendering="crispEdges" points="250.97,76.40 246.97,70.40 245.97,70.40 249.97,76.40 245.97,82.40 246.97,82.40 " />
		<polygon fill="#4c1919" fill-opacity="0.30" shape-rendering="crispEdges" points="251.97,76.40 247.97,70.40 244.97,70.40 248.97,76.40 244.97,82.40 247.97,82.40 " />
		<polygon fill="#ffffff" shape-rendering="crispEdges" points="238.63,76.40 229.03,71.60 231.43,76.40 229.03,81.20 " />
		<polygon fill="#e0e0e0" shape-rendering="crispEdges" points="138.63,76.40 129.03,71.60 131.43,76.40 129.03,81.20 " />
		<polygon fill="#c1c1c1" shape-rendering="crispEdges" points="38.63,76.40 29.03,71.60 31.43,76.40 29.03,81.20 " />
		<polygon fill="url('#gradient4')" shape-rendering="crispEdges" points="0.00,62.00 891.98,62.00 891.98,47.00 0.00,47.00 " clip-path="url('#clipping-rect2')" />
		<text x="0.00" y="58.00" font-family="Helvetica" font-size="14" fill="#333333" >Genes, NCBI Gavia stellata Annotation Release 100, 2014-10-21</text>
		<polygon fill="#e5e5e5" shape-rendering="crispEdges" points="892.00,13.00 892.00,-1.00 0.00,-1.00 0.00,13.00 " />
		<text x="0.00" y="10.00" font-family="Helvetica Bold" font-size="12" text-anchor="start" fill="#000000" >NW_009300891.1:39611..79222 Gavia stellata isolate BGI_N328 unplaced genomic scaffold, ASM69087v1 scaffold5973, whole genome shotgun sequence</text>
	</g>
</svg>
