<?xml version="1.0" standalone="no" ?>
<!DOCTYPE svg PUBLIC "-//W3C//DTD SVG 1.1//EN" "http://www.w3.org/Graphics/SVG/1.1/DTD/svg11.dtd">
<svg width="892px" height="148px" xmlns="http://www.w3.org/2000/svg" version="1.1" viewBox="0 0 892 148" >
	<style type="text/css" > <![CDATA[
		@import url("https://www.ncbi.nlm.nih.gov/projects/sviewer/css/svg_fonts.css");
	]]>
	</style>
	<desc >Generated by NCBI Genome Workbench http://www.ncbi.nlm.nih.gov/tools/gbench/</desc>
	<defs >
		<clipPath id="clipping-rect1" >
			<rect x="0" y="14" width="892" height="20" />
		</clipPath>
		<linearGradient id="gradient1" gradientTransform="rotate(90)" >
			<stop offset="0%" stop-color="#6c6c6c" />
			<stop offset="50%" stop-color="#b5b5b5" />
			<stop offset="100%" stop-color="#6c6c6c" />
		</linearGradient>
		<linearGradient id="gradient2" gradientTransform="rotate(90)" >
			<stop offset="0%" stop-color="#10c010" />
			<stop offset="50%" stop-color="#87df87" />
			<stop offset="100%" stop-color="#10c010" />
		</linearGradient>
		<linearGradient id="gradient3" gradientTransform="rotate(90)" >
			<stop offset="0%" stop-color="#166e32" />
			<stop offset="50%" stop-color="#8ab698" />
			<stop offset="100%" stop-color="#166e32" />
		</linearGradient>
		<clipPath id="clipping-rect2" >
			<rect x="0" y="34" width="892" height="114" />
		</clipPath>
		<linearGradient id="gradient4" gradientTransform="rotate(90)" >
			<stop offset="0%" stop-color="#e6e6e6" stop-opacity="0.71" />
			<stop offset="100%" stop-color="#ffffff" stop-opacity="0.00" />
		</linearGradient>
		<linearGradient id="gradient5" gradientTransform="rotate(90)" >
			<stop offset="0%" stop-color="#7698bb" />
			<stop offset="100%" stop-color="#8ca9c5" />
		</linearGradient>
		<linearGradient id="gradient6" gradientTransform="rotate(90)" >
			<stop offset="0%" stop-color="#275d93" />
			<stop offset="100%" stop-color="#8ca9c5" />
		</linearGradient>
		<linearGradient id="gradient7" gradientTransform="rotate(90)" >
			<stop offset="0%" stop-color="#16508b" />
			<stop offset="100%" stop-color="#8ca9c5" />
		</linearGradient>
		<linearGradient id="gradient8" gradientTransform="rotate(90)" >
			<stop offset="0%" stop-color="#044382" />
			<stop offset="100%" stop-color="#8ca9c5" />
		</linearGradient>
		<linearGradient id="gradient9" gradientTransform="rotate(90)" >
			<stop offset="0%" stop-color="#024181" />
			<stop offset="100%" stop-color="#8ca9c5" />
		</linearGradient>
		<linearGradient id="gradient10" gradientTransform="rotate(90)" >
			<stop offset="0%" stop-color="#004080" />
			<stop offset="100%" stop-color="#8ca9c5" />
		</linearGradient>
		<linearGradient id="gradient11" gradientTransform="rotate(90)" >
			<stop offset="0%" stop-color="#094684" />
			<stop offset="100%" stop-color="#8ca9c5" />
		</linearGradient>
		<linearGradient id="gradient12" gradientTransform="rotate(90)" >
			<stop offset="0%" stop-color="#064483" />
			<stop offset="100%" stop-color="#8ca9c5" />
		</linearGradient>
		<linearGradient id="gradient13" gradientTransform="rotate(90)" >
			<stop offset="0%" stop-color="#1b548d" />
			<stop offset="100%" stop-color="#8ca9c5" />
		</linearGradient>
	</defs>
	<g >
		<polygon fill="#ffffff" shape-rendering="crispEdges" points="892.00,33.00 892.00,13.00 0.00,13.00 0.00,33.00 " />
		<line x1="0.02" y1="30.89" x2="891.98" y2="30.89" stroke="#7f7f7f" stroke-width="1.00" clip-path="url('#clipping-rect1')" />
		<line x1="8.22" y1="30.89" x2="8.22" y2="28.79" stroke="#7f7f7f" stroke-width="1.00" clip-path="url('#clipping-rect1')" />
		<line x1="16.46" y1="30.89" x2="16.46" y2="28.79" stroke="#7f7f7f" stroke-width="1.00" clip-path="url('#clipping-rect1')" />
		<line x1="24.70" y1="30.89" x2="24.70" y2="28.79" stroke="#7f7f7f" stroke-width="1.00" clip-path="url('#clipping-rect1')" />
		<line x1="32.93" y1="30.89" x2="32.93" y2="28.79" stroke="#7f7f7f" stroke-width="1.00" clip-path="url('#clipping-rect1')" />
		<line x1="41.17" y1="30.89" x2="41.17" y2="27.74" stroke="#7f7f7f" stroke-width="1.00" clip-path="url('#clipping-rect1')" />
		<line x1="49.41" y1="30.89" x2="49.41" y2="28.79" stroke="#7f7f7f" stroke-width="1.00" clip-path="url('#clipping-rect1')" />
		<line x1="57.65" y1="30.89" x2="57.65" y2="28.79" stroke="#7f7f7f" stroke-width="1.00" clip-path="url('#clipping-rect1')" />
		<line x1="65.89" y1="30.89" x2="65.89" y2="28.79" stroke="#7f7f7f" stroke-width="1.00" clip-path="url('#clipping-rect1')" />
		<line x1="74.13" y1="30.89" x2="74.13" y2="28.79" stroke="#7f7f7f" stroke-width="1.00" clip-path="url('#clipping-rect1')" />
		<line x1="82.37" y1="30.89" x2="82.37" y2="27.74" stroke="#7f7f7f" stroke-width="1.00" clip-path="url('#clipping-rect1')" />
		<line x1="90.60" y1="30.89" x2="90.60" y2="28.79" stroke="#7f7f7f" stroke-width="1.00" clip-path="url('#clipping-rect1')" />
		<line x1="98.84" y1="30.89" x2="98.84" y2="28.79" stroke="#7f7f7f" stroke-width="1.00" clip-path="url('#clipping-rect1')" />
		<line x1="107.08" y1="30.89" x2="107.08" y2="28.79" stroke="#7f7f7f" stroke-width="1.00" clip-path="url('#clipping-rect1')" />
		<line x1="115.32" y1="30.89" x2="115.32" y2="28.79" stroke="#7f7f7f" stroke-width="1.00" clip-path="url('#clipping-rect1')" />
		<line x1="123.56" y1="30.89" x2="123.56" y2="27.74" stroke="#7f7f7f" stroke-width="1.00" clip-path="url('#clipping-rect1')" />
		<line x1="131.80" y1="30.89" x2="131.80" y2="28.79" stroke="#7f7f7f" stroke-width="1.00" clip-path="url('#clipping-rect1')" />
		<line x1="140.04" y1="30.89" x2="140.04" y2="28.79" stroke="#7f7f7f" stroke-width="1.00" clip-path="url('#clipping-rect1')" />
		<line x1="148.28" y1="30.89" x2="148.28" y2="28.79" stroke="#7f7f7f" stroke-width="1.00" clip-path="url('#clipping-rect1')" />
		<line x1="156.51" y1="30.89" x2="156.51" y2="28.79" stroke="#7f7f7f" stroke-width="1.00" clip-path="url('#clipping-rect1')" />
		<line x1="164.75" y1="30.89" x2="164.75" y2="27.74" stroke="#7f7f7f" stroke-width="1.00" clip-path="url('#clipping-rect1')" />
		<line x1="172.99" y1="30.89" x2="172.99" y2="28.79" stroke="#7f7f7f" stroke-width="1.00" clip-path="url('#clipping-rect1')" />
		<line x1="181.23" y1="30.89" x2="181.23" y2="28.79" stroke="#7f7f7f" stroke-width="1.00" clip-path="url('#clipping-rect1')" />
		<line x1="189.47" y1="30.89" x2="189.47" y2="28.79" stroke="#7f7f7f" stroke-width="1.00" clip-path="url('#clipping-rect1')" />
		<line x1="197.71" y1="30.89" x2="197.71" y2="28.79" stroke="#7f7f7f" stroke-width="1.00" clip-path="url('#clipping-rect1')" />
		<line x1="205.95" y1="30.89" x2="205.95" y2="27.74" stroke="#7f7f7f" stroke-width="1.00" clip-path="url('#clipping-rect1')" />
		<line x1="214.18" y1="30.89" x2="214.18" y2="28.79" stroke="#7f7f7f" stroke-width="1.00" clip-path="url('#clipping-rect1')" />
		<line x1="222.42" y1="30.89" x2="222.42" y2="28.79" stroke="#7f7f7f" stroke-width="1.00" clip-path="url('#clipping-rect1')" />
		<line x1="230.66" y1="30.89" x2="230.66" y2="28.79" stroke="#7f7f7f" stroke-width="1.00" clip-path="url('#clipping-rect1')" />
		<line x1="238.90" y1="30.89" x2="238.90" y2="28.79" stroke="#7f7f7f" stroke-width="1.00" clip-path="url('#clipping-rect1')" />
		<line x1="247.14" y1="30.89" x2="247.14" y2="27.74" stroke="#7f7f7f" stroke-width="1.00" clip-path="url('#clipping-rect1')" />
		<line x1="255.38" y1="30.89" x2="255.38" y2="28.79" stroke="#7f7f7f" stroke-width="1.00" clip-path="url('#clipping-rect1')" />
		<line x1="263.62" y1="30.89" x2="263.62" y2="28.79" stroke="#7f7f7f" stroke-width="1.00" clip-path="url('#clipping-rect1')" />
		<line x1="271.86" y1="30.89" x2="271.86" y2="28.79" stroke="#7f7f7f" stroke-width="1.00" clip-path="url('#clipping-rect1')" />
		<line x1="280.09" y1="30.89" x2="280.09" y2="28.79" stroke="#7f7f7f" stroke-width="1.00" clip-path="url('#clipping-rect1')" />
		<line x1="288.33" y1="30.89" x2="288.33" y2="27.74" stroke="#7f7f7f" stroke-width="1.00" clip-path="url('#clipping-rect1')" />
		<line x1="296.57" y1="30.89" x2="296.57" y2="28.79" stroke="#7f7f7f" stroke-width="1.00" clip-path="url('#clipping-rect1')" />
		<line x1="304.81" y1="30.89" x2="304.81" y2="28.79" stroke="#7f7f7f" stroke-width="1.00" clip-path="url('#clipping-rect1')" />
		<line x1="313.05" y1="30.89" x2="313.05" y2="28.79" stroke="#7f7f7f" stroke-width="1.00" clip-path="url('#clipping-rect1')" />
		<line x1="321.29" y1="30.89" x2="321.29" y2="28.79" stroke="#7f7f7f" stroke-width="1.00" clip-path="url('#clipping-rect1')" />
		<line x1="329.53" y1="30.89" x2="329.53" y2="27.74" stroke="#7f7f7f" stroke-width="1.00" clip-path="url('#clipping-rect1')" />
		<line x1="337.76" y1="30.89" x2="337.76" y2="28.79" stroke="#7f7f7f" stroke-width="1.00" clip-path="url('#clipping-rect1')" />
		<line x1="346.00" y1="30.89" x2="346.00" y2="28.79" stroke="#7f7f7f" stroke-width="1.00" clip-path="url('#clipping-rect1')" />
		<line x1="354.24" y1="30.89" x2="354.24" y2="28.79" stroke="#7f7f7f" stroke-width="1.00" clip-path="url('#clipping-rect1')" />
		<line x1="362.48" y1="30.89" x2="362.48" y2="28.79" stroke="#7f7f7f" stroke-width="1.00" clip-path="url('#clipping-rect1')" />
		<line x1="370.72" y1="30.89" x2="370.72" y2="27.74" stroke="#7f7f7f" stroke-width="1.00" clip-path="url('#clipping-rect1')" />
		<line x1="378.96" y1="30.89" x2="378.96" y2="28.79" stroke="#7f7f7f" stroke-width="1.00" clip-path="url('#clipping-rect1')" />
		<line x1="387.20" y1="30.89" x2="387.20" y2="28.79" stroke="#7f7f7f" stroke-width="1.00" clip-path="url('#clipping-rect1')" />
		<line x1="395.44" y1="30.89" x2="395.44" y2="28.79" stroke="#7f7f7f" stroke-width="1.00" clip-path="url('#clipping-rect1')" />
		<line x1="403.67" y1="30.89" x2="403.67" y2="28.79" stroke="#7f7f7f" stroke-width="1.00" clip-path="url('#clipping-rect1')" />
		<line x1="411.91" y1="30.89" x2="411.91" y2="27.74" stroke="#7f7f7f" stroke-width="1.00" clip-path="url('#clipping-rect1')" />
		<line x1="420.15" y1="30.89" x2="420.15" y2="28.79" stroke="#7f7f7f" stroke-width="1.00" clip-path="url('#clipping-rect1')" />
		<line x1="428.39" y1="30.89" x2="428.39" y2="28.79" stroke="#7f7f7f" stroke-width="1.00" clip-path="url('#clipping-rect1')" />
		<line x1="436.63" y1="30.89" x2="436.63" y2="28.79" stroke="#7f7f7f" stroke-width="1.00" clip-path="url('#clipping-rect1')" />
		<line x1="444.87" y1="30.89" x2="444.87" y2="28.79" stroke="#7f7f7f" stroke-width="1.00" clip-path="url('#clipping-rect1')" />
		<line x1="453.11" y1="30.89" x2="453.11" y2="27.74" stroke="#7f7f7f" stroke-width="1.00" clip-path="url('#clipping-rect1')" />
		<line x1="461.34" y1="30.89" x2="461.34" y2="28.79" stroke="#7f7f7f" stroke-width="1.00" clip-path="url('#clipping-rect1')" />
		<line x1="469.58" y1="30.89" x2="469.58" y2="28.79" stroke="#7f7f7f" stroke-width="1.00" clip-path="url('#clipping-rect1')" />
		<line x1="477.82" y1="30.89" x2="477.82" y2="28.79" stroke="#7f7f7f" stroke-width="1.00" clip-path="url('#clipping-rect1')" />
		<line x1="486.06" y1="30.89" x2="486.06" y2="28.79" stroke="#7f7f7f" stroke-width="1.00" clip-path="url('#clipping-rect1')" />
		<line x1="494.30" y1="30.89" x2="494.30" y2="27.74" stroke="#7f7f7f" stroke-width="1.00" clip-path="url('#clipping-rect1')" />
		<line x1="502.54" y1="30.89" x2="502.54" y2="28.79" stroke="#7f7f7f" stroke-width="1.00" clip-path="url('#clipping-rect1')" />
		<line x1="510.78" y1="30.89" x2="510.78" y2="28.79" stroke="#7f7f7f" stroke-width="1.00" clip-path="url('#clipping-rect1')" />
		<line x1="519.02" y1="30.89" x2="519.02" y2="28.79" stroke="#7f7f7f" stroke-width="1.00" clip-path="url('#clipping-rect1')" />
		<line x1="527.25" y1="30.89" x2="527.25" y2="28.79" stroke="#7f7f7f" stroke-width="1.00" clip-path="url('#clipping-rect1')" />
		<line x1="535.49" y1="30.89" x2="535.49" y2="27.74" stroke="#7f7f7f" stroke-width="1.00" clip-path="url('#clipping-rect1')" />
		<line x1="543.73" y1="30.89" x2="543.73" y2="28.79" stroke="#7f7f7f" stroke-width="1.00" clip-path="url('#clipping-rect1')" />
		<line x1="551.97" y1="30.89" x2="551.97" y2="28.79" stroke="#7f7f7f" stroke-width="1.00" clip-path="url('#clipping-rect1')" />
		<line x1="560.21" y1="30.89" x2="560.21" y2="28.79" stroke="#7f7f7f" stroke-width="1.00" clip-path="url('#clipping-rect1')" />
		<line x1="568.45" y1="30.89" x2="568.45" y2="28.79" stroke="#7f7f7f" stroke-width="1.00" clip-path="url('#clipping-rect1')" />
		<line x1="576.69" y1="30.89" x2="576.69" y2="27.74" stroke="#7f7f7f" stroke-width="1.00" clip-path="url('#clipping-rect1')" />
		<line x1="584.92" y1="30.89" x2="584.92" y2="28.79" stroke="#7f7f7f" stroke-width="1.00" clip-path="url('#clipping-rect1')" />
		<line x1="593.16" y1="30.89" x2="593.16" y2="28.79" stroke="#7f7f7f" stroke-width="1.00" clip-path="url('#clipping-rect1')" />
		<line x1="601.40" y1="30.89" x2="601.40" y2="28.79" stroke="#7f7f7f" stroke-width="1.00" clip-path="url('#clipping-rect1')" />
		<line x1="609.64" y1="30.89" x2="609.64" y2="28.79" stroke="#7f7f7f" stroke-width="1.00" clip-path="url('#clipping-rect1')" />
		<line x1="617.88" y1="30.89" x2="617.88" y2="27.74" stroke="#7f7f7f" stroke-width="1.00" clip-path="url('#clipping-rect1')" />
		<line x1="626.12" y1="30.89" x2="626.12" y2="28.79" stroke="#7f7f7f" stroke-width="1.00" clip-path="url('#clipping-rect1')" />
		<line x1="634.36" y1="30.89" x2="634.36" y2="28.79" stroke="#7f7f7f" stroke-width="1.00" clip-path="url('#clipping-rect1')" />
		<line x1="642.60" y1="30.89" x2="642.60" y2="28.79" stroke="#7f7f7f" stroke-width="1.00" clip-path="url('#clipping-rect1')" />
		<line x1="650.83" y1="30.89" x2="650.83" y2="28.79" stroke="#7f7f7f" stroke-width="1.00" clip-path="url('#clipping-rect1')" />
		<line x1="659.07" y1="30.89" x2="659.07" y2="27.74" stroke="#7f7f7f" stroke-width="1.00" clip-path="url('#clipping-rect1')" />
		<line x1="667.31" y1="30.89" x2="667.31" y2="28.79" stroke="#7f7f7f" stroke-width="1.00" clip-path="url('#clipping-rect1')" />
		<line x1="675.55" y1="30.89" x2="675.55" y2="28.79" stroke="#7f7f7f" stroke-width="1.00" clip-path="url('#clipping-rect1')" />
		<line x1="683.79" y1="30.89" x2="683.79" y2="28.79" stroke="#7f7f7f" stroke-width="1.00" clip-path="url('#clipping-rect1')" />
		<line x1="692.03" y1="30.89" x2="692.03" y2="28.79" stroke="#7f7f7f" stroke-width="1.00" clip-path="url('#clipping-rect1')" />
		<line x1="700.27" y1="30.89" x2="700.27" y2="27.74" stroke="#7f7f7f" stroke-width="1.00" clip-path="url('#clipping-rect1')" />
		<line x1="708.50" y1="30.89" x2="708.50" y2="28.79" stroke="#7f7f7f" stroke-width="1.00" clip-path="url('#clipping-rect1')" />
		<line x1="716.74" y1="30.89" x2="716.74" y2="28.79" stroke="#7f7f7f" stroke-width="1.00" clip-path="url('#clipping-rect1')" />
		<line x1="724.98" y1="30.89" x2="724.98" y2="28.79" stroke="#7f7f7f" stroke-width="1.00" clip-path="url('#clipping-rect1')" />
		<line x1="733.22" y1="30.89" x2="733.22" y2="28.79" stroke="#7f7f7f" stroke-width="1.00" clip-path="url('#clipping-rect1')" />
		<line x1="741.46" y1="30.89" x2="741.46" y2="27.74" stroke="#7f7f7f" stroke-width="1.00" clip-path="url('#clipping-rect1')" />
		<line x1="749.70" y1="30.89" x2="749.70" y2="28.79" stroke="#7f7f7f" stroke-width="1.00" clip-path="url('#clipping-rect1')" />
		<line x1="757.94" y1="30.89" x2="757.94" y2="28.79" stroke="#7f7f7f" stroke-width="1.00" clip-path="url('#clipping-rect1')" />
		<line x1="766.18" y1="30.89" x2="766.18" y2="28.79" stroke="#7f7f7f" stroke-width="1.00" clip-path="url('#clipping-rect1')" />
		<line x1="774.41" y1="30.89" x2="774.41" y2="28.79" stroke="#7f7f7f" stroke-width="1.00" clip-path="url('#clipping-rect1')" />
		<line x1="782.65" y1="30.89" x2="782.65" y2="27.74" stroke="#7f7f7f" stroke-width="1.00" clip-path="url('#clipping-rect1')" />
		<line x1="790.89" y1="30.89" x2="790.89" y2="28.79" stroke="#7f7f7f" stroke-width="1.00" clip-path="url('#clipping-rect1')" />
		<line x1="799.13" y1="30.89" x2="799.13" y2="28.79" stroke="#7f7f7f" stroke-width="1.00" clip-path="url('#clipping-rect1')" />
		<line x1="807.37" y1="30.89" x2="807.37" y2="28.79" stroke="#7f7f7f" stroke-width="1.00" clip-path="url('#clipping-rect1')" />
		<line x1="815.61" y1="30.89" x2="815.61" y2="28.79" stroke="#7f7f7f" stroke-width="1.00" clip-path="url('#clipping-rect1')" />
		<line x1="823.85" y1="30.89" x2="823.85" y2="27.74" stroke="#7f7f7f" stroke-width="1.00" clip-path="url('#clipping-rect1')" />
		<line x1="832.08" y1="30.89" x2="832.08" y2="28.79" stroke="#7f7f7f" stroke-width="1.00" clip-path="url('#clipping-rect1')" />
		<line x1="840.32" y1="30.89" x2="840.32" y2="28.79" stroke="#7f7f7f" stroke-width="1.00" clip-path="url('#clipping-rect1')" />
		<line x1="848.56" y1="30.89" x2="848.56" y2="28.79" stroke="#7f7f7f" stroke-width="1.00" clip-path="url('#clipping-rect1')" />
		<line x1="856.80" y1="30.89" x2="856.80" y2="28.79" stroke="#7f7f7f" stroke-width="1.00" clip-path="url('#clipping-rect1')" />
		<line x1="865.04" y1="30.89" x2="865.04" y2="27.74" stroke="#7f7f7f" stroke-width="1.00" clip-path="url('#clipping-rect1')" />
		<line x1="873.28" y1="30.89" x2="873.28" y2="28.79" stroke="#7f7f7f" stroke-width="1.00" clip-path="url('#clipping-rect1')" />
		<line x1="881.52" y1="30.89" x2="881.52" y2="28.79" stroke="#7f7f7f" stroke-width="1.00" clip-path="url('#clipping-rect1')" />
		<line x1="889.75" y1="30.89" x2="889.75" y2="28.79" stroke="#7f7f7f" stroke-width="1.00" clip-path="url('#clipping-rect1')" />
		<text x="0.02" y="25.63" font-family="Helvetica" font-size="12" fill="#333333" clip-path="url('#clipping-rect1')" >1</text>
		<line x1="0.02" y1="33.00" x2="0.02" y2="15.11" stroke="#7f7f7f" stroke-width="1.00" clip-path="url('#clipping-rect1')" />
		<text x="856.14" y="25.63" font-family="Helvetica" font-size="12" fill="#333333" clip-path="url('#clipping-rect1')" >21,654</text>
		<line x1="891.98" y1="33.00" x2="891.98" y2="15.11" stroke="#7f7f7f" stroke-width="1.00" clip-path="url('#clipping-rect1')" />
		<line x1="823.85" y1="33.00" x2="823.85" y2="15.11" stroke="#7f7f7f" stroke-width="1.00" clip-path="url('#clipping-rect1')" />
		<text x="743.46" y="25.63" font-family="Helvetica" font-size="12" fill="#333333" clip-path="url('#clipping-rect1')" >18 K</text>
		<line x1="741.46" y1="33.00" x2="741.46" y2="15.11" stroke="#7f7f7f" stroke-width="1.00" clip-path="url('#clipping-rect1')" />
		<text x="661.07" y="25.63" font-family="Helvetica" font-size="12" fill="#333333" clip-path="url('#clipping-rect1')" >16 K</text>
		<line x1="659.07" y1="33.00" x2="659.07" y2="15.11" stroke="#7f7f7f" stroke-width="1.00" clip-path="url('#clipping-rect1')" />
		<text x="578.69" y="25.63" font-family="Helvetica" font-size="12" fill="#333333" clip-path="url('#clipping-rect1')" >14 K</text>
		<line x1="576.69" y1="33.00" x2="576.69" y2="15.11" stroke="#7f7f7f" stroke-width="1.00" clip-path="url('#clipping-rect1')" />
		<text x="496.30" y="25.63" font-family="Helvetica" font-size="12" fill="#333333" clip-path="url('#clipping-rect1')" >12 K</text>
		<line x1="494.30" y1="33.00" x2="494.30" y2="15.11" stroke="#7f7f7f" stroke-width="1.00" clip-path="url('#clipping-rect1')" />
		<text x="413.91" y="25.63" font-family="Helvetica" font-size="12" fill="#333333" clip-path="url('#clipping-rect1')" >10 K</text>
		<line x1="411.91" y1="33.00" x2="411.91" y2="15.11" stroke="#7f7f7f" stroke-width="1.00" clip-path="url('#clipping-rect1')" />
		<text x="331.53" y="25.63" font-family="Helvetica" font-size="12" fill="#333333" clip-path="url('#clipping-rect1')" >8 K</text>
		<line x1="329.53" y1="33.00" x2="329.53" y2="15.11" stroke="#7f7f7f" stroke-width="1.00" clip-path="url('#clipping-rect1')" />
		<text x="249.14" y="25.63" font-family="Helvetica" font-size="12" fill="#333333" clip-path="url('#clipping-rect1')" >6 K</text>
		<line x1="247.14" y1="33.00" x2="247.14" y2="15.11" stroke="#7f7f7f" stroke-width="1.00" clip-path="url('#clipping-rect1')" />
		<text x="166.75" y="25.63" font-family="Helvetica" font-size="12" fill="#333333" clip-path="url('#clipping-rect1')" >4 K</text>
		<line x1="164.75" y1="33.00" x2="164.75" y2="15.11" stroke="#7f7f7f" stroke-width="1.00" clip-path="url('#clipping-rect1')" />
		<text x="84.37" y="25.63" font-family="Helvetica" font-size="12" fill="#333333" clip-path="url('#clipping-rect1')" >2 K</text>
		<line x1="82.37" y1="33.00" x2="82.37" y2="15.11" stroke="#7f7f7f" stroke-width="1.00" clip-path="url('#clipping-rect1')" />
		<line x1="0.00" y1="147.00" x2="0.00" y2="33.00" stroke="#ebebeb" stroke-width="1.00" />
		<line x1="82.09" y1="147.00" x2="82.09" y2="33.00" stroke="#ebebeb" stroke-width="1.00" />
		<line x1="164.18" y1="147.00" x2="164.18" y2="33.00" stroke="#ebebeb" stroke-width="1.00" />
		<line x1="247.28" y1="147.00" x2="247.28" y2="33.00" stroke="#ebebeb" stroke-width="1.00" />
		<line x1="329.37" y1="147.00" x2="329.37" y2="33.00" stroke="#ebebeb" stroke-width="1.00" />
		<line x1="411.46" y1="147.00" x2="411.46" y2="33.00" stroke="#ebebeb" stroke-width="1.00" />
		<line x1="494.55" y1="147.00" x2="494.55" y2="33.00" stroke="#ebebeb" stroke-width="1.00" />
		<line x1="576.65" y1="147.00" x2="576.65" y2="33.00" stroke="#ebebeb" stroke-width="1.00" />
		<line x1="659.74" y1="147.00" x2="659.74" y2="33.00" stroke="#ebebeb" stroke-width="1.00" />
		<line x1="741.83" y1="147.00" x2="741.83" y2="33.00" stroke="#ebebeb" stroke-width="1.00" />
		<line x1="823.92" y1="147.00" x2="823.92" y2="33.00" stroke="#ebebeb" stroke-width="1.00" />
		<polygon fill="url('#gradient1')" shape-rendering="crispEdges" points="892.00,40.00 892.00,35.00 0.00,35.00 0.00,40.00 0.00,45.00 892.00,45.00 " />
		<line x1="0.00" y1="45.00" x2="0.00" y2="35.00" stroke="#6c6c6c" stroke-width="1.00" stroke-linejoin="round" />
		<line x1="0.00" y1="35.00" x2="892.00" y2="35.00" stroke="#6c6c6c" stroke-width="1.00" stroke-linejoin="round" />
		<line x1="892.00" y1="35.00" x2="892.00" y2="45.00" stroke="#6c6c6c" stroke-width="1.00" stroke-linejoin="round" />
		<line x1="0.00" y1="45.00" x2="892.00" y2="45.00" stroke="#6c6c6c" stroke-width="1.00" stroke-linejoin="round" />
		<polygon fill="url('#gradient2')" shape-rendering="crispEdges" points="892.00,39.50 892.00,46.00 0.00,46.00 0.00,39.50 0.00,33.00 892.00,33.00 " />
		<polygon fill="url('#gradient3')" shape-rendering="crispEdges" points="484.27,76.40 484.27,82.40 32.17,82.40 32.17,76.40 32.17,70.40 484.27,70.40 " />
		<polygon fill="url('#gradient3')" shape-rendering="crispEdges" points="484.27,76.40 484.27,84.80 492.67,76.40 484.27,68.00 " />
		<polygon fill="#8ab698" shape-rendering="crispEdges" points="32.17,76.40 32.17,70.40 23.77,70.40 " />
		<polygon fill="#8ab698" shape-rendering="crispEdges" points="32.17,76.40 32.17,82.40 23.77,82.40 " />
		<line x1="23.77" y1="70.40" x2="32.17" y2="70.40" stroke="#166e32" stroke-width="1.50" />
		<line x1="23.77" y1="70.40" x2="32.17" y2="76.40" stroke="#166e32" stroke-width="1.50" />
		<line x1="23.77" y1="82.40" x2="32.17" y2="82.40" stroke="#166e32" stroke-width="1.50" />
		<line x1="23.77" y1="82.40" x2="32.17" y2="76.40" stroke="#166e32" stroke-width="1.50" />
		<text x="237.64" y="80.90" font-family="Helvetica" font-size="12" fill="#ffffff" >WDR93</text>
		<polygon fill="#ffffff" shape-rendering="crispEdges" points="63.02,76.40 53.42,71.60 55.82,76.40 53.42,81.20 " />
		<polygon fill="#e0e0e0" shape-rendering="crispEdges" points="163.02,76.40 153.42,71.60 155.82,76.40 153.42,81.20 " />
		<polygon fill="#ffffff" shape-rendering="crispEdges" points="363.02,76.40 353.42,71.60 355.82,76.40 353.42,81.20 " />
		<polygon fill="#e0e0e0" shape-rendering="crispEdges" points="463.02,76.40 453.42,71.60 455.82,76.40 453.42,81.20 " />
		<polygon fill="url('#gradient4')" shape-rendering="crispEdges" points="0.00,62.00 892.04,62.00 892.04,47.00 0.00,47.00 " clip-path="url('#clipping-rect2')" />
		<text x="0.00" y="58.00" font-family="Helvetica" font-size="14" fill="#333333" >Genes, NCBI Haliaeetus albicilla Annotation Release 100, 2014-10-28</text>
		<polygon fill="url('#gradient5')" shape-rendering="crispEdges" points="131.98,140.72 0.00,140.72 0.00,143.80 131.98,143.80 " />
		<polygon fill="url('#gradient6')" shape-rendering="crispEdges" points="131.98,131.80 131.98,143.80 133.01,143.80 133.01,131.80 133.01,123.29 131.98,123.29 " />
		<polygon fill="url('#gradient7')" shape-rendering="crispEdges" points="133.01,131.80 133.01,143.80 134.01,143.80 134.01,131.80 134.01,115.08 133.01,115.08 " />
		<polygon fill="url('#gradient8')" shape-rendering="crispEdges" points="134.00,131.80 134.00,143.80 135.00,143.80 135.00,131.80 135.00,105.85 134.00,105.85 " />
		<polygon fill="url('#gradient9')" shape-rendering="crispEdges" points="134.99,131.80 134.99,143.80 136.02,143.80 136.02,131.80 136.02,104.83 134.99,104.83 " />
		<polygon fill="url('#gradient10')" shape-rendering="crispEdges" points="136.01,131.80 136.01,143.80 137.01,143.80 137.01,131.80 137.01,103.80 136.01,103.80 " />
		<polygon fill="url('#gradient8')" shape-rendering="crispEdges" points="137.00,131.80 137.00,143.80 138.00,143.80 138.00,131.80 138.00,105.85 137.00,105.85 " />
		<polygon fill="url('#gradient11')" shape-rendering="crispEdges" points="137.99,131.80 137.99,143.80 138.99,143.80 138.99,131.80 138.99,108.42 137.99,108.42 " />
		<polygon fill="url('#gradient12')" shape-rendering="crispEdges" points="138.99,131.80 138.99,143.80 140.02,143.80 140.02,131.80 140.02,107.08 138.99,107.08 " />
		<polygon fill="url('#gradient10')" shape-rendering="crispEdges" points="140.02,131.80 140.02,143.80 141.99,143.80 141.99,131.80 141.99,103.80 140.02,103.80 " />
		<polygon fill="url('#gradient8')" shape-rendering="crispEdges" points="141.99,131.80 141.99,143.80 142.99,143.80 142.99,131.80 142.99,105.85 141.99,105.85 " />
		<polygon fill="url('#gradient12')" shape-rendering="crispEdges" points="142.98,131.80 142.98,143.80 144.01,143.80 144.01,131.80 144.01,107.08 142.98,107.08 " />
		<polygon fill="url('#gradient13')" shape-rendering="crispEdges" points="144.01,131.80 144.01,143.80 145.01,143.80 145.01,131.80 145.01,117.34 144.01,117.34 " />
		<polygon fill="url('#gradient5')" shape-rendering="crispEdges" points="892.00,140.72 145.00,140.72 145.00,143.80 892.00,143.80 " />
		<line x1="22.30" y1="103.80" x2="22.30" y2="143.80" stroke="#b9d3ee" stroke-opacity="0.50" stroke-width="1.00" />
		<text x="23.30" y="110.80" font-family="Helvetica" font-size="8" fill="#707c80" >15</text>
		<line x1="0.00" y1="103.80" x2="892.04" y2="103.80" stroke="#b9d3ee" stroke-opacity="0.40" stroke-width="1.00" />
		<line x1="0.00" y1="143.80" x2="892.04" y2="143.80" stroke="#b9d3ee" stroke-opacity="0.40" stroke-width="1.00" />
		<line x1="0.00" y1="123.29" x2="892.04" y2="123.29" stroke="#b9d3ee" stroke-opacity="0.40" stroke-width="1.00" />
		<text x="23.30" y="130.29" font-family="Helvetica" font-size="8" fill="#707c80" >4</text>
		<line x1="245.31" y1="103.80" x2="245.31" y2="143.80" stroke="#b9d3ee" stroke-opacity="0.50" stroke-width="1.00" />
		<text x="246.31" y="110.80" font-family="Helvetica" font-size="8" fill="#707c80" >15</text>
		<line x1="0.00" y1="143.80" x2="892.04" y2="143.80" stroke="#b9d3ee" stroke-opacity="0.40" stroke-width="1.00" />
		<text x="246.31" y="130.29" font-family="Helvetica" font-size="8" fill="#707c80" >4</text>
		<line x1="468.32" y1="103.80" x2="468.32" y2="143.80" stroke="#b9d3ee" stroke-opacity="0.50" stroke-width="1.00" />
		<text x="469.32" y="110.80" font-family="Helvetica" font-size="8" fill="#707c80" >15</text>
		<line x1="0.00" y1="143.80" x2="892.04" y2="143.80" stroke="#b9d3ee" stroke-opacity="0.40" stroke-width="1.00" />
		<text x="469.32" y="130.29" font-family="Helvetica" font-size="8" fill="#707c80" >4</text>
		<line x1="691.33" y1="103.80" x2="691.33" y2="143.80" stroke="#b9d3ee" stroke-opacity="0.50" stroke-width="1.00" />
		<text x="692.33" y="110.80" font-family="Helvetica" font-size="8" fill="#707c80" >15</text>
		<line x1="0.00" y1="143.80" x2="892.04" y2="143.80" stroke="#b9d3ee" stroke-opacity="0.40" stroke-width="1.00" />
		<text x="692.33" y="130.29" font-family="Helvetica" font-size="8" fill="#707c80" >4</text>
		<polygon fill="url('#gradient4')" shape-rendering="crispEdges" points="0.00,101.80 892.04,101.80 892.04,86.80 0.00,86.80 " clip-path="url('#clipping-rect2')" />
		<text x="0.00" y="97.80" font-family="Helvetica" font-size="14" fill="#333333" >RNA-seq exon coverage, aggregate (filtered), NCBI Haliaeetus albicilla Annotation Release 100 - log 2 scaled</text>
		<polygon fill="#e5e5e5" shape-rendering="crispEdges" points="892.00,13.00 892.00,-1.00 0.00,-1.00 0.00,13.00 " />
		<text x="0.00" y="10.00" font-family="Helvetica Bold" font-size="12" text-anchor="start" fill="#000000" >NW_009764589.1:0..21654 Haliaeetus albicilla isolate BGI_N329 unplaced genomic scaffold, ASM69140v1 Scaffold47843, whole genome shotgun sequence</text>
	</g>
</svg>
