<?xml version="1.0" standalone="no" ?>
<!DOCTYPE svg PUBLIC "-//W3C//DTD SVG 1.1//EN" "http://www.w3.org/Graphics/SVG/1.1/DTD/svg11.dtd">
<svg width="892px" height="89px" xmlns="http://www.w3.org/2000/svg" version="1.1" viewBox="0 0 892 89" >
	<style type="text/css" > <![CDATA[
		@import url("https://www.ncbi.nlm.nih.gov/projects/sviewer/css/svg_fonts.css");
	]]>
	</style>
	<desc >Generated by NCBI Genome Workbench http://www.ncbi.nlm.nih.gov/tools/gbench/</desc>
	<defs >
		<clipPath id="clipping-rect1" >
			<rect x="0" y="14" width="892" height="20" />
		</clipPath>
		<linearGradient id="gradient1" gradientTransform="rotate(90)" >
			<stop offset="0%" stop-color="#6c6c6c" />
			<stop offset="50%" stop-color="#b5b5b5" />
			<stop offset="100%" stop-color="#6c6c6c" />
		</linearGradient>
		<linearGradient id="gradient2" gradientTransform="rotate(90)" >
			<stop offset="0%" stop-color="#10c010" />
			<stop offset="50%" stop-color="#87df87" />
			<stop offset="100%" stop-color="#10c010" />
		</linearGradient>
		<linearGradient id="gradient3" gradientTransform="rotate(90)" >
			<stop offset="0%" stop-color="#166e32" />
			<stop offset="50%" stop-color="#8ab698" />
			<stop offset="100%" stop-color="#166e32" />
		</linearGradient>
		<clipPath id="clipping-rect2" >
			<rect x="0" y="34" width="892" height="55" />
		</clipPath>
		<linearGradient id="gradient4" gradientTransform="rotate(90)" >
			<stop offset="0%" stop-color="#e6e6e6" stop-opacity="0.71" />
			<stop offset="100%" stop-color="#ffffff" stop-opacity="0.00" />
		</linearGradient>
	</defs>
	<g >
		<polygon fill="#ffffff" shape-rendering="crispEdges" points="892.00,33.00 892.00,13.00 0.00,13.00 0.00,33.00 " />
		<line x1="0.01" y1="30.89" x2="892.00" y2="30.89" stroke="#7f7f7f" stroke-width="1.00" clip-path="url('#clipping-rect1')" />
		<line x1="8.65" y1="30.89" x2="8.65" y2="28.79" stroke="#7f7f7f" stroke-width="1.00" clip-path="url('#clipping-rect1')" />
		<line x1="17.31" y1="30.89" x2="17.31" y2="27.74" stroke="#7f7f7f" stroke-width="1.00" clip-path="url('#clipping-rect1')" />
		<line x1="25.97" y1="30.89" x2="25.97" y2="28.79" stroke="#7f7f7f" stroke-width="1.00" clip-path="url('#clipping-rect1')" />
		<line x1="34.63" y1="30.89" x2="34.63" y2="27.74" stroke="#7f7f7f" stroke-width="1.00" clip-path="url('#clipping-rect1')" />
		<line x1="43.29" y1="30.89" x2="43.29" y2="28.79" stroke="#7f7f7f" stroke-width="1.00" clip-path="url('#clipping-rect1')" />
		<line x1="51.95" y1="30.89" x2="51.95" y2="27.74" stroke="#7f7f7f" stroke-width="1.00" clip-path="url('#clipping-rect1')" />
		<line x1="60.61" y1="30.89" x2="60.61" y2="28.79" stroke="#7f7f7f" stroke-width="1.00" clip-path="url('#clipping-rect1')" />
		<line x1="69.27" y1="30.89" x2="69.27" y2="27.74" stroke="#7f7f7f" stroke-width="1.00" clip-path="url('#clipping-rect1')" />
		<line x1="77.93" y1="30.89" x2="77.93" y2="28.79" stroke="#7f7f7f" stroke-width="1.00" clip-path="url('#clipping-rect1')" />
		<line x1="86.59" y1="30.89" x2="86.59" y2="27.74" stroke="#7f7f7f" stroke-width="1.00" clip-path="url('#clipping-rect1')" />
		<line x1="95.26" y1="30.89" x2="95.26" y2="28.79" stroke="#7f7f7f" stroke-width="1.00" clip-path="url('#clipping-rect1')" />
		<line x1="103.92" y1="30.89" x2="103.92" y2="27.74" stroke="#7f7f7f" stroke-width="1.00" clip-path="url('#clipping-rect1')" />
		<line x1="112.58" y1="30.89" x2="112.58" y2="28.79" stroke="#7f7f7f" stroke-width="1.00" clip-path="url('#clipping-rect1')" />
		<line x1="121.24" y1="30.89" x2="121.24" y2="27.74" stroke="#7f7f7f" stroke-width="1.00" clip-path="url('#clipping-rect1')" />
		<line x1="129.90" y1="30.89" x2="129.90" y2="28.79" stroke="#7f7f7f" stroke-width="1.00" clip-path="url('#clipping-rect1')" />
		<line x1="138.56" y1="30.89" x2="138.56" y2="27.74" stroke="#7f7f7f" stroke-width="1.00" clip-path="url('#clipping-rect1')" />
		<line x1="147.22" y1="30.89" x2="147.22" y2="28.79" stroke="#7f7f7f" stroke-width="1.00" clip-path="url('#clipping-rect1')" />
		<line x1="155.88" y1="30.89" x2="155.88" y2="27.74" stroke="#7f7f7f" stroke-width="1.00" clip-path="url('#clipping-rect1')" />
		<line x1="164.54" y1="30.89" x2="164.54" y2="28.79" stroke="#7f7f7f" stroke-width="1.00" clip-path="url('#clipping-rect1')" />
		<line x1="173.20" y1="30.89" x2="173.20" y2="27.74" stroke="#7f7f7f" stroke-width="1.00" clip-path="url('#clipping-rect1')" />
		<line x1="181.86" y1="30.89" x2="181.86" y2="28.79" stroke="#7f7f7f" stroke-width="1.00" clip-path="url('#clipping-rect1')" />
		<line x1="190.52" y1="30.89" x2="190.52" y2="27.74" stroke="#7f7f7f" stroke-width="1.00" clip-path="url('#clipping-rect1')" />
		<line x1="199.18" y1="30.89" x2="199.18" y2="28.79" stroke="#7f7f7f" stroke-width="1.00" clip-path="url('#clipping-rect1')" />
		<line x1="207.84" y1="30.89" x2="207.84" y2="27.74" stroke="#7f7f7f" stroke-width="1.00" clip-path="url('#clipping-rect1')" />
		<line x1="216.50" y1="30.89" x2="216.50" y2="28.79" stroke="#7f7f7f" stroke-width="1.00" clip-path="url('#clipping-rect1')" />
		<line x1="225.16" y1="30.89" x2="225.16" y2="27.74" stroke="#7f7f7f" stroke-width="1.00" clip-path="url('#clipping-rect1')" />
		<line x1="233.82" y1="30.89" x2="233.82" y2="28.79" stroke="#7f7f7f" stroke-width="1.00" clip-path="url('#clipping-rect1')" />
		<line x1="242.48" y1="30.89" x2="242.48" y2="27.74" stroke="#7f7f7f" stroke-width="1.00" clip-path="url('#clipping-rect1')" />
		<line x1="251.14" y1="30.89" x2="251.14" y2="28.79" stroke="#7f7f7f" stroke-width="1.00" clip-path="url('#clipping-rect1')" />
		<line x1="259.80" y1="30.89" x2="259.80" y2="27.74" stroke="#7f7f7f" stroke-width="1.00" clip-path="url('#clipping-rect1')" />
		<line x1="268.46" y1="30.89" x2="268.46" y2="28.79" stroke="#7f7f7f" stroke-width="1.00" clip-path="url('#clipping-rect1')" />
		<line x1="277.12" y1="30.89" x2="277.12" y2="27.74" stroke="#7f7f7f" stroke-width="1.00" clip-path="url('#clipping-rect1')" />
		<line x1="285.78" y1="30.89" x2="285.78" y2="28.79" stroke="#7f7f7f" stroke-width="1.00" clip-path="url('#clipping-rect1')" />
		<line x1="294.44" y1="30.89" x2="294.44" y2="27.74" stroke="#7f7f7f" stroke-width="1.00" clip-path="url('#clipping-rect1')" />
		<line x1="303.10" y1="30.89" x2="303.10" y2="28.79" stroke="#7f7f7f" stroke-width="1.00" clip-path="url('#clipping-rect1')" />
		<line x1="311.76" y1="30.89" x2="311.76" y2="27.74" stroke="#7f7f7f" stroke-width="1.00" clip-path="url('#clipping-rect1')" />
		<line x1="320.42" y1="30.89" x2="320.42" y2="28.79" stroke="#7f7f7f" stroke-width="1.00" clip-path="url('#clipping-rect1')" />
		<line x1="329.09" y1="30.89" x2="329.09" y2="27.74" stroke="#7f7f7f" stroke-width="1.00" clip-path="url('#clipping-rect1')" />
		<line x1="337.75" y1="30.89" x2="337.75" y2="28.79" stroke="#7f7f7f" stroke-width="1.00" clip-path="url('#clipping-rect1')" />
		<line x1="346.41" y1="30.89" x2="346.41" y2="27.74" stroke="#7f7f7f" stroke-width="1.00" clip-path="url('#clipping-rect1')" />
		<line x1="355.07" y1="30.89" x2="355.07" y2="28.79" stroke="#7f7f7f" stroke-width="1.00" clip-path="url('#clipping-rect1')" />
		<line x1="363.73" y1="30.89" x2="363.73" y2="27.74" stroke="#7f7f7f" stroke-width="1.00" clip-path="url('#clipping-rect1')" />
		<line x1="372.39" y1="30.89" x2="372.39" y2="28.79" stroke="#7f7f7f" stroke-width="1.00" clip-path="url('#clipping-rect1')" />
		<line x1="381.05" y1="30.89" x2="381.05" y2="27.74" stroke="#7f7f7f" stroke-width="1.00" clip-path="url('#clipping-rect1')" />
		<line x1="389.71" y1="30.89" x2="389.71" y2="28.79" stroke="#7f7f7f" stroke-width="1.00" clip-path="url('#clipping-rect1')" />
		<line x1="398.37" y1="30.89" x2="398.37" y2="27.74" stroke="#7f7f7f" stroke-width="1.00" clip-path="url('#clipping-rect1')" />
		<line x1="407.03" y1="30.89" x2="407.03" y2="28.79" stroke="#7f7f7f" stroke-width="1.00" clip-path="url('#clipping-rect1')" />
		<line x1="415.69" y1="30.89" x2="415.69" y2="27.74" stroke="#7f7f7f" stroke-width="1.00" clip-path="url('#clipping-rect1')" />
		<line x1="424.35" y1="30.89" x2="424.35" y2="28.79" stroke="#7f7f7f" stroke-width="1.00" clip-path="url('#clipping-rect1')" />
		<line x1="433.01" y1="30.89" x2="433.01" y2="27.74" stroke="#7f7f7f" stroke-width="1.00" clip-path="url('#clipping-rect1')" />
		<line x1="441.67" y1="30.89" x2="441.67" y2="28.79" stroke="#7f7f7f" stroke-width="1.00" clip-path="url('#clipping-rect1')" />
		<line x1="450.33" y1="30.89" x2="450.33" y2="27.74" stroke="#7f7f7f" stroke-width="1.00" clip-path="url('#clipping-rect1')" />
		<line x1="458.99" y1="30.89" x2="458.99" y2="28.79" stroke="#7f7f7f" stroke-width="1.00" clip-path="url('#clipping-rect1')" />
		<line x1="467.65" y1="30.89" x2="467.65" y2="27.74" stroke="#7f7f7f" stroke-width="1.00" clip-path="url('#clipping-rect1')" />
		<line x1="476.31" y1="30.89" x2="476.31" y2="28.79" stroke="#7f7f7f" stroke-width="1.00" clip-path="url('#clipping-rect1')" />
		<line x1="484.97" y1="30.89" x2="484.97" y2="27.74" stroke="#7f7f7f" stroke-width="1.00" clip-path="url('#clipping-rect1')" />
		<line x1="493.63" y1="30.89" x2="493.63" y2="28.79" stroke="#7f7f7f" stroke-width="1.00" clip-path="url('#clipping-rect1')" />
		<line x1="502.29" y1="30.89" x2="502.29" y2="27.74" stroke="#7f7f7f" stroke-width="1.00" clip-path="url('#clipping-rect1')" />
		<line x1="510.95" y1="30.89" x2="510.95" y2="28.79" stroke="#7f7f7f" stroke-width="1.00" clip-path="url('#clipping-rect1')" />
		<line x1="519.61" y1="30.89" x2="519.61" y2="27.74" stroke="#7f7f7f" stroke-width="1.00" clip-path="url('#clipping-rect1')" />
		<line x1="528.27" y1="30.89" x2="528.27" y2="28.79" stroke="#7f7f7f" stroke-width="1.00" clip-path="url('#clipping-rect1')" />
		<line x1="536.93" y1="30.89" x2="536.93" y2="27.74" stroke="#7f7f7f" stroke-width="1.00" clip-path="url('#clipping-rect1')" />
		<line x1="545.59" y1="30.89" x2="545.59" y2="28.79" stroke="#7f7f7f" stroke-width="1.00" clip-path="url('#clipping-rect1')" />
		<line x1="554.25" y1="30.89" x2="554.25" y2="27.74" stroke="#7f7f7f" stroke-width="1.00" clip-path="url('#clipping-rect1')" />
		<line x1="562.91" y1="30.89" x2="562.91" y2="28.79" stroke="#7f7f7f" stroke-width="1.00" clip-path="url('#clipping-rect1')" />
		<line x1="571.58" y1="30.89" x2="571.58" y2="27.74" stroke="#7f7f7f" stroke-width="1.00" clip-path="url('#clipping-rect1')" />
		<line x1="580.24" y1="30.89" x2="580.24" y2="28.79" stroke="#7f7f7f" stroke-width="1.00" clip-path="url('#clipping-rect1')" />
		<line x1="588.90" y1="30.89" x2="588.90" y2="27.74" stroke="#7f7f7f" stroke-width="1.00" clip-path="url('#clipping-rect1')" />
		<line x1="597.56" y1="30.89" x2="597.56" y2="28.79" stroke="#7f7f7f" stroke-width="1.00" clip-path="url('#clipping-rect1')" />
		<line x1="606.22" y1="30.89" x2="606.22" y2="27.74" stroke="#7f7f7f" stroke-width="1.00" clip-path="url('#clipping-rect1')" />
		<line x1="614.88" y1="30.89" x2="614.88" y2="28.79" stroke="#7f7f7f" stroke-width="1.00" clip-path="url('#clipping-rect1')" />
		<line x1="623.54" y1="30.89" x2="623.54" y2="27.74" stroke="#7f7f7f" stroke-width="1.00" clip-path="url('#clipping-rect1')" />
		<line x1="632.20" y1="30.89" x2="632.20" y2="28.79" stroke="#7f7f7f" stroke-width="1.00" clip-path="url('#clipping-rect1')" />
		<line x1="640.86" y1="30.89" x2="640.86" y2="27.74" stroke="#7f7f7f" stroke-width="1.00" clip-path="url('#clipping-rect1')" />
		<line x1="649.52" y1="30.89" x2="649.52" y2="28.79" stroke="#7f7f7f" stroke-width="1.00" clip-path="url('#clipping-rect1')" />
		<line x1="658.18" y1="30.89" x2="658.18" y2="27.74" stroke="#7f7f7f" stroke-width="1.00" clip-path="url('#clipping-rect1')" />
		<line x1="666.84" y1="30.89" x2="666.84" y2="28.79" stroke="#7f7f7f" stroke-width="1.00" clip-path="url('#clipping-rect1')" />
		<line x1="675.50" y1="30.89" x2="675.50" y2="27.74" stroke="#7f7f7f" stroke-width="1.00" clip-path="url('#clipping-rect1')" />
		<line x1="684.16" y1="30.89" x2="684.16" y2="28.79" stroke="#7f7f7f" stroke-width="1.00" clip-path="url('#clipping-rect1')" />
		<line x1="692.82" y1="30.89" x2="692.82" y2="27.74" stroke="#7f7f7f" stroke-width="1.00" clip-path="url('#clipping-rect1')" />
		<line x1="701.48" y1="30.89" x2="701.48" y2="28.79" stroke="#7f7f7f" stroke-width="1.00" clip-path="url('#clipping-rect1')" />
		<line x1="710.14" y1="30.89" x2="710.14" y2="27.74" stroke="#7f7f7f" stroke-width="1.00" clip-path="url('#clipping-rect1')" />
		<line x1="718.80" y1="30.89" x2="718.80" y2="28.79" stroke="#7f7f7f" stroke-width="1.00" clip-path="url('#clipping-rect1')" />
		<line x1="727.46" y1="30.89" x2="727.46" y2="27.74" stroke="#7f7f7f" stroke-width="1.00" clip-path="url('#clipping-rect1')" />
		<line x1="736.12" y1="30.89" x2="736.12" y2="28.79" stroke="#7f7f7f" stroke-width="1.00" clip-path="url('#clipping-rect1')" />
		<line x1="744.78" y1="30.89" x2="744.78" y2="27.74" stroke="#7f7f7f" stroke-width="1.00" clip-path="url('#clipping-rect1')" />
		<line x1="753.44" y1="30.89" x2="753.44" y2="28.79" stroke="#7f7f7f" stroke-width="1.00" clip-path="url('#clipping-rect1')" />
		<line x1="762.10" y1="30.89" x2="762.10" y2="27.74" stroke="#7f7f7f" stroke-width="1.00" clip-path="url('#clipping-rect1')" />
		<line x1="770.76" y1="30.89" x2="770.76" y2="28.79" stroke="#7f7f7f" stroke-width="1.00" clip-path="url('#clipping-rect1')" />
		<line x1="779.42" y1="30.89" x2="779.42" y2="27.74" stroke="#7f7f7f" stroke-width="1.00" clip-path="url('#clipping-rect1')" />
		<line x1="788.08" y1="30.89" x2="788.08" y2="28.79" stroke="#7f7f7f" stroke-width="1.00" clip-path="url('#clipping-rect1')" />
		<line x1="796.74" y1="30.89" x2="796.74" y2="27.74" stroke="#7f7f7f" stroke-width="1.00" clip-path="url('#clipping-rect1')" />
		<line x1="805.41" y1="30.89" x2="805.41" y2="28.79" stroke="#7f7f7f" stroke-width="1.00" clip-path="url('#clipping-rect1')" />
		<line x1="814.07" y1="30.89" x2="814.07" y2="27.74" stroke="#7f7f7f" stroke-width="1.00" clip-path="url('#clipping-rect1')" />
		<line x1="822.73" y1="30.89" x2="822.73" y2="28.79" stroke="#7f7f7f" stroke-width="1.00" clip-path="url('#clipping-rect1')" />
		<line x1="831.39" y1="30.89" x2="831.39" y2="27.74" stroke="#7f7f7f" stroke-width="1.00" clip-path="url('#clipping-rect1')" />
		<line x1="840.05" y1="30.89" x2="840.05" y2="28.79" stroke="#7f7f7f" stroke-width="1.00" clip-path="url('#clipping-rect1')" />
		<line x1="848.71" y1="30.89" x2="848.71" y2="27.74" stroke="#7f7f7f" stroke-width="1.00" clip-path="url('#clipping-rect1')" />
		<line x1="857.37" y1="30.89" x2="857.37" y2="28.79" stroke="#7f7f7f" stroke-width="1.00" clip-path="url('#clipping-rect1')" />
		<line x1="866.03" y1="30.89" x2="866.03" y2="27.74" stroke="#7f7f7f" stroke-width="1.00" clip-path="url('#clipping-rect1')" />
		<line x1="874.69" y1="30.89" x2="874.69" y2="28.79" stroke="#7f7f7f" stroke-width="1.00" clip-path="url('#clipping-rect1')" />
		<line x1="883.35" y1="30.89" x2="883.35" y2="27.74" stroke="#7f7f7f" stroke-width="1.00" clip-path="url('#clipping-rect1')" />
		<text x="0.01" y="25.63" font-family="Helvetica" font-size="12" fill="#333333" clip-path="url('#clipping-rect1')" >1</text>
		<line x1="0.01" y1="33.00" x2="0.01" y2="15.11" stroke="#7f7f7f" stroke-width="1.00" clip-path="url('#clipping-rect1')" />
		<line x1="866.03" y1="33.00" x2="866.03" y2="15.11" stroke="#7f7f7f" stroke-width="1.00" clip-path="url('#clipping-rect1')" />
		<text x="781.42" y="25.63" font-family="Helvetica" font-size="12" fill="#333333" clip-path="url('#clipping-rect1')" >45 K</text>
		<line x1="779.42" y1="33.00" x2="779.42" y2="15.11" stroke="#7f7f7f" stroke-width="1.00" clip-path="url('#clipping-rect1')" />
		<text x="694.82" y="25.63" font-family="Helvetica" font-size="12" fill="#333333" clip-path="url('#clipping-rect1')" >40 K</text>
		<line x1="692.82" y1="33.00" x2="692.82" y2="15.11" stroke="#7f7f7f" stroke-width="1.00" clip-path="url('#clipping-rect1')" />
		<text x="608.22" y="25.63" font-family="Helvetica" font-size="12" fill="#333333" clip-path="url('#clipping-rect1')" >35 K</text>
		<line x1="606.22" y1="33.00" x2="606.22" y2="15.11" stroke="#7f7f7f" stroke-width="1.00" clip-path="url('#clipping-rect1')" />
		<text x="521.61" y="25.63" font-family="Helvetica" font-size="12" fill="#333333" clip-path="url('#clipping-rect1')" >30 K</text>
		<line x1="519.61" y1="33.00" x2="519.61" y2="15.11" stroke="#7f7f7f" stroke-width="1.00" clip-path="url('#clipping-rect1')" />
		<text x="435.01" y="25.63" font-family="Helvetica" font-size="12" fill="#333333" clip-path="url('#clipping-rect1')" >25 K</text>
		<line x1="433.01" y1="33.00" x2="433.01" y2="15.11" stroke="#7f7f7f" stroke-width="1.00" clip-path="url('#clipping-rect1')" />
		<text x="348.41" y="25.63" font-family="Helvetica" font-size="12" fill="#333333" clip-path="url('#clipping-rect1')" >20 K</text>
		<line x1="346.41" y1="33.00" x2="346.41" y2="15.11" stroke="#7f7f7f" stroke-width="1.00" clip-path="url('#clipping-rect1')" />
		<text x="261.80" y="25.63" font-family="Helvetica" font-size="12" fill="#333333" clip-path="url('#clipping-rect1')" >15 K</text>
		<line x1="259.80" y1="33.00" x2="259.80" y2="15.11" stroke="#7f7f7f" stroke-width="1.00" clip-path="url('#clipping-rect1')" />
		<text x="175.20" y="25.63" font-family="Helvetica" font-size="12" fill="#333333" clip-path="url('#clipping-rect1')" >10 K</text>
		<line x1="173.20" y1="33.00" x2="173.20" y2="15.11" stroke="#7f7f7f" stroke-width="1.00" clip-path="url('#clipping-rect1')" />
		<text x="88.59" y="25.63" font-family="Helvetica" font-size="12" fill="#333333" clip-path="url('#clipping-rect1')" >5 K</text>
		<line x1="86.59" y1="33.00" x2="86.59" y2="15.11" stroke="#7f7f7f" stroke-width="1.00" clip-path="url('#clipping-rect1')" />
		<line x1="0.00" y1="88.00" x2="0.00" y2="33.00" stroke="#ebebeb" stroke-width="1.00" />
		<line x1="86.10" y1="88.00" x2="86.10" y2="33.00" stroke="#ebebeb" stroke-width="1.00" />
		<line x1="173.19" y1="88.00" x2="173.19" y2="33.00" stroke="#ebebeb" stroke-width="1.00" />
		<line x1="259.29" y1="88.00" x2="259.29" y2="33.00" stroke="#ebebeb" stroke-width="1.00" />
		<line x1="346.39" y1="88.00" x2="346.39" y2="33.00" stroke="#ebebeb" stroke-width="1.00" />
		<line x1="433.49" y1="88.00" x2="433.49" y2="33.00" stroke="#ebebeb" stroke-width="1.00" />
		<line x1="519.58" y1="88.00" x2="519.58" y2="33.00" stroke="#ebebeb" stroke-width="1.00" />
		<line x1="606.68" y1="88.00" x2="606.68" y2="33.00" stroke="#ebebeb" stroke-width="1.00" />
		<line x1="692.78" y1="88.00" x2="692.78" y2="33.00" stroke="#ebebeb" stroke-width="1.00" />
		<line x1="779.87" y1="88.00" x2="779.87" y2="33.00" stroke="#ebebeb" stroke-width="1.00" />
		<line x1="866.97" y1="88.00" x2="866.97" y2="33.00" stroke="#ebebeb" stroke-width="1.00" />
		<polygon fill="url('#gradient1')" shape-rendering="crispEdges" points="892.00,40.00 892.00,35.00 0.00,35.00 0.00,40.00 0.00,45.00 892.00,45.00 " />
		<line x1="0.00" y1="45.00" x2="0.00" y2="35.00" stroke="#6c6c6c" stroke-width="1.00" stroke-linejoin="round" />
		<line x1="0.00" y1="35.00" x2="892.00" y2="35.00" stroke="#6c6c6c" stroke-width="1.00" stroke-linejoin="round" />
		<line x1="892.00" y1="35.00" x2="892.00" y2="45.00" stroke="#6c6c6c" stroke-width="1.00" stroke-linejoin="round" />
		<line x1="0.00" y1="45.00" x2="892.00" y2="45.00" stroke="#6c6c6c" stroke-width="1.00" stroke-linejoin="round" />
		<polygon fill="url('#gradient2')" shape-rendering="crispEdges" points="892.00,39.50 892.00,46.00 0.00,46.00 0.00,39.50 0.00,33.00 892.00,33.00 " />
		<line x1="347.00" y1="33.00" x2="347.00" y2="46.00" stroke="#101010" stroke-width="1.00" />
		<line x1="853.00" y1="33.00" x2="853.00" y2="46.00" stroke="#101010" stroke-width="1.00" />
		<polygon fill="url('#gradient3')" shape-rendering="crispEdges" points="203.59,76.40 203.59,82.40 17.94,82.40 17.94,76.40 17.94,70.40 203.59,70.40 " />
		<polygon fill="url('#gradient3')" shape-rendering="crispEdges" points="203.59,76.40 203.59,84.80 211.99,76.40 203.59,68.00 " />
		<polygon fill="#8ab698" shape-rendering="crispEdges" points="17.94,76.40 17.94,70.40 9.54,70.40 " />
		<polygon fill="#8ab698" shape-rendering="crispEdges" points="17.94,76.40 17.94,82.40 9.54,82.40 " />
		<line x1="9.54" y1="70.40" x2="17.94" y2="70.40" stroke="#166e32" stroke-width="1.50" />
		<line x1="9.54" y1="70.40" x2="17.94" y2="76.40" stroke="#166e32" stroke-width="1.50" />
		<line x1="9.54" y1="82.40" x2="17.94" y2="82.40" stroke="#166e32" stroke-width="1.50" />
		<line x1="9.54" y1="82.40" x2="17.94" y2="76.40" stroke="#166e32" stroke-width="1.50" />
		<polygon fill="#ffffff" shape-rendering="crispEdges" points="65.57,76.40 55.97,71.60 58.37,76.40 55.97,81.20 " />
		<polygon fill="#e0e0e0" shape-rendering="crispEdges" points="165.57,76.40 155.97,71.60 158.37,76.40 155.97,81.20 " />
		<polygon fill="url('#gradient4')" shape-rendering="crispEdges" points="0.00,62.00 892.02,62.00 892.02,47.00 0.00,47.00 " clip-path="url('#clipping-rect2')" />
		<text x="0.00" y="58.00" font-family="Helvetica" font-size="14" fill="#333333" >Genes, NCBI Merops nubicus Annotation Release 100, 2014-09-02</text>
		<polygon fill="#e5e5e5" shape-rendering="crispEdges" points="892.00,13.00 892.00,-1.00 0.00,-1.00 0.00,13.00 " />
		<text x="0.00" y="10.00" font-family="Helvetica Bold" font-size="12" text-anchor="start" fill="#000000" >NW_008607646.1:0..51499 Merops nubicus isolate BGI_N331 unplaced genomic scaffold, ASM69184v1 scaffold11515, whole genome shotgun sequence</text>
	</g>
</svg>
