<?xml version="1.0" standalone="no" ?>
<!DOCTYPE svg PUBLIC "-//W3C//DTD SVG 1.1//EN" "http://www.w3.org/Graphics/SVG/1.1/DTD/svg11.dtd">
<svg width="892px" height="89px" xmlns="http://www.w3.org/2000/svg" version="1.1" viewBox="0 0 892 89" >
	<style type="text/css" > <![CDATA[
		@import url("https://www.ncbi.nlm.nih.gov/projects/sviewer/css/svg_fonts.css");
	]]>
	</style>
	<desc >Generated by NCBI Genome Workbench http://www.ncbi.nlm.nih.gov/tools/gbench/</desc>
	<defs >
		<clipPath id="clipping-rect1" >
			<rect x="0" y="14" width="892" height="20" />
		</clipPath>
		<linearGradient id="gradient1" gradientTransform="rotate(90)" >
			<stop offset="0%" stop-color="#6c6c6c" />
			<stop offset="50%" stop-color="#b5b5b5" />
			<stop offset="100%" stop-color="#6c6c6c" />
		</linearGradient>
		<linearGradient id="gradient2" gradientTransform="rotate(90)" >
			<stop offset="0%" stop-color="#10c010" />
			<stop offset="50%" stop-color="#87df87" />
			<stop offset="100%" stop-color="#10c010" />
		</linearGradient>
		<linearGradient id="gradient3" gradientTransform="rotate(90)" >
			<stop offset="0%" stop-color="#166e32" />
			<stop offset="50%" stop-color="#8ab698" />
			<stop offset="100%" stop-color="#166e32" />
		</linearGradient>
		<clipPath id="clipping-rect2" >
			<rect x="0" y="34" width="892" height="55" />
		</clipPath>
		<linearGradient id="gradient4" gradientTransform="rotate(90)" >
			<stop offset="0%" stop-color="#e6e6e6" stop-opacity="0.71" />
			<stop offset="100%" stop-color="#ffffff" stop-opacity="0.00" />
		</linearGradient>
	</defs>
	<g >
		<polygon fill="#ffffff" shape-rendering="crispEdges" points="892.00,33.00 892.00,13.00 0.00,13.00 0.00,33.00 " />
		<line x1="0.00" y1="31.00" x2="892.00" y2="31.00" stroke="#7f7f7f" stroke-width="1.00" clip-path="url('#clipping-rect1')" />
		<line x1="882.60" y1="31.00" x2="882.60" y2="28.00" stroke="#7f7f7f" stroke-width="1.00" clip-path="url('#clipping-rect1')" />
		<line x1="872.02" y1="31.00" x2="872.02" y2="29.00" stroke="#7f7f7f" stroke-width="1.00" clip-path="url('#clipping-rect1')" />
		<line x1="861.44" y1="31.00" x2="861.44" y2="28.00" stroke="#7f7f7f" stroke-width="1.00" clip-path="url('#clipping-rect1')" />
		<line x1="850.86" y1="31.00" x2="850.86" y2="29.00" stroke="#7f7f7f" stroke-width="1.00" clip-path="url('#clipping-rect1')" />
		<line x1="840.28" y1="31.00" x2="840.28" y2="28.00" stroke="#7f7f7f" stroke-width="1.00" clip-path="url('#clipping-rect1')" />
		<line x1="829.70" y1="31.00" x2="829.70" y2="29.00" stroke="#7f7f7f" stroke-width="1.00" clip-path="url('#clipping-rect1')" />
		<line x1="819.12" y1="31.00" x2="819.12" y2="28.00" stroke="#7f7f7f" stroke-width="1.00" clip-path="url('#clipping-rect1')" />
		<line x1="808.54" y1="31.00" x2="808.54" y2="29.00" stroke="#7f7f7f" stroke-width="1.00" clip-path="url('#clipping-rect1')" />
		<line x1="797.97" y1="31.00" x2="797.97" y2="28.00" stroke="#7f7f7f" stroke-width="1.00" clip-path="url('#clipping-rect1')" />
		<line x1="787.39" y1="31.00" x2="787.39" y2="29.00" stroke="#7f7f7f" stroke-width="1.00" clip-path="url('#clipping-rect1')" />
		<line x1="776.81" y1="31.00" x2="776.81" y2="28.00" stroke="#7f7f7f" stroke-width="1.00" clip-path="url('#clipping-rect1')" />
		<line x1="766.23" y1="31.00" x2="766.23" y2="29.00" stroke="#7f7f7f" stroke-width="1.00" clip-path="url('#clipping-rect1')" />
		<line x1="755.65" y1="31.00" x2="755.65" y2="28.00" stroke="#7f7f7f" stroke-width="1.00" clip-path="url('#clipping-rect1')" />
		<line x1="745.07" y1="31.00" x2="745.07" y2="29.00" stroke="#7f7f7f" stroke-width="1.00" clip-path="url('#clipping-rect1')" />
		<line x1="734.49" y1="31.00" x2="734.49" y2="28.00" stroke="#7f7f7f" stroke-width="1.00" clip-path="url('#clipping-rect1')" />
		<line x1="723.91" y1="31.00" x2="723.91" y2="29.00" stroke="#7f7f7f" stroke-width="1.00" clip-path="url('#clipping-rect1')" />
		<line x1="713.34" y1="31.00" x2="713.34" y2="28.00" stroke="#7f7f7f" stroke-width="1.00" clip-path="url('#clipping-rect1')" />
		<line x1="702.76" y1="31.00" x2="702.76" y2="29.00" stroke="#7f7f7f" stroke-width="1.00" clip-path="url('#clipping-rect1')" />
		<line x1="692.18" y1="31.00" x2="692.18" y2="28.00" stroke="#7f7f7f" stroke-width="1.00" clip-path="url('#clipping-rect1')" />
		<line x1="681.60" y1="31.00" x2="681.60" y2="29.00" stroke="#7f7f7f" stroke-width="1.00" clip-path="url('#clipping-rect1')" />
		<line x1="671.02" y1="31.00" x2="671.02" y2="28.00" stroke="#7f7f7f" stroke-width="1.00" clip-path="url('#clipping-rect1')" />
		<line x1="660.44" y1="31.00" x2="660.44" y2="29.00" stroke="#7f7f7f" stroke-width="1.00" clip-path="url('#clipping-rect1')" />
		<line x1="649.86" y1="31.00" x2="649.86" y2="28.00" stroke="#7f7f7f" stroke-width="1.00" clip-path="url('#clipping-rect1')" />
		<line x1="639.28" y1="31.00" x2="639.28" y2="29.00" stroke="#7f7f7f" stroke-width="1.00" clip-path="url('#clipping-rect1')" />
		<line x1="628.71" y1="31.00" x2="628.71" y2="28.00" stroke="#7f7f7f" stroke-width="1.00" clip-path="url('#clipping-rect1')" />
		<line x1="618.13" y1="31.00" x2="618.13" y2="29.00" stroke="#7f7f7f" stroke-width="1.00" clip-path="url('#clipping-rect1')" />
		<line x1="607.55" y1="31.00" x2="607.55" y2="28.00" stroke="#7f7f7f" stroke-width="1.00" clip-path="url('#clipping-rect1')" />
		<line x1="596.97" y1="31.00" x2="596.97" y2="29.00" stroke="#7f7f7f" stroke-width="1.00" clip-path="url('#clipping-rect1')" />
		<line x1="586.39" y1="31.00" x2="586.39" y2="28.00" stroke="#7f7f7f" stroke-width="1.00" clip-path="url('#clipping-rect1')" />
		<line x1="575.81" y1="31.00" x2="575.81" y2="29.00" stroke="#7f7f7f" stroke-width="1.00" clip-path="url('#clipping-rect1')" />
		<line x1="565.23" y1="31.00" x2="565.23" y2="28.00" stroke="#7f7f7f" stroke-width="1.00" clip-path="url('#clipping-rect1')" />
		<line x1="554.65" y1="31.00" x2="554.65" y2="29.00" stroke="#7f7f7f" stroke-width="1.00" clip-path="url('#clipping-rect1')" />
		<line x1="544.08" y1="31.00" x2="544.08" y2="28.00" stroke="#7f7f7f" stroke-width="1.00" clip-path="url('#clipping-rect1')" />
		<line x1="533.50" y1="31.00" x2="533.50" y2="29.00" stroke="#7f7f7f" stroke-width="1.00" clip-path="url('#clipping-rect1')" />
		<line x1="522.92" y1="31.00" x2="522.92" y2="28.00" stroke="#7f7f7f" stroke-width="1.00" clip-path="url('#clipping-rect1')" />
		<line x1="512.34" y1="31.00" x2="512.34" y2="29.00" stroke="#7f7f7f" stroke-width="1.00" clip-path="url('#clipping-rect1')" />
		<line x1="501.76" y1="31.00" x2="501.76" y2="28.00" stroke="#7f7f7f" stroke-width="1.00" clip-path="url('#clipping-rect1')" />
		<line x1="491.18" y1="31.00" x2="491.18" y2="29.00" stroke="#7f7f7f" stroke-width="1.00" clip-path="url('#clipping-rect1')" />
		<line x1="480.60" y1="31.00" x2="480.60" y2="28.00" stroke="#7f7f7f" stroke-width="1.00" clip-path="url('#clipping-rect1')" />
		<line x1="470.02" y1="31.00" x2="470.02" y2="29.00" stroke="#7f7f7f" stroke-width="1.00" clip-path="url('#clipping-rect1')" />
		<line x1="459.45" y1="31.00" x2="459.45" y2="28.00" stroke="#7f7f7f" stroke-width="1.00" clip-path="url('#clipping-rect1')" />
		<line x1="448.87" y1="31.00" x2="448.87" y2="29.00" stroke="#7f7f7f" stroke-width="1.00" clip-path="url('#clipping-rect1')" />
		<line x1="438.29" y1="31.00" x2="438.29" y2="28.00" stroke="#7f7f7f" stroke-width="1.00" clip-path="url('#clipping-rect1')" />
		<line x1="427.71" y1="31.00" x2="427.71" y2="29.00" stroke="#7f7f7f" stroke-width="1.00" clip-path="url('#clipping-rect1')" />
		<line x1="417.13" y1="31.00" x2="417.13" y2="28.00" stroke="#7f7f7f" stroke-width="1.00" clip-path="url('#clipping-rect1')" />
		<line x1="406.55" y1="31.00" x2="406.55" y2="29.00" stroke="#7f7f7f" stroke-width="1.00" clip-path="url('#clipping-rect1')" />
		<line x1="395.97" y1="31.00" x2="395.97" y2="28.00" stroke="#7f7f7f" stroke-width="1.00" clip-path="url('#clipping-rect1')" />
		<line x1="385.39" y1="31.00" x2="385.39" y2="29.00" stroke="#7f7f7f" stroke-width="1.00" clip-path="url('#clipping-rect1')" />
		<line x1="374.82" y1="31.00" x2="374.82" y2="28.00" stroke="#7f7f7f" stroke-width="1.00" clip-path="url('#clipping-rect1')" />
		<line x1="364.24" y1="31.00" x2="364.24" y2="29.00" stroke="#7f7f7f" stroke-width="1.00" clip-path="url('#clipping-rect1')" />
		<line x1="353.66" y1="31.00" x2="353.66" y2="28.00" stroke="#7f7f7f" stroke-width="1.00" clip-path="url('#clipping-rect1')" />
		<line x1="343.08" y1="31.00" x2="343.08" y2="29.00" stroke="#7f7f7f" stroke-width="1.00" clip-path="url('#clipping-rect1')" />
		<line x1="332.50" y1="31.00" x2="332.50" y2="28.00" stroke="#7f7f7f" stroke-width="1.00" clip-path="url('#clipping-rect1')" />
		<line x1="321.92" y1="31.00" x2="321.92" y2="29.00" stroke="#7f7f7f" stroke-width="1.00" clip-path="url('#clipping-rect1')" />
		<line x1="311.34" y1="31.00" x2="311.34" y2="28.00" stroke="#7f7f7f" stroke-width="1.00" clip-path="url('#clipping-rect1')" />
		<line x1="300.76" y1="31.00" x2="300.76" y2="29.00" stroke="#7f7f7f" stroke-width="1.00" clip-path="url('#clipping-rect1')" />
		<line x1="290.19" y1="31.00" x2="290.19" y2="28.00" stroke="#7f7f7f" stroke-width="1.00" clip-path="url('#clipping-rect1')" />
		<line x1="279.61" y1="31.00" x2="279.61" y2="29.00" stroke="#7f7f7f" stroke-width="1.00" clip-path="url('#clipping-rect1')" />
		<line x1="269.03" y1="31.00" x2="269.03" y2="28.00" stroke="#7f7f7f" stroke-width="1.00" clip-path="url('#clipping-rect1')" />
		<line x1="258.45" y1="31.00" x2="258.45" y2="29.00" stroke="#7f7f7f" stroke-width="1.00" clip-path="url('#clipping-rect1')" />
		<line x1="247.87" y1="31.00" x2="247.87" y2="28.00" stroke="#7f7f7f" stroke-width="1.00" clip-path="url('#clipping-rect1')" />
		<line x1="237.29" y1="31.00" x2="237.29" y2="29.00" stroke="#7f7f7f" stroke-width="1.00" clip-path="url('#clipping-rect1')" />
		<line x1="226.71" y1="31.00" x2="226.71" y2="28.00" stroke="#7f7f7f" stroke-width="1.00" clip-path="url('#clipping-rect1')" />
		<line x1="216.13" y1="31.00" x2="216.13" y2="29.00" stroke="#7f7f7f" stroke-width="1.00" clip-path="url('#clipping-rect1')" />
		<line x1="205.56" y1="31.00" x2="205.56" y2="28.00" stroke="#7f7f7f" stroke-width="1.00" clip-path="url('#clipping-rect1')" />
		<line x1="194.98" y1="31.00" x2="194.98" y2="29.00" stroke="#7f7f7f" stroke-width="1.00" clip-path="url('#clipping-rect1')" />
		<line x1="184.40" y1="31.00" x2="184.40" y2="28.00" stroke="#7f7f7f" stroke-width="1.00" clip-path="url('#clipping-rect1')" />
		<line x1="173.82" y1="31.00" x2="173.82" y2="29.00" stroke="#7f7f7f" stroke-width="1.00" clip-path="url('#clipping-rect1')" />
		<line x1="163.24" y1="31.00" x2="163.24" y2="28.00" stroke="#7f7f7f" stroke-width="1.00" clip-path="url('#clipping-rect1')" />
		<line x1="152.66" y1="31.00" x2="152.66" y2="29.00" stroke="#7f7f7f" stroke-width="1.00" clip-path="url('#clipping-rect1')" />
		<line x1="142.08" y1="31.00" x2="142.08" y2="28.00" stroke="#7f7f7f" stroke-width="1.00" clip-path="url('#clipping-rect1')" />
		<line x1="131.50" y1="31.00" x2="131.50" y2="29.00" stroke="#7f7f7f" stroke-width="1.00" clip-path="url('#clipping-rect1')" />
		<line x1="120.93" y1="31.00" x2="120.93" y2="28.00" stroke="#7f7f7f" stroke-width="1.00" clip-path="url('#clipping-rect1')" />
		<line x1="110.35" y1="31.00" x2="110.35" y2="29.00" stroke="#7f7f7f" stroke-width="1.00" clip-path="url('#clipping-rect1')" />
		<line x1="99.77" y1="31.00" x2="99.77" y2="28.00" stroke="#7f7f7f" stroke-width="1.00" clip-path="url('#clipping-rect1')" />
		<line x1="89.19" y1="31.00" x2="89.19" y2="29.00" stroke="#7f7f7f" stroke-width="1.00" clip-path="url('#clipping-rect1')" />
		<line x1="78.61" y1="31.00" x2="78.61" y2="28.00" stroke="#7f7f7f" stroke-width="1.00" clip-path="url('#clipping-rect1')" />
		<line x1="68.03" y1="31.00" x2="68.03" y2="29.00" stroke="#7f7f7f" stroke-width="1.00" clip-path="url('#clipping-rect1')" />
		<line x1="57.45" y1="31.00" x2="57.45" y2="28.00" stroke="#7f7f7f" stroke-width="1.00" clip-path="url('#clipping-rect1')" />
		<line x1="46.87" y1="31.00" x2="46.87" y2="29.00" stroke="#7f7f7f" stroke-width="1.00" clip-path="url('#clipping-rect1')" />
		<line x1="36.30" y1="31.00" x2="36.30" y2="28.00" stroke="#7f7f7f" stroke-width="1.00" clip-path="url('#clipping-rect1')" />
		<line x1="25.72" y1="31.00" x2="25.72" y2="29.00" stroke="#7f7f7f" stroke-width="1.00" clip-path="url('#clipping-rect1')" />
		<line x1="15.14" y1="31.00" x2="15.14" y2="28.00" stroke="#7f7f7f" stroke-width="1.00" clip-path="url('#clipping-rect1')" />
		<line x1="4.56" y1="31.00" x2="4.56" y2="29.00" stroke="#7f7f7f" stroke-width="1.00" clip-path="url('#clipping-rect1')" />
		<text x="799.97" y="26.00" font-family="Helvetica" font-size="12" fill="#333333" clip-path="url('#clipping-rect1')" >30 K</text>
		<line x1="797.97" y1="33.00" x2="797.97" y2="16.00" stroke="#7f7f7f" stroke-width="1.00" clip-path="url('#clipping-rect1')" />
		<text x="694.18" y="26.00" font-family="Helvetica" font-size="12" fill="#333333" clip-path="url('#clipping-rect1')" >35 K</text>
		<line x1="692.18" y1="33.00" x2="692.18" y2="16.00" stroke="#7f7f7f" stroke-width="1.00" clip-path="url('#clipping-rect1')" />
		<text x="588.39" y="26.00" font-family="Helvetica" font-size="12" fill="#333333" clip-path="url('#clipping-rect1')" >40 K</text>
		<line x1="586.39" y1="33.00" x2="586.39" y2="16.00" stroke="#7f7f7f" stroke-width="1.00" clip-path="url('#clipping-rect1')" />
		<text x="482.60" y="26.00" font-family="Helvetica" font-size="12" fill="#333333" clip-path="url('#clipping-rect1')" >45 K</text>
		<line x1="480.60" y1="33.00" x2="480.60" y2="16.00" stroke="#7f7f7f" stroke-width="1.00" clip-path="url('#clipping-rect1')" />
		<text x="376.82" y="26.00" font-family="Helvetica" font-size="12" fill="#333333" clip-path="url('#clipping-rect1')" >50 K</text>
		<line x1="374.82" y1="33.00" x2="374.82" y2="16.00" stroke="#7f7f7f" stroke-width="1.00" clip-path="url('#clipping-rect1')" />
		<text x="271.03" y="26.00" font-family="Helvetica" font-size="12" fill="#333333" clip-path="url('#clipping-rect1')" >55 K</text>
		<line x1="269.03" y1="33.00" x2="269.03" y2="16.00" stroke="#7f7f7f" stroke-width="1.00" clip-path="url('#clipping-rect1')" />
		<text x="165.24" y="26.00" font-family="Helvetica" font-size="12" fill="#333333" clip-path="url('#clipping-rect1')" >60 K</text>
		<line x1="163.24" y1="33.00" x2="163.24" y2="16.00" stroke="#7f7f7f" stroke-width="1.00" clip-path="url('#clipping-rect1')" />
		<text x="59.45" y="26.00" font-family="Helvetica" font-size="12" fill="#333333" clip-path="url('#clipping-rect1')" >65 K</text>
		<line x1="57.45" y1="33.00" x2="57.45" y2="16.00" stroke="#7f7f7f" stroke-width="1.00" clip-path="url('#clipping-rect1')" />
		<line x1="797.89" y1="88.00" x2="797.89" y2="33.00" stroke="#ebebeb" stroke-width="1.00" />
		<line x1="692.78" y1="88.00" x2="692.78" y2="33.00" stroke="#ebebeb" stroke-width="1.00" />
		<line x1="586.66" y1="88.00" x2="586.66" y2="33.00" stroke="#ebebeb" stroke-width="1.00" />
		<line x1="480.54" y1="88.00" x2="480.54" y2="33.00" stroke="#ebebeb" stroke-width="1.00" />
		<line x1="374.42" y1="88.00" x2="374.42" y2="33.00" stroke="#ebebeb" stroke-width="1.00" />
		<line x1="269.30" y1="88.00" x2="269.30" y2="33.00" stroke="#ebebeb" stroke-width="1.00" />
		<line x1="163.18" y1="88.00" x2="163.18" y2="33.00" stroke="#ebebeb" stroke-width="1.00" />
		<line x1="57.06" y1="88.00" x2="57.06" y2="33.00" stroke="#ebebeb" stroke-width="1.00" />
		<polygon fill="url('#gradient1')" shape-rendering="crispEdges" points="0.00,40.00 0.00,35.00 892.00,35.00 892.00,40.00 892.00,45.00 0.00,45.00 " />
		<line x1="892.00" y1="45.00" x2="892.00" y2="35.00" stroke="#6c6c6c" stroke-width="1.00" stroke-linejoin="round" />
		<line x1="892.00" y1="35.00" x2="0.00" y2="35.00" stroke="#6c6c6c" stroke-width="1.00" stroke-linejoin="round" />
		<line x1="0.00" y1="35.00" x2="0.00" y2="45.00" stroke="#6c6c6c" stroke-width="1.00" stroke-linejoin="round" />
		<line x1="892.00" y1="45.00" x2="0.00" y2="45.00" stroke="#6c6c6c" stroke-width="1.00" stroke-linejoin="round" />
		<polygon fill="url('#gradient2')" shape-rendering="crispEdges" points="0.00,39.50 0.00,46.00 892.00,46.00 892.00,39.50 892.00,33.00 0.00,33.00 " />
		<line x1="584.00" y1="33.00" x2="584.00" y2="46.00" stroke="#101010" stroke-width="1.00" />
		<line x1="413.00" y1="33.00" x2="413.00" y2="46.00" stroke="#101010" stroke-width="1.00" />
		<polygon fill="url('#gradient3')" shape-rendering="crispEdges" points="18.37,76.40 18.37,82.40 222.68,82.40 222.68,76.40 222.68,70.40 18.37,70.40 " />
		<polygon fill="url('#gradient3')" shape-rendering="crispEdges" points="222.68,76.40 222.68,84.80 231.08,76.40 222.68,68.00 " />
		<polygon fill="#8ab698" shape-rendering="crispEdges" points="18.37,76.40 18.37,70.40 9.97,70.40 " />
		<polygon fill="#8ab698" shape-rendering="crispEdges" points="18.37,76.40 18.37,82.40 9.97,82.40 " />
		<line x1="9.97" y1="70.40" x2="18.37" y2="70.40" stroke="#166e32" stroke-width="1.50" />
		<line x1="9.97" y1="70.40" x2="18.37" y2="76.40" stroke="#166e32" stroke-width="1.50" />
		<line x1="9.97" y1="82.40" x2="18.37" y2="82.40" stroke="#166e32" stroke-width="1.50" />
		<line x1="9.97" y1="82.40" x2="18.37" y2="76.40" stroke="#166e32" stroke-width="1.50" />
		<polygon fill="#ffffff" shape-rendering="crispEdges" points="175.32,76.40 165.72,71.60 168.12,76.40 165.72,81.20 " />
		<polygon fill="#e0e0e0" shape-rendering="crispEdges" points="75.32,76.40 65.72,71.60 68.12,76.40 65.72,81.20 " />
		<polygon fill="url('#gradient4')" shape-rendering="crispEdges" points="0.00,62.00 891.98,62.00 891.98,47.00 0.00,47.00 " clip-path="url('#clipping-rect2')" />
		<text x="0.00" y="58.00" font-family="Helvetica" font-size="14" fill="#333333" >Genes, NCBI Nestor notabilis Annotation Release 100, 2014-10-31</text>
		<polygon fill="#e5e5e5" shape-rendering="crispEdges" points="892.00,13.00 892.00,-1.00 0.00,-1.00 0.00,13.00 " />
		<text x="0.00" y="10.00" font-family="Helvetica Bold" font-size="12" text-anchor="start" fill="#000000" >NW_009933824.1:25555..67715 Nestor notabilis isolate BGI_N333 unplaced genomic scaffold, ASM69687v1 scaffold30656, whole genome shotgun sequence</text>
	</g>
</svg>
