<?xml version="1.0" standalone="no" ?>
<!DOCTYPE svg PUBLIC "-//W3C//DTD SVG 1.1//EN" "http://www.w3.org/Graphics/SVG/1.1/DTD/svg11.dtd">
<svg width="892px" height="158px" xmlns="http://www.w3.org/2000/svg" version="1.1" viewBox="0 0 892 158" >
	<style type="text/css" > <![CDATA[
		@import url("https://www.ncbi.nlm.nih.gov/projects/sviewer/css/svg_fonts.css");
	]]>
	</style>
	<desc >Generated by NCBI Genome Workbench http://www.ncbi.nlm.nih.gov/tools/gbench/</desc>
	<defs >
		<clipPath id="clipping-rect1" >
			<rect x="0" y="14" width="892" height="20" />
		</clipPath>
		<linearGradient id="gradient1" gradientTransform="rotate(90)" >
			<stop offset="0%" stop-color="#6c6c6c" />
			<stop offset="50%" stop-color="#b5b5b5" />
			<stop offset="100%" stop-color="#6c6c6c" />
		</linearGradient>
		<linearGradient id="gradient2" gradientTransform="rotate(90)" >
			<stop offset="0%" stop-color="#10c010" />
			<stop offset="50%" stop-color="#87df87" />
			<stop offset="100%" stop-color="#10c010" />
		</linearGradient>
		<linearGradient id="gradient3" gradientTransform="rotate(90)" >
			<stop offset="0%" stop-color="#166e32" />
			<stop offset="50%" stop-color="#8ab698" />
			<stop offset="100%" stop-color="#166e32" />
		</linearGradient>
		<clipPath id="clipping-rect2" >
			<rect x="0" y="34" width="892" height="124" />
		</clipPath>
		<linearGradient id="gradient4" gradientTransform="rotate(90)" >
			<stop offset="0%" stop-color="#e6e6e6" stop-opacity="0.71" />
			<stop offset="100%" stop-color="#ffffff" stop-opacity="0.00" />
		</linearGradient>
	</defs>
	<g >
		<polygon fill="#ffffff" shape-rendering="crispEdges" points="892.00,33.00 892.00,13.00 0.00,13.00 0.00,33.00 " />
		<line x1="0.00" y1="31.00" x2="892.00" y2="31.00" stroke="#7f7f7f" stroke-width="1.00" clip-path="url('#clipping-rect1')" />
		<line x1="891.11" y1="31.00" x2="891.11" y2="28.00" stroke="#7f7f7f" stroke-width="1.00" clip-path="url('#clipping-rect1')" />
		<line x1="885.17" y1="31.00" x2="885.17" y2="29.00" stroke="#7f7f7f" stroke-width="1.00" clip-path="url('#clipping-rect1')" />
		<line x1="879.24" y1="31.00" x2="879.24" y2="29.00" stroke="#7f7f7f" stroke-width="1.00" clip-path="url('#clipping-rect1')" />
		<line x1="873.30" y1="31.00" x2="873.30" y2="29.00" stroke="#7f7f7f" stroke-width="1.00" clip-path="url('#clipping-rect1')" />
		<line x1="867.37" y1="31.00" x2="867.37" y2="29.00" stroke="#7f7f7f" stroke-width="1.00" clip-path="url('#clipping-rect1')" />
		<line x1="861.43" y1="31.00" x2="861.43" y2="28.00" stroke="#7f7f7f" stroke-width="1.00" clip-path="url('#clipping-rect1')" />
		<line x1="855.50" y1="31.00" x2="855.50" y2="29.00" stroke="#7f7f7f" stroke-width="1.00" clip-path="url('#clipping-rect1')" />
		<line x1="849.56" y1="31.00" x2="849.56" y2="29.00" stroke="#7f7f7f" stroke-width="1.00" clip-path="url('#clipping-rect1')" />
		<line x1="843.63" y1="31.00" x2="843.63" y2="29.00" stroke="#7f7f7f" stroke-width="1.00" clip-path="url('#clipping-rect1')" />
		<line x1="837.69" y1="31.00" x2="837.69" y2="29.00" stroke="#7f7f7f" stroke-width="1.00" clip-path="url('#clipping-rect1')" />
		<line x1="831.76" y1="31.00" x2="831.76" y2="28.00" stroke="#7f7f7f" stroke-width="1.00" clip-path="url('#clipping-rect1')" />
		<line x1="825.83" y1="31.00" x2="825.83" y2="29.00" stroke="#7f7f7f" stroke-width="1.00" clip-path="url('#clipping-rect1')" />
		<line x1="819.89" y1="31.00" x2="819.89" y2="29.00" stroke="#7f7f7f" stroke-width="1.00" clip-path="url('#clipping-rect1')" />
		<line x1="813.96" y1="31.00" x2="813.96" y2="29.00" stroke="#7f7f7f" stroke-width="1.00" clip-path="url('#clipping-rect1')" />
		<line x1="808.02" y1="31.00" x2="808.02" y2="29.00" stroke="#7f7f7f" stroke-width="1.00" clip-path="url('#clipping-rect1')" />
		<line x1="802.09" y1="31.00" x2="802.09" y2="28.00" stroke="#7f7f7f" stroke-width="1.00" clip-path="url('#clipping-rect1')" />
		<line x1="796.15" y1="31.00" x2="796.15" y2="29.00" stroke="#7f7f7f" stroke-width="1.00" clip-path="url('#clipping-rect1')" />
		<line x1="790.22" y1="31.00" x2="790.22" y2="29.00" stroke="#7f7f7f" stroke-width="1.00" clip-path="url('#clipping-rect1')" />
		<line x1="784.28" y1="31.00" x2="784.28" y2="29.00" stroke="#7f7f7f" stroke-width="1.00" clip-path="url('#clipping-rect1')" />
		<line x1="778.35" y1="31.00" x2="778.35" y2="29.00" stroke="#7f7f7f" stroke-width="1.00" clip-path="url('#clipping-rect1')" />
		<line x1="772.41" y1="31.00" x2="772.41" y2="28.00" stroke="#7f7f7f" stroke-width="1.00" clip-path="url('#clipping-rect1')" />
		<line x1="766.48" y1="31.00" x2="766.48" y2="29.00" stroke="#7f7f7f" stroke-width="1.00" clip-path="url('#clipping-rect1')" />
		<line x1="760.55" y1="31.00" x2="760.55" y2="29.00" stroke="#7f7f7f" stroke-width="1.00" clip-path="url('#clipping-rect1')" />
		<line x1="754.61" y1="31.00" x2="754.61" y2="29.00" stroke="#7f7f7f" stroke-width="1.00" clip-path="url('#clipping-rect1')" />
		<line x1="748.68" y1="31.00" x2="748.68" y2="29.00" stroke="#7f7f7f" stroke-width="1.00" clip-path="url('#clipping-rect1')" />
		<line x1="742.74" y1="31.00" x2="742.74" y2="28.00" stroke="#7f7f7f" stroke-width="1.00" clip-path="url('#clipping-rect1')" />
		<line x1="736.81" y1="31.00" x2="736.81" y2="29.00" stroke="#7f7f7f" stroke-width="1.00" clip-path="url('#clipping-rect1')" />
		<line x1="730.87" y1="31.00" x2="730.87" y2="29.00" stroke="#7f7f7f" stroke-width="1.00" clip-path="url('#clipping-rect1')" />
		<line x1="724.94" y1="31.00" x2="724.94" y2="29.00" stroke="#7f7f7f" stroke-width="1.00" clip-path="url('#clipping-rect1')" />
		<line x1="719.00" y1="31.00" x2="719.00" y2="29.00" stroke="#7f7f7f" stroke-width="1.00" clip-path="url('#clipping-rect1')" />
		<line x1="713.07" y1="31.00" x2="713.07" y2="28.00" stroke="#7f7f7f" stroke-width="1.00" clip-path="url('#clipping-rect1')" />
		<line x1="707.14" y1="31.00" x2="707.14" y2="29.00" stroke="#7f7f7f" stroke-width="1.00" clip-path="url('#clipping-rect1')" />
		<line x1="701.20" y1="31.00" x2="701.20" y2="29.00" stroke="#7f7f7f" stroke-width="1.00" clip-path="url('#clipping-rect1')" />
		<line x1="695.27" y1="31.00" x2="695.27" y2="29.00" stroke="#7f7f7f" stroke-width="1.00" clip-path="url('#clipping-rect1')" />
		<line x1="689.33" y1="31.00" x2="689.33" y2="29.00" stroke="#7f7f7f" stroke-width="1.00" clip-path="url('#clipping-rect1')" />
		<line x1="683.40" y1="31.00" x2="683.40" y2="28.00" stroke="#7f7f7f" stroke-width="1.00" clip-path="url('#clipping-rect1')" />
		<line x1="677.46" y1="31.00" x2="677.46" y2="29.00" stroke="#7f7f7f" stroke-width="1.00" clip-path="url('#clipping-rect1')" />
		<line x1="671.53" y1="31.00" x2="671.53" y2="29.00" stroke="#7f7f7f" stroke-width="1.00" clip-path="url('#clipping-rect1')" />
		<line x1="665.59" y1="31.00" x2="665.59" y2="29.00" stroke="#7f7f7f" stroke-width="1.00" clip-path="url('#clipping-rect1')" />
		<line x1="659.66" y1="31.00" x2="659.66" y2="29.00" stroke="#7f7f7f" stroke-width="1.00" clip-path="url('#clipping-rect1')" />
		<line x1="653.72" y1="31.00" x2="653.72" y2="28.00" stroke="#7f7f7f" stroke-width="1.00" clip-path="url('#clipping-rect1')" />
		<line x1="647.79" y1="31.00" x2="647.79" y2="29.00" stroke="#7f7f7f" stroke-width="1.00" clip-path="url('#clipping-rect1')" />
		<line x1="641.86" y1="31.00" x2="641.86" y2="29.00" stroke="#7f7f7f" stroke-width="1.00" clip-path="url('#clipping-rect1')" />
		<line x1="635.92" y1="31.00" x2="635.92" y2="29.00" stroke="#7f7f7f" stroke-width="1.00" clip-path="url('#clipping-rect1')" />
		<line x1="629.99" y1="31.00" x2="629.99" y2="29.00" stroke="#7f7f7f" stroke-width="1.00" clip-path="url('#clipping-rect1')" />
		<line x1="624.05" y1="31.00" x2="624.05" y2="28.00" stroke="#7f7f7f" stroke-width="1.00" clip-path="url('#clipping-rect1')" />
		<line x1="618.12" y1="31.00" x2="618.12" y2="29.00" stroke="#7f7f7f" stroke-width="1.00" clip-path="url('#clipping-rect1')" />
		<line x1="612.18" y1="31.00" x2="612.18" y2="29.00" stroke="#7f7f7f" stroke-width="1.00" clip-path="url('#clipping-rect1')" />
		<line x1="606.25" y1="31.00" x2="606.25" y2="29.00" stroke="#7f7f7f" stroke-width="1.00" clip-path="url('#clipping-rect1')" />
		<line x1="600.31" y1="31.00" x2="600.31" y2="29.00" stroke="#7f7f7f" stroke-width="1.00" clip-path="url('#clipping-rect1')" />
		<line x1="594.38" y1="31.00" x2="594.38" y2="28.00" stroke="#7f7f7f" stroke-width="1.00" clip-path="url('#clipping-rect1')" />
		<line x1="588.44" y1="31.00" x2="588.44" y2="29.00" stroke="#7f7f7f" stroke-width="1.00" clip-path="url('#clipping-rect1')" />
		<line x1="582.51" y1="31.00" x2="582.51" y2="29.00" stroke="#7f7f7f" stroke-width="1.00" clip-path="url('#clipping-rect1')" />
		<line x1="576.58" y1="31.00" x2="576.58" y2="29.00" stroke="#7f7f7f" stroke-width="1.00" clip-path="url('#clipping-rect1')" />
		<line x1="570.64" y1="31.00" x2="570.64" y2="29.00" stroke="#7f7f7f" stroke-width="1.00" clip-path="url('#clipping-rect1')" />
		<line x1="564.71" y1="31.00" x2="564.71" y2="28.00" stroke="#7f7f7f" stroke-width="1.00" clip-path="url('#clipping-rect1')" />
		<line x1="558.77" y1="31.00" x2="558.77" y2="29.00" stroke="#7f7f7f" stroke-width="1.00" clip-path="url('#clipping-rect1')" />
		<line x1="552.84" y1="31.00" x2="552.84" y2="29.00" stroke="#7f7f7f" stroke-width="1.00" clip-path="url('#clipping-rect1')" />
		<line x1="546.90" y1="31.00" x2="546.90" y2="29.00" stroke="#7f7f7f" stroke-width="1.00" clip-path="url('#clipping-rect1')" />
		<line x1="540.97" y1="31.00" x2="540.97" y2="29.00" stroke="#7f7f7f" stroke-width="1.00" clip-path="url('#clipping-rect1')" />
		<line x1="535.03" y1="31.00" x2="535.03" y2="28.00" stroke="#7f7f7f" stroke-width="1.00" clip-path="url('#clipping-rect1')" />
		<line x1="529.10" y1="31.00" x2="529.10" y2="29.00" stroke="#7f7f7f" stroke-width="1.00" clip-path="url('#clipping-rect1')" />
		<line x1="523.17" y1="31.00" x2="523.17" y2="29.00" stroke="#7f7f7f" stroke-width="1.00" clip-path="url('#clipping-rect1')" />
		<line x1="517.23" y1="31.00" x2="517.23" y2="29.00" stroke="#7f7f7f" stroke-width="1.00" clip-path="url('#clipping-rect1')" />
		<line x1="511.30" y1="31.00" x2="511.30" y2="29.00" stroke="#7f7f7f" stroke-width="1.00" clip-path="url('#clipping-rect1')" />
		<line x1="505.36" y1="31.00" x2="505.36" y2="28.00" stroke="#7f7f7f" stroke-width="1.00" clip-path="url('#clipping-rect1')" />
		<line x1="499.43" y1="31.00" x2="499.43" y2="29.00" stroke="#7f7f7f" stroke-width="1.00" clip-path="url('#clipping-rect1')" />
		<line x1="493.49" y1="31.00" x2="493.49" y2="29.00" stroke="#7f7f7f" stroke-width="1.00" clip-path="url('#clipping-rect1')" />
		<line x1="487.56" y1="31.00" x2="487.56" y2="29.00" stroke="#7f7f7f" stroke-width="1.00" clip-path="url('#clipping-rect1')" />
		<line x1="481.62" y1="31.00" x2="481.62" y2="29.00" stroke="#7f7f7f" stroke-width="1.00" clip-path="url('#clipping-rect1')" />
		<line x1="475.69" y1="31.00" x2="475.69" y2="28.00" stroke="#7f7f7f" stroke-width="1.00" clip-path="url('#clipping-rect1')" />
		<line x1="469.75" y1="31.00" x2="469.75" y2="29.00" stroke="#7f7f7f" stroke-width="1.00" clip-path="url('#clipping-rect1')" />
		<line x1="463.82" y1="31.00" x2="463.82" y2="29.00" stroke="#7f7f7f" stroke-width="1.00" clip-path="url('#clipping-rect1')" />
		<line x1="457.89" y1="31.00" x2="457.89" y2="29.00" stroke="#7f7f7f" stroke-width="1.00" clip-path="url('#clipping-rect1')" />
		<line x1="451.95" y1="31.00" x2="451.95" y2="29.00" stroke="#7f7f7f" stroke-width="1.00" clip-path="url('#clipping-rect1')" />
		<line x1="446.02" y1="31.00" x2="446.02" y2="28.00" stroke="#7f7f7f" stroke-width="1.00" clip-path="url('#clipping-rect1')" />
		<line x1="440.08" y1="31.00" x2="440.08" y2="29.00" stroke="#7f7f7f" stroke-width="1.00" clip-path="url('#clipping-rect1')" />
		<line x1="434.15" y1="31.00" x2="434.15" y2="29.00" stroke="#7f7f7f" stroke-width="1.00" clip-path="url('#clipping-rect1')" />
		<line x1="428.21" y1="31.00" x2="428.21" y2="29.00" stroke="#7f7f7f" stroke-width="1.00" clip-path="url('#clipping-rect1')" />
		<line x1="422.28" y1="31.00" x2="422.28" y2="29.00" stroke="#7f7f7f" stroke-width="1.00" clip-path="url('#clipping-rect1')" />
		<line x1="416.34" y1="31.00" x2="416.34" y2="28.00" stroke="#7f7f7f" stroke-width="1.00" clip-path="url('#clipping-rect1')" />
		<line x1="410.41" y1="31.00" x2="410.41" y2="29.00" stroke="#7f7f7f" stroke-width="1.00" clip-path="url('#clipping-rect1')" />
		<line x1="404.47" y1="31.00" x2="404.47" y2="29.00" stroke="#7f7f7f" stroke-width="1.00" clip-path="url('#clipping-rect1')" />
		<line x1="398.54" y1="31.00" x2="398.54" y2="29.00" stroke="#7f7f7f" stroke-width="1.00" clip-path="url('#clipping-rect1')" />
		<line x1="392.61" y1="31.00" x2="392.61" y2="29.00" stroke="#7f7f7f" stroke-width="1.00" clip-path="url('#clipping-rect1')" />
		<line x1="386.67" y1="31.00" x2="386.67" y2="28.00" stroke="#7f7f7f" stroke-width="1.00" clip-path="url('#clipping-rect1')" />
		<line x1="380.74" y1="31.00" x2="380.74" y2="29.00" stroke="#7f7f7f" stroke-width="1.00" clip-path="url('#clipping-rect1')" />
		<line x1="374.80" y1="31.00" x2="374.80" y2="29.00" stroke="#7f7f7f" stroke-width="1.00" clip-path="url('#clipping-rect1')" />
		<line x1="368.87" y1="31.00" x2="368.87" y2="29.00" stroke="#7f7f7f" stroke-width="1.00" clip-path="url('#clipping-rect1')" />
		<line x1="362.93" y1="31.00" x2="362.93" y2="29.00" stroke="#7f7f7f" stroke-width="1.00" clip-path="url('#clipping-rect1')" />
		<line x1="357.00" y1="31.00" x2="357.00" y2="28.00" stroke="#7f7f7f" stroke-width="1.00" clip-path="url('#clipping-rect1')" />
		<line x1="351.06" y1="31.00" x2="351.06" y2="29.00" stroke="#7f7f7f" stroke-width="1.00" clip-path="url('#clipping-rect1')" />
		<line x1="345.13" y1="31.00" x2="345.13" y2="29.00" stroke="#7f7f7f" stroke-width="1.00" clip-path="url('#clipping-rect1')" />
		<line x1="339.19" y1="31.00" x2="339.19" y2="29.00" stroke="#7f7f7f" stroke-width="1.00" clip-path="url('#clipping-rect1')" />
		<line x1="333.26" y1="31.00" x2="333.26" y2="29.00" stroke="#7f7f7f" stroke-width="1.00" clip-path="url('#clipping-rect1')" />
		<line x1="327.33" y1="31.00" x2="327.33" y2="28.00" stroke="#7f7f7f" stroke-width="1.00" clip-path="url('#clipping-rect1')" />
		<line x1="321.39" y1="31.00" x2="321.39" y2="29.00" stroke="#7f7f7f" stroke-width="1.00" clip-path="url('#clipping-rect1')" />
		<line x1="315.46" y1="31.00" x2="315.46" y2="29.00" stroke="#7f7f7f" stroke-width="1.00" clip-path="url('#clipping-rect1')" />
		<line x1="309.52" y1="31.00" x2="309.52" y2="29.00" stroke="#7f7f7f" stroke-width="1.00" clip-path="url('#clipping-rect1')" />
		<line x1="303.59" y1="31.00" x2="303.59" y2="29.00" stroke="#7f7f7f" stroke-width="1.00" clip-path="url('#clipping-rect1')" />
		<line x1="297.65" y1="31.00" x2="297.65" y2="28.00" stroke="#7f7f7f" stroke-width="1.00" clip-path="url('#clipping-rect1')" />
		<line x1="291.72" y1="31.00" x2="291.72" y2="29.00" stroke="#7f7f7f" stroke-width="1.00" clip-path="url('#clipping-rect1')" />
		<line x1="285.78" y1="31.00" x2="285.78" y2="29.00" stroke="#7f7f7f" stroke-width="1.00" clip-path="url('#clipping-rect1')" />
		<line x1="279.85" y1="31.00" x2="279.85" y2="29.00" stroke="#7f7f7f" stroke-width="1.00" clip-path="url('#clipping-rect1')" />
		<line x1="273.92" y1="31.00" x2="273.92" y2="29.00" stroke="#7f7f7f" stroke-width="1.00" clip-path="url('#clipping-rect1')" />
		<line x1="267.98" y1="31.00" x2="267.98" y2="28.00" stroke="#7f7f7f" stroke-width="1.00" clip-path="url('#clipping-rect1')" />
		<line x1="262.05" y1="31.00" x2="262.05" y2="29.00" stroke="#7f7f7f" stroke-width="1.00" clip-path="url('#clipping-rect1')" />
		<line x1="256.11" y1="31.00" x2="256.11" y2="29.00" stroke="#7f7f7f" stroke-width="1.00" clip-path="url('#clipping-rect1')" />
		<line x1="250.18" y1="31.00" x2="250.18" y2="29.00" stroke="#7f7f7f" stroke-width="1.00" clip-path="url('#clipping-rect1')" />
		<line x1="244.24" y1="31.00" x2="244.24" y2="29.00" stroke="#7f7f7f" stroke-width="1.00" clip-path="url('#clipping-rect1')" />
		<line x1="238.31" y1="31.00" x2="238.31" y2="28.00" stroke="#7f7f7f" stroke-width="1.00" clip-path="url('#clipping-rect1')" />
		<line x1="232.37" y1="31.00" x2="232.37" y2="29.00" stroke="#7f7f7f" stroke-width="1.00" clip-path="url('#clipping-rect1')" />
		<line x1="226.44" y1="31.00" x2="226.44" y2="29.00" stroke="#7f7f7f" stroke-width="1.00" clip-path="url('#clipping-rect1')" />
		<line x1="220.50" y1="31.00" x2="220.50" y2="29.00" stroke="#7f7f7f" stroke-width="1.00" clip-path="url('#clipping-rect1')" />
		<line x1="214.57" y1="31.00" x2="214.57" y2="29.00" stroke="#7f7f7f" stroke-width="1.00" clip-path="url('#clipping-rect1')" />
		<line x1="208.64" y1="31.00" x2="208.64" y2="28.00" stroke="#7f7f7f" stroke-width="1.00" clip-path="url('#clipping-rect1')" />
		<line x1="202.70" y1="31.00" x2="202.70" y2="29.00" stroke="#7f7f7f" stroke-width="1.00" clip-path="url('#clipping-rect1')" />
		<line x1="196.77" y1="31.00" x2="196.77" y2="29.00" stroke="#7f7f7f" stroke-width="1.00" clip-path="url('#clipping-rect1')" />
		<line x1="190.83" y1="31.00" x2="190.83" y2="29.00" stroke="#7f7f7f" stroke-width="1.00" clip-path="url('#clipping-rect1')" />
		<line x1="184.90" y1="31.00" x2="184.90" y2="29.00" stroke="#7f7f7f" stroke-width="1.00" clip-path="url('#clipping-rect1')" />
		<line x1="178.96" y1="31.00" x2="178.96" y2="28.00" stroke="#7f7f7f" stroke-width="1.00" clip-path="url('#clipping-rect1')" />
		<line x1="173.03" y1="31.00" x2="173.03" y2="29.00" stroke="#7f7f7f" stroke-width="1.00" clip-path="url('#clipping-rect1')" />
		<line x1="167.09" y1="31.00" x2="167.09" y2="29.00" stroke="#7f7f7f" stroke-width="1.00" clip-path="url('#clipping-rect1')" />
		<line x1="161.16" y1="31.00" x2="161.16" y2="29.00" stroke="#7f7f7f" stroke-width="1.00" clip-path="url('#clipping-rect1')" />
		<line x1="155.22" y1="31.00" x2="155.22" y2="29.00" stroke="#7f7f7f" stroke-width="1.00" clip-path="url('#clipping-rect1')" />
		<line x1="149.29" y1="31.00" x2="149.29" y2="28.00" stroke="#7f7f7f" stroke-width="1.00" clip-path="url('#clipping-rect1')" />
		<line x1="143.36" y1="31.00" x2="143.36" y2="29.00" stroke="#7f7f7f" stroke-width="1.00" clip-path="url('#clipping-rect1')" />
		<line x1="137.42" y1="31.00" x2="137.42" y2="29.00" stroke="#7f7f7f" stroke-width="1.00" clip-path="url('#clipping-rect1')" />
		<line x1="131.49" y1="31.00" x2="131.49" y2="29.00" stroke="#7f7f7f" stroke-width="1.00" clip-path="url('#clipping-rect1')" />
		<line x1="125.55" y1="31.00" x2="125.55" y2="29.00" stroke="#7f7f7f" stroke-width="1.00" clip-path="url('#clipping-rect1')" />
		<line x1="119.62" y1="31.00" x2="119.62" y2="28.00" stroke="#7f7f7f" stroke-width="1.00" clip-path="url('#clipping-rect1')" />
		<line x1="113.68" y1="31.00" x2="113.68" y2="29.00" stroke="#7f7f7f" stroke-width="1.00" clip-path="url('#clipping-rect1')" />
		<line x1="107.75" y1="31.00" x2="107.75" y2="29.00" stroke="#7f7f7f" stroke-width="1.00" clip-path="url('#clipping-rect1')" />
		<line x1="101.81" y1="31.00" x2="101.81" y2="29.00" stroke="#7f7f7f" stroke-width="1.00" clip-path="url('#clipping-rect1')" />
		<line x1="95.88" y1="31.00" x2="95.88" y2="29.00" stroke="#7f7f7f" stroke-width="1.00" clip-path="url('#clipping-rect1')" />
		<line x1="89.95" y1="31.00" x2="89.95" y2="28.00" stroke="#7f7f7f" stroke-width="1.00" clip-path="url('#clipping-rect1')" />
		<line x1="84.01" y1="31.00" x2="84.01" y2="29.00" stroke="#7f7f7f" stroke-width="1.00" clip-path="url('#clipping-rect1')" />
		<line x1="78.08" y1="31.00" x2="78.08" y2="29.00" stroke="#7f7f7f" stroke-width="1.00" clip-path="url('#clipping-rect1')" />
		<line x1="72.14" y1="31.00" x2="72.14" y2="29.00" stroke="#7f7f7f" stroke-width="1.00" clip-path="url('#clipping-rect1')" />
		<line x1="66.21" y1="31.00" x2="66.21" y2="29.00" stroke="#7f7f7f" stroke-width="1.00" clip-path="url('#clipping-rect1')" />
		<line x1="60.27" y1="31.00" x2="60.27" y2="28.00" stroke="#7f7f7f" stroke-width="1.00" clip-path="url('#clipping-rect1')" />
		<line x1="54.34" y1="31.00" x2="54.34" y2="29.00" stroke="#7f7f7f" stroke-width="1.00" clip-path="url('#clipping-rect1')" />
		<line x1="48.40" y1="31.00" x2="48.40" y2="29.00" stroke="#7f7f7f" stroke-width="1.00" clip-path="url('#clipping-rect1')" />
		<line x1="42.47" y1="31.00" x2="42.47" y2="29.00" stroke="#7f7f7f" stroke-width="1.00" clip-path="url('#clipping-rect1')" />
		<line x1="36.53" y1="31.00" x2="36.53" y2="29.00" stroke="#7f7f7f" stroke-width="1.00" clip-path="url('#clipping-rect1')" />
		<line x1="30.60" y1="31.00" x2="30.60" y2="28.00" stroke="#7f7f7f" stroke-width="1.00" clip-path="url('#clipping-rect1')" />
		<line x1="24.67" y1="31.00" x2="24.67" y2="29.00" stroke="#7f7f7f" stroke-width="1.00" clip-path="url('#clipping-rect1')" />
		<line x1="18.73" y1="31.00" x2="18.73" y2="29.00" stroke="#7f7f7f" stroke-width="1.00" clip-path="url('#clipping-rect1')" />
		<line x1="12.80" y1="31.00" x2="12.80" y2="29.00" stroke="#7f7f7f" stroke-width="1.00" clip-path="url('#clipping-rect1')" />
		<line x1="6.86" y1="31.00" x2="6.86" y2="29.00" stroke="#7f7f7f" stroke-width="1.00" clip-path="url('#clipping-rect1')" />
		<line x1="0.93" y1="31.00" x2="0.93" y2="28.00" stroke="#7f7f7f" stroke-width="1.00" clip-path="url('#clipping-rect1')" />
		<text x="744.74" y="26.00" font-family="Helvetica" font-size="12" fill="#333333" clip-path="url('#clipping-rect1')" >1,150 K</text>
		<line x1="742.74" y1="33.00" x2="742.74" y2="16.00" stroke="#7f7f7f" stroke-width="1.00" clip-path="url('#clipping-rect1')" />
		<text x="596.38" y="26.00" font-family="Helvetica" font-size="12" fill="#333333" clip-path="url('#clipping-rect1')" >1,200 K</text>
		<line x1="594.38" y1="33.00" x2="594.38" y2="16.00" stroke="#7f7f7f" stroke-width="1.00" clip-path="url('#clipping-rect1')" />
		<text x="448.02" y="26.00" font-family="Helvetica" font-size="12" fill="#333333" clip-path="url('#clipping-rect1')" >1,250 K</text>
		<line x1="446.02" y1="33.00" x2="446.02" y2="16.00" stroke="#7f7f7f" stroke-width="1.00" clip-path="url('#clipping-rect1')" />
		<text x="299.65" y="26.00" font-family="Helvetica" font-size="12" fill="#333333" clip-path="url('#clipping-rect1')" >1,300 K</text>
		<line x1="297.65" y1="33.00" x2="297.65" y2="16.00" stroke="#7f7f7f" stroke-width="1.00" clip-path="url('#clipping-rect1')" />
		<text x="151.29" y="26.00" font-family="Helvetica" font-size="12" fill="#333333" clip-path="url('#clipping-rect1')" >1,350 K</text>
		<line x1="149.29" y1="33.00" x2="149.29" y2="16.00" stroke="#7f7f7f" stroke-width="1.00" clip-path="url('#clipping-rect1')" />
		<text x="2.93" y="26.00" font-family="Helvetica" font-size="12" fill="#333333" clip-path="url('#clipping-rect1')" >1,400 K</text>
		<line x1="0.93" y1="33.00" x2="0.93" y2="16.00" stroke="#7f7f7f" stroke-width="1.00" clip-path="url('#clipping-rect1')" />
		<line x1="892.00" y1="157.00" x2="892.00" y2="33.00" stroke="#ebebeb" stroke-width="1.00" />
		<line x1="742.83" y1="157.00" x2="742.83" y2="33.00" stroke="#ebebeb" stroke-width="1.00" />
		<line x1="594.67" y1="157.00" x2="594.67" y2="33.00" stroke="#ebebeb" stroke-width="1.00" />
		<line x1="446.50" y1="157.00" x2="446.50" y2="33.00" stroke="#ebebeb" stroke-width="1.00" />
		<line x1="297.33" y1="157.00" x2="297.33" y2="33.00" stroke="#ebebeb" stroke-width="1.00" />
		<line x1="149.17" y1="157.00" x2="149.17" y2="33.00" stroke="#ebebeb" stroke-width="1.00" />
		<line x1="0.00" y1="157.00" x2="0.00" y2="33.00" stroke="#ebebeb" stroke-width="1.00" />
		<polygon fill="url('#gradient1')" shape-rendering="crispEdges" points="0.00,40.00 0.00,35.00 892.00,35.00 892.00,40.00 892.00,45.00 0.00,45.00 " />
		<line x1="892.00" y1="45.00" x2="892.00" y2="35.00" stroke="#6c6c6c" stroke-width="1.00" stroke-linejoin="round" />
		<line x1="892.00" y1="35.00" x2="0.00" y2="35.00" stroke="#6c6c6c" stroke-width="1.00" stroke-linejoin="round" />
		<line x1="0.00" y1="35.00" x2="0.00" y2="45.00" stroke="#6c6c6c" stroke-width="1.00" stroke-linejoin="round" />
		<line x1="892.00" y1="45.00" x2="0.00" y2="45.00" stroke="#6c6c6c" stroke-width="1.00" stroke-linejoin="round" />
		<polygon fill="url('#gradient2')" shape-rendering="crispEdges" points="796.00,39.50 796.00,46.00 892.00,46.00 892.00,39.50 892.00,33.00 796.00,33.00 " />
		<polygon fill="#101010" shape-rendering="crispEdges" points="794.00,33.00 794.00,46.00 796.00,46.00 796.00,33.00 " />
		<polygon fill="url('#gradient2')" shape-rendering="crispEdges" points="772.00,39.50 772.00,46.00 794.00,46.00 794.00,39.50 794.00,33.00 772.00,33.00 " />
		<polygon fill="#101010" shape-rendering="crispEdges" points="766.00,33.00 766.00,46.00 772.00,46.00 772.00,33.00 " />
		<polygon fill="url('#gradient2')" shape-rendering="crispEdges" points="343.00,39.50 343.00,46.00 766.00,46.00 766.00,39.50 766.00,33.00 343.00,33.00 " />
		<polygon fill="#101010" shape-rendering="crispEdges" points="342.00,33.00 342.00,46.00 343.00,46.00 343.00,33.00 " />
		<polygon fill="url('#gradient2')" shape-rendering="crispEdges" points="42.00,39.50 42.00,46.00 342.00,46.00 342.00,39.50 342.00,33.00 42.00,33.00 " />
		<polygon fill="#101010" shape-rendering="crispEdges" points="41.00,33.00 41.00,46.00 42.00,46.00 42.00,33.00 " />
		<polygon fill="url('#gradient2')" shape-rendering="crispEdges" points="36.00,39.50 36.00,46.00 41.00,46.00 41.00,39.50 41.00,33.00 36.00,33.00 " />
		<polygon fill="#101010" shape-rendering="crispEdges" points="35.00,33.00 35.00,46.00 36.00,46.00 36.00,33.00 " />
		<polygon fill="url('#gradient2')" shape-rendering="crispEdges" points="0.00,39.50 0.00,46.00 35.00,46.00 35.00,39.50 35.00,33.00 0.00,33.00 " />
		<line x1="823.00" y1="33.00" x2="823.00" y2="46.00" stroke="#101010" stroke-opacity="0.25" stroke-width="1.00" />
		<line x1="816.00" y1="33.00" x2="816.00" y2="46.00" stroke="#101010" stroke-opacity="0.25" stroke-width="1.00" />
		<line x1="798.00" y1="33.00" x2="798.00" y2="46.00" stroke="#101010" stroke-opacity="0.31" stroke-width="1.00" />
		<line x1="797.00" y1="33.00" x2="797.00" y2="46.00" stroke="#101010" stroke-opacity="0.25" stroke-width="1.00" />
		<polygon fill="#101010" shape-rendering="crispEdges" points="795.00,33.00 795.00,46.00 796.00,46.00 796.00,33.00 " />
		<line x1="794.00" y1="33.00" x2="794.00" y2="46.00" stroke="#101010" stroke-opacity="0.25" stroke-width="1.00" />
		<line x1="779.00" y1="33.00" x2="779.00" y2="46.00" stroke="#101010" stroke-opacity="0.25" stroke-width="1.00" />
		<line x1="774.00" y1="33.00" x2="774.00" y2="46.00" stroke="#101010" stroke-opacity="0.25" stroke-width="1.00" />
		<polygon fill="#101010" shape-rendering="crispEdges" points="768.00,33.00 768.00,46.00 773.00,46.00 773.00,33.00 " />
		<line x1="767.00" y1="33.00" x2="767.00" y2="46.00" stroke="#101010" stroke-width="1.00" />
		<line x1="724.00" y1="33.00" x2="724.00" y2="46.00" stroke="#101010" stroke-opacity="0.25" stroke-width="1.00" />
		<line x1="687.00" y1="33.00" x2="687.00" y2="46.00" stroke="#101010" stroke-opacity="0.25" stroke-width="1.00" />
		<line x1="616.00" y1="33.00" x2="616.00" y2="46.00" stroke="#101010" stroke-opacity="0.35" stroke-width="1.00" />
		<line x1="453.00" y1="33.00" x2="453.00" y2="46.00" stroke="#101010" stroke-width="1.00" />
		<line x1="414.00" y1="33.00" x2="414.00" y2="46.00" stroke="#101010" stroke-opacity="0.25" stroke-width="1.00" />
		<line x1="344.00" y1="33.00" x2="344.00" y2="46.00" stroke="#101010" stroke-width="1.00" />
		<line x1="343.00" y1="33.00" x2="343.00" y2="46.00" stroke="#101010" stroke-width="1.00" />
		<line x1="311.00" y1="33.00" x2="311.00" y2="46.00" stroke="#101010" stroke-opacity="0.41" stroke-width="1.00" />
		<line x1="288.00" y1="33.00" x2="288.00" y2="46.00" stroke="#101010" stroke-opacity="0.25" stroke-width="1.00" />
		<line x1="271.00" y1="33.00" x2="271.00" y2="46.00" stroke="#101010" stroke-opacity="0.25" stroke-width="1.00" />
		<line x1="262.00" y1="33.00" x2="262.00" y2="46.00" stroke="#101010" stroke-opacity="0.25" stroke-width="1.00" />
		<line x1="234.00" y1="33.00" x2="234.00" y2="46.00" stroke="#101010" stroke-width="1.00" />
		<line x1="161.00" y1="33.00" x2="161.00" y2="46.00" stroke="#101010" stroke-opacity="0.25" stroke-width="1.00" />
		<line x1="109.00" y1="33.00" x2="109.00" y2="46.00" stroke="#101010" stroke-opacity="0.25" stroke-width="1.00" />
		<line x1="97.00" y1="33.00" x2="97.00" y2="46.00" stroke="#101010" stroke-width="1.00" />
		<line x1="96.00" y1="33.00" x2="96.00" y2="46.00" stroke="#101010" stroke-width="1.00" />
		<line x1="73.00" y1="33.00" x2="73.00" y2="46.00" stroke="#101010" stroke-opacity="0.25" stroke-width="1.00" />
		<line x1="67.00" y1="33.00" x2="67.00" y2="46.00" stroke="#101010" stroke-opacity="0.25" stroke-width="1.00" />
		<line x1="65.00" y1="33.00" x2="65.00" y2="46.00" stroke="#101010" stroke-width="1.00" />
		<line x1="59.00" y1="33.00" x2="59.00" y2="46.00" stroke="#101010" stroke-width="1.00" />
		<line x1="50.00" y1="33.00" x2="50.00" y2="46.00" stroke="#101010" stroke-opacity="0.25" stroke-width="1.00" />
		<line x1="46.00" y1="33.00" x2="46.00" y2="46.00" stroke="#101010" stroke-opacity="0.35" stroke-width="1.00" />
		<line x1="44.00" y1="33.00" x2="44.00" y2="46.00" stroke="#101010" stroke-opacity="0.34" stroke-width="1.00" />
		<line x1="43.00" y1="33.00" x2="43.00" y2="46.00" stroke="#101010" stroke-width="1.00" />
		<line x1="42.00" y1="33.00" x2="42.00" y2="46.00" stroke="#101010" stroke-opacity="0.25" stroke-width="1.00" />
		<line x1="38.00" y1="33.00" x2="38.00" y2="46.00" stroke="#101010" stroke-opacity="0.39" stroke-width="1.00" />
		<line x1="37.00" y1="33.00" x2="37.00" y2="46.00" stroke="#101010" stroke-width="1.00" />
		<line x1="36.00" y1="33.00" x2="36.00" y2="46.00" stroke="#101010" stroke-width="1.00" />
		<line x1="18.00" y1="33.00" x2="18.00" y2="46.00" stroke="#101010" stroke-opacity="0.25" stroke-width="1.00" />
		<polygon fill="url('#gradient3')" shape-rendering="crispEdges" points="804.81,99.20 804.81,105.20 811.40,105.20 811.40,99.20 811.40,93.20 804.81,93.20 " />
		<text x="816.40" y="103.70" font-family="Helvetica" font-size="12" fill="#124d94" >BCL2A1</text>
		<polygon fill="url('#gradient3')" shape-rendering="crispEdges" points="726.18,76.40 726.18,82.40 777.08,82.40 777.08,76.40 777.08,70.40 726.18,70.40 " />
		<polygon fill="url('#gradient3')" shape-rendering="crispEdges" points="726.18,76.40 726.18,84.80 717.78,76.40 726.18,68.00 " />
		<polygon fill="#8ab698" shape-rendering="crispEdges" points="777.08,76.40 777.08,70.40 785.48,70.40 " />
		<polygon fill="#8ab698" shape-rendering="crispEdges" points="777.08,76.40 777.08,82.40 785.48,82.40 " />
		<line x1="785.48" y1="70.40" x2="777.08" y2="70.40" stroke="#166e32" stroke-width="1.50" />
		<line x1="785.48" y1="70.40" x2="777.08" y2="76.40" stroke="#166e32" stroke-width="1.50" />
		<line x1="785.48" y1="82.40" x2="777.08" y2="82.40" stroke="#166e32" stroke-width="1.50" />
		<line x1="785.48" y1="82.40" x2="777.08" y2="76.40" stroke="#166e32" stroke-width="1.50" />
		<polygon fill="#ffffff" shape-rendering="crispEdges" points="746.83,76.40 756.43,71.60 754.03,76.40 756.43,81.20 " />
		<text x="790.48" y="80.90" font-family="Helvetica" font-size="12" fill="#124d94" >MTHFS</text>
		<polygon fill="url('#gradient3')" shape-rendering="crispEdges" points="370.96,76.40 370.96,82.40 381.29,82.40 381.29,76.40 381.29,70.40 370.96,70.40 " />
		<polygon fill="url('#gradient3')" shape-rendering="crispEdges" points="381.29,76.40 381.29,84.80 389.69,76.40 381.29,68.00 " />
		<polygon fill="#8ab698" shape-rendering="crispEdges" points="370.96,76.40 370.96,70.40 362.56,70.40 " />
		<polygon fill="#8ab698" shape-rendering="crispEdges" points="370.96,76.40 370.96,82.40 362.56,82.40 " />
		<line x1="362.56" y1="70.40" x2="370.96" y2="70.40" stroke="#166e32" stroke-width="1.50" />
		<line x1="362.56" y1="70.40" x2="370.96" y2="76.40" stroke="#166e32" stroke-width="1.50" />
		<line x1="362.56" y1="82.40" x2="370.96" y2="82.40" stroke="#166e32" stroke-width="1.50" />
		<line x1="362.56" y1="82.40" x2="370.96" y2="76.40" stroke="#166e32" stroke-width="1.50" />
		<polygon fill="#ffffff" shape-rendering="crispEdges" points="304.94,83.00 304.94,69.00 357.56,69.00 357.56,83.00 " />
		<text x="304.94" y="80.90" font-family="Helvetica" font-size="12" fill="#124d94" >KIAA1024</text>
		<polygon fill="url('#gradient3')" shape-rendering="crispEdges" points="105.38,76.40 105.38,82.40 124.49,82.40 124.49,76.40 124.49,70.40 105.38,70.40 " />
		<polygon fill="url('#gradient3')" shape-rendering="crispEdges" points="124.49,76.40 124.49,84.80 132.89,76.40 124.49,68.00 " />
		<polygon fill="#8ab698" shape-rendering="crispEdges" points="105.38,76.40 105.38,70.40 96.98,70.40 " />
		<polygon fill="#8ab698" shape-rendering="crispEdges" points="105.38,76.40 105.38,82.40 96.98,82.40 " />
		<line x1="96.98" y1="70.40" x2="105.38" y2="70.40" stroke="#166e32" stroke-width="1.50" />
		<line x1="96.98" y1="70.40" x2="105.38" y2="76.40" stroke="#166e32" stroke-width="1.50" />
		<line x1="96.98" y1="82.40" x2="105.38" y2="82.40" stroke="#166e32" stroke-width="1.50" />
		<line x1="96.98" y1="82.40" x2="105.38" y2="76.40" stroke="#166e32" stroke-width="1.50" />
		<polygon fill="#ffffff" shape-rendering="crispEdges" points="119.74,76.40 110.14,71.60 112.54,76.40 110.14,81.20 " />
		<polygon fill="#ffffff" shape-rendering="crispEdges" points="50.83,83.00 50.83,69.00 91.98,69.00 91.98,83.00 " />
		<text x="50.83" y="80.90" font-family="Helvetica" font-size="12" fill="#124d94" >WDR93</text>
		<line x1="88.04" y1="116.00" x2="88.04" y2="128.00" stroke="#166e32" stroke-width="1.00" />
		<polygon fill="#8ab698" shape-rendering="crispEdges" points="88.04,122.00 88.04,116.00 96.44,116.00 " />
		<polygon fill="#8ab698" shape-rendering="crispEdges" points="88.04,122.00 88.04,128.00 96.44,128.00 " />
		<line x1="96.44" y1="116.00" x2="88.04" y2="116.00" stroke="#166e32" stroke-width="1.50" />
		<line x1="96.44" y1="116.00" x2="88.04" y2="122.00" stroke="#166e32" stroke-width="1.50" />
		<line x1="96.44" y1="128.00" x2="88.04" y2="128.00" stroke="#166e32" stroke-width="1.50" />
		<line x1="96.44" y1="128.00" x2="88.04" y2="122.00" stroke="#166e32" stroke-width="1.50" />
		<text x="101.44" y="126.50" font-family="Helvetica" font-size="12" fill="#124d94" >PEX11A</text>
		<polygon fill="url('#gradient3')" shape-rendering="crispEdges" points="61.38,99.20 61.38,105.20 68.69,105.20 68.69,99.20 68.69,93.20 61.38,93.20 " />
		<polygon fill="url('#gradient3')" shape-rendering="crispEdges" points="61.38,99.20 61.38,107.60 52.98,99.20 61.38,90.80 " />
		<text x="73.69" y="103.70" font-family="Helvetica" font-size="12" fill="#124d94" >PLIN1</text>
		<polygon fill="url('#gradient3')" shape-rendering="crispEdges" points="39.52,144.80 39.52,150.80 47.38,150.80 47.38,144.80 47.38,138.80 39.52,138.80 " />
		<polygon fill="#ffffff" shape-rendering="crispEdges" points="-0.00,151.00 -0.00,137.00 39.52,137.00 39.52,151.00 " />
		<text x="0.19" y="149.30" font-family="Helvetica" font-size="12" fill="#124d94" >LOC1...</text>
		<polygon fill="url('#gradient3')" shape-rendering="crispEdges" points="15.15,122.00 15.15,128.00 29.15,128.00 29.15,122.00 29.15,116.00 15.15,116.00 " />
		<polygon fill="url('#gradient3')" shape-rendering="crispEdges" points="15.15,122.00 15.15,130.40 6.75,122.00 15.15,113.60 " />
		<polygon fill="#8ab698" shape-rendering="crispEdges" points="29.15,122.00 29.15,116.00 37.55,116.00 " />
		<polygon fill="#8ab698" shape-rendering="crispEdges" points="29.15,122.00 29.15,128.00 37.55,128.00 " />
		<line x1="37.55" y1="116.00" x2="29.15" y2="116.00" stroke="#166e32" stroke-width="1.50" />
		<line x1="37.55" y1="116.00" x2="29.15" y2="122.00" stroke="#166e32" stroke-width="1.50" />
		<line x1="37.55" y1="128.00" x2="29.15" y2="128.00" stroke="#166e32" stroke-width="1.50" />
		<line x1="37.55" y1="128.00" x2="29.15" y2="122.00" stroke="#166e32" stroke-width="1.50" />
		<text x="42.55" y="126.50" font-family="Helvetica" font-size="12" fill="#124d94" >KIF7</text>
		<polygon fill="url('#gradient4')" shape-rendering="crispEdges" points="0.00,62.00 892.00,62.00 892.00,47.00 0.00,47.00 " clip-path="url('#clipping-rect2')" />
		<text x="0.00" y="58.00" font-family="Helvetica" font-size="14" fill="#333333" >Genes, NCBI Opisthocomus hoazin Annotation Release 100, 2014-10-28</text>
		<polygon fill="#e5e5e5" shape-rendering="crispEdges" points="892.00,13.00 892.00,-1.00 0.00,-1.00 0.00,13.00 " />
		<text x="0.00" y="10.00" font-family="Helvetica Bold" font-size="12" text-anchor="start" fill="#000000" >NW_009899771.1:1099698..1400312 Opisthocomus hoazin isolate BGI_N306 unplaced genomic scaffold, ASM69207v1 scaffold491, whole genome shotgun ...</text>
	</g>
</svg>
