<?xml version="1.0" standalone="no" ?>
<!DOCTYPE svg PUBLIC "-//W3C//DTD SVG 1.1//EN" "http://www.w3.org/Graphics/SVG/1.1/DTD/svg11.dtd">
<svg width="892px" height="89px" xmlns="http://www.w3.org/2000/svg" version="1.1" viewBox="0 0 892 89" >
	<style type="text/css" > <![CDATA[
		@import url("https://www.ncbi.nlm.nih.gov/projects/sviewer/css/svg_fonts.css");
	]]>
	</style>
	<desc >Generated by NCBI Genome Workbench http://www.ncbi.nlm.nih.gov/tools/gbench/</desc>
	<defs >
		<clipPath id="clipping-rect1" >
			<rect x="0" y="14" width="892" height="20" />
		</clipPath>
		<linearGradient id="gradient1" gradientTransform="rotate(90)" >
			<stop offset="0%" stop-color="#6c6c6c" />
			<stop offset="50%" stop-color="#b5b5b5" />
			<stop offset="100%" stop-color="#6c6c6c" />
		</linearGradient>
		<linearGradient id="gradient2" gradientTransform="rotate(90)" >
			<stop offset="0%" stop-color="#10c010" />
			<stop offset="50%" stop-color="#87df87" />
			<stop offset="100%" stop-color="#10c010" />
		</linearGradient>
		<linearGradient id="gradient3" gradientTransform="rotate(90)" >
			<stop offset="0%" stop-color="#166e32" />
			<stop offset="50%" stop-color="#8ab698" />
			<stop offset="100%" stop-color="#166e32" />
		</linearGradient>
		<clipPath id="clipping-rect2" >
			<rect x="0" y="34" width="892" height="55" />
		</clipPath>
		<linearGradient id="gradient4" gradientTransform="rotate(90)" >
			<stop offset="0%" stop-color="#e6e6e6" stop-opacity="0.71" />
			<stop offset="100%" stop-color="#ffffff" stop-opacity="0.00" />
		</linearGradient>
	</defs>
	<g >
		<polygon fill="#ffffff" shape-rendering="crispEdges" points="892.00,33.00 892.00,13.00 0.00,13.00 0.00,33.00 " />
		<line x1="0.03" y1="31.00" x2="892.00" y2="31.00" stroke="#7f7f7f" stroke-width="1.00" clip-path="url('#clipping-rect1')" />
		<line x1="891.06" y1="31.00" x2="891.06" y2="29.00" stroke="#7f7f7f" stroke-width="1.00" clip-path="url('#clipping-rect1')" />
		<line x1="884.98" y1="31.00" x2="884.98" y2="29.00" stroke="#7f7f7f" stroke-width="1.00" clip-path="url('#clipping-rect1')" />
		<line x1="878.91" y1="31.00" x2="878.91" y2="29.00" stroke="#7f7f7f" stroke-width="1.00" clip-path="url('#clipping-rect1')" />
		<line x1="872.83" y1="31.00" x2="872.83" y2="29.00" stroke="#7f7f7f" stroke-width="1.00" clip-path="url('#clipping-rect1')" />
		<line x1="866.76" y1="31.00" x2="866.76" y2="29.00" stroke="#7f7f7f" stroke-width="1.00" clip-path="url('#clipping-rect1')" />
		<line x1="860.68" y1="31.00" x2="860.68" y2="29.00" stroke="#7f7f7f" stroke-width="1.00" clip-path="url('#clipping-rect1')" />
		<line x1="854.61" y1="31.00" x2="854.61" y2="29.00" stroke="#7f7f7f" stroke-width="1.00" clip-path="url('#clipping-rect1')" />
		<line x1="848.53" y1="31.00" x2="848.53" y2="29.00" stroke="#7f7f7f" stroke-width="1.00" clip-path="url('#clipping-rect1')" />
		<line x1="842.45" y1="31.00" x2="842.45" y2="28.00" stroke="#7f7f7f" stroke-width="1.00" clip-path="url('#clipping-rect1')" />
		<line x1="836.38" y1="31.00" x2="836.38" y2="29.00" stroke="#7f7f7f" stroke-width="1.00" clip-path="url('#clipping-rect1')" />
		<line x1="830.30" y1="31.00" x2="830.30" y2="29.00" stroke="#7f7f7f" stroke-width="1.00" clip-path="url('#clipping-rect1')" />
		<line x1="824.23" y1="31.00" x2="824.23" y2="29.00" stroke="#7f7f7f" stroke-width="1.00" clip-path="url('#clipping-rect1')" />
		<line x1="818.15" y1="31.00" x2="818.15" y2="29.00" stroke="#7f7f7f" stroke-width="1.00" clip-path="url('#clipping-rect1')" />
		<line x1="812.08" y1="31.00" x2="812.08" y2="29.00" stroke="#7f7f7f" stroke-width="1.00" clip-path="url('#clipping-rect1')" />
		<line x1="806.00" y1="31.00" x2="806.00" y2="29.00" stroke="#7f7f7f" stroke-width="1.00" clip-path="url('#clipping-rect1')" />
		<line x1="799.93" y1="31.00" x2="799.93" y2="29.00" stroke="#7f7f7f" stroke-width="1.00" clip-path="url('#clipping-rect1')" />
		<line x1="793.85" y1="31.00" x2="793.85" y2="29.00" stroke="#7f7f7f" stroke-width="1.00" clip-path="url('#clipping-rect1')" />
		<line x1="787.78" y1="31.00" x2="787.78" y2="29.00" stroke="#7f7f7f" stroke-width="1.00" clip-path="url('#clipping-rect1')" />
		<line x1="781.70" y1="31.00" x2="781.70" y2="28.00" stroke="#7f7f7f" stroke-width="1.00" clip-path="url('#clipping-rect1')" />
		<line x1="775.62" y1="31.00" x2="775.62" y2="29.00" stroke="#7f7f7f" stroke-width="1.00" clip-path="url('#clipping-rect1')" />
		<line x1="769.55" y1="31.00" x2="769.55" y2="29.00" stroke="#7f7f7f" stroke-width="1.00" clip-path="url('#clipping-rect1')" />
		<line x1="763.47" y1="31.00" x2="763.47" y2="29.00" stroke="#7f7f7f" stroke-width="1.00" clip-path="url('#clipping-rect1')" />
		<line x1="757.40" y1="31.00" x2="757.40" y2="29.00" stroke="#7f7f7f" stroke-width="1.00" clip-path="url('#clipping-rect1')" />
		<line x1="751.32" y1="31.00" x2="751.32" y2="29.00" stroke="#7f7f7f" stroke-width="1.00" clip-path="url('#clipping-rect1')" />
		<line x1="745.25" y1="31.00" x2="745.25" y2="29.00" stroke="#7f7f7f" stroke-width="1.00" clip-path="url('#clipping-rect1')" />
		<line x1="739.17" y1="31.00" x2="739.17" y2="29.00" stroke="#7f7f7f" stroke-width="1.00" clip-path="url('#clipping-rect1')" />
		<line x1="733.10" y1="31.00" x2="733.10" y2="29.00" stroke="#7f7f7f" stroke-width="1.00" clip-path="url('#clipping-rect1')" />
		<line x1="727.02" y1="31.00" x2="727.02" y2="29.00" stroke="#7f7f7f" stroke-width="1.00" clip-path="url('#clipping-rect1')" />
		<line x1="720.95" y1="31.00" x2="720.95" y2="28.00" stroke="#7f7f7f" stroke-width="1.00" clip-path="url('#clipping-rect1')" />
		<line x1="714.87" y1="31.00" x2="714.87" y2="29.00" stroke="#7f7f7f" stroke-width="1.00" clip-path="url('#clipping-rect1')" />
		<line x1="708.79" y1="31.00" x2="708.79" y2="29.00" stroke="#7f7f7f" stroke-width="1.00" clip-path="url('#clipping-rect1')" />
		<line x1="702.72" y1="31.00" x2="702.72" y2="29.00" stroke="#7f7f7f" stroke-width="1.00" clip-path="url('#clipping-rect1')" />
		<line x1="696.64" y1="31.00" x2="696.64" y2="29.00" stroke="#7f7f7f" stroke-width="1.00" clip-path="url('#clipping-rect1')" />
		<line x1="690.57" y1="31.00" x2="690.57" y2="29.00" stroke="#7f7f7f" stroke-width="1.00" clip-path="url('#clipping-rect1')" />
		<line x1="684.49" y1="31.00" x2="684.49" y2="29.00" stroke="#7f7f7f" stroke-width="1.00" clip-path="url('#clipping-rect1')" />
		<line x1="678.42" y1="31.00" x2="678.42" y2="29.00" stroke="#7f7f7f" stroke-width="1.00" clip-path="url('#clipping-rect1')" />
		<line x1="672.34" y1="31.00" x2="672.34" y2="29.00" stroke="#7f7f7f" stroke-width="1.00" clip-path="url('#clipping-rect1')" />
		<line x1="666.27" y1="31.00" x2="666.27" y2="29.00" stroke="#7f7f7f" stroke-width="1.00" clip-path="url('#clipping-rect1')" />
		<line x1="660.19" y1="31.00" x2="660.19" y2="28.00" stroke="#7f7f7f" stroke-width="1.00" clip-path="url('#clipping-rect1')" />
		<line x1="654.12" y1="31.00" x2="654.12" y2="29.00" stroke="#7f7f7f" stroke-width="1.00" clip-path="url('#clipping-rect1')" />
		<line x1="648.04" y1="31.00" x2="648.04" y2="29.00" stroke="#7f7f7f" stroke-width="1.00" clip-path="url('#clipping-rect1')" />
		<line x1="641.96" y1="31.00" x2="641.96" y2="29.00" stroke="#7f7f7f" stroke-width="1.00" clip-path="url('#clipping-rect1')" />
		<line x1="635.89" y1="31.00" x2="635.89" y2="29.00" stroke="#7f7f7f" stroke-width="1.00" clip-path="url('#clipping-rect1')" />
		<line x1="629.81" y1="31.00" x2="629.81" y2="29.00" stroke="#7f7f7f" stroke-width="1.00" clip-path="url('#clipping-rect1')" />
		<line x1="623.74" y1="31.00" x2="623.74" y2="29.00" stroke="#7f7f7f" stroke-width="1.00" clip-path="url('#clipping-rect1')" />
		<line x1="617.66" y1="31.00" x2="617.66" y2="29.00" stroke="#7f7f7f" stroke-width="1.00" clip-path="url('#clipping-rect1')" />
		<line x1="611.59" y1="31.00" x2="611.59" y2="29.00" stroke="#7f7f7f" stroke-width="1.00" clip-path="url('#clipping-rect1')" />
		<line x1="605.51" y1="31.00" x2="605.51" y2="29.00" stroke="#7f7f7f" stroke-width="1.00" clip-path="url('#clipping-rect1')" />
		<line x1="599.44" y1="31.00" x2="599.44" y2="28.00" stroke="#7f7f7f" stroke-width="1.00" clip-path="url('#clipping-rect1')" />
		<line x1="593.36" y1="31.00" x2="593.36" y2="29.00" stroke="#7f7f7f" stroke-width="1.00" clip-path="url('#clipping-rect1')" />
		<line x1="587.28" y1="31.00" x2="587.28" y2="29.00" stroke="#7f7f7f" stroke-width="1.00" clip-path="url('#clipping-rect1')" />
		<line x1="581.21" y1="31.00" x2="581.21" y2="29.00" stroke="#7f7f7f" stroke-width="1.00" clip-path="url('#clipping-rect1')" />
		<line x1="575.13" y1="31.00" x2="575.13" y2="29.00" stroke="#7f7f7f" stroke-width="1.00" clip-path="url('#clipping-rect1')" />
		<line x1="569.06" y1="31.00" x2="569.06" y2="29.00" stroke="#7f7f7f" stroke-width="1.00" clip-path="url('#clipping-rect1')" />
		<line x1="562.98" y1="31.00" x2="562.98" y2="29.00" stroke="#7f7f7f" stroke-width="1.00" clip-path="url('#clipping-rect1')" />
		<line x1="556.91" y1="31.00" x2="556.91" y2="29.00" stroke="#7f7f7f" stroke-width="1.00" clip-path="url('#clipping-rect1')" />
		<line x1="550.83" y1="31.00" x2="550.83" y2="29.00" stroke="#7f7f7f" stroke-width="1.00" clip-path="url('#clipping-rect1')" />
		<line x1="544.76" y1="31.00" x2="544.76" y2="29.00" stroke="#7f7f7f" stroke-width="1.00" clip-path="url('#clipping-rect1')" />
		<line x1="538.68" y1="31.00" x2="538.68" y2="28.00" stroke="#7f7f7f" stroke-width="1.00" clip-path="url('#clipping-rect1')" />
		<line x1="532.61" y1="31.00" x2="532.61" y2="29.00" stroke="#7f7f7f" stroke-width="1.00" clip-path="url('#clipping-rect1')" />
		<line x1="526.53" y1="31.00" x2="526.53" y2="29.00" stroke="#7f7f7f" stroke-width="1.00" clip-path="url('#clipping-rect1')" />
		<line x1="520.45" y1="31.00" x2="520.45" y2="29.00" stroke="#7f7f7f" stroke-width="1.00" clip-path="url('#clipping-rect1')" />
		<line x1="514.38" y1="31.00" x2="514.38" y2="29.00" stroke="#7f7f7f" stroke-width="1.00" clip-path="url('#clipping-rect1')" />
		<line x1="508.30" y1="31.00" x2="508.30" y2="29.00" stroke="#7f7f7f" stroke-width="1.00" clip-path="url('#clipping-rect1')" />
		<line x1="502.23" y1="31.00" x2="502.23" y2="29.00" stroke="#7f7f7f" stroke-width="1.00" clip-path="url('#clipping-rect1')" />
		<line x1="496.15" y1="31.00" x2="496.15" y2="29.00" stroke="#7f7f7f" stroke-width="1.00" clip-path="url('#clipping-rect1')" />
		<line x1="490.08" y1="31.00" x2="490.08" y2="29.00" stroke="#7f7f7f" stroke-width="1.00" clip-path="url('#clipping-rect1')" />
		<line x1="484.00" y1="31.00" x2="484.00" y2="29.00" stroke="#7f7f7f" stroke-width="1.00" clip-path="url('#clipping-rect1')" />
		<line x1="477.93" y1="31.00" x2="477.93" y2="28.00" stroke="#7f7f7f" stroke-width="1.00" clip-path="url('#clipping-rect1')" />
		<line x1="471.85" y1="31.00" x2="471.85" y2="29.00" stroke="#7f7f7f" stroke-width="1.00" clip-path="url('#clipping-rect1')" />
		<line x1="465.78" y1="31.00" x2="465.78" y2="29.00" stroke="#7f7f7f" stroke-width="1.00" clip-path="url('#clipping-rect1')" />
		<line x1="459.70" y1="31.00" x2="459.70" y2="29.00" stroke="#7f7f7f" stroke-width="1.00" clip-path="url('#clipping-rect1')" />
		<line x1="453.62" y1="31.00" x2="453.62" y2="29.00" stroke="#7f7f7f" stroke-width="1.00" clip-path="url('#clipping-rect1')" />
		<line x1="447.55" y1="31.00" x2="447.55" y2="29.00" stroke="#7f7f7f" stroke-width="1.00" clip-path="url('#clipping-rect1')" />
		<line x1="441.47" y1="31.00" x2="441.47" y2="29.00" stroke="#7f7f7f" stroke-width="1.00" clip-path="url('#clipping-rect1')" />
		<line x1="435.40" y1="31.00" x2="435.40" y2="29.00" stroke="#7f7f7f" stroke-width="1.00" clip-path="url('#clipping-rect1')" />
		<line x1="429.32" y1="31.00" x2="429.32" y2="29.00" stroke="#7f7f7f" stroke-width="1.00" clip-path="url('#clipping-rect1')" />
		<line x1="423.25" y1="31.00" x2="423.25" y2="29.00" stroke="#7f7f7f" stroke-width="1.00" clip-path="url('#clipping-rect1')" />
		<line x1="417.17" y1="31.00" x2="417.17" y2="28.00" stroke="#7f7f7f" stroke-width="1.00" clip-path="url('#clipping-rect1')" />
		<line x1="411.10" y1="31.00" x2="411.10" y2="29.00" stroke="#7f7f7f" stroke-width="1.00" clip-path="url('#clipping-rect1')" />
		<line x1="405.02" y1="31.00" x2="405.02" y2="29.00" stroke="#7f7f7f" stroke-width="1.00" clip-path="url('#clipping-rect1')" />
		<line x1="398.95" y1="31.00" x2="398.95" y2="29.00" stroke="#7f7f7f" stroke-width="1.00" clip-path="url('#clipping-rect1')" />
		<line x1="392.87" y1="31.00" x2="392.87" y2="29.00" stroke="#7f7f7f" stroke-width="1.00" clip-path="url('#clipping-rect1')" />
		<line x1="386.79" y1="31.00" x2="386.79" y2="29.00" stroke="#7f7f7f" stroke-width="1.00" clip-path="url('#clipping-rect1')" />
		<line x1="380.72" y1="31.00" x2="380.72" y2="29.00" stroke="#7f7f7f" stroke-width="1.00" clip-path="url('#clipping-rect1')" />
		<line x1="374.64" y1="31.00" x2="374.64" y2="29.00" stroke="#7f7f7f" stroke-width="1.00" clip-path="url('#clipping-rect1')" />
		<line x1="368.57" y1="31.00" x2="368.57" y2="29.00" stroke="#7f7f7f" stroke-width="1.00" clip-path="url('#clipping-rect1')" />
		<line x1="362.49" y1="31.00" x2="362.49" y2="29.00" stroke="#7f7f7f" stroke-width="1.00" clip-path="url('#clipping-rect1')" />
		<line x1="356.42" y1="31.00" x2="356.42" y2="28.00" stroke="#7f7f7f" stroke-width="1.00" clip-path="url('#clipping-rect1')" />
		<line x1="350.34" y1="31.00" x2="350.34" y2="29.00" stroke="#7f7f7f" stroke-width="1.00" clip-path="url('#clipping-rect1')" />
		<line x1="344.27" y1="31.00" x2="344.27" y2="29.00" stroke="#7f7f7f" stroke-width="1.00" clip-path="url('#clipping-rect1')" />
		<line x1="338.19" y1="31.00" x2="338.19" y2="29.00" stroke="#7f7f7f" stroke-width="1.00" clip-path="url('#clipping-rect1')" />
		<line x1="332.12" y1="31.00" x2="332.12" y2="29.00" stroke="#7f7f7f" stroke-width="1.00" clip-path="url('#clipping-rect1')" />
		<line x1="326.04" y1="31.00" x2="326.04" y2="29.00" stroke="#7f7f7f" stroke-width="1.00" clip-path="url('#clipping-rect1')" />
		<line x1="319.96" y1="31.00" x2="319.96" y2="29.00" stroke="#7f7f7f" stroke-width="1.00" clip-path="url('#clipping-rect1')" />
		<line x1="313.89" y1="31.00" x2="313.89" y2="29.00" stroke="#7f7f7f" stroke-width="1.00" clip-path="url('#clipping-rect1')" />
		<line x1="307.81" y1="31.00" x2="307.81" y2="29.00" stroke="#7f7f7f" stroke-width="1.00" clip-path="url('#clipping-rect1')" />
		<line x1="301.74" y1="31.00" x2="301.74" y2="29.00" stroke="#7f7f7f" stroke-width="1.00" clip-path="url('#clipping-rect1')" />
		<line x1="295.66" y1="31.00" x2="295.66" y2="28.00" stroke="#7f7f7f" stroke-width="1.00" clip-path="url('#clipping-rect1')" />
		<line x1="289.59" y1="31.00" x2="289.59" y2="29.00" stroke="#7f7f7f" stroke-width="1.00" clip-path="url('#clipping-rect1')" />
		<line x1="283.51" y1="31.00" x2="283.51" y2="29.00" stroke="#7f7f7f" stroke-width="1.00" clip-path="url('#clipping-rect1')" />
		<line x1="277.44" y1="31.00" x2="277.44" y2="29.00" stroke="#7f7f7f" stroke-width="1.00" clip-path="url('#clipping-rect1')" />
		<line x1="271.36" y1="31.00" x2="271.36" y2="29.00" stroke="#7f7f7f" stroke-width="1.00" clip-path="url('#clipping-rect1')" />
		<line x1="265.29" y1="31.00" x2="265.29" y2="29.00" stroke="#7f7f7f" stroke-width="1.00" clip-path="url('#clipping-rect1')" />
		<line x1="259.21" y1="31.00" x2="259.21" y2="29.00" stroke="#7f7f7f" stroke-width="1.00" clip-path="url('#clipping-rect1')" />
		<line x1="253.13" y1="31.00" x2="253.13" y2="29.00" stroke="#7f7f7f" stroke-width="1.00" clip-path="url('#clipping-rect1')" />
		<line x1="247.06" y1="31.00" x2="247.06" y2="29.00" stroke="#7f7f7f" stroke-width="1.00" clip-path="url('#clipping-rect1')" />
		<line x1="240.98" y1="31.00" x2="240.98" y2="29.00" stroke="#7f7f7f" stroke-width="1.00" clip-path="url('#clipping-rect1')" />
		<line x1="234.91" y1="31.00" x2="234.91" y2="28.00" stroke="#7f7f7f" stroke-width="1.00" clip-path="url('#clipping-rect1')" />
		<line x1="228.83" y1="31.00" x2="228.83" y2="29.00" stroke="#7f7f7f" stroke-width="1.00" clip-path="url('#clipping-rect1')" />
		<line x1="222.76" y1="31.00" x2="222.76" y2="29.00" stroke="#7f7f7f" stroke-width="1.00" clip-path="url('#clipping-rect1')" />
		<line x1="216.68" y1="31.00" x2="216.68" y2="29.00" stroke="#7f7f7f" stroke-width="1.00" clip-path="url('#clipping-rect1')" />
		<line x1="210.61" y1="31.00" x2="210.61" y2="29.00" stroke="#7f7f7f" stroke-width="1.00" clip-path="url('#clipping-rect1')" />
		<line x1="204.53" y1="31.00" x2="204.53" y2="29.00" stroke="#7f7f7f" stroke-width="1.00" clip-path="url('#clipping-rect1')" />
		<line x1="198.46" y1="31.00" x2="198.46" y2="29.00" stroke="#7f7f7f" stroke-width="1.00" clip-path="url('#clipping-rect1')" />
		<line x1="192.38" y1="31.00" x2="192.38" y2="29.00" stroke="#7f7f7f" stroke-width="1.00" clip-path="url('#clipping-rect1')" />
		<line x1="186.30" y1="31.00" x2="186.30" y2="29.00" stroke="#7f7f7f" stroke-width="1.00" clip-path="url('#clipping-rect1')" />
		<line x1="180.23" y1="31.00" x2="180.23" y2="29.00" stroke="#7f7f7f" stroke-width="1.00" clip-path="url('#clipping-rect1')" />
		<line x1="174.15" y1="31.00" x2="174.15" y2="28.00" stroke="#7f7f7f" stroke-width="1.00" clip-path="url('#clipping-rect1')" />
		<line x1="168.08" y1="31.00" x2="168.08" y2="29.00" stroke="#7f7f7f" stroke-width="1.00" clip-path="url('#clipping-rect1')" />
		<line x1="162.00" y1="31.00" x2="162.00" y2="29.00" stroke="#7f7f7f" stroke-width="1.00" clip-path="url('#clipping-rect1')" />
		<line x1="155.93" y1="31.00" x2="155.93" y2="29.00" stroke="#7f7f7f" stroke-width="1.00" clip-path="url('#clipping-rect1')" />
		<line x1="149.85" y1="31.00" x2="149.85" y2="29.00" stroke="#7f7f7f" stroke-width="1.00" clip-path="url('#clipping-rect1')" />
		<line x1="143.78" y1="31.00" x2="143.78" y2="29.00" stroke="#7f7f7f" stroke-width="1.00" clip-path="url('#clipping-rect1')" />
		<line x1="137.70" y1="31.00" x2="137.70" y2="29.00" stroke="#7f7f7f" stroke-width="1.00" clip-path="url('#clipping-rect1')" />
		<line x1="131.62" y1="31.00" x2="131.62" y2="29.00" stroke="#7f7f7f" stroke-width="1.00" clip-path="url('#clipping-rect1')" />
		<line x1="125.55" y1="31.00" x2="125.55" y2="29.00" stroke="#7f7f7f" stroke-width="1.00" clip-path="url('#clipping-rect1')" />
		<line x1="119.47" y1="31.00" x2="119.47" y2="29.00" stroke="#7f7f7f" stroke-width="1.00" clip-path="url('#clipping-rect1')" />
		<line x1="113.40" y1="31.00" x2="113.40" y2="28.00" stroke="#7f7f7f" stroke-width="1.00" clip-path="url('#clipping-rect1')" />
		<line x1="107.32" y1="31.00" x2="107.32" y2="29.00" stroke="#7f7f7f" stroke-width="1.00" clip-path="url('#clipping-rect1')" />
		<line x1="101.25" y1="31.00" x2="101.25" y2="29.00" stroke="#7f7f7f" stroke-width="1.00" clip-path="url('#clipping-rect1')" />
		<line x1="95.17" y1="31.00" x2="95.17" y2="29.00" stroke="#7f7f7f" stroke-width="1.00" clip-path="url('#clipping-rect1')" />
		<line x1="89.10" y1="31.00" x2="89.10" y2="29.00" stroke="#7f7f7f" stroke-width="1.00" clip-path="url('#clipping-rect1')" />
		<line x1="83.02" y1="31.00" x2="83.02" y2="29.00" stroke="#7f7f7f" stroke-width="1.00" clip-path="url('#clipping-rect1')" />
		<line x1="76.95" y1="31.00" x2="76.95" y2="29.00" stroke="#7f7f7f" stroke-width="1.00" clip-path="url('#clipping-rect1')" />
		<line x1="70.87" y1="31.00" x2="70.87" y2="29.00" stroke="#7f7f7f" stroke-width="1.00" clip-path="url('#clipping-rect1')" />
		<line x1="64.79" y1="31.00" x2="64.79" y2="29.00" stroke="#7f7f7f" stroke-width="1.00" clip-path="url('#clipping-rect1')" />
		<line x1="58.72" y1="31.00" x2="58.72" y2="29.00" stroke="#7f7f7f" stroke-width="1.00" clip-path="url('#clipping-rect1')" />
		<line x1="52.64" y1="31.00" x2="52.64" y2="28.00" stroke="#7f7f7f" stroke-width="1.00" clip-path="url('#clipping-rect1')" />
		<line x1="46.57" y1="31.00" x2="46.57" y2="29.00" stroke="#7f7f7f" stroke-width="1.00" clip-path="url('#clipping-rect1')" />
		<line x1="40.49" y1="31.00" x2="40.49" y2="29.00" stroke="#7f7f7f" stroke-width="1.00" clip-path="url('#clipping-rect1')" />
		<line x1="34.42" y1="31.00" x2="34.42" y2="29.00" stroke="#7f7f7f" stroke-width="1.00" clip-path="url('#clipping-rect1')" />
		<line x1="28.34" y1="31.00" x2="28.34" y2="29.00" stroke="#7f7f7f" stroke-width="1.00" clip-path="url('#clipping-rect1')" />
		<line x1="22.27" y1="31.00" x2="22.27" y2="29.00" stroke="#7f7f7f" stroke-width="1.00" clip-path="url('#clipping-rect1')" />
		<line x1="16.19" y1="31.00" x2="16.19" y2="29.00" stroke="#7f7f7f" stroke-width="1.00" clip-path="url('#clipping-rect1')" />
		<line x1="10.12" y1="31.00" x2="10.12" y2="29.00" stroke="#7f7f7f" stroke-width="1.00" clip-path="url('#clipping-rect1')" />
		<line x1="4.04" y1="31.00" x2="4.04" y2="29.00" stroke="#7f7f7f" stroke-width="1.00" clip-path="url('#clipping-rect1')" />
		<text x="0.03" y="26.00" font-family="Helvetica" font-size="12" fill="#333333" clip-path="url('#clipping-rect1')" >16,866</text>
		<line x1="0.03" y1="33.00" x2="0.03" y2="16.00" stroke="#7f7f7f" stroke-width="1.00" clip-path="url('#clipping-rect1')" />
		<text x="844.45" y="26.00" font-family="Helvetica" font-size="12" fill="#333333" clip-path="url('#clipping-rect1')" >3 K</text>
		<line x1="842.45" y1="33.00" x2="842.45" y2="16.00" stroke="#7f7f7f" stroke-width="1.00" clip-path="url('#clipping-rect1')" />
		<text x="783.70" y="26.00" font-family="Helvetica" font-size="12" fill="#333333" clip-path="url('#clipping-rect1')" >4 K</text>
		<line x1="781.70" y1="33.00" x2="781.70" y2="16.00" stroke="#7f7f7f" stroke-width="1.00" clip-path="url('#clipping-rect1')" />
		<text x="722.95" y="26.00" font-family="Helvetica" font-size="12" fill="#333333" clip-path="url('#clipping-rect1')" >5 K</text>
		<line x1="720.95" y1="33.00" x2="720.95" y2="16.00" stroke="#7f7f7f" stroke-width="1.00" clip-path="url('#clipping-rect1')" />
		<text x="662.19" y="26.00" font-family="Helvetica" font-size="12" fill="#333333" clip-path="url('#clipping-rect1')" >6 K</text>
		<line x1="660.19" y1="33.00" x2="660.19" y2="16.00" stroke="#7f7f7f" stroke-width="1.00" clip-path="url('#clipping-rect1')" />
		<text x="601.44" y="26.00" font-family="Helvetica" font-size="12" fill="#333333" clip-path="url('#clipping-rect1')" >7 K</text>
		<line x1="599.44" y1="33.00" x2="599.44" y2="16.00" stroke="#7f7f7f" stroke-width="1.00" clip-path="url('#clipping-rect1')" />
		<text x="540.68" y="26.00" font-family="Helvetica" font-size="12" fill="#333333" clip-path="url('#clipping-rect1')" >8 K</text>
		<line x1="538.68" y1="33.00" x2="538.68" y2="16.00" stroke="#7f7f7f" stroke-width="1.00" clip-path="url('#clipping-rect1')" />
		<text x="479.93" y="26.00" font-family="Helvetica" font-size="12" fill="#333333" clip-path="url('#clipping-rect1')" >9 K</text>
		<line x1="477.93" y1="33.00" x2="477.93" y2="16.00" stroke="#7f7f7f" stroke-width="1.00" clip-path="url('#clipping-rect1')" />
		<text x="419.17" y="26.00" font-family="Helvetica" font-size="12" fill="#333333" clip-path="url('#clipping-rect1')" >10 K</text>
		<line x1="417.17" y1="33.00" x2="417.17" y2="16.00" stroke="#7f7f7f" stroke-width="1.00" clip-path="url('#clipping-rect1')" />
		<text x="358.42" y="26.00" font-family="Helvetica" font-size="12" fill="#333333" clip-path="url('#clipping-rect1')" >11 K</text>
		<line x1="356.42" y1="33.00" x2="356.42" y2="16.00" stroke="#7f7f7f" stroke-width="1.00" clip-path="url('#clipping-rect1')" />
		<text x="297.66" y="26.00" font-family="Helvetica" font-size="12" fill="#333333" clip-path="url('#clipping-rect1')" >12 K</text>
		<line x1="295.66" y1="33.00" x2="295.66" y2="16.00" stroke="#7f7f7f" stroke-width="1.00" clip-path="url('#clipping-rect1')" />
		<text x="236.91" y="26.00" font-family="Helvetica" font-size="12" fill="#333333" clip-path="url('#clipping-rect1')" >13 K</text>
		<line x1="234.91" y1="33.00" x2="234.91" y2="16.00" stroke="#7f7f7f" stroke-width="1.00" clip-path="url('#clipping-rect1')" />
		<text x="176.15" y="26.00" font-family="Helvetica" font-size="12" fill="#333333" clip-path="url('#clipping-rect1')" >14 K</text>
		<line x1="174.15" y1="33.00" x2="174.15" y2="16.00" stroke="#7f7f7f" stroke-width="1.00" clip-path="url('#clipping-rect1')" />
		<text x="115.40" y="26.00" font-family="Helvetica" font-size="12" fill="#333333" clip-path="url('#clipping-rect1')" >15 K</text>
		<line x1="113.40" y1="33.00" x2="113.40" y2="16.00" stroke="#7f7f7f" stroke-width="1.00" clip-path="url('#clipping-rect1')" />
		<line x1="842.95" y1="88.00" x2="842.95" y2="33.00" stroke="#ebebeb" stroke-width="1.00" />
		<line x1="781.88" y1="88.00" x2="781.88" y2="33.00" stroke="#ebebeb" stroke-width="1.00" />
		<line x1="720.81" y1="88.00" x2="720.81" y2="33.00" stroke="#ebebeb" stroke-width="1.00" />
		<line x1="660.74" y1="88.00" x2="660.74" y2="33.00" stroke="#ebebeb" stroke-width="1.00" />
		<line x1="599.67" y1="88.00" x2="599.67" y2="33.00" stroke="#ebebeb" stroke-width="1.00" />
		<line x1="538.60" y1="88.00" x2="538.60" y2="33.00" stroke="#ebebeb" stroke-width="1.00" />
		<line x1="477.54" y1="88.00" x2="477.54" y2="33.00" stroke="#ebebeb" stroke-width="1.00" />
		<line x1="417.47" y1="88.00" x2="417.47" y2="33.00" stroke="#ebebeb" stroke-width="1.00" />
		<line x1="356.40" y1="88.00" x2="356.40" y2="33.00" stroke="#ebebeb" stroke-width="1.00" />
		<line x1="295.33" y1="88.00" x2="295.33" y2="33.00" stroke="#ebebeb" stroke-width="1.00" />
		<line x1="234.26" y1="88.00" x2="234.26" y2="33.00" stroke="#ebebeb" stroke-width="1.00" />
		<line x1="174.20" y1="88.00" x2="174.20" y2="33.00" stroke="#ebebeb" stroke-width="1.00" />
		<line x1="113.13" y1="88.00" x2="113.13" y2="33.00" stroke="#ebebeb" stroke-width="1.00" />
		<line x1="52.06" y1="88.00" x2="52.06" y2="33.00" stroke="#ebebeb" stroke-width="1.00" />
		<polygon fill="url('#gradient1')" shape-rendering="crispEdges" points="0.00,40.00 0.00,35.00 892.00,35.00 892.00,40.00 892.00,45.00 0.00,45.00 " />
		<line x1="892.00" y1="45.00" x2="892.00" y2="35.00" stroke="#6c6c6c" stroke-width="1.00" stroke-linejoin="round" />
		<line x1="892.00" y1="35.00" x2="0.00" y2="35.00" stroke="#6c6c6c" stroke-width="1.00" stroke-linejoin="round" />
		<line x1="0.00" y1="35.00" x2="0.00" y2="45.00" stroke="#6c6c6c" stroke-width="1.00" stroke-linejoin="round" />
		<line x1="892.00" y1="45.00" x2="0.00" y2="45.00" stroke="#6c6c6c" stroke-width="1.00" stroke-linejoin="round" />
		<polygon fill="url('#gradient2')" shape-rendering="crispEdges" points="0.00,39.50 0.00,46.00 892.00,46.00 892.00,39.50 892.00,33.00 0.00,33.00 " />
		<polygon fill="url('#gradient3')" shape-rendering="crispEdges" points="37.38,76.40 37.38,82.40 770.96,82.40 770.96,76.40 770.96,70.40 37.38,70.40 " />
		<polygon fill="#4c1919" fill-opacity="0.70" shape-rendering="crispEdges" points="778.36,76.40 774.36,70.40 773.36,70.40 777.36,76.40 773.36,82.40 774.36,82.40 " />
		<polygon fill="#4c1919" fill-opacity="0.30" shape-rendering="crispEdges" points="779.36,76.40 775.36,70.40 772.36,70.40 776.36,76.40 772.36,82.40 775.36,82.40 " />
		<polygon fill="#4c1919" fill-opacity="0.70" shape-rendering="crispEdges" points="774.36,76.40 770.36,70.40 769.36,70.40 773.36,76.40 769.36,82.40 770.36,82.40 " />
		<polygon fill="#4c1919" fill-opacity="0.30" shape-rendering="crispEdges" points="775.36,76.40 771.36,70.40 768.36,70.40 772.36,76.40 768.36,82.40 771.36,82.40 " />
		<polygon fill="url('#gradient3')" shape-rendering="crispEdges" points="770.96,76.40 770.96,84.80 779.36,76.40 770.96,68.00 " />
		<polygon fill="#8ab698" shape-rendering="crispEdges" points="37.38,76.40 37.38,70.40 28.98,70.40 " />
		<polygon fill="#8ab698" shape-rendering="crispEdges" points="37.38,76.40 37.38,82.40 28.98,82.40 " />
		<line x1="28.98" y1="70.40" x2="37.38" y2="70.40" stroke="#166e32" stroke-width="1.50" />
		<line x1="28.98" y1="70.40" x2="37.38" y2="76.40" stroke="#166e32" stroke-width="1.50" />
		<line x1="28.98" y1="82.40" x2="37.38" y2="82.40" stroke="#166e32" stroke-width="1.50" />
		<line x1="28.98" y1="82.40" x2="37.38" y2="76.40" stroke="#166e32" stroke-width="1.50" />
		<polygon fill="#4c1919" fill-opacity="0.70" shape-rendering="crispEdges" points="778.36,76.40 774.36,70.40 773.36,70.40 777.36,76.40 773.36,82.40 774.36,82.40 " />
		<polygon fill="#4c1919" fill-opacity="0.30" shape-rendering="crispEdges" points="779.36,76.40 775.36,70.40 772.36,70.40 776.36,76.40 772.36,82.40 775.36,82.40 " />
		<polygon fill="#4c1919" fill-opacity="0.70" shape-rendering="crispEdges" points="774.36,76.40 770.36,70.40 769.36,70.40 773.36,76.40 769.36,82.40 770.36,82.40 " />
		<polygon fill="#4c1919" fill-opacity="0.30" shape-rendering="crispEdges" points="775.36,76.40 771.36,70.40 768.36,70.40 772.36,76.40 768.36,82.40 771.36,82.40 " />
		<text x="383.59" y="80.90" font-family="Helvetica" font-size="12" fill="#ffffff" >WDR93</text>
		<polygon fill="#ffffff" shape-rendering="crispEdges" points="758.97,76.40 749.37,71.60 751.77,76.40 749.37,81.20 " />
		<polygon fill="#e0e0e0" shape-rendering="crispEdges" points="658.97,76.40 649.37,71.60 651.77,76.40 649.37,81.20 " />
		<polygon fill="#c1c1c1" shape-rendering="crispEdges" points="558.97,76.40 549.37,71.60 551.77,76.40 549.37,81.20 " />
		<polygon fill="#ffffff" shape-rendering="crispEdges" points="458.97,76.40 449.37,71.60 451.77,76.40 449.37,81.20 " />
		<polygon fill="#e0e0e0" shape-rendering="crispEdges" points="358.97,76.40 349.37,71.60 351.77,76.40 349.37,81.20 " />
		<polygon fill="#c1c1c1" shape-rendering="crispEdges" points="258.97,76.40 249.37,71.60 251.77,76.40 249.37,81.20 " />
		<polygon fill="#ffffff" shape-rendering="crispEdges" points="158.97,76.40 149.37,71.60 151.77,76.40 149.37,81.20 " />
		<polygon fill="#e0e0e0" shape-rendering="crispEdges" points="58.97,76.40 49.37,71.60 51.77,76.40 49.37,81.20 " />
		<polygon fill="url('#gradient4')" shape-rendering="crispEdges" points="0.00,62.00 891.94,62.00 891.94,47.00 0.00,47.00 " clip-path="url('#clipping-rect2')" />
		<text x="0.00" y="58.00" font-family="Helvetica" font-size="14" fill="#333333" >Genes, NCBI Pelecanus crispus Annotation Release 100, 2014-10-06</text>
		<polygon fill="#e5e5e5" shape-rendering="crispEdges" points="892.00,13.00 892.00,-1.00 0.00,-1.00 0.00,13.00 " />
		<text x="0.00" y="10.00" font-family="Helvetica Bold" font-size="12" text-anchor="start" fill="#000000" >NW_009086889.1:2184..16866 Pelecanus crispus isolate BGI_N334 unplaced genomic scaffold, ASM68737v1 scaffold56245, whole genome shotgun seque...</text>
	</g>
</svg>
