<?xml version="1.0" standalone="no" ?>
<!DOCTYPE svg PUBLIC "-//W3C//DTD SVG 1.1//EN" "http://www.w3.org/Graphics/SVG/1.1/DTD/svg11.dtd">
<svg width="892px" height="89px" xmlns="http://www.w3.org/2000/svg" version="1.1" viewBox="0 0 892 89" >
	<style type="text/css" > <![CDATA[
		@import url("https://www.ncbi.nlm.nih.gov/projects/sviewer/css/svg_fonts.css");
	]]>
	</style>
	<desc >Generated by NCBI Genome Workbench http://www.ncbi.nlm.nih.gov/tools/gbench/</desc>
	<defs >
		<clipPath id="clipping-rect1" >
			<rect x="0" y="14" width="892" height="20" />
		</clipPath>
		<linearGradient id="gradient1" gradientTransform="rotate(90)" >
			<stop offset="0%" stop-color="#6c6c6c" />
			<stop offset="50%" stop-color="#b5b5b5" />
			<stop offset="100%" stop-color="#6c6c6c" />
		</linearGradient>
		<linearGradient id="gradient2" gradientTransform="rotate(90)" >
			<stop offset="0%" stop-color="#10c010" />
			<stop offset="50%" stop-color="#87df87" />
			<stop offset="100%" stop-color="#10c010" />
		</linearGradient>
		<linearGradient id="gradient3" gradientTransform="rotate(90)" >
			<stop offset="0%" stop-color="#166e32" />
			<stop offset="50%" stop-color="#8ab698" />
			<stop offset="100%" stop-color="#166e32" />
		</linearGradient>
		<clipPath id="clipping-rect2" >
			<rect x="0" y="34" width="892" height="55" />
		</clipPath>
		<linearGradient id="gradient4" gradientTransform="rotate(90)" >
			<stop offset="0%" stop-color="#e6e6e6" stop-opacity="0.71" />
			<stop offset="100%" stop-color="#ffffff" stop-opacity="0.00" />
		</linearGradient>
	</defs>
	<g >
		<polygon fill="#ffffff" shape-rendering="crispEdges" points="892.00,33.00 892.00,13.00 0.00,13.00 0.00,33.00 " />
		<line x1="0.02" y1="31.00" x2="892.00" y2="31.00" stroke="#7f7f7f" stroke-width="1.00" clip-path="url('#clipping-rect1')" />
		<line x1="883.23" y1="31.00" x2="883.23" y2="28.00" stroke="#7f7f7f" stroke-width="1.00" clip-path="url('#clipping-rect1')" />
		<line x1="874.13" y1="31.00" x2="874.13" y2="29.00" stroke="#7f7f7f" stroke-width="1.00" clip-path="url('#clipping-rect1')" />
		<line x1="865.02" y1="31.00" x2="865.02" y2="29.00" stroke="#7f7f7f" stroke-width="1.00" clip-path="url('#clipping-rect1')" />
		<line x1="855.91" y1="31.00" x2="855.91" y2="29.00" stroke="#7f7f7f" stroke-width="1.00" clip-path="url('#clipping-rect1')" />
		<line x1="846.80" y1="31.00" x2="846.80" y2="29.00" stroke="#7f7f7f" stroke-width="1.00" clip-path="url('#clipping-rect1')" />
		<line x1="837.69" y1="31.00" x2="837.69" y2="28.00" stroke="#7f7f7f" stroke-width="1.00" clip-path="url('#clipping-rect1')" />
		<line x1="828.58" y1="31.00" x2="828.58" y2="29.00" stroke="#7f7f7f" stroke-width="1.00" clip-path="url('#clipping-rect1')" />
		<line x1="819.48" y1="31.00" x2="819.48" y2="29.00" stroke="#7f7f7f" stroke-width="1.00" clip-path="url('#clipping-rect1')" />
		<line x1="810.37" y1="31.00" x2="810.37" y2="29.00" stroke="#7f7f7f" stroke-width="1.00" clip-path="url('#clipping-rect1')" />
		<line x1="801.26" y1="31.00" x2="801.26" y2="29.00" stroke="#7f7f7f" stroke-width="1.00" clip-path="url('#clipping-rect1')" />
		<line x1="792.15" y1="31.00" x2="792.15" y2="28.00" stroke="#7f7f7f" stroke-width="1.00" clip-path="url('#clipping-rect1')" />
		<line x1="783.04" y1="31.00" x2="783.04" y2="29.00" stroke="#7f7f7f" stroke-width="1.00" clip-path="url('#clipping-rect1')" />
		<line x1="773.94" y1="31.00" x2="773.94" y2="29.00" stroke="#7f7f7f" stroke-width="1.00" clip-path="url('#clipping-rect1')" />
		<line x1="764.83" y1="31.00" x2="764.83" y2="29.00" stroke="#7f7f7f" stroke-width="1.00" clip-path="url('#clipping-rect1')" />
		<line x1="755.72" y1="31.00" x2="755.72" y2="29.00" stroke="#7f7f7f" stroke-width="1.00" clip-path="url('#clipping-rect1')" />
		<line x1="746.61" y1="31.00" x2="746.61" y2="28.00" stroke="#7f7f7f" stroke-width="1.00" clip-path="url('#clipping-rect1')" />
		<line x1="737.50" y1="31.00" x2="737.50" y2="29.00" stroke="#7f7f7f" stroke-width="1.00" clip-path="url('#clipping-rect1')" />
		<line x1="728.40" y1="31.00" x2="728.40" y2="29.00" stroke="#7f7f7f" stroke-width="1.00" clip-path="url('#clipping-rect1')" />
		<line x1="719.29" y1="31.00" x2="719.29" y2="29.00" stroke="#7f7f7f" stroke-width="1.00" clip-path="url('#clipping-rect1')" />
		<line x1="710.18" y1="31.00" x2="710.18" y2="29.00" stroke="#7f7f7f" stroke-width="1.00" clip-path="url('#clipping-rect1')" />
		<line x1="701.07" y1="31.00" x2="701.07" y2="28.00" stroke="#7f7f7f" stroke-width="1.00" clip-path="url('#clipping-rect1')" />
		<line x1="691.96" y1="31.00" x2="691.96" y2="29.00" stroke="#7f7f7f" stroke-width="1.00" clip-path="url('#clipping-rect1')" />
		<line x1="682.86" y1="31.00" x2="682.86" y2="29.00" stroke="#7f7f7f" stroke-width="1.00" clip-path="url('#clipping-rect1')" />
		<line x1="673.75" y1="31.00" x2="673.75" y2="29.00" stroke="#7f7f7f" stroke-width="1.00" clip-path="url('#clipping-rect1')" />
		<line x1="664.64" y1="31.00" x2="664.64" y2="29.00" stroke="#7f7f7f" stroke-width="1.00" clip-path="url('#clipping-rect1')" />
		<line x1="655.53" y1="31.00" x2="655.53" y2="28.00" stroke="#7f7f7f" stroke-width="1.00" clip-path="url('#clipping-rect1')" />
		<line x1="646.42" y1="31.00" x2="646.42" y2="29.00" stroke="#7f7f7f" stroke-width="1.00" clip-path="url('#clipping-rect1')" />
		<line x1="637.32" y1="31.00" x2="637.32" y2="29.00" stroke="#7f7f7f" stroke-width="1.00" clip-path="url('#clipping-rect1')" />
		<line x1="628.21" y1="31.00" x2="628.21" y2="29.00" stroke="#7f7f7f" stroke-width="1.00" clip-path="url('#clipping-rect1')" />
		<line x1="619.10" y1="31.00" x2="619.10" y2="29.00" stroke="#7f7f7f" stroke-width="1.00" clip-path="url('#clipping-rect1')" />
		<line x1="609.99" y1="31.00" x2="609.99" y2="28.00" stroke="#7f7f7f" stroke-width="1.00" clip-path="url('#clipping-rect1')" />
		<line x1="600.88" y1="31.00" x2="600.88" y2="29.00" stroke="#7f7f7f" stroke-width="1.00" clip-path="url('#clipping-rect1')" />
		<line x1="591.77" y1="31.00" x2="591.77" y2="29.00" stroke="#7f7f7f" stroke-width="1.00" clip-path="url('#clipping-rect1')" />
		<line x1="582.67" y1="31.00" x2="582.67" y2="29.00" stroke="#7f7f7f" stroke-width="1.00" clip-path="url('#clipping-rect1')" />
		<line x1="573.56" y1="31.00" x2="573.56" y2="29.00" stroke="#7f7f7f" stroke-width="1.00" clip-path="url('#clipping-rect1')" />
		<line x1="564.45" y1="31.00" x2="564.45" y2="28.00" stroke="#7f7f7f" stroke-width="1.00" clip-path="url('#clipping-rect1')" />
		<line x1="555.34" y1="31.00" x2="555.34" y2="29.00" stroke="#7f7f7f" stroke-width="1.00" clip-path="url('#clipping-rect1')" />
		<line x1="546.23" y1="31.00" x2="546.23" y2="29.00" stroke="#7f7f7f" stroke-width="1.00" clip-path="url('#clipping-rect1')" />
		<line x1="537.13" y1="31.00" x2="537.13" y2="29.00" stroke="#7f7f7f" stroke-width="1.00" clip-path="url('#clipping-rect1')" />
		<line x1="528.02" y1="31.00" x2="528.02" y2="29.00" stroke="#7f7f7f" stroke-width="1.00" clip-path="url('#clipping-rect1')" />
		<line x1="518.91" y1="31.00" x2="518.91" y2="28.00" stroke="#7f7f7f" stroke-width="1.00" clip-path="url('#clipping-rect1')" />
		<line x1="509.80" y1="31.00" x2="509.80" y2="29.00" stroke="#7f7f7f" stroke-width="1.00" clip-path="url('#clipping-rect1')" />
		<line x1="500.69" y1="31.00" x2="500.69" y2="29.00" stroke="#7f7f7f" stroke-width="1.00" clip-path="url('#clipping-rect1')" />
		<line x1="491.59" y1="31.00" x2="491.59" y2="29.00" stroke="#7f7f7f" stroke-width="1.00" clip-path="url('#clipping-rect1')" />
		<line x1="482.48" y1="31.00" x2="482.48" y2="29.00" stroke="#7f7f7f" stroke-width="1.00" clip-path="url('#clipping-rect1')" />
		<line x1="473.37" y1="31.00" x2="473.37" y2="28.00" stroke="#7f7f7f" stroke-width="1.00" clip-path="url('#clipping-rect1')" />
		<line x1="464.26" y1="31.00" x2="464.26" y2="29.00" stroke="#7f7f7f" stroke-width="1.00" clip-path="url('#clipping-rect1')" />
		<line x1="455.15" y1="31.00" x2="455.15" y2="29.00" stroke="#7f7f7f" stroke-width="1.00" clip-path="url('#clipping-rect1')" />
		<line x1="446.05" y1="31.00" x2="446.05" y2="29.00" stroke="#7f7f7f" stroke-width="1.00" clip-path="url('#clipping-rect1')" />
		<line x1="436.94" y1="31.00" x2="436.94" y2="29.00" stroke="#7f7f7f" stroke-width="1.00" clip-path="url('#clipping-rect1')" />
		<line x1="427.83" y1="31.00" x2="427.83" y2="28.00" stroke="#7f7f7f" stroke-width="1.00" clip-path="url('#clipping-rect1')" />
		<line x1="418.72" y1="31.00" x2="418.72" y2="29.00" stroke="#7f7f7f" stroke-width="1.00" clip-path="url('#clipping-rect1')" />
		<line x1="409.61" y1="31.00" x2="409.61" y2="29.00" stroke="#7f7f7f" stroke-width="1.00" clip-path="url('#clipping-rect1')" />
		<line x1="400.51" y1="31.00" x2="400.51" y2="29.00" stroke="#7f7f7f" stroke-width="1.00" clip-path="url('#clipping-rect1')" />
		<line x1="391.40" y1="31.00" x2="391.40" y2="29.00" stroke="#7f7f7f" stroke-width="1.00" clip-path="url('#clipping-rect1')" />
		<line x1="382.29" y1="31.00" x2="382.29" y2="28.00" stroke="#7f7f7f" stroke-width="1.00" clip-path="url('#clipping-rect1')" />
		<line x1="373.18" y1="31.00" x2="373.18" y2="29.00" stroke="#7f7f7f" stroke-width="1.00" clip-path="url('#clipping-rect1')" />
		<line x1="364.07" y1="31.00" x2="364.07" y2="29.00" stroke="#7f7f7f" stroke-width="1.00" clip-path="url('#clipping-rect1')" />
		<line x1="354.96" y1="31.00" x2="354.96" y2="29.00" stroke="#7f7f7f" stroke-width="1.00" clip-path="url('#clipping-rect1')" />
		<line x1="345.86" y1="31.00" x2="345.86" y2="29.00" stroke="#7f7f7f" stroke-width="1.00" clip-path="url('#clipping-rect1')" />
		<line x1="336.75" y1="31.00" x2="336.75" y2="28.00" stroke="#7f7f7f" stroke-width="1.00" clip-path="url('#clipping-rect1')" />
		<line x1="327.64" y1="31.00" x2="327.64" y2="29.00" stroke="#7f7f7f" stroke-width="1.00" clip-path="url('#clipping-rect1')" />
		<line x1="318.53" y1="31.00" x2="318.53" y2="29.00" stroke="#7f7f7f" stroke-width="1.00" clip-path="url('#clipping-rect1')" />
		<line x1="309.42" y1="31.00" x2="309.42" y2="29.00" stroke="#7f7f7f" stroke-width="1.00" clip-path="url('#clipping-rect1')" />
		<line x1="300.32" y1="31.00" x2="300.32" y2="29.00" stroke="#7f7f7f" stroke-width="1.00" clip-path="url('#clipping-rect1')" />
		<line x1="291.21" y1="31.00" x2="291.21" y2="28.00" stroke="#7f7f7f" stroke-width="1.00" clip-path="url('#clipping-rect1')" />
		<line x1="282.10" y1="31.00" x2="282.10" y2="29.00" stroke="#7f7f7f" stroke-width="1.00" clip-path="url('#clipping-rect1')" />
		<line x1="272.99" y1="31.00" x2="272.99" y2="29.00" stroke="#7f7f7f" stroke-width="1.00" clip-path="url('#clipping-rect1')" />
		<line x1="263.88" y1="31.00" x2="263.88" y2="29.00" stroke="#7f7f7f" stroke-width="1.00" clip-path="url('#clipping-rect1')" />
		<line x1="254.78" y1="31.00" x2="254.78" y2="29.00" stroke="#7f7f7f" stroke-width="1.00" clip-path="url('#clipping-rect1')" />
		<line x1="245.67" y1="31.00" x2="245.67" y2="28.00" stroke="#7f7f7f" stroke-width="1.00" clip-path="url('#clipping-rect1')" />
		<line x1="236.56" y1="31.00" x2="236.56" y2="29.00" stroke="#7f7f7f" stroke-width="1.00" clip-path="url('#clipping-rect1')" />
		<line x1="227.45" y1="31.00" x2="227.45" y2="29.00" stroke="#7f7f7f" stroke-width="1.00" clip-path="url('#clipping-rect1')" />
		<line x1="218.34" y1="31.00" x2="218.34" y2="29.00" stroke="#7f7f7f" stroke-width="1.00" clip-path="url('#clipping-rect1')" />
		<line x1="209.24" y1="31.00" x2="209.24" y2="29.00" stroke="#7f7f7f" stroke-width="1.00" clip-path="url('#clipping-rect1')" />
		<line x1="200.13" y1="31.00" x2="200.13" y2="28.00" stroke="#7f7f7f" stroke-width="1.00" clip-path="url('#clipping-rect1')" />
		<line x1="191.02" y1="31.00" x2="191.02" y2="29.00" stroke="#7f7f7f" stroke-width="1.00" clip-path="url('#clipping-rect1')" />
		<line x1="181.91" y1="31.00" x2="181.91" y2="29.00" stroke="#7f7f7f" stroke-width="1.00" clip-path="url('#clipping-rect1')" />
		<line x1="172.80" y1="31.00" x2="172.80" y2="29.00" stroke="#7f7f7f" stroke-width="1.00" clip-path="url('#clipping-rect1')" />
		<line x1="163.70" y1="31.00" x2="163.70" y2="29.00" stroke="#7f7f7f" stroke-width="1.00" clip-path="url('#clipping-rect1')" />
		<line x1="154.59" y1="31.00" x2="154.59" y2="28.00" stroke="#7f7f7f" stroke-width="1.00" clip-path="url('#clipping-rect1')" />
		<line x1="145.48" y1="31.00" x2="145.48" y2="29.00" stroke="#7f7f7f" stroke-width="1.00" clip-path="url('#clipping-rect1')" />
		<line x1="136.37" y1="31.00" x2="136.37" y2="29.00" stroke="#7f7f7f" stroke-width="1.00" clip-path="url('#clipping-rect1')" />
		<line x1="127.26" y1="31.00" x2="127.26" y2="29.00" stroke="#7f7f7f" stroke-width="1.00" clip-path="url('#clipping-rect1')" />
		<line x1="118.15" y1="31.00" x2="118.15" y2="29.00" stroke="#7f7f7f" stroke-width="1.00" clip-path="url('#clipping-rect1')" />
		<line x1="109.05" y1="31.00" x2="109.05" y2="28.00" stroke="#7f7f7f" stroke-width="1.00" clip-path="url('#clipping-rect1')" />
		<line x1="99.94" y1="31.00" x2="99.94" y2="29.00" stroke="#7f7f7f" stroke-width="1.00" clip-path="url('#clipping-rect1')" />
		<line x1="90.83" y1="31.00" x2="90.83" y2="29.00" stroke="#7f7f7f" stroke-width="1.00" clip-path="url('#clipping-rect1')" />
		<line x1="81.72" y1="31.00" x2="81.72" y2="29.00" stroke="#7f7f7f" stroke-width="1.00" clip-path="url('#clipping-rect1')" />
		<line x1="72.61" y1="31.00" x2="72.61" y2="29.00" stroke="#7f7f7f" stroke-width="1.00" clip-path="url('#clipping-rect1')" />
		<line x1="63.51" y1="31.00" x2="63.51" y2="28.00" stroke="#7f7f7f" stroke-width="1.00" clip-path="url('#clipping-rect1')" />
		<line x1="54.40" y1="31.00" x2="54.40" y2="29.00" stroke="#7f7f7f" stroke-width="1.00" clip-path="url('#clipping-rect1')" />
		<line x1="45.29" y1="31.00" x2="45.29" y2="29.00" stroke="#7f7f7f" stroke-width="1.00" clip-path="url('#clipping-rect1')" />
		<line x1="36.18" y1="31.00" x2="36.18" y2="29.00" stroke="#7f7f7f" stroke-width="1.00" clip-path="url('#clipping-rect1')" />
		<line x1="27.07" y1="31.00" x2="27.07" y2="29.00" stroke="#7f7f7f" stroke-width="1.00" clip-path="url('#clipping-rect1')" />
		<line x1="17.97" y1="31.00" x2="17.97" y2="28.00" stroke="#7f7f7f" stroke-width="1.00" clip-path="url('#clipping-rect1')" />
		<line x1="8.86" y1="31.00" x2="8.86" y2="29.00" stroke="#7f7f7f" stroke-width="1.00" clip-path="url('#clipping-rect1')" />
		<text x="0.02" y="26.00" font-family="Helvetica" font-size="12" fill="#333333" clip-path="url('#clipping-rect1')" >27,394</text>
		<line x1="0.02" y1="33.00" x2="0.02" y2="16.00" stroke="#7f7f7f" stroke-width="1.00" clip-path="url('#clipping-rect1')" />
		<line x1="883.23" y1="33.00" x2="883.23" y2="16.00" stroke="#7f7f7f" stroke-width="1.00" clip-path="url('#clipping-rect1')" />
		<text x="839.69" y="26.00" font-family="Helvetica" font-size="12" fill="#333333" clip-path="url('#clipping-rect1')" >9 K</text>
		<line x1="837.69" y1="33.00" x2="837.69" y2="16.00" stroke="#7f7f7f" stroke-width="1.00" clip-path="url('#clipping-rect1')" />
		<text x="794.15" y="26.00" font-family="Helvetica" font-size="12" fill="#333333" clip-path="url('#clipping-rect1')" >10 K</text>
		<line x1="792.15" y1="33.00" x2="792.15" y2="16.00" stroke="#7f7f7f" stroke-width="1.00" clip-path="url('#clipping-rect1')" />
		<text x="748.61" y="26.00" font-family="Helvetica" font-size="12" fill="#333333" clip-path="url('#clipping-rect1')" >11 K</text>
		<line x1="746.61" y1="33.00" x2="746.61" y2="16.00" stroke="#7f7f7f" stroke-width="1.00" clip-path="url('#clipping-rect1')" />
		<text x="703.07" y="26.00" font-family="Helvetica" font-size="12" fill="#333333" clip-path="url('#clipping-rect1')" >12 K</text>
		<line x1="701.07" y1="33.00" x2="701.07" y2="16.00" stroke="#7f7f7f" stroke-width="1.00" clip-path="url('#clipping-rect1')" />
		<text x="657.53" y="26.00" font-family="Helvetica" font-size="12" fill="#333333" clip-path="url('#clipping-rect1')" >13 K</text>
		<line x1="655.53" y1="33.00" x2="655.53" y2="16.00" stroke="#7f7f7f" stroke-width="1.00" clip-path="url('#clipping-rect1')" />
		<text x="611.99" y="26.00" font-family="Helvetica" font-size="12" fill="#333333" clip-path="url('#clipping-rect1')" >14 K</text>
		<line x1="609.99" y1="33.00" x2="609.99" y2="16.00" stroke="#7f7f7f" stroke-width="1.00" clip-path="url('#clipping-rect1')" />
		<text x="566.45" y="26.00" font-family="Helvetica" font-size="12" fill="#333333" clip-path="url('#clipping-rect1')" >15 K</text>
		<line x1="564.45" y1="33.00" x2="564.45" y2="16.00" stroke="#7f7f7f" stroke-width="1.00" clip-path="url('#clipping-rect1')" />
		<text x="520.91" y="26.00" font-family="Helvetica" font-size="12" fill="#333333" clip-path="url('#clipping-rect1')" >16 K</text>
		<line x1="518.91" y1="33.00" x2="518.91" y2="16.00" stroke="#7f7f7f" stroke-width="1.00" clip-path="url('#clipping-rect1')" />
		<text x="475.37" y="26.00" font-family="Helvetica" font-size="12" fill="#333333" clip-path="url('#clipping-rect1')" >17 K</text>
		<line x1="473.37" y1="33.00" x2="473.37" y2="16.00" stroke="#7f7f7f" stroke-width="1.00" clip-path="url('#clipping-rect1')" />
		<text x="429.83" y="26.00" font-family="Helvetica" font-size="12" fill="#333333" clip-path="url('#clipping-rect1')" >18 K</text>
		<line x1="427.83" y1="33.00" x2="427.83" y2="16.00" stroke="#7f7f7f" stroke-width="1.00" clip-path="url('#clipping-rect1')" />
		<text x="384.29" y="26.00" font-family="Helvetica" font-size="12" fill="#333333" clip-path="url('#clipping-rect1')" >19 K</text>
		<line x1="382.29" y1="33.00" x2="382.29" y2="16.00" stroke="#7f7f7f" stroke-width="1.00" clip-path="url('#clipping-rect1')" />
		<text x="338.75" y="26.00" font-family="Helvetica" font-size="12" fill="#333333" clip-path="url('#clipping-rect1')" >20 K</text>
		<line x1="336.75" y1="33.00" x2="336.75" y2="16.00" stroke="#7f7f7f" stroke-width="1.00" clip-path="url('#clipping-rect1')" />
		<text x="293.21" y="26.00" font-family="Helvetica" font-size="12" fill="#333333" clip-path="url('#clipping-rect1')" >21 K</text>
		<line x1="291.21" y1="33.00" x2="291.21" y2="16.00" stroke="#7f7f7f" stroke-width="1.00" clip-path="url('#clipping-rect1')" />
		<text x="247.67" y="26.00" font-family="Helvetica" font-size="12" fill="#333333" clip-path="url('#clipping-rect1')" >22 K</text>
		<line x1="245.67" y1="33.00" x2="245.67" y2="16.00" stroke="#7f7f7f" stroke-width="1.00" clip-path="url('#clipping-rect1')" />
		<text x="202.13" y="26.00" font-family="Helvetica" font-size="12" fill="#333333" clip-path="url('#clipping-rect1')" >23 K</text>
		<line x1="200.13" y1="33.00" x2="200.13" y2="16.00" stroke="#7f7f7f" stroke-width="1.00" clip-path="url('#clipping-rect1')" />
		<text x="156.59" y="26.00" font-family="Helvetica" font-size="12" fill="#333333" clip-path="url('#clipping-rect1')" >24 K</text>
		<line x1="154.59" y1="33.00" x2="154.59" y2="16.00" stroke="#7f7f7f" stroke-width="1.00" clip-path="url('#clipping-rect1')" />
		<text x="111.05" y="26.00" font-family="Helvetica" font-size="12" fill="#333333" clip-path="url('#clipping-rect1')" >25 K</text>
		<line x1="109.05" y1="33.00" x2="109.05" y2="16.00" stroke="#7f7f7f" stroke-width="1.00" clip-path="url('#clipping-rect1')" />
		<text x="65.51" y="26.00" font-family="Helvetica" font-size="12" fill="#333333" clip-path="url('#clipping-rect1')" >26 K</text>
		<line x1="63.51" y1="33.00" x2="63.51" y2="16.00" stroke="#7f7f7f" stroke-width="1.00" clip-path="url('#clipping-rect1')" />
		<line x1="883.99" y1="88.00" x2="883.99" y2="33.00" stroke="#ebebeb" stroke-width="1.00" />
		<line x1="837.94" y1="88.00" x2="837.94" y2="33.00" stroke="#ebebeb" stroke-width="1.00" />
		<line x1="792.89" y1="88.00" x2="792.89" y2="33.00" stroke="#ebebeb" stroke-width="1.00" />
		<line x1="746.84" y1="88.00" x2="746.84" y2="33.00" stroke="#ebebeb" stroke-width="1.00" />
		<line x1="701.79" y1="88.00" x2="701.79" y2="33.00" stroke="#ebebeb" stroke-width="1.00" />
		<line x1="655.74" y1="88.00" x2="655.74" y2="33.00" stroke="#ebebeb" stroke-width="1.00" />
		<line x1="609.68" y1="88.00" x2="609.68" y2="33.00" stroke="#ebebeb" stroke-width="1.00" />
		<line x1="564.63" y1="88.00" x2="564.63" y2="33.00" stroke="#ebebeb" stroke-width="1.00" />
		<line x1="518.58" y1="88.00" x2="518.58" y2="33.00" stroke="#ebebeb" stroke-width="1.00" />
		<line x1="473.53" y1="88.00" x2="473.53" y2="33.00" stroke="#ebebeb" stroke-width="1.00" />
		<line x1="427.48" y1="88.00" x2="427.48" y2="33.00" stroke="#ebebeb" stroke-width="1.00" />
		<line x1="382.43" y1="88.00" x2="382.43" y2="33.00" stroke="#ebebeb" stroke-width="1.00" />
		<line x1="336.38" y1="88.00" x2="336.38" y2="33.00" stroke="#ebebeb" stroke-width="1.00" />
		<line x1="291.33" y1="88.00" x2="291.33" y2="33.00" stroke="#ebebeb" stroke-width="1.00" />
		<line x1="245.27" y1="88.00" x2="245.27" y2="33.00" stroke="#ebebeb" stroke-width="1.00" />
		<line x1="200.22" y1="88.00" x2="200.22" y2="33.00" stroke="#ebebeb" stroke-width="1.00" />
		<line x1="154.17" y1="88.00" x2="154.17" y2="33.00" stroke="#ebebeb" stroke-width="1.00" />
		<line x1="109.12" y1="88.00" x2="109.12" y2="33.00" stroke="#ebebeb" stroke-width="1.00" />
		<line x1="63.07" y1="88.00" x2="63.07" y2="33.00" stroke="#ebebeb" stroke-width="1.00" />
		<line x1="17.02" y1="88.00" x2="17.02" y2="33.00" stroke="#ebebeb" stroke-width="1.00" />
		<polygon fill="url('#gradient1')" shape-rendering="crispEdges" points="0.00,40.00 0.00,35.00 892.00,35.00 892.00,40.00 892.00,45.00 0.00,45.00 " />
		<line x1="892.00" y1="45.00" x2="892.00" y2="35.00" stroke="#6c6c6c" stroke-width="1.00" stroke-linejoin="round" />
		<line x1="892.00" y1="35.00" x2="0.00" y2="35.00" stroke="#6c6c6c" stroke-width="1.00" stroke-linejoin="round" />
		<line x1="0.00" y1="35.00" x2="0.00" y2="45.00" stroke="#6c6c6c" stroke-width="1.00" stroke-linejoin="round" />
		<line x1="892.00" y1="45.00" x2="0.00" y2="45.00" stroke="#6c6c6c" stroke-width="1.00" stroke-linejoin="round" />
		<polygon fill="url('#gradient2')" shape-rendering="crispEdges" points="0.00,39.50 0.00,46.00 892.00,46.00 892.00,39.50 892.00,33.00 0.00,33.00 " />
		<polygon fill="url('#gradient3')" shape-rendering="crispEdges" points="30.30,76.40 30.30,82.40 511.53,82.40 511.53,76.40 511.53,70.40 30.30,70.40 " />
		<polygon fill="url('#gradient3')" shape-rendering="crispEdges" points="511.53,76.40 511.53,84.80 519.93,76.40 511.53,68.00 " />
		<polygon fill="#8ab698" shape-rendering="crispEdges" points="30.30,76.40 30.30,70.40 21.90,70.40 " />
		<polygon fill="#8ab698" shape-rendering="crispEdges" points="30.30,76.40 30.30,82.40 21.90,82.40 " />
		<line x1="21.90" y1="70.40" x2="30.30" y2="70.40" stroke="#166e32" stroke-width="1.50" />
		<line x1="21.90" y1="70.40" x2="30.30" y2="76.40" stroke="#166e32" stroke-width="1.50" />
		<line x1="21.90" y1="82.40" x2="30.30" y2="82.40" stroke="#166e32" stroke-width="1.50" />
		<line x1="21.90" y1="82.40" x2="30.30" y2="76.40" stroke="#166e32" stroke-width="1.50" />
		<text x="250.34" y="80.90" font-family="Helvetica" font-size="12" fill="#ffffff" >WDR93</text>
		<polygon fill="#ffffff" shape-rendering="crispEdges" points="475.72,76.40 466.12,71.60 468.52,76.40 466.12,81.20 " />
		<polygon fill="#e0e0e0" shape-rendering="crispEdges" points="375.72,76.40 366.12,71.60 368.52,76.40 366.12,81.20 " />
		<polygon fill="#ffffff" shape-rendering="crispEdges" points="175.72,76.40 166.12,71.60 168.52,76.40 166.12,81.20 " />
		<polygon fill="#e0e0e0" shape-rendering="crispEdges" points="75.72,76.40 66.12,71.60 68.52,76.40 66.12,81.20 " />
		<polygon fill="url('#gradient4')" shape-rendering="crispEdges" points="0.00,62.00 891.95,62.00 891.95,47.00 0.00,47.00 " clip-path="url('#clipping-rect2')" />
		<text x="0.00" y="58.00" font-family="Helvetica" font-size="14" fill="#333333" >Genes, NCBI Phaethon lepturus Annotation Release 100, 2014-11-17</text>
		<polygon fill="#e5e5e5" shape-rendering="crispEdges" points="892.00,13.00 892.00,-1.00 0.00,-1.00 0.00,13.00 " />
		<text x="0.00" y="10.00" font-family="Helvetica Bold" font-size="12" text-anchor="start" fill="#000000" >NW_010557540.1:7807..27394 Phaethon lepturus isolate BGI_N335 unplaced genomic scaffold, ASM68728v1 scaffold38678, whole genome shotgun seque...</text>
	</g>
</svg>
