<?xml version="1.0" standalone="no" ?>
<!DOCTYPE svg PUBLIC "-//W3C//DTD SVG 1.1//EN" "http://www.w3.org/Graphics/SVG/1.1/DTD/svg11.dtd">
<svg width="892px" height="89px" xmlns="http://www.w3.org/2000/svg" version="1.1" viewBox="0 0 892 89" >
	<style type="text/css" > <![CDATA[
		@import url("https://www.ncbi.nlm.nih.gov/projects/sviewer/css/svg_fonts.css");
	]]>
	</style>
	<desc >Generated by NCBI Genome Workbench http://www.ncbi.nlm.nih.gov/tools/gbench/</desc>
	<defs >
		<clipPath id="clipping-rect1" >
			<rect x="0" y="14" width="892" height="20" />
		</clipPath>
		<linearGradient id="gradient1" gradientTransform="rotate(90)" >
			<stop offset="0%" stop-color="#6c6c6c" />
			<stop offset="50%" stop-color="#b5b5b5" />
			<stop offset="100%" stop-color="#6c6c6c" />
		</linearGradient>
		<linearGradient id="gradient2" gradientTransform="rotate(90)" >
			<stop offset="0%" stop-color="#10c010" />
			<stop offset="50%" stop-color="#87df87" />
			<stop offset="100%" stop-color="#10c010" />
		</linearGradient>
		<linearGradient id="gradient3" gradientTransform="rotate(90)" >
			<stop offset="0%" stop-color="#166e32" />
			<stop offset="50%" stop-color="#8ab698" />
			<stop offset="100%" stop-color="#166e32" />
		</linearGradient>
		<clipPath id="clipping-rect2" >
			<rect x="0" y="34" width="892" height="55" />
		</clipPath>
		<linearGradient id="gradient4" gradientTransform="rotate(90)" >
			<stop offset="0%" stop-color="#e6e6e6" stop-opacity="0.71" />
			<stop offset="100%" stop-color="#ffffff" stop-opacity="0.00" />
		</linearGradient>
	</defs>
	<g >
		<polygon fill="#ffffff" shape-rendering="crispEdges" points="892.00,33.00 892.00,13.00 0.00,13.00 0.00,33.00 " />
		<line x1="0.02" y1="30.89" x2="892.00" y2="30.89" stroke="#7f7f7f" stroke-width="1.00" clip-path="url('#clipping-rect1')" />
		<line x1="6.31" y1="30.89" x2="6.31" y2="28.79" stroke="#7f7f7f" stroke-width="1.00" clip-path="url('#clipping-rect1')" />
		<line x1="12.64" y1="30.89" x2="12.64" y2="28.79" stroke="#7f7f7f" stroke-width="1.00" clip-path="url('#clipping-rect1')" />
		<line x1="18.97" y1="30.89" x2="18.97" y2="28.79" stroke="#7f7f7f" stroke-width="1.00" clip-path="url('#clipping-rect1')" />
		<line x1="25.30" y1="30.89" x2="25.30" y2="28.79" stroke="#7f7f7f" stroke-width="1.00" clip-path="url('#clipping-rect1')" />
		<line x1="31.63" y1="30.89" x2="31.63" y2="27.74" stroke="#7f7f7f" stroke-width="1.00" clip-path="url('#clipping-rect1')" />
		<line x1="37.96" y1="30.89" x2="37.96" y2="28.79" stroke="#7f7f7f" stroke-width="1.00" clip-path="url('#clipping-rect1')" />
		<line x1="44.28" y1="30.89" x2="44.28" y2="28.79" stroke="#7f7f7f" stroke-width="1.00" clip-path="url('#clipping-rect1')" />
		<line x1="50.61" y1="30.89" x2="50.61" y2="28.79" stroke="#7f7f7f" stroke-width="1.00" clip-path="url('#clipping-rect1')" />
		<line x1="56.94" y1="30.89" x2="56.94" y2="28.79" stroke="#7f7f7f" stroke-width="1.00" clip-path="url('#clipping-rect1')" />
		<line x1="63.27" y1="30.89" x2="63.27" y2="27.74" stroke="#7f7f7f" stroke-width="1.00" clip-path="url('#clipping-rect1')" />
		<line x1="69.60" y1="30.89" x2="69.60" y2="28.79" stroke="#7f7f7f" stroke-width="1.00" clip-path="url('#clipping-rect1')" />
		<line x1="75.93" y1="30.89" x2="75.93" y2="28.79" stroke="#7f7f7f" stroke-width="1.00" clip-path="url('#clipping-rect1')" />
		<line x1="82.25" y1="30.89" x2="82.25" y2="28.79" stroke="#7f7f7f" stroke-width="1.00" clip-path="url('#clipping-rect1')" />
		<line x1="88.58" y1="30.89" x2="88.58" y2="28.79" stroke="#7f7f7f" stroke-width="1.00" clip-path="url('#clipping-rect1')" />
		<line x1="94.91" y1="30.89" x2="94.91" y2="27.74" stroke="#7f7f7f" stroke-width="1.00" clip-path="url('#clipping-rect1')" />
		<line x1="101.24" y1="30.89" x2="101.24" y2="28.79" stroke="#7f7f7f" stroke-width="1.00" clip-path="url('#clipping-rect1')" />
		<line x1="107.57" y1="30.89" x2="107.57" y2="28.79" stroke="#7f7f7f" stroke-width="1.00" clip-path="url('#clipping-rect1')" />
		<line x1="113.90" y1="30.89" x2="113.90" y2="28.79" stroke="#7f7f7f" stroke-width="1.00" clip-path="url('#clipping-rect1')" />
		<line x1="120.23" y1="30.89" x2="120.23" y2="28.79" stroke="#7f7f7f" stroke-width="1.00" clip-path="url('#clipping-rect1')" />
		<line x1="126.55" y1="30.89" x2="126.55" y2="27.74" stroke="#7f7f7f" stroke-width="1.00" clip-path="url('#clipping-rect1')" />
		<line x1="132.88" y1="30.89" x2="132.88" y2="28.79" stroke="#7f7f7f" stroke-width="1.00" clip-path="url('#clipping-rect1')" />
		<line x1="139.21" y1="30.89" x2="139.21" y2="28.79" stroke="#7f7f7f" stroke-width="1.00" clip-path="url('#clipping-rect1')" />
		<line x1="145.54" y1="30.89" x2="145.54" y2="28.79" stroke="#7f7f7f" stroke-width="1.00" clip-path="url('#clipping-rect1')" />
		<line x1="151.87" y1="30.89" x2="151.87" y2="28.79" stroke="#7f7f7f" stroke-width="1.00" clip-path="url('#clipping-rect1')" />
		<line x1="158.20" y1="30.89" x2="158.20" y2="27.74" stroke="#7f7f7f" stroke-width="1.00" clip-path="url('#clipping-rect1')" />
		<line x1="164.52" y1="30.89" x2="164.52" y2="28.79" stroke="#7f7f7f" stroke-width="1.00" clip-path="url('#clipping-rect1')" />
		<line x1="170.85" y1="30.89" x2="170.85" y2="28.79" stroke="#7f7f7f" stroke-width="1.00" clip-path="url('#clipping-rect1')" />
		<line x1="177.18" y1="30.89" x2="177.18" y2="28.79" stroke="#7f7f7f" stroke-width="1.00" clip-path="url('#clipping-rect1')" />
		<line x1="183.51" y1="30.89" x2="183.51" y2="28.79" stroke="#7f7f7f" stroke-width="1.00" clip-path="url('#clipping-rect1')" />
		<line x1="189.84" y1="30.89" x2="189.84" y2="27.74" stroke="#7f7f7f" stroke-width="1.00" clip-path="url('#clipping-rect1')" />
		<line x1="196.17" y1="30.89" x2="196.17" y2="28.79" stroke="#7f7f7f" stroke-width="1.00" clip-path="url('#clipping-rect1')" />
		<line x1="202.50" y1="30.89" x2="202.50" y2="28.79" stroke="#7f7f7f" stroke-width="1.00" clip-path="url('#clipping-rect1')" />
		<line x1="208.82" y1="30.89" x2="208.82" y2="28.79" stroke="#7f7f7f" stroke-width="1.00" clip-path="url('#clipping-rect1')" />
		<line x1="215.15" y1="30.89" x2="215.15" y2="28.79" stroke="#7f7f7f" stroke-width="1.00" clip-path="url('#clipping-rect1')" />
		<line x1="221.48" y1="30.89" x2="221.48" y2="27.74" stroke="#7f7f7f" stroke-width="1.00" clip-path="url('#clipping-rect1')" />
		<line x1="227.81" y1="30.89" x2="227.81" y2="28.79" stroke="#7f7f7f" stroke-width="1.00" clip-path="url('#clipping-rect1')" />
		<line x1="234.14" y1="30.89" x2="234.14" y2="28.79" stroke="#7f7f7f" stroke-width="1.00" clip-path="url('#clipping-rect1')" />
		<line x1="240.47" y1="30.89" x2="240.47" y2="28.79" stroke="#7f7f7f" stroke-width="1.00" clip-path="url('#clipping-rect1')" />
		<line x1="246.80" y1="30.89" x2="246.80" y2="28.79" stroke="#7f7f7f" stroke-width="1.00" clip-path="url('#clipping-rect1')" />
		<line x1="253.12" y1="30.89" x2="253.12" y2="27.74" stroke="#7f7f7f" stroke-width="1.00" clip-path="url('#clipping-rect1')" />
		<line x1="259.45" y1="30.89" x2="259.45" y2="28.79" stroke="#7f7f7f" stroke-width="1.00" clip-path="url('#clipping-rect1')" />
		<line x1="265.78" y1="30.89" x2="265.78" y2="28.79" stroke="#7f7f7f" stroke-width="1.00" clip-path="url('#clipping-rect1')" />
		<line x1="272.11" y1="30.89" x2="272.11" y2="28.79" stroke="#7f7f7f" stroke-width="1.00" clip-path="url('#clipping-rect1')" />
		<line x1="278.44" y1="30.89" x2="278.44" y2="28.79" stroke="#7f7f7f" stroke-width="1.00" clip-path="url('#clipping-rect1')" />
		<line x1="284.77" y1="30.89" x2="284.77" y2="27.74" stroke="#7f7f7f" stroke-width="1.00" clip-path="url('#clipping-rect1')" />
		<line x1="291.09" y1="30.89" x2="291.09" y2="28.79" stroke="#7f7f7f" stroke-width="1.00" clip-path="url('#clipping-rect1')" />
		<line x1="297.42" y1="30.89" x2="297.42" y2="28.79" stroke="#7f7f7f" stroke-width="1.00" clip-path="url('#clipping-rect1')" />
		<line x1="303.75" y1="30.89" x2="303.75" y2="28.79" stroke="#7f7f7f" stroke-width="1.00" clip-path="url('#clipping-rect1')" />
		<line x1="310.08" y1="30.89" x2="310.08" y2="28.79" stroke="#7f7f7f" stroke-width="1.00" clip-path="url('#clipping-rect1')" />
		<line x1="316.41" y1="30.89" x2="316.41" y2="27.74" stroke="#7f7f7f" stroke-width="1.00" clip-path="url('#clipping-rect1')" />
		<line x1="322.74" y1="30.89" x2="322.74" y2="28.79" stroke="#7f7f7f" stroke-width="1.00" clip-path="url('#clipping-rect1')" />
		<line x1="329.07" y1="30.89" x2="329.07" y2="28.79" stroke="#7f7f7f" stroke-width="1.00" clip-path="url('#clipping-rect1')" />
		<line x1="335.39" y1="30.89" x2="335.39" y2="28.79" stroke="#7f7f7f" stroke-width="1.00" clip-path="url('#clipping-rect1')" />
		<line x1="341.72" y1="30.89" x2="341.72" y2="28.79" stroke="#7f7f7f" stroke-width="1.00" clip-path="url('#clipping-rect1')" />
		<line x1="348.05" y1="30.89" x2="348.05" y2="27.74" stroke="#7f7f7f" stroke-width="1.00" clip-path="url('#clipping-rect1')" />
		<line x1="354.38" y1="30.89" x2="354.38" y2="28.79" stroke="#7f7f7f" stroke-width="1.00" clip-path="url('#clipping-rect1')" />
		<line x1="360.71" y1="30.89" x2="360.71" y2="28.79" stroke="#7f7f7f" stroke-width="1.00" clip-path="url('#clipping-rect1')" />
		<line x1="367.04" y1="30.89" x2="367.04" y2="28.79" stroke="#7f7f7f" stroke-width="1.00" clip-path="url('#clipping-rect1')" />
		<line x1="373.36" y1="30.89" x2="373.36" y2="28.79" stroke="#7f7f7f" stroke-width="1.00" clip-path="url('#clipping-rect1')" />
		<line x1="379.69" y1="30.89" x2="379.69" y2="27.74" stroke="#7f7f7f" stroke-width="1.00" clip-path="url('#clipping-rect1')" />
		<line x1="386.02" y1="30.89" x2="386.02" y2="28.79" stroke="#7f7f7f" stroke-width="1.00" clip-path="url('#clipping-rect1')" />
		<line x1="392.35" y1="30.89" x2="392.35" y2="28.79" stroke="#7f7f7f" stroke-width="1.00" clip-path="url('#clipping-rect1')" />
		<line x1="398.68" y1="30.89" x2="398.68" y2="28.79" stroke="#7f7f7f" stroke-width="1.00" clip-path="url('#clipping-rect1')" />
		<line x1="405.01" y1="30.89" x2="405.01" y2="28.79" stroke="#7f7f7f" stroke-width="1.00" clip-path="url('#clipping-rect1')" />
		<line x1="411.34" y1="30.89" x2="411.34" y2="27.74" stroke="#7f7f7f" stroke-width="1.00" clip-path="url('#clipping-rect1')" />
		<line x1="417.66" y1="30.89" x2="417.66" y2="28.79" stroke="#7f7f7f" stroke-width="1.00" clip-path="url('#clipping-rect1')" />
		<line x1="423.99" y1="30.89" x2="423.99" y2="28.79" stroke="#7f7f7f" stroke-width="1.00" clip-path="url('#clipping-rect1')" />
		<line x1="430.32" y1="30.89" x2="430.32" y2="28.79" stroke="#7f7f7f" stroke-width="1.00" clip-path="url('#clipping-rect1')" />
		<line x1="436.65" y1="30.89" x2="436.65" y2="28.79" stroke="#7f7f7f" stroke-width="1.00" clip-path="url('#clipping-rect1')" />
		<line x1="442.98" y1="30.89" x2="442.98" y2="27.74" stroke="#7f7f7f" stroke-width="1.00" clip-path="url('#clipping-rect1')" />
		<line x1="449.31" y1="30.89" x2="449.31" y2="28.79" stroke="#7f7f7f" stroke-width="1.00" clip-path="url('#clipping-rect1')" />
		<line x1="455.64" y1="30.89" x2="455.64" y2="28.79" stroke="#7f7f7f" stroke-width="1.00" clip-path="url('#clipping-rect1')" />
		<line x1="461.96" y1="30.89" x2="461.96" y2="28.79" stroke="#7f7f7f" stroke-width="1.00" clip-path="url('#clipping-rect1')" />
		<line x1="468.29" y1="30.89" x2="468.29" y2="28.79" stroke="#7f7f7f" stroke-width="1.00" clip-path="url('#clipping-rect1')" />
		<line x1="474.62" y1="30.89" x2="474.62" y2="27.74" stroke="#7f7f7f" stroke-width="1.00" clip-path="url('#clipping-rect1')" />
		<line x1="480.95" y1="30.89" x2="480.95" y2="28.79" stroke="#7f7f7f" stroke-width="1.00" clip-path="url('#clipping-rect1')" />
		<line x1="487.28" y1="30.89" x2="487.28" y2="28.79" stroke="#7f7f7f" stroke-width="1.00" clip-path="url('#clipping-rect1')" />
		<line x1="493.61" y1="30.89" x2="493.61" y2="28.79" stroke="#7f7f7f" stroke-width="1.00" clip-path="url('#clipping-rect1')" />
		<line x1="499.93" y1="30.89" x2="499.93" y2="28.79" stroke="#7f7f7f" stroke-width="1.00" clip-path="url('#clipping-rect1')" />
		<line x1="506.26" y1="30.89" x2="506.26" y2="27.74" stroke="#7f7f7f" stroke-width="1.00" clip-path="url('#clipping-rect1')" />
		<line x1="512.59" y1="30.89" x2="512.59" y2="28.79" stroke="#7f7f7f" stroke-width="1.00" clip-path="url('#clipping-rect1')" />
		<line x1="518.92" y1="30.89" x2="518.92" y2="28.79" stroke="#7f7f7f" stroke-width="1.00" clip-path="url('#clipping-rect1')" />
		<line x1="525.25" y1="30.89" x2="525.25" y2="28.79" stroke="#7f7f7f" stroke-width="1.00" clip-path="url('#clipping-rect1')" />
		<line x1="531.58" y1="30.89" x2="531.58" y2="28.79" stroke="#7f7f7f" stroke-width="1.00" clip-path="url('#clipping-rect1')" />
		<line x1="537.91" y1="30.89" x2="537.91" y2="27.74" stroke="#7f7f7f" stroke-width="1.00" clip-path="url('#clipping-rect1')" />
		<line x1="544.23" y1="30.89" x2="544.23" y2="28.79" stroke="#7f7f7f" stroke-width="1.00" clip-path="url('#clipping-rect1')" />
		<line x1="550.56" y1="30.89" x2="550.56" y2="28.79" stroke="#7f7f7f" stroke-width="1.00" clip-path="url('#clipping-rect1')" />
		<line x1="556.89" y1="30.89" x2="556.89" y2="28.79" stroke="#7f7f7f" stroke-width="1.00" clip-path="url('#clipping-rect1')" />
		<line x1="563.22" y1="30.89" x2="563.22" y2="28.79" stroke="#7f7f7f" stroke-width="1.00" clip-path="url('#clipping-rect1')" />
		<line x1="569.55" y1="30.89" x2="569.55" y2="27.74" stroke="#7f7f7f" stroke-width="1.00" clip-path="url('#clipping-rect1')" />
		<line x1="575.88" y1="30.89" x2="575.88" y2="28.79" stroke="#7f7f7f" stroke-width="1.00" clip-path="url('#clipping-rect1')" />
		<line x1="582.20" y1="30.89" x2="582.20" y2="28.79" stroke="#7f7f7f" stroke-width="1.00" clip-path="url('#clipping-rect1')" />
		<line x1="588.53" y1="30.89" x2="588.53" y2="28.79" stroke="#7f7f7f" stroke-width="1.00" clip-path="url('#clipping-rect1')" />
		<line x1="594.86" y1="30.89" x2="594.86" y2="28.79" stroke="#7f7f7f" stroke-width="1.00" clip-path="url('#clipping-rect1')" />
		<line x1="601.19" y1="30.89" x2="601.19" y2="27.74" stroke="#7f7f7f" stroke-width="1.00" clip-path="url('#clipping-rect1')" />
		<line x1="607.52" y1="30.89" x2="607.52" y2="28.79" stroke="#7f7f7f" stroke-width="1.00" clip-path="url('#clipping-rect1')" />
		<line x1="613.85" y1="30.89" x2="613.85" y2="28.79" stroke="#7f7f7f" stroke-width="1.00" clip-path="url('#clipping-rect1')" />
		<line x1="620.18" y1="30.89" x2="620.18" y2="28.79" stroke="#7f7f7f" stroke-width="1.00" clip-path="url('#clipping-rect1')" />
		<line x1="626.50" y1="30.89" x2="626.50" y2="28.79" stroke="#7f7f7f" stroke-width="1.00" clip-path="url('#clipping-rect1')" />
		<line x1="632.83" y1="30.89" x2="632.83" y2="27.74" stroke="#7f7f7f" stroke-width="1.00" clip-path="url('#clipping-rect1')" />
		<line x1="639.16" y1="30.89" x2="639.16" y2="28.79" stroke="#7f7f7f" stroke-width="1.00" clip-path="url('#clipping-rect1')" />
		<line x1="645.49" y1="30.89" x2="645.49" y2="28.79" stroke="#7f7f7f" stroke-width="1.00" clip-path="url('#clipping-rect1')" />
		<line x1="651.82" y1="30.89" x2="651.82" y2="28.79" stroke="#7f7f7f" stroke-width="1.00" clip-path="url('#clipping-rect1')" />
		<line x1="658.15" y1="30.89" x2="658.15" y2="28.79" stroke="#7f7f7f" stroke-width="1.00" clip-path="url('#clipping-rect1')" />
		<line x1="664.48" y1="30.89" x2="664.48" y2="27.74" stroke="#7f7f7f" stroke-width="1.00" clip-path="url('#clipping-rect1')" />
		<line x1="670.80" y1="30.89" x2="670.80" y2="28.79" stroke="#7f7f7f" stroke-width="1.00" clip-path="url('#clipping-rect1')" />
		<line x1="677.13" y1="30.89" x2="677.13" y2="28.79" stroke="#7f7f7f" stroke-width="1.00" clip-path="url('#clipping-rect1')" />
		<line x1="683.46" y1="30.89" x2="683.46" y2="28.79" stroke="#7f7f7f" stroke-width="1.00" clip-path="url('#clipping-rect1')" />
		<line x1="689.79" y1="30.89" x2="689.79" y2="28.79" stroke="#7f7f7f" stroke-width="1.00" clip-path="url('#clipping-rect1')" />
		<line x1="696.12" y1="30.89" x2="696.12" y2="27.74" stroke="#7f7f7f" stroke-width="1.00" clip-path="url('#clipping-rect1')" />
		<line x1="702.45" y1="30.89" x2="702.45" y2="28.79" stroke="#7f7f7f" stroke-width="1.00" clip-path="url('#clipping-rect1')" />
		<line x1="708.77" y1="30.89" x2="708.77" y2="28.79" stroke="#7f7f7f" stroke-width="1.00" clip-path="url('#clipping-rect1')" />
		<line x1="715.10" y1="30.89" x2="715.10" y2="28.79" stroke="#7f7f7f" stroke-width="1.00" clip-path="url('#clipping-rect1')" />
		<line x1="721.43" y1="30.89" x2="721.43" y2="28.79" stroke="#7f7f7f" stroke-width="1.00" clip-path="url('#clipping-rect1')" />
		<line x1="727.76" y1="30.89" x2="727.76" y2="27.74" stroke="#7f7f7f" stroke-width="1.00" clip-path="url('#clipping-rect1')" />
		<line x1="734.09" y1="30.89" x2="734.09" y2="28.79" stroke="#7f7f7f" stroke-width="1.00" clip-path="url('#clipping-rect1')" />
		<line x1="740.42" y1="30.89" x2="740.42" y2="28.79" stroke="#7f7f7f" stroke-width="1.00" clip-path="url('#clipping-rect1')" />
		<line x1="746.75" y1="30.89" x2="746.75" y2="28.79" stroke="#7f7f7f" stroke-width="1.00" clip-path="url('#clipping-rect1')" />
		<line x1="753.07" y1="30.89" x2="753.07" y2="28.79" stroke="#7f7f7f" stroke-width="1.00" clip-path="url('#clipping-rect1')" />
		<line x1="759.40" y1="30.89" x2="759.40" y2="27.74" stroke="#7f7f7f" stroke-width="1.00" clip-path="url('#clipping-rect1')" />
		<line x1="765.73" y1="30.89" x2="765.73" y2="28.79" stroke="#7f7f7f" stroke-width="1.00" clip-path="url('#clipping-rect1')" />
		<line x1="772.06" y1="30.89" x2="772.06" y2="28.79" stroke="#7f7f7f" stroke-width="1.00" clip-path="url('#clipping-rect1')" />
		<line x1="778.39" y1="30.89" x2="778.39" y2="28.79" stroke="#7f7f7f" stroke-width="1.00" clip-path="url('#clipping-rect1')" />
		<line x1="784.72" y1="30.89" x2="784.72" y2="28.79" stroke="#7f7f7f" stroke-width="1.00" clip-path="url('#clipping-rect1')" />
		<line x1="791.04" y1="30.89" x2="791.04" y2="27.74" stroke="#7f7f7f" stroke-width="1.00" clip-path="url('#clipping-rect1')" />
		<line x1="797.37" y1="30.89" x2="797.37" y2="28.79" stroke="#7f7f7f" stroke-width="1.00" clip-path="url('#clipping-rect1')" />
		<line x1="803.70" y1="30.89" x2="803.70" y2="28.79" stroke="#7f7f7f" stroke-width="1.00" clip-path="url('#clipping-rect1')" />
		<line x1="810.03" y1="30.89" x2="810.03" y2="28.79" stroke="#7f7f7f" stroke-width="1.00" clip-path="url('#clipping-rect1')" />
		<line x1="816.36" y1="30.89" x2="816.36" y2="28.79" stroke="#7f7f7f" stroke-width="1.00" clip-path="url('#clipping-rect1')" />
		<line x1="822.69" y1="30.89" x2="822.69" y2="27.74" stroke="#7f7f7f" stroke-width="1.00" clip-path="url('#clipping-rect1')" />
		<line x1="829.02" y1="30.89" x2="829.02" y2="28.79" stroke="#7f7f7f" stroke-width="1.00" clip-path="url('#clipping-rect1')" />
		<line x1="835.34" y1="30.89" x2="835.34" y2="28.79" stroke="#7f7f7f" stroke-width="1.00" clip-path="url('#clipping-rect1')" />
		<line x1="841.67" y1="30.89" x2="841.67" y2="28.79" stroke="#7f7f7f" stroke-width="1.00" clip-path="url('#clipping-rect1')" />
		<line x1="848.00" y1="30.89" x2="848.00" y2="28.79" stroke="#7f7f7f" stroke-width="1.00" clip-path="url('#clipping-rect1')" />
		<line x1="854.33" y1="30.89" x2="854.33" y2="27.74" stroke="#7f7f7f" stroke-width="1.00" clip-path="url('#clipping-rect1')" />
		<line x1="860.66" y1="30.89" x2="860.66" y2="28.79" stroke="#7f7f7f" stroke-width="1.00" clip-path="url('#clipping-rect1')" />
		<line x1="866.99" y1="30.89" x2="866.99" y2="28.79" stroke="#7f7f7f" stroke-width="1.00" clip-path="url('#clipping-rect1')" />
		<line x1="873.32" y1="30.89" x2="873.32" y2="28.79" stroke="#7f7f7f" stroke-width="1.00" clip-path="url('#clipping-rect1')" />
		<line x1="879.64" y1="30.89" x2="879.64" y2="28.79" stroke="#7f7f7f" stroke-width="1.00" clip-path="url('#clipping-rect1')" />
		<line x1="885.97" y1="30.89" x2="885.97" y2="27.74" stroke="#7f7f7f" stroke-width="1.00" clip-path="url('#clipping-rect1')" />
		<text x="0.02" y="25.63" font-family="Helvetica" font-size="12" fill="#333333" clip-path="url('#clipping-rect1')" >1</text>
		<line x1="0.02" y1="33.00" x2="0.02" y2="15.11" stroke="#7f7f7f" stroke-width="1.00" clip-path="url('#clipping-rect1')" />
		<line x1="885.97" y1="33.00" x2="885.97" y2="15.11" stroke="#7f7f7f" stroke-width="1.00" clip-path="url('#clipping-rect1')" />
		<text x="824.69" y="25.63" font-family="Helvetica" font-size="12" fill="#333333" clip-path="url('#clipping-rect1')" >26 K</text>
		<line x1="822.69" y1="33.00" x2="822.69" y2="15.11" stroke="#7f7f7f" stroke-width="1.00" clip-path="url('#clipping-rect1')" />
		<text x="761.40" y="25.63" font-family="Helvetica" font-size="12" fill="#333333" clip-path="url('#clipping-rect1')" >24 K</text>
		<line x1="759.40" y1="33.00" x2="759.40" y2="15.11" stroke="#7f7f7f" stroke-width="1.00" clip-path="url('#clipping-rect1')" />
		<text x="698.12" y="25.63" font-family="Helvetica" font-size="12" fill="#333333" clip-path="url('#clipping-rect1')" >22 K</text>
		<line x1="696.12" y1="33.00" x2="696.12" y2="15.11" stroke="#7f7f7f" stroke-width="1.00" clip-path="url('#clipping-rect1')" />
		<text x="634.83" y="25.63" font-family="Helvetica" font-size="12" fill="#333333" clip-path="url('#clipping-rect1')" >20 K</text>
		<line x1="632.83" y1="33.00" x2="632.83" y2="15.11" stroke="#7f7f7f" stroke-width="1.00" clip-path="url('#clipping-rect1')" />
		<text x="571.55" y="25.63" font-family="Helvetica" font-size="12" fill="#333333" clip-path="url('#clipping-rect1')" >18 K</text>
		<line x1="569.55" y1="33.00" x2="569.55" y2="15.11" stroke="#7f7f7f" stroke-width="1.00" clip-path="url('#clipping-rect1')" />
		<text x="508.26" y="25.63" font-family="Helvetica" font-size="12" fill="#333333" clip-path="url('#clipping-rect1')" >16 K</text>
		<line x1="506.26" y1="33.00" x2="506.26" y2="15.11" stroke="#7f7f7f" stroke-width="1.00" clip-path="url('#clipping-rect1')" />
		<text x="444.98" y="25.63" font-family="Helvetica" font-size="12" fill="#333333" clip-path="url('#clipping-rect1')" >14 K</text>
		<line x1="442.98" y1="33.00" x2="442.98" y2="15.11" stroke="#7f7f7f" stroke-width="1.00" clip-path="url('#clipping-rect1')" />
		<text x="381.69" y="25.63" font-family="Helvetica" font-size="12" fill="#333333" clip-path="url('#clipping-rect1')" >12 K</text>
		<line x1="379.69" y1="33.00" x2="379.69" y2="15.11" stroke="#7f7f7f" stroke-width="1.00" clip-path="url('#clipping-rect1')" />
		<text x="318.41" y="25.63" font-family="Helvetica" font-size="12" fill="#333333" clip-path="url('#clipping-rect1')" >10 K</text>
		<line x1="316.41" y1="33.00" x2="316.41" y2="15.11" stroke="#7f7f7f" stroke-width="1.00" clip-path="url('#clipping-rect1')" />
		<text x="255.12" y="25.63" font-family="Helvetica" font-size="12" fill="#333333" clip-path="url('#clipping-rect1')" >8 K</text>
		<line x1="253.12" y1="33.00" x2="253.12" y2="15.11" stroke="#7f7f7f" stroke-width="1.00" clip-path="url('#clipping-rect1')" />
		<text x="191.84" y="25.63" font-family="Helvetica" font-size="12" fill="#333333" clip-path="url('#clipping-rect1')" >6 K</text>
		<line x1="189.84" y1="33.00" x2="189.84" y2="15.11" stroke="#7f7f7f" stroke-width="1.00" clip-path="url('#clipping-rect1')" />
		<text x="128.55" y="25.63" font-family="Helvetica" font-size="12" fill="#333333" clip-path="url('#clipping-rect1')" >4 K</text>
		<line x1="126.55" y1="33.00" x2="126.55" y2="15.11" stroke="#7f7f7f" stroke-width="1.00" clip-path="url('#clipping-rect1')" />
		<text x="65.27" y="25.63" font-family="Helvetica" font-size="12" fill="#333333" clip-path="url('#clipping-rect1')" >2 K</text>
		<line x1="63.27" y1="33.00" x2="63.27" y2="15.11" stroke="#7f7f7f" stroke-width="1.00" clip-path="url('#clipping-rect1')" />
		<line x1="0.00" y1="88.00" x2="0.00" y2="33.00" stroke="#ebebeb" stroke-width="1.00" />
		<line x1="63.07" y1="88.00" x2="63.07" y2="33.00" stroke="#ebebeb" stroke-width="1.00" />
		<line x1="126.14" y1="88.00" x2="126.14" y2="33.00" stroke="#ebebeb" stroke-width="1.00" />
		<line x1="189.21" y1="88.00" x2="189.21" y2="33.00" stroke="#ebebeb" stroke-width="1.00" />
		<line x1="253.28" y1="88.00" x2="253.28" y2="33.00" stroke="#ebebeb" stroke-width="1.00" />
		<line x1="316.35" y1="88.00" x2="316.35" y2="33.00" stroke="#ebebeb" stroke-width="1.00" />
		<line x1="379.43" y1="88.00" x2="379.43" y2="33.00" stroke="#ebebeb" stroke-width="1.00" />
		<line x1="442.50" y1="88.00" x2="442.50" y2="33.00" stroke="#ebebeb" stroke-width="1.00" />
		<line x1="506.57" y1="88.00" x2="506.57" y2="33.00" stroke="#ebebeb" stroke-width="1.00" />
		<line x1="569.64" y1="88.00" x2="569.64" y2="33.00" stroke="#ebebeb" stroke-width="1.00" />
		<line x1="632.71" y1="88.00" x2="632.71" y2="33.00" stroke="#ebebeb" stroke-width="1.00" />
		<line x1="696.78" y1="88.00" x2="696.78" y2="33.00" stroke="#ebebeb" stroke-width="1.00" />
		<line x1="759.85" y1="88.00" x2="759.85" y2="33.00" stroke="#ebebeb" stroke-width="1.00" />
		<line x1="822.92" y1="88.00" x2="822.92" y2="33.00" stroke="#ebebeb" stroke-width="1.00" />
		<line x1="885.99" y1="88.00" x2="885.99" y2="33.00" stroke="#ebebeb" stroke-width="1.00" />
		<polygon fill="url('#gradient1')" shape-rendering="crispEdges" points="892.00,40.00 892.00,35.00 0.00,35.00 0.00,40.00 0.00,45.00 892.00,45.00 " />
		<line x1="0.00" y1="45.00" x2="0.00" y2="35.00" stroke="#6c6c6c" stroke-width="1.00" stroke-linejoin="round" />
		<line x1="0.00" y1="35.00" x2="892.00" y2="35.00" stroke="#6c6c6c" stroke-width="1.00" stroke-linejoin="round" />
		<line x1="892.00" y1="35.00" x2="892.00" y2="45.00" stroke="#6c6c6c" stroke-width="1.00" stroke-linejoin="round" />
		<line x1="0.00" y1="45.00" x2="892.00" y2="45.00" stroke="#6c6c6c" stroke-width="1.00" stroke-linejoin="round" />
		<polygon fill="url('#gradient2')" shape-rendering="crispEdges" points="892.00,39.50 892.00,46.00 0.00,46.00 0.00,39.50 0.00,33.00 892.00,33.00 " />
		<polygon fill="url('#gradient3')" shape-rendering="crispEdges" points="381.72,76.40 381.72,82.40 25.68,82.40 25.68,76.40 25.68,70.40 381.72,70.40 " />
		<polygon fill="url('#gradient3')" shape-rendering="crispEdges" points="381.72,76.40 381.72,84.80 390.12,76.40 381.72,68.00 " />
		<polygon fill="#8ab698" shape-rendering="crispEdges" points="25.68,76.40 25.68,70.40 17.28,70.40 " />
		<polygon fill="#8ab698" shape-rendering="crispEdges" points="25.68,76.40 25.68,82.40 17.28,82.40 " />
		<line x1="17.28" y1="70.40" x2="25.68" y2="70.40" stroke="#166e32" stroke-width="1.50" />
		<line x1="17.28" y1="70.40" x2="25.68" y2="76.40" stroke="#166e32" stroke-width="1.50" />
		<line x1="17.28" y1="82.40" x2="25.68" y2="82.40" stroke="#166e32" stroke-width="1.50" />
		<line x1="17.28" y1="82.40" x2="25.68" y2="76.40" stroke="#166e32" stroke-width="1.50" />
		<polygon fill="#ffffff" shape-rendering="crispEdges" points="58.50,76.40 48.90,71.60 51.30,76.40 48.90,81.20 " />
		<polygon fill="#e0e0e0" shape-rendering="crispEdges" points="158.50,76.40 148.90,71.60 151.30,76.40 148.90,81.20 " />
		<polygon fill="#c1c1c1" shape-rendering="crispEdges" points="258.50,76.40 248.90,71.60 251.30,76.40 248.90,81.20 " />
		<polygon fill="#ffffff" shape-rendering="crispEdges" points="358.50,76.40 348.90,71.60 351.30,76.40 348.90,81.20 " />
		<polygon fill="url('#gradient4')" shape-rendering="crispEdges" points="0.00,62.00 892.03,62.00 892.03,47.00 0.00,47.00 " clip-path="url('#clipping-rect2')" />
		<text x="0.00" y="58.00" font-family="Helvetica" font-size="14" fill="#333333" >Genes, NCBI Phalacrocorax carbo Annotation Release 100, 2014-10-08</text>
		<polygon fill="#e5e5e5" shape-rendering="crispEdges" points="892.00,13.00 892.00,-1.00 0.00,-1.00 0.00,13.00 " />
		<text x="0.00" y="10.00" font-family="Helvetica Bold" font-size="12" text-anchor="start" fill="#000000" >NW_009147184.1:0..28190 Phalacrocorax carbo isolate BGI_N336 unplaced genomic scaffold, ASM70892v1 scaffold17464, whole genome shotgun sequence</text>
	</g>
</svg>
